<svg xmlns="http://www.w3.org/2000/svg" xmlns:xlink="http://www.w3.org/1999/xlink" width="600" zoomAndPan="magnify" viewBox="0 0 450 149.999998" height="200" preserveAspectRatio="xMidYMid meet" version="1.0"><defs><g/><clipPath id="36f6c58228"><path d="M 0 0 L 449.996094 0 L 449.996094 150 L 0 150 Z M 0 0 " clip-rule="nonzero"/></clipPath><clipPath id="10b9256047"><path d="M 18.75 -0.601562 L 431.25 -0.601562 C 441.605469 -0.601562 450 7.792969 450 18.148438 L 450 131.851562 C 450 142.207031 441.605469 150.601562 431.25 150.601562 L 18.75 150.601562 C 8.394531 150.601562 0 142.207031 0 131.851562 L 0 18.148438 C 0 7.792969 8.394531 -0.601562 18.75 -0.601562 Z M 18.75 -0.601562 " clip-rule="nonzero"/></clipPath><linearGradient x1="126.987415" gradientTransform="matrix(0.590625, 0, 0, 0.590625, -0.00425002, -0.600004)" y1="-125.964582" x2="634.921202" gradientUnits="userSpaceOnUse" y2="381.968193" id="4284646df0"><stop stop-opacity="1" stop-color="rgb(86.605835%, 83.430481%, 78.72467%)" offset="0"/><stop stop-opacity="1" stop-color="rgb(86.244202%, 83.1604%, 78.434753%)" offset="0.00390625"/><stop stop-opacity="1" stop-color="rgb(85.884094%, 82.891846%, 78.144836%)" offset="0.0078125"/><stop stop-opacity="1" stop-color="rgb(85.522461%, 82.621765%, 77.854919%)" offset="0.0117188"/><stop stop-opacity="1" stop-color="rgb(85.162354%, 82.35321%, 77.565002%)" offset="0.015625"/><stop stop-opacity="1" stop-color="rgb(84.80072%, 82.084656%, 77.27356%)" offset="0.0195313"/><stop stop-opacity="1" stop-color="rgb(84.440613%, 81.816101%, 76.983643%)" offset="0.0234375"/><stop stop-opacity="1" stop-color="rgb(84.078979%, 81.546021%, 76.693726%)" offset="0.0273438"/><stop stop-opacity="1" stop-color="rgb(83.718872%, 81.277466%, 76.403809%)" offset="0.03125"/><stop stop-opacity="1" stop-color="rgb(83.357239%, 81.008911%, 76.113892%)" offset="0.0351563"/><stop stop-opacity="1" stop-color="rgb(82.995605%, 80.740356%, 75.823975%)" offset="0.0390625"/><stop stop-opacity="1" stop-color="rgb(82.633972%, 80.470276%, 75.534058%)" offset="0.0429688"/><stop stop-opacity="1" stop-color="rgb(82.273865%, 80.201721%, 75.244141%)" offset="0.046875"/><stop stop-opacity="1" stop-color="rgb(81.912231%, 79.933167%, 74.954224%)" offset="0.0507813"/><stop stop-opacity="1" stop-color="rgb(81.552124%, 79.664612%, 74.664307%)" offset="0.0546875"/><stop stop-opacity="1" stop-color="rgb(81.190491%, 79.394531%, 74.37439%)" offset="0.0585938"/><stop stop-opacity="1" stop-color="rgb(80.830383%, 79.125977%, 74.084473%)" offset="0.0625"/><stop stop-opacity="1" stop-color="rgb(80.46875%, 78.855896%, 73.79303%)" offset="0.0664063"/><stop stop-opacity="1" stop-color="rgb(80.108643%, 78.587341%, 73.503113%)" offset="0.0703125"/><stop stop-opacity="1" stop-color="rgb(79.747009%, 78.318787%, 73.213196%)" offset="0.0742188"/><stop stop-opacity="1" stop-color="rgb(79.386902%, 78.050232%, 72.923279%)" offset="0.078125"/><stop stop-opacity="1" stop-color="rgb(79.025269%, 77.780151%, 72.633362%)" offset="0.0820313"/><stop stop-opacity="1" stop-color="rgb(78.663635%, 77.511597%, 72.343445%)" offset="0.0859375"/><stop stop-opacity="1" stop-color="rgb(78.302002%, 77.243042%, 72.053528%)" offset="0.0898438"/><stop stop-opacity="1" stop-color="rgb(77.941895%, 76.974487%, 71.763611%)" offset="0.09375"/><stop stop-opacity="1" stop-color="rgb(77.580261%, 76.704407%, 71.473694%)" offset="0.0976563"/><stop stop-opacity="1" stop-color="rgb(77.220154%, 76.435852%, 71.183777%)" offset="0.101563"/><stop stop-opacity="1" stop-color="rgb(76.858521%, 76.167297%, 70.89386%)" offset="0.105469"/><stop stop-opacity="1" stop-color="rgb(76.498413%, 75.898743%, 70.603943%)" offset="0.109375"/><stop stop-opacity="1" stop-color="rgb(76.13678%, 75.628662%, 70.3125%)" offset="0.113281"/><stop stop-opacity="1" stop-color="rgb(75.776672%, 75.360107%, 70.022583%)" offset="0.117188"/><stop stop-opacity="1" stop-color="rgb(75.415039%, 75.090027%, 69.732666%)" offset="0.121094"/><stop stop-opacity="1" stop-color="rgb(75.054932%, 74.821472%, 69.442749%)" offset="0.125"/><stop stop-opacity="1" stop-color="rgb(74.693298%, 74.552917%, 69.152832%)" offset="0.128906"/><stop stop-opacity="1" stop-color="rgb(74.331665%, 74.284363%, 68.862915%)" offset="0.132812"/><stop stop-opacity="1" stop-color="rgb(73.970032%, 74.014282%, 68.572998%)" offset="0.136719"/><stop stop-opacity="1" stop-color="rgb(73.609924%, 73.745728%, 68.283081%)" offset="0.140625"/><stop stop-opacity="1" stop-color="rgb(73.248291%, 73.477173%, 67.993164%)" offset="0.144531"/><stop stop-opacity="1" stop-color="rgb(72.888184%, 73.208618%, 67.703247%)" offset="0.148438"/><stop stop-opacity="1" stop-color="rgb(72.52655%, 72.938538%, 67.41333%)" offset="0.152344"/><stop stop-opacity="1" stop-color="rgb(72.166443%, 72.669983%, 67.123413%)" offset="0.15625"/><stop stop-opacity="1" stop-color="rgb(71.80481%, 72.401428%, 66.83197%)" offset="0.160156"/><stop stop-opacity="1" stop-color="rgb(71.444702%, 72.132874%, 66.542053%)" offset="0.164062"/><stop stop-opacity="1" stop-color="rgb(71.083069%, 71.862793%, 66.252136%)" offset="0.167969"/><stop stop-opacity="1" stop-color="rgb(70.722961%, 71.594238%, 65.962219%)" offset="0.171875"/><stop stop-opacity="1" stop-color="rgb(70.361328%, 71.324158%, 65.672302%)" offset="0.175781"/><stop stop-opacity="1" stop-color="rgb(69.999695%, 71.055603%, 65.382385%)" offset="0.179688"/><stop stop-opacity="1" stop-color="rgb(69.638062%, 70.787048%, 65.092468%)" offset="0.183594"/><stop stop-opacity="1" stop-color="rgb(69.277954%, 70.518494%, 64.802551%)" offset="0.1875"/><stop stop-opacity="1" stop-color="rgb(68.916321%, 70.248413%, 64.512634%)" offset="0.191406"/><stop stop-opacity="1" stop-color="rgb(68.556213%, 69.979858%, 64.222717%)" offset="0.195312"/><stop stop-opacity="1" stop-color="rgb(68.19458%, 69.711304%, 63.9328%)" offset="0.199219"/><stop stop-opacity="1" stop-color="rgb(67.834473%, 69.442749%, 63.642883%)" offset="0.203125"/><stop stop-opacity="1" stop-color="rgb(67.472839%, 69.172668%, 63.35144%)" offset="0.207031"/><stop stop-opacity="1" stop-color="rgb(67.112732%, 68.904114%, 63.061523%)" offset="0.210938"/><stop stop-opacity="1" stop-color="rgb(66.751099%, 68.635559%, 62.771606%)" offset="0.214844"/><stop stop-opacity="1" stop-color="rgb(66.390991%, 68.367004%, 62.481689%)" offset="0.21875"/><stop stop-opacity="1" stop-color="rgb(66.029358%, 68.096924%, 62.191772%)" offset="0.222656"/><stop stop-opacity="1" stop-color="rgb(65.66925%, 67.828369%, 61.901855%)" offset="0.226562"/><stop stop-opacity="1" stop-color="rgb(65.307617%, 67.558289%, 61.611938%)" offset="0.230469"/><stop stop-opacity="1" stop-color="rgb(64.945984%, 67.289734%, 61.322021%)" offset="0.234375"/><stop stop-opacity="1" stop-color="rgb(64.584351%, 67.021179%, 61.032104%)" offset="0.238281"/><stop stop-opacity="1" stop-color="rgb(64.224243%, 66.752625%, 60.742188%)" offset="0.242188"/><stop stop-opacity="1" stop-color="rgb(63.86261%, 66.482544%, 60.452271%)" offset="0.246094"/><stop stop-opacity="1" stop-color="rgb(63.502502%, 66.213989%, 60.162354%)" offset="0.25"/><stop stop-opacity="1" stop-color="rgb(63.140869%, 65.945435%, 59.870911%)" offset="0.253906"/><stop stop-opacity="1" stop-color="rgb(62.780762%, 65.67688%, 59.580994%)" offset="0.257813"/><stop stop-opacity="1" stop-color="rgb(62.419128%, 65.406799%, 59.291077%)" offset="0.261719"/><stop stop-opacity="1" stop-color="rgb(62.059021%, 65.138245%, 59.00116%)" offset="0.265625"/><stop stop-opacity="1" stop-color="rgb(61.697388%, 64.86969%, 58.711243%)" offset="0.269531"/><stop stop-opacity="1" stop-color="rgb(61.33728%, 64.601135%, 58.421326%)" offset="0.273438"/><stop stop-opacity="1" stop-color="rgb(60.975647%, 64.331055%, 58.131409%)" offset="0.277344"/><stop stop-opacity="1" stop-color="rgb(60.614014%, 64.0625%, 57.841492%)" offset="0.28125"/><stop stop-opacity="1" stop-color="rgb(60.25238%, 63.792419%, 57.551575%)" offset="0.285156"/><stop stop-opacity="1" stop-color="rgb(59.892273%, 63.523865%, 57.261658%)" offset="0.289062"/><stop stop-opacity="1" stop-color="rgb(59.53064%, 63.25531%, 56.971741%)" offset="0.292969"/><stop stop-opacity="1" stop-color="rgb(59.170532%, 62.986755%, 56.681824%)" offset="0.296875"/><stop stop-opacity="1" stop-color="rgb(58.808899%, 62.716675%, 56.390381%)" offset="0.300781"/><stop stop-opacity="1" stop-color="rgb(58.448792%, 62.44812%, 56.100464%)" offset="0.304688"/><stop stop-opacity="1" stop-color="rgb(58.087158%, 62.179565%, 55.810547%)" offset="0.308594"/><stop stop-opacity="1" stop-color="rgb(57.727051%, 61.911011%, 55.52063%)" offset="0.3125"/><stop stop-opacity="1" stop-color="rgb(57.365417%, 61.64093%, 55.230713%)" offset="0.316406"/><stop stop-opacity="1" stop-color="rgb(57.00531%, 61.372375%, 54.940796%)" offset="0.320312"/><stop stop-opacity="1" stop-color="rgb(56.643677%, 61.103821%, 54.650879%)" offset="0.324219"/><stop stop-opacity="1" stop-color="rgb(56.282043%, 60.835266%, 54.360962%)" offset="0.328125"/><stop stop-opacity="1" stop-color="rgb(55.92041%, 60.565186%, 54.071045%)" offset="0.332031"/><stop stop-opacity="1" stop-color="rgb(55.560303%, 60.296631%, 53.781128%)" offset="0.335938"/><stop stop-opacity="1" stop-color="rgb(55.198669%, 60.02655%, 53.491211%)" offset="0.339844"/><stop stop-opacity="1" stop-color="rgb(54.838562%, 59.757996%, 53.201294%)" offset="0.34375"/><stop stop-opacity="1" stop-color="rgb(54.476929%, 59.489441%, 52.909851%)" offset="0.347656"/><stop stop-opacity="1" stop-color="rgb(54.116821%, 59.220886%, 52.619934%)" offset="0.351563"/><stop stop-opacity="1" stop-color="rgb(53.755188%, 58.950806%, 52.330017%)" offset="0.355469"/><stop stop-opacity="1" stop-color="rgb(53.395081%, 58.682251%, 52.0401%)" offset="0.359375"/><stop stop-opacity="1" stop-color="rgb(53.033447%, 58.413696%, 51.750183%)" offset="0.363281"/><stop stop-opacity="1" stop-color="rgb(52.67334%, 58.145142%, 51.460266%)" offset="0.367188"/><stop stop-opacity="1" stop-color="rgb(52.311707%, 57.875061%, 51.170349%)" offset="0.371094"/><stop stop-opacity="1" stop-color="rgb(51.950073%, 57.606506%, 50.880432%)" offset="0.375"/><stop stop-opacity="1" stop-color="rgb(51.58844%, 57.337952%, 50.590515%)" offset="0.378906"/><stop stop-opacity="1" stop-color="rgb(51.228333%, 57.069397%, 50.300598%)" offset="0.382812"/><stop stop-opacity="1" stop-color="rgb(50.866699%, 56.799316%, 50.010681%)" offset="0.386719"/><stop stop-opacity="1" stop-color="rgb(50.506592%, 56.530762%, 49.720764%)" offset="0.390625"/><stop stop-opacity="1" stop-color="rgb(50.144958%, 56.260681%, 49.429321%)" offset="0.394531"/><stop stop-opacity="1" stop-color="rgb(49.784851%, 55.992126%, 49.139404%)" offset="0.398438"/><stop stop-opacity="1" stop-color="rgb(49.423218%, 55.723572%, 48.849487%)" offset="0.402344"/><stop stop-opacity="1" stop-color="rgb(49.06311%, 55.455017%, 48.55957%)" offset="0.40625"/><stop stop-opacity="1" stop-color="rgb(48.701477%, 55.184937%, 48.269653%)" offset="0.410156"/><stop stop-opacity="1" stop-color="rgb(48.34137%, 54.916382%, 47.979736%)" offset="0.414063"/><stop stop-opacity="1" stop-color="rgb(47.979736%, 54.647827%, 47.689819%)" offset="0.417969"/><stop stop-opacity="1" stop-color="rgb(47.618103%, 54.379272%, 47.399902%)" offset="0.421875"/><stop stop-opacity="1" stop-color="rgb(47.25647%, 54.109192%, 47.109985%)" offset="0.425781"/><stop stop-opacity="1" stop-color="rgb(46.896362%, 53.840637%, 46.820068%)" offset="0.429688"/><stop stop-opacity="1" stop-color="rgb(46.534729%, 53.572083%, 46.530151%)" offset="0.433594"/><stop stop-opacity="1" stop-color="rgb(46.174622%, 53.303528%, 46.240234%)" offset="0.4375"/><stop stop-opacity="1" stop-color="rgb(45.812988%, 53.033447%, 45.948792%)" offset="0.441406"/><stop stop-opacity="1" stop-color="rgb(45.452881%, 52.764893%, 45.658875%)" offset="0.445312"/><stop stop-opacity="1" stop-color="rgb(45.091248%, 52.494812%, 45.368958%)" offset="0.449219"/><stop stop-opacity="1" stop-color="rgb(44.73114%, 52.226257%, 45.079041%)" offset="0.453125"/><stop stop-opacity="1" stop-color="rgb(44.369507%, 51.957703%, 44.789124%)" offset="0.457031"/><stop stop-opacity="1" stop-color="rgb(44.009399%, 51.689148%, 44.499207%)" offset="0.460937"/><stop stop-opacity="1" stop-color="rgb(43.647766%, 51.419067%, 44.20929%)" offset="0.464844"/><stop stop-opacity="1" stop-color="rgb(43.286133%, 51.150513%, 43.919373%)" offset="0.46875"/><stop stop-opacity="1" stop-color="rgb(42.9245%, 50.881958%, 43.629456%)" offset="0.472656"/><stop stop-opacity="1" stop-color="rgb(42.564392%, 50.613403%, 43.339539%)" offset="0.476563"/><stop stop-opacity="1" stop-color="rgb(42.202759%, 50.343323%, 43.049622%)" offset="0.480469"/><stop stop-opacity="1" stop-color="rgb(41.842651%, 50.074768%, 42.759705%)" offset="0.484375"/><stop stop-opacity="1" stop-color="rgb(41.481018%, 49.806213%, 42.468262%)" offset="0.488281"/><stop stop-opacity="1" stop-color="rgb(41.120911%, 49.537659%, 42.178345%)" offset="0.492188"/><stop stop-opacity="1" stop-color="rgb(40.759277%, 49.267578%, 41.888428%)" offset="0.496094"/><stop stop-opacity="1" stop-color="rgb(40.39917%, 48.999023%, 41.598511%)" offset="0.5"/><stop stop-opacity="1" stop-color="rgb(40.280151%, 48.869324%, 41.506958%)" offset="0.507812"/><stop stop-opacity="1" stop-color="rgb(40.040588%, 48.612976%, 41.322327%)" offset="0.515625"/><stop stop-opacity="1" stop-color="rgb(39.802551%, 48.355103%, 41.139221%)" offset="0.523438"/><stop stop-opacity="1" stop-color="rgb(39.564514%, 48.098755%, 40.95459%)" offset="0.53125"/><stop stop-opacity="1" stop-color="rgb(39.324951%, 47.840881%, 40.769958%)" offset="0.539062"/><stop stop-opacity="1" stop-color="rgb(39.086914%, 47.583008%, 40.586853%)" offset="0.546875"/><stop stop-opacity="1" stop-color="rgb(38.847351%, 47.32666%, 40.402222%)" offset="0.554688"/><stop stop-opacity="1" stop-color="rgb(38.609314%, 47.068787%, 40.219116%)" offset="0.5625"/><stop stop-opacity="1" stop-color="rgb(38.371277%, 46.810913%, 40.034485%)" offset="0.570312"/><stop stop-opacity="1" stop-color="rgb(38.131714%, 46.554565%, 39.851379%)" offset="0.578125"/><stop stop-opacity="1" stop-color="rgb(37.893677%, 46.296692%, 39.666748%)" offset="0.585938"/><stop stop-opacity="1" stop-color="rgb(37.65564%, 46.040344%, 39.482117%)" offset="0.59375"/><stop stop-opacity="1" stop-color="rgb(37.416077%, 45.782471%, 39.299011%)" offset="0.601562"/><stop stop-opacity="1" stop-color="rgb(37.17804%, 45.524597%, 39.11438%)" offset="0.609375"/><stop stop-opacity="1" stop-color="rgb(36.940002%, 45.26825%, 38.931274%)" offset="0.617188"/><stop stop-opacity="1" stop-color="rgb(36.700439%, 45.010376%, 38.746643%)" offset="0.625"/><stop stop-opacity="1" stop-color="rgb(36.462402%, 44.752502%, 38.562012%)" offset="0.632813"/><stop stop-opacity="1" stop-color="rgb(36.224365%, 44.496155%, 38.378906%)" offset="0.640625"/><stop stop-opacity="1" stop-color="rgb(35.984802%, 44.238281%, 38.194275%)" offset="0.648438"/><stop stop-opacity="1" stop-color="rgb(35.746765%, 43.981934%, 38.011169%)" offset="0.65625"/><stop stop-opacity="1" stop-color="rgb(35.507202%, 43.72406%, 37.826538%)" offset="0.664062"/><stop stop-opacity="1" stop-color="rgb(35.269165%, 43.466187%, 37.641907%)" offset="0.671875"/><stop stop-opacity="1" stop-color="rgb(35.031128%, 43.209839%, 37.458801%)" offset="0.679688"/><stop stop-opacity="1" stop-color="rgb(34.791565%, 42.951965%, 37.27417%)" offset="0.6875"/><stop stop-opacity="1" stop-color="rgb(34.553528%, 42.695618%, 37.091064%)" offset="0.695312"/><stop stop-opacity="1" stop-color="rgb(34.315491%, 42.437744%, 36.906433%)" offset="0.703125"/><stop stop-opacity="1" stop-color="rgb(34.075928%, 42.179871%, 36.721802%)" offset="0.710938"/><stop stop-opacity="1" stop-color="rgb(33.837891%, 41.923523%, 36.538696%)" offset="0.71875"/><stop stop-opacity="1" stop-color="rgb(33.599854%, 41.665649%, 36.354065%)" offset="0.726563"/><stop stop-opacity="1" stop-color="rgb(33.360291%, 41.407776%, 36.170959%)" offset="0.734375"/><stop stop-opacity="1" stop-color="rgb(33.122253%, 41.151428%, 35.986328%)" offset="0.742188"/><stop stop-opacity="1" stop-color="rgb(32.884216%, 40.893555%, 35.803223%)" offset="0.749999"/><stop stop-opacity="1" stop-color="rgb(32.765198%, 40.765381%, 35.71167%)" offset="0.75"/><stop stop-opacity="1" stop-color="rgb(32.644653%, 40.637207%, 35.618591%)" offset="0.757812"/><stop stop-opacity="1" stop-color="rgb(32.406616%, 40.379333%, 35.43396%)" offset="0.765625"/><stop stop-opacity="1" stop-color="rgb(32.167053%, 40.12146%, 35.250854%)" offset="0.773438"/><stop stop-opacity="1" stop-color="rgb(31.929016%, 39.865112%, 35.066223%)" offset="0.78125"/><stop stop-opacity="1" stop-color="rgb(31.690979%, 39.607239%, 34.883118%)" offset="0.789062"/><stop stop-opacity="1" stop-color="rgb(31.451416%, 39.349365%, 34.698486%)" offset="0.796875"/><stop stop-opacity="1" stop-color="rgb(31.213379%, 39.093018%, 34.513855%)" offset="0.804688"/><stop stop-opacity="1" stop-color="rgb(30.975342%, 38.835144%, 34.33075%)" offset="0.8125"/><stop stop-opacity="1" stop-color="rgb(30.735779%, 38.578796%, 34.146118%)" offset="0.820312"/><stop stop-opacity="1" stop-color="rgb(30.497742%, 38.320923%, 33.963013%)" offset="0.828125"/><stop stop-opacity="1" stop-color="rgb(30.259705%, 38.063049%, 33.778381%)" offset="0.835938"/><stop stop-opacity="1" stop-color="rgb(30.020142%, 37.806702%, 33.59375%)" offset="0.84375"/><stop stop-opacity="1" stop-color="rgb(29.782104%, 37.548828%, 33.410645%)" offset="0.851563"/><stop stop-opacity="1" stop-color="rgb(29.542542%, 37.290955%, 33.226013%)" offset="0.859375"/><stop stop-opacity="1" stop-color="rgb(29.304504%, 37.034607%, 33.042908%)" offset="0.867188"/><stop stop-opacity="1" stop-color="rgb(29.066467%, 36.776733%, 32.858276%)" offset="0.875"/><stop stop-opacity="1" stop-color="rgb(28.826904%, 36.520386%, 32.675171%)" offset="0.882812"/><stop stop-opacity="1" stop-color="rgb(28.588867%, 36.262512%, 32.49054%)" offset="0.890625"/><stop stop-opacity="1" stop-color="rgb(28.35083%, 36.004639%, 32.305908%)" offset="0.898438"/><stop stop-opacity="1" stop-color="rgb(28.111267%, 35.748291%, 32.122803%)" offset="0.90625"/><stop stop-opacity="1" stop-color="rgb(27.87323%, 35.490417%, 31.938171%)" offset="0.914062"/><stop stop-opacity="1" stop-color="rgb(27.635193%, 35.232544%, 31.755066%)" offset="0.921875"/><stop stop-opacity="1" stop-color="rgb(27.39563%, 34.976196%, 31.570435%)" offset="0.929688"/><stop stop-opacity="1" stop-color="rgb(27.157593%, 34.718323%, 31.385803%)" offset="0.9375"/><stop stop-opacity="1" stop-color="rgb(26.919556%, 34.461975%, 31.202698%)" offset="0.945312"/><stop stop-opacity="1" stop-color="rgb(26.679993%, 34.204102%, 31.018066%)" offset="0.953125"/><stop stop-opacity="1" stop-color="rgb(26.441956%, 33.946228%, 30.834961%)" offset="0.960938"/><stop stop-opacity="1" stop-color="rgb(26.202393%, 33.68988%, 30.65033%)" offset="0.96875"/><stop stop-opacity="1" stop-color="rgb(25.964355%, 33.432007%, 30.465698%)" offset="0.976562"/><stop stop-opacity="1" stop-color="rgb(25.726318%, 33.175659%, 30.282593%)" offset="0.984375"/><stop stop-opacity="1" stop-color="rgb(25.486755%, 32.917786%, 30.097961%)" offset="0.992188"/><stop stop-opacity="1" stop-color="rgb(25.248718%, 32.659912%, 29.914856%)" offset="1"/></linearGradient><clipPath id="a7863d1511"><path d="M 244.183594 36 L 261 36 L 261 53 L 244.183594 53 Z M 244.183594 36 " clip-rule="nonzero"/></clipPath><clipPath id="7de920fd8f"><path d="M 244.183594 65 L 261 65 L 261 83 L 244.183594 83 Z M 244.183594 65 " clip-rule="nonzero"/></clipPath><clipPath id="696845082e"><path d="M 244.183594 95 L 261 95 L 261 113 L 244.183594 113 Z M 244.183594 95 " clip-rule="nonzero"/></clipPath><clipPath id="c03f5d34cb"><path d="M 333 6.007812 L 351 6.007812 L 351 23 L 333 23 Z M 333 6.007812 " clip-rule="nonzero"/></clipPath><clipPath id="0195b089f1"><path d="M 333 125 L 351 125 L 351 142.507812 L 333 142.507812 Z M 333 125 " clip-rule="nonzero"/></clipPath><clipPath id="b89a1d4153"><path d="M 289 6.007812 L 306 6.007812 L 306 23 L 289 23 Z M 289 6.007812 " clip-rule="nonzero"/></clipPath><clipPath id="eecc3074b8"><path d="M 289 125 L 306 125 L 306 142.507812 L 289 142.507812 Z M 289 125 " clip-rule="nonzero"/></clipPath></defs><g clip-path="url(#36f6c58228)"><g clip-path="url(#10b9256047)"><path fill="url(#4284646df0)" d="M 0 0 L 0 150 L 449.996094 150 L 449.996094 0 Z M 0 0 " fill-rule="nonzero"/></g></g><g fill="#1a3636" fill-opacity="1"><g transform="translate(25.819342, 46.754701)"><g><path d="M 10.75 0.28125 C 8.9375 0.28125 7.335938 -0.09375 5.953125 -0.84375 C 4.578125 -1.601562 3.5 -2.738281 2.71875 -4.25 C 1.9375 -5.757812 1.546875 -7.617188 1.546875 -9.828125 C 1.546875 -12.046875 1.9375 -13.910156 2.71875 -15.421875 C 3.5 -16.929688 4.578125 -18.0625 5.953125 -18.8125 C 7.335938 -19.570312 8.9375 -19.953125 10.75 -19.953125 C 12.632812 -19.953125 14.238281 -19.582031 15.5625 -18.84375 C 16.882812 -18.101562 17.832031 -16.972656 18.40625 -15.453125 L 15.5625 -13.71875 L 15.21875 -13.734375 C 14.800781 -14.753906 14.226562 -15.484375 13.5 -15.921875 C 12.78125 -16.367188 11.863281 -16.59375 10.75 -16.59375 C 9.113281 -16.59375 7.835938 -16.050781 6.921875 -14.96875 C 6.015625 -13.894531 5.5625 -12.179688 5.5625 -9.828125 C 5.5625 -7.492188 6.015625 -5.785156 6.921875 -4.703125 C 7.835938 -3.617188 9.113281 -3.078125 10.75 -3.078125 C 13.300781 -3.078125 14.863281 -4.320312 15.4375 -6.8125 L 15.78125 -6.8125 L 18.640625 -5.3125 C 18.097656 -3.445312 17.175781 -2.046875 15.875 -1.109375 C 14.582031 -0.179688 12.875 0.28125 10.75 0.28125 Z M 10.75 0.28125 "/></g></g></g><g fill="#1a3636" fill-opacity="1"><g transform="translate(45.106076, 46.754701)"><g><path d="M 8.625 0.28125 C 7.164062 0.28125 5.882812 -0.015625 4.78125 -0.609375 C 3.6875 -1.203125 2.835938 -2.078125 2.234375 -3.234375 C 1.628906 -4.390625 1.328125 -5.78125 1.328125 -7.40625 C 1.328125 -9.039062 1.628906 -10.4375 2.234375 -11.59375 C 2.835938 -12.75 3.6875 -13.625 4.78125 -14.21875 C 5.882812 -14.820312 7.164062 -15.125 8.625 -15.125 C 10.070312 -15.125 11.34375 -14.820312 12.4375 -14.21875 C 13.539062 -13.625 14.394531 -12.75 15 -11.59375 C 15.613281 -10.4375 15.921875 -9.039062 15.921875 -7.40625 C 15.921875 -5.78125 15.613281 -4.390625 15 -3.234375 C 14.394531 -2.078125 13.539062 -1.203125 12.4375 -0.609375 C 11.34375 -0.015625 10.070312 0.28125 8.625 0.28125 Z M 8.625 -2.875 C 10.925781 -2.875 12.078125 -4.382812 12.078125 -7.40625 C 12.078125 -8.976562 11.78125 -10.128906 11.1875 -10.859375 C 10.59375 -11.585938 9.738281 -11.953125 8.625 -11.953125 C 6.320312 -11.953125 5.171875 -10.4375 5.171875 -7.40625 C 5.171875 -4.382812 6.320312 -2.875 8.625 -2.875 Z M 8.625 -2.875 "/></g></g></g><g fill="#1a3636" fill-opacity="1"><g transform="translate(62.348469, 46.754701)"><g><path d="M 2.140625 0 L 2.140625 -14.84375 L 5.71875 -14.84375 L 5.71875 -12.65625 L 6 -12.59375 C 6.925781 -14.28125 8.421875 -15.125 10.484375 -15.125 C 12.203125 -15.125 13.460938 -14.65625 14.265625 -13.71875 C 15.066406 -12.789062 15.46875 -11.429688 15.46875 -9.640625 L 15.46875 0 L 11.75 0 L 11.75 -9.1875 C 11.75 -10.175781 11.550781 -10.882812 11.15625 -11.3125 C 10.757812 -11.75 10.125 -11.96875 9.25 -11.96875 C 8.1875 -11.96875 7.351562 -11.625 6.75 -10.9375 C 6.15625 -10.25 5.859375 -9.164062 5.859375 -7.6875 L 5.859375 0 Z M 2.140625 0 "/></g></g></g><g fill="#1a3636" fill-opacity="1"><g transform="translate(79.725359, 46.754701)"><g><path d="M 10.203125 0 L 5.765625 0 L 0.28125 -14.84375 L 4.1875 -14.84375 L 7.875 -4.265625 L 8.171875 -4.265625 L 11.875 -14.84375 L 15.6875 -14.84375 Z M 10.203125 0 "/></g></g></g><g fill="#1a3636" fill-opacity="1"><g transform="translate(95.67659, 46.754701)"><g><path d="M 8.625 0.28125 C 7.164062 0.28125 5.882812 -0.015625 4.78125 -0.609375 C 3.6875 -1.203125 2.835938 -2.078125 2.234375 -3.234375 C 1.628906 -4.390625 1.328125 -5.78125 1.328125 -7.40625 C 1.328125 -9.039062 1.628906 -10.4375 2.234375 -11.59375 C 2.835938 -12.75 3.6875 -13.625 4.78125 -14.21875 C 5.882812 -14.820312 7.164062 -15.125 8.625 -15.125 C 10.070312 -15.125 11.34375 -14.820312 12.4375 -14.21875 C 13.539062 -13.625 14.394531 -12.75 15 -11.59375 C 15.613281 -10.4375 15.921875 -9.039062 15.921875 -7.40625 C 15.921875 -5.78125 15.613281 -4.390625 15 -3.234375 C 14.394531 -2.078125 13.539062 -1.203125 12.4375 -0.609375 C 11.34375 -0.015625 10.070312 0.28125 8.625 0.28125 Z M 8.625 -2.875 C 10.925781 -2.875 12.078125 -4.382812 12.078125 -7.40625 C 12.078125 -8.976562 11.78125 -10.128906 11.1875 -10.859375 C 10.59375 -11.585938 9.738281 -11.953125 8.625 -11.953125 C 6.320312 -11.953125 5.171875 -10.4375 5.171875 -7.40625 C 5.171875 -4.382812 6.320312 -2.875 8.625 -2.875 Z M 8.625 -2.875 "/></g></g></g><g fill="#1a3636" fill-opacity="1"><g transform="translate(112.918984, 46.754701)"><g><path d="M 6.15625 0.28125 C 4.820312 0.28125 3.800781 -0.078125 3.09375 -0.796875 C 2.394531 -1.523438 2.046875 -2.625 2.046875 -4.09375 L 2.046875 -20.796875 L 5.765625 -20.796875 L 5.765625 -4.234375 C 5.765625 -3.328125 6.144531 -2.875 6.90625 -2.875 C 7.113281 -2.875 7.34375 -2.910156 7.59375 -2.984375 L 7.78125 -2.9375 L 8.109375 -0.0625 C 7.898438 0.0390625 7.625 0.125 7.28125 0.1875 C 6.945312 0.25 6.570312 0.28125 6.15625 0.28125 Z M 6.15625 0.28125 "/></g></g></g><g fill="#1a3636" fill-opacity="1"><g transform="translate(121.446033, 46.754701)"><g><path d="M 6.796875 0.28125 C 5.128906 0.28125 3.894531 -0.171875 3.09375 -1.078125 C 2.300781 -1.992188 1.90625 -3.300781 1.90625 -5 L 1.90625 -14.84375 L 5.640625 -14.84375 L 5.640625 -5.46875 C 5.640625 -4.5625 5.832031 -3.898438 6.21875 -3.484375 C 6.613281 -3.066406 7.21875 -2.859375 8.03125 -2.859375 C 9.0625 -2.859375 9.863281 -3.195312 10.4375 -3.875 C 11.007812 -4.550781 11.296875 -5.617188 11.296875 -7.078125 L 11.296875 -14.84375 L 15.03125 -14.84375 L 15.03125 0 L 11.453125 0 L 11.453125 -2.171875 L 11.15625 -2.25 C 10.6875 -1.394531 10.109375 -0.757812 9.421875 -0.34375 C 8.734375 0.0703125 7.859375 0.28125 6.796875 0.28125 Z M 6.796875 0.28125 "/></g></g></g><g fill="#1a3636" fill-opacity="1"><g transform="translate(138.607729, 46.754701)"><g><path d="M 10.234375 -3.53125 L 11.203125 -0.78125 C 10.796875 -0.445312 10.285156 -0.1875 9.671875 0 C 9.066406 0.1875 8.378906 0.28125 7.609375 0.28125 C 6.003906 0.28125 4.785156 -0.15625 3.953125 -1.03125 C 3.117188 -1.90625 2.703125 -3.175781 2.703125 -4.84375 L 2.703125 -11.890625 L 0.4375 -11.890625 L 0.4375 -14.84375 L 2.703125 -14.84375 L 2.703125 -17.734375 L 6.421875 -18.34375 L 6.421875 -14.84375 L 10.640625 -14.84375 L 10.640625 -11.890625 L 6.421875 -11.890625 L 6.421875 -5.109375 C 6.421875 -4.378906 6.570312 -3.84375 6.875 -3.5 C 7.1875 -3.164062 7.632812 -3 8.21875 -3 C 8.882812 -3 9.460938 -3.175781 9.953125 -3.53125 Z M 10.234375 -3.53125 "/></g></g></g><g fill="#1a3636" fill-opacity="1"><g transform="translate(150.13404, 46.754701)"><g><path d="M 4 -16.609375 C 3.320312 -16.609375 2.769531 -16.8125 2.34375 -17.21875 C 1.925781 -17.625 1.71875 -18.148438 1.71875 -18.796875 C 1.71875 -19.441406 1.925781 -19.96875 2.34375 -20.375 C 2.769531 -20.78125 3.320312 -20.984375 4 -20.984375 C 4.445312 -20.984375 4.84375 -20.890625 5.1875 -20.703125 C 5.539062 -20.515625 5.8125 -20.253906 6 -19.921875 C 6.195312 -19.597656 6.296875 -19.222656 6.296875 -18.796875 C 6.296875 -18.378906 6.195312 -18.003906 6 -17.671875 C 5.8125 -17.335938 5.539062 -17.078125 5.1875 -16.890625 C 4.84375 -16.703125 4.445312 -16.609375 4 -16.609375 Z M 2.140625 0 L 2.140625 -14.84375 L 5.859375 -14.84375 L 5.859375 0 Z M 2.140625 0 "/></g></g></g><g fill="#1a3636" fill-opacity="1"><g transform="translate(158.123106, 46.754701)"><g><path d="M 8.625 0.28125 C 7.164062 0.28125 5.882812 -0.015625 4.78125 -0.609375 C 3.6875 -1.203125 2.835938 -2.078125 2.234375 -3.234375 C 1.628906 -4.390625 1.328125 -5.78125 1.328125 -7.40625 C 1.328125 -9.039062 1.628906 -10.4375 2.234375 -11.59375 C 2.835938 -12.75 3.6875 -13.625 4.78125 -14.21875 C 5.882812 -14.820312 7.164062 -15.125 8.625 -15.125 C 10.070312 -15.125 11.34375 -14.820312 12.4375 -14.21875 C 13.539062 -13.625 14.394531 -12.75 15 -11.59375 C 15.613281 -10.4375 15.921875 -9.039062 15.921875 -7.40625 C 15.921875 -5.78125 15.613281 -4.390625 15 -3.234375 C 14.394531 -2.078125 13.539062 -1.203125 12.4375 -0.609375 C 11.34375 -0.015625 10.070312 0.28125 8.625 0.28125 Z M 8.625 -2.875 C 10.925781 -2.875 12.078125 -4.382812 12.078125 -7.40625 C 12.078125 -8.976562 11.78125 -10.128906 11.1875 -10.859375 C 10.59375 -11.585938 9.738281 -11.953125 8.625 -11.953125 C 6.320312 -11.953125 5.171875 -10.4375 5.171875 -7.40625 C 5.171875 -4.382812 6.320312 -2.875 8.625 -2.875 Z M 8.625 -2.875 "/></g></g></g><g fill="#1a3636" fill-opacity="1"><g transform="translate(175.365499, 46.754701)"><g><path d="M 2.140625 0 L 2.140625 -14.84375 L 5.71875 -14.84375 L 5.71875 -12.65625 L 6 -12.59375 C 6.925781 -14.28125 8.421875 -15.125 10.484375 -15.125 C 12.203125 -15.125 13.460938 -14.65625 14.265625 -13.71875 C 15.066406 -12.789062 15.46875 -11.429688 15.46875 -9.640625 L 15.46875 0 L 11.75 0 L 11.75 -9.1875 C 11.75 -10.175781 11.550781 -10.882812 11.15625 -11.3125 C 10.757812 -11.75 10.125 -11.96875 9.25 -11.96875 C 8.1875 -11.96875 7.351562 -11.625 6.75 -10.9375 C 6.15625 -10.25 5.859375 -9.164062 5.859375 -7.6875 L 5.859375 0 Z M 2.140625 0 "/></g></g></g><g fill="#1a3636" fill-opacity="1"><g transform="translate(192.742389, 46.754701)"><g><path d="M 5.78125 0.28125 C 4.832031 0.28125 4.007812 0.109375 3.3125 -0.234375 C 2.613281 -0.585938 2.070312 -1.101562 1.6875 -1.78125 C 1.3125 -2.457031 1.125 -3.269531 1.125 -4.21875 C 1.125 -5.101562 1.3125 -5.84375 1.6875 -6.4375 C 2.070312 -7.03125 2.65625 -7.515625 3.4375 -7.890625 C 4.226562 -8.273438 5.257812 -8.570312 6.53125 -8.78125 C 7.425781 -8.925781 8.101562 -9.082031 8.5625 -9.25 C 9.019531 -9.425781 9.328125 -9.617188 9.484375 -9.828125 C 9.648438 -10.046875 9.734375 -10.320312 9.734375 -10.65625 C 9.734375 -11.125 9.566406 -11.484375 9.234375 -11.734375 C 8.910156 -11.992188 8.363281 -12.125 7.59375 -12.125 C 6.757812 -12.125 5.96875 -11.9375 5.21875 -11.5625 C 4.476562 -11.195312 3.835938 -10.710938 3.296875 -10.109375 L 3.03125 -10.109375 L 1.46875 -12.46875 C 2.21875 -13.300781 3.132812 -13.953125 4.21875 -14.421875 C 5.300781 -14.890625 6.488281 -15.125 7.78125 -15.125 C 9.738281 -15.125 11.15625 -14.703125 12.03125 -13.859375 C 12.914062 -13.023438 13.359375 -11.84375 13.359375 -10.3125 L 13.359375 -3.875 C 13.359375 -3.207031 13.648438 -2.875 14.234375 -2.875 C 14.453125 -2.875 14.671875 -2.914062 14.890625 -3 L 15.078125 -2.953125 L 15.34375 -0.34375 C 15.132812 -0.207031 14.847656 -0.0976562 14.484375 -0.015625 C 14.117188 0.0664062 13.71875 0.109375 13.28125 0.109375 C 12.382812 0.109375 11.6875 -0.0625 11.1875 -0.40625 C 10.695312 -0.75 10.34375 -1.28125 10.125 -2 L 9.84375 -2.03125 C 9.113281 -0.488281 7.757812 0.28125 5.78125 0.28125 Z M 6.96875 -2.5 C 7.832031 -2.5 8.519531 -2.785156 9.03125 -3.359375 C 9.550781 -3.941406 9.8125 -4.75 9.8125 -5.78125 L 9.8125 -7.296875 L 9.546875 -7.34375 C 9.328125 -7.164062 9.035156 -7.015625 8.671875 -6.890625 C 8.304688 -6.773438 7.785156 -6.65625 7.109375 -6.53125 C 6.296875 -6.394531 5.710938 -6.164062 5.359375 -5.84375 C 5.003906 -5.519531 4.828125 -5.054688 4.828125 -4.453125 C 4.828125 -3.816406 5.015625 -3.332031 5.390625 -3 C 5.765625 -2.664062 6.289062 -2.5 6.96875 -2.5 Z M 6.96875 -2.5 "/></g></g></g><g fill="#1a3636" fill-opacity="1"><g transform="translate(208.384279, 46.754701)"><g><path d="M 6.15625 0.28125 C 4.820312 0.28125 3.800781 -0.078125 3.09375 -0.796875 C 2.394531 -1.523438 2.046875 -2.625 2.046875 -4.09375 L 2.046875 -20.796875 L 5.765625 -20.796875 L 5.765625 -4.234375 C 5.765625 -3.328125 6.144531 -2.875 6.90625 -2.875 C 7.113281 -2.875 7.34375 -2.910156 7.59375 -2.984375 L 7.78125 -2.9375 L 8.109375 -0.0625 C 7.898438 0.0390625 7.625 0.125 7.28125 0.1875 C 6.945312 0.25 6.570312 0.28125 6.15625 0.28125 Z M 6.15625 0.28125 "/></g></g></g><g fill="#1a3636" fill-opacity="1"><g transform="translate(25.819342, 85.311804)"><g><path d="M 6.328125 0 L 2.5625 0 L 2.5625 -19.671875 L 7 -19.671875 L 14.90625 -7 L 15.25 -7.046875 L 15.25 -19.671875 L 19 -19.671875 L 19 0 L 15.015625 0 L 6.65625 -13.53125 L 6.328125 -13.484375 Z M 6.328125 0 "/></g></g></g><g fill="#1a3636" fill-opacity="1"><g transform="translate(47.379059, 85.311804)"><g><path d="M 14.65625 -6.578125 L 5.125 -6.578125 C 5.226562 -5.285156 5.59375 -4.34375 6.21875 -3.75 C 6.851562 -3.164062 7.710938 -2.875 8.796875 -2.875 C 9.648438 -2.875 10.335938 -3.03125 10.859375 -3.34375 C 11.390625 -3.664062 11.816406 -4.148438 12.140625 -4.796875 L 12.421875 -4.796875 L 14.90625 -3.21875 C 14.414062 -2.175781 13.679688 -1.332031 12.703125 -0.6875 C 11.734375 -0.0390625 10.429688 0.28125 8.796875 0.28125 C 7.265625 0.28125 5.9375 -0.0078125 4.8125 -0.59375 C 3.695312 -1.175781 2.835938 -2.039062 2.234375 -3.1875 C 1.628906 -4.34375 1.328125 -5.75 1.328125 -7.40625 C 1.328125 -9.09375 1.644531 -10.515625 2.28125 -11.671875 C 2.914062 -12.828125 3.773438 -13.691406 4.859375 -14.265625 C 5.953125 -14.835938 7.175781 -15.125 8.53125 -15.125 C 10.625 -15.125 12.226562 -14.566406 13.34375 -13.453125 C 14.46875 -12.335938 15.03125 -10.703125 15.03125 -8.546875 C 15.03125 -7.773438 15 -7.171875 14.9375 -6.734375 Z M 11.453125 -8.984375 C 11.421875 -10.117188 11.160156 -10.941406 10.671875 -11.453125 C 10.179688 -11.972656 9.46875 -12.234375 8.53125 -12.234375 C 6.644531 -12.234375 5.535156 -11.148438 5.203125 -8.984375 Z M 11.453125 -8.984375 "/></g></g></g><g fill="#1a3636" fill-opacity="1"><g transform="translate(63.505135, 85.311804)"><g><path d="M 6.796875 0.28125 C 5.128906 0.28125 3.894531 -0.171875 3.09375 -1.078125 C 2.300781 -1.992188 1.90625 -3.300781 1.90625 -5 L 1.90625 -14.84375 L 5.640625 -14.84375 L 5.640625 -5.46875 C 5.640625 -4.5625 5.832031 -3.898438 6.21875 -3.484375 C 6.613281 -3.066406 7.21875 -2.859375 8.03125 -2.859375 C 9.0625 -2.859375 9.863281 -3.195312 10.4375 -3.875 C 11.007812 -4.550781 11.296875 -5.617188 11.296875 -7.078125 L 11.296875 -14.84375 L 15.03125 -14.84375 L 15.03125 0 L 11.453125 0 L 11.453125 -2.171875 L 11.15625 -2.25 C 10.6875 -1.394531 10.109375 -0.757812 9.421875 -0.34375 C 8.734375 0.0703125 7.859375 0.28125 6.796875 0.28125 Z M 6.796875 0.28125 "/></g></g></g><g fill="#1a3636" fill-opacity="1"><g transform="translate(80.666831, 85.311804)"><g><path d="M 2.140625 0 L 2.140625 -14.84375 L 5.75 -14.84375 L 5.75 -12.625 L 6.046875 -12.578125 C 6.398438 -13.398438 6.867188 -14.003906 7.453125 -14.390625 C 8.035156 -14.773438 8.742188 -14.96875 9.578125 -14.96875 C 10.421875 -14.96875 11.0625 -14.828125 11.5 -14.546875 L 10.875 -11.328125 L 10.578125 -11.265625 C 10.335938 -11.367188 10.101562 -11.441406 9.875 -11.484375 C 9.65625 -11.523438 9.382812 -11.546875 9.0625 -11.546875 C 8.019531 -11.546875 7.222656 -11.179688 6.671875 -10.453125 C 6.128906 -9.722656 5.859375 -8.550781 5.859375 -6.9375 L 5.859375 0 Z M 2.140625 0 "/></g></g></g><g fill="#1a3636" fill-opacity="1"><g transform="translate(92.300739, 85.311804)"><g><path d="M 5.78125 0.28125 C 4.832031 0.28125 4.007812 0.109375 3.3125 -0.234375 C 2.613281 -0.585938 2.070312 -1.101562 1.6875 -1.78125 C 1.3125 -2.457031 1.125 -3.269531 1.125 -4.21875 C 1.125 -5.101562 1.3125 -5.84375 1.6875 -6.4375 C 2.070312 -7.03125 2.65625 -7.515625 3.4375 -7.890625 C 4.226562 -8.273438 5.257812 -8.570312 6.53125 -8.78125 C 7.425781 -8.925781 8.101562 -9.082031 8.5625 -9.25 C 9.019531 -9.425781 9.328125 -9.617188 9.484375 -9.828125 C 9.648438 -10.046875 9.734375 -10.320312 9.734375 -10.65625 C 9.734375 -11.125 9.566406 -11.484375 9.234375 -11.734375 C 8.910156 -11.992188 8.363281 -12.125 7.59375 -12.125 C 6.757812 -12.125 5.96875 -11.9375 5.21875 -11.5625 C 4.476562 -11.195312 3.835938 -10.710938 3.296875 -10.109375 L 3.03125 -10.109375 L 1.46875 -12.46875 C 2.21875 -13.300781 3.132812 -13.953125 4.21875 -14.421875 C 5.300781 -14.890625 6.488281 -15.125 7.78125 -15.125 C 9.738281 -15.125 11.15625 -14.703125 12.03125 -13.859375 C 12.914062 -13.023438 13.359375 -11.84375 13.359375 -10.3125 L 13.359375 -3.875 C 13.359375 -3.207031 13.648438 -2.875 14.234375 -2.875 C 14.453125 -2.875 14.671875 -2.914062 14.890625 -3 L 15.078125 -2.953125 L 15.34375 -0.34375 C 15.132812 -0.207031 14.847656 -0.0976562 14.484375 -0.015625 C 14.117188 0.0664062 13.71875 0.109375 13.28125 0.109375 C 12.382812 0.109375 11.6875 -0.0625 11.1875 -0.40625 C 10.695312 -0.75 10.34375 -1.28125 10.125 -2 L 9.84375 -2.03125 C 9.113281 -0.488281 7.757812 0.28125 5.78125 0.28125 Z M 6.96875 -2.5 C 7.832031 -2.5 8.519531 -2.785156 9.03125 -3.359375 C 9.550781 -3.941406 9.8125 -4.75 9.8125 -5.78125 L 9.8125 -7.296875 L 9.546875 -7.34375 C 9.328125 -7.164062 9.035156 -7.015625 8.671875 -6.890625 C 8.304688 -6.773438 7.785156 -6.65625 7.109375 -6.53125 C 6.296875 -6.394531 5.710938 -6.164062 5.359375 -5.84375 C 5.003906 -5.519531 4.828125 -5.054688 4.828125 -4.453125 C 4.828125 -3.816406 5.015625 -3.332031 5.390625 -3 C 5.765625 -2.664062 6.289062 -2.5 6.96875 -2.5 Z M 6.96875 -2.5 "/></g></g></g><g fill="#1a3636" fill-opacity="1"><g transform="translate(107.942629, 85.311804)"><g><path d="M 6.15625 0.28125 C 4.820312 0.28125 3.800781 -0.078125 3.09375 -0.796875 C 2.394531 -1.523438 2.046875 -2.625 2.046875 -4.09375 L 2.046875 -20.796875 L 5.765625 -20.796875 L 5.765625 -4.234375 C 5.765625 -3.328125 6.144531 -2.875 6.90625 -2.875 C 7.113281 -2.875 7.34375 -2.910156 7.59375 -2.984375 L 7.78125 -2.9375 L 8.109375 -0.0625 C 7.898438 0.0390625 7.625 0.125 7.28125 0.1875 C 6.945312 0.25 6.570312 0.28125 6.15625 0.28125 Z M 6.15625 0.28125 "/></g></g></g><g fill="#1a3636" fill-opacity="1"><g transform="translate(116.481774, 85.311804)"><g/></g></g><g fill="#1a3636" fill-opacity="1"><g transform="translate(25.819342, 123.868907)"><g><path d="M 6.328125 0 L 2.5625 0 L 2.5625 -19.671875 L 7 -19.671875 L 14.90625 -7 L 15.25 -7.046875 L 15.25 -19.671875 L 19 -19.671875 L 19 0 L 15.015625 0 L 6.65625 -13.53125 L 6.328125 -13.484375 Z M 6.328125 0 "/></g></g></g><g fill="#1a3636" fill-opacity="1"><g transform="translate(47.379059, 123.868907)"><g><path d="M 14.65625 -6.578125 L 5.125 -6.578125 C 5.226562 -5.285156 5.59375 -4.34375 6.21875 -3.75 C 6.851562 -3.164062 7.710938 -2.875 8.796875 -2.875 C 9.648438 -2.875 10.335938 -3.03125 10.859375 -3.34375 C 11.390625 -3.664062 11.816406 -4.148438 12.140625 -4.796875 L 12.421875 -4.796875 L 14.90625 -3.21875 C 14.414062 -2.175781 13.679688 -1.332031 12.703125 -0.6875 C 11.734375 -0.0390625 10.429688 0.28125 8.796875 0.28125 C 7.265625 0.28125 5.9375 -0.0078125 4.8125 -0.59375 C 3.695312 -1.175781 2.835938 -2.039062 2.234375 -3.1875 C 1.628906 -4.34375 1.328125 -5.75 1.328125 -7.40625 C 1.328125 -9.09375 1.644531 -10.515625 2.28125 -11.671875 C 2.914062 -12.828125 3.773438 -13.691406 4.859375 -14.265625 C 5.953125 -14.835938 7.175781 -15.125 8.53125 -15.125 C 10.625 -15.125 12.226562 -14.566406 13.34375 -13.453125 C 14.46875 -12.335938 15.03125 -10.703125 15.03125 -8.546875 C 15.03125 -7.773438 15 -7.171875 14.9375 -6.734375 Z M 11.453125 -8.984375 C 11.421875 -10.117188 11.160156 -10.941406 10.671875 -11.453125 C 10.179688 -11.972656 9.46875 -12.234375 8.53125 -12.234375 C 6.644531 -12.234375 5.535156 -11.148438 5.203125 -8.984375 Z M 11.453125 -8.984375 "/></g></g></g><g fill="#1a3636" fill-opacity="1"><g transform="translate(63.505135, 123.868907)"><g><path d="M 10.234375 -3.53125 L 11.203125 -0.78125 C 10.796875 -0.445312 10.285156 -0.1875 9.671875 0 C 9.066406 0.1875 8.378906 0.28125 7.609375 0.28125 C 6.003906 0.28125 4.785156 -0.15625 3.953125 -1.03125 C 3.117188 -1.90625 2.703125 -3.175781 2.703125 -4.84375 L 2.703125 -11.890625 L 0.4375 -11.890625 L 0.4375 -14.84375 L 2.703125 -14.84375 L 2.703125 -17.734375 L 6.421875 -18.34375 L 6.421875 -14.84375 L 10.640625 -14.84375 L 10.640625 -11.890625 L 6.421875 -11.890625 L 6.421875 -5.109375 C 6.421875 -4.378906 6.570312 -3.84375 6.875 -3.5 C 7.1875 -3.164062 7.632812 -3 8.21875 -3 C 8.882812 -3 9.460938 -3.175781 9.953125 -3.53125 Z M 10.234375 -3.53125 "/></g></g></g><g fill="#1a3636" fill-opacity="1"><g transform="translate(75.031446, 123.868907)"><g><path d="M 7.96875 0 L 4.0625 0 L 0.53125 -14.84375 L 4 -14.84375 L 6.171875 -4.796875 L 6.453125 -4.796875 L 9.28125 -14.84375 L 12.515625 -14.84375 L 15.421875 -4.796875 L 15.703125 -4.796875 L 17.8125 -14.84375 L 21.171875 -14.84375 L 17.6875 0 L 13.78125 0 L 10.96875 -10.09375 L 10.6875 -10.09375 Z M 7.96875 0 "/></g></g></g><g fill="#1a3636" fill-opacity="1"><g transform="translate(96.725659, 123.868907)"><g><path d="M 8.625 0.28125 C 7.164062 0.28125 5.882812 -0.015625 4.78125 -0.609375 C 3.6875 -1.203125 2.835938 -2.078125 2.234375 -3.234375 C 1.628906 -4.390625 1.328125 -5.78125 1.328125 -7.40625 C 1.328125 -9.039062 1.628906 -10.4375 2.234375 -11.59375 C 2.835938 -12.75 3.6875 -13.625 4.78125 -14.21875 C 5.882812 -14.820312 7.164062 -15.125 8.625 -15.125 C 10.070312 -15.125 11.34375 -14.820312 12.4375 -14.21875 C 13.539062 -13.625 14.394531 -12.75 15 -11.59375 C 15.613281 -10.4375 15.921875 -9.039062 15.921875 -7.40625 C 15.921875 -5.78125 15.613281 -4.390625 15 -3.234375 C 14.394531 -2.078125 13.539062 -1.203125 12.4375 -0.609375 C 11.34375 -0.015625 10.070312 0.28125 8.625 0.28125 Z M 8.625 -2.875 C 10.925781 -2.875 12.078125 -4.382812 12.078125 -7.40625 C 12.078125 -8.976562 11.78125 -10.128906 11.1875 -10.859375 C 10.59375 -11.585938 9.738281 -11.953125 8.625 -11.953125 C 6.320312 -11.953125 5.171875 -10.4375 5.171875 -7.40625 C 5.171875 -4.382812 6.320312 -2.875 8.625 -2.875 Z M 8.625 -2.875 "/></g></g></g><g fill="#1a3636" fill-opacity="1"><g transform="translate(113.968053, 123.868907)"><g><path d="M 2.140625 0 L 2.140625 -14.84375 L 5.75 -14.84375 L 5.75 -12.625 L 6.046875 -12.578125 C 6.398438 -13.398438 6.867188 -14.003906 7.453125 -14.390625 C 8.035156 -14.773438 8.742188 -14.96875 9.578125 -14.96875 C 10.421875 -14.96875 11.0625 -14.828125 11.5 -14.546875 L 10.875 -11.328125 L 10.578125 -11.265625 C 10.335938 -11.367188 10.101562 -11.441406 9.875 -11.484375 C 9.65625 -11.523438 9.382812 -11.546875 9.0625 -11.546875 C 8.019531 -11.546875 7.222656 -11.179688 6.671875 -10.453125 C 6.128906 -9.722656 5.859375 -8.550781 5.859375 -6.9375 L 5.859375 0 Z M 2.140625 0 "/></g></g></g><g fill="#1a3636" fill-opacity="1"><g transform="translate(125.601962, 123.868907)"><g><path d="M 2.140625 0 L 2.140625 -20.796875 L 5.859375 -20.796875 L 5.859375 -9.25 L 6.234375 -9.25 L 10.515625 -14.84375 L 14.296875 -14.84375 L 14.296875 -14.53125 L 9.25 -8.015625 L 14.859375 -0.34375 L 14.859375 0 L 10.9375 0 L 6.234375 -6.25 L 5.859375 -6.25 L 5.859375 0 Z M 2.140625 0 "/></g></g></g><path fill="#1a3636" d="M 296.667969 94.949219 L 298.054688 93.300781 L 343.117188 131.140625 L 341.730469 132.789062 Z M 296.667969 94.949219 " fill-opacity="1" fill-rule="nonzero"/><path fill="#1a3636" d="M 296.636719 55.121094 L 298.082031 53.523438 L 343.148438 94.253906 L 341.703125 95.851562 Z M 296.636719 55.121094 " fill-opacity="1" fill-rule="nonzero"/><path fill="#1a3636" d="M 296.355469 14.71875 L 298.367188 13.945312 L 343.429688 131.578125 L 341.417969 132.351562 Z M 296.355469 14.71875 " fill-opacity="1" fill-rule="nonzero"/><path fill="#1a3636" d="M 336.496094 134.941406 L 383.742188 101.195312 L 384.996094 102.953125 L 337.746094 136.695312 Z M 336.496094 134.941406 " fill-opacity="1" fill-rule="nonzero"/><path fill="#1a3636" d="M 336.90625 93.488281 L 337.335938 91.375 L 384.582031 101.015625 L 384.152344 103.128906 Z M 336.90625 93.488281 " fill-opacity="1" fill-rule="nonzero"/><path fill="#1a3636" d="M 336.367188 56.378906 L 337.878906 54.84375 L 385.125 101.304688 L 383.613281 102.84375 Z M 336.367188 56.378906 " fill-opacity="1" fill-rule="nonzero"/><path fill="#1a3636" d="M 336.175781 16.324219 L 338.066406 15.289062 L 385.3125 101.554688 L 383.421875 102.589844 Z M 336.175781 16.324219 " fill-opacity="1" fill-rule="nonzero"/><path fill="#1a3636" d="M 338.425781 15.722656 L 339.675781 13.96875 L 386.921875 47.714844 L 385.667969 49.46875 Z M 338.425781 15.722656 " fill-opacity="1" fill-rule="nonzero"/><path fill="#1a3636" d="M 338.835938 57.175781 L 386.082031 47.535156 L 386.511719 49.648438 L 339.265625 59.289062 Z M 338.835938 57.175781 " fill-opacity="1" fill-rule="nonzero"/><path fill="#1a3636" d="M 338.101562 134.335938 L 385.355469 48.074219 L 387.246094 49.109375 L 339.992188 135.371094 Z M 338.101562 134.335938 " fill-opacity="1" fill-rule="nonzero"/><path fill="#1a3636" d="M 419.085938 51.785156 L 419.085938 39.613281 L 426.984375 45.699219 Z M 419.085938 51.785156 " fill-opacity="1" fill-rule="nonzero"/><path fill="#1a3636" d="M 382.925781 44.621094 L 421.976562 44.621094 L 421.976562 46.777344 L 382.925781 46.777344 Z M 382.925781 44.621094 " fill-opacity="1" fill-rule="nonzero"/><path fill="#1a3636" d="M 419.085938 81.433594 L 419.085938 69.257812 L 426.984375 75.34375 Z M 419.085938 81.433594 " fill-opacity="1" fill-rule="nonzero"/><path fill="#1a3636" d="M 382.925781 74.265625 L 421.976562 74.265625 L 421.976562 76.421875 L 382.925781 76.421875 Z M 382.925781 74.265625 " fill-opacity="1" fill-rule="nonzero"/><path fill="#1a3636" d="M 419.085938 111.078125 L 419.085938 98.90625 L 426.984375 104.992188 Z M 419.085938 111.078125 " fill-opacity="1" fill-rule="nonzero"/><path fill="#1a3636" d="M 382.925781 103.914062 L 421.976562 103.914062 L 421.976562 106.070312 L 382.925781 106.070312 Z M 382.925781 103.914062 " fill-opacity="1" fill-rule="nonzero"/><path fill="#ddd5c9" d="M 395.371094 44.578125 C 395.371094 45.125 395.316406 45.667969 395.210938 46.203125 C 395.105469 46.742188 394.945312 47.261719 394.734375 47.769531 C 394.527344 48.277344 394.269531 48.757812 393.964844 49.210938 C 393.660156 49.667969 393.316406 50.089844 392.925781 50.476562 C 392.539062 50.863281 392.117188 51.210938 391.664062 51.515625 C 391.207031 51.820312 390.726562 52.074219 390.21875 52.285156 C 389.714844 52.496094 389.191406 52.652344 388.65625 52.761719 C 388.117188 52.867188 387.574219 52.921875 387.027344 52.921875 C 386.480469 52.921875 385.9375 52.867188 385.398438 52.761719 C 384.859375 52.652344 384.339844 52.496094 383.832031 52.285156 C 383.328125 52.074219 382.847656 51.820312 382.390625 51.515625 C 381.933594 51.210938 381.511719 50.863281 381.125 50.476562 C 380.738281 50.089844 380.394531 49.667969 380.089844 49.210938 C 379.785156 48.757812 379.527344 48.277344 379.316406 47.769531 C 379.109375 47.261719 378.949219 46.742188 378.84375 46.203125 C 378.734375 45.667969 378.683594 45.125 378.683594 44.578125 C 378.683594 44.027344 378.734375 43.484375 378.84375 42.949219 C 378.949219 42.410156 379.109375 41.890625 379.316406 41.382812 C 379.527344 40.875 379.785156 40.394531 380.089844 39.941406 C 380.394531 39.484375 380.738281 39.0625 381.125 38.675781 C 381.511719 38.289062 381.933594 37.941406 382.390625 37.636719 C 382.847656 37.332031 383.328125 37.078125 383.832031 36.867188 C 384.339844 36.65625 384.859375 36.5 385.398438 36.390625 C 385.9375 36.285156 386.480469 36.230469 387.027344 36.230469 C 387.574219 36.230469 388.117188 36.285156 388.65625 36.390625 C 389.191406 36.5 389.714844 36.65625 390.21875 36.867188 C 390.726562 37.078125 391.207031 37.332031 391.664062 37.636719 C 392.117188 37.941406 392.539062 38.289062 392.925781 38.675781 C 393.316406 39.0625 393.660156 39.484375 393.964844 39.941406 C 394.269531 40.394531 394.527344 40.875 394.734375 41.382812 C 394.945312 41.890625 395.105469 42.410156 395.210938 42.949219 C 395.316406 43.484375 395.371094 44.027344 395.371094 44.578125 Z M 395.371094 44.578125 " fill-opacity="1" fill-rule="nonzero"/><path fill="#ddd5c9" d="M 395.371094 74.222656 C 395.371094 74.773438 395.316406 75.316406 395.210938 75.851562 C 395.105469 76.390625 394.945312 76.910156 394.734375 77.417969 C 394.527344 77.921875 394.269531 78.40625 393.964844 78.859375 C 393.660156 79.316406 393.316406 79.738281 392.925781 80.125 C 392.539062 80.511719 392.117188 80.859375 391.664062 81.164062 C 391.207031 81.46875 390.726562 81.722656 390.21875 81.933594 C 389.714844 82.144531 389.191406 82.300781 388.65625 82.410156 C 388.117188 82.515625 387.574219 82.570312 387.027344 82.570312 C 386.480469 82.570312 385.9375 82.515625 385.398438 82.410156 C 384.859375 82.300781 384.339844 82.144531 383.832031 81.933594 C 383.328125 81.722656 382.847656 81.46875 382.390625 81.164062 C 381.933594 80.859375 381.511719 80.511719 381.125 80.125 C 380.738281 79.738281 380.394531 79.316406 380.089844 78.859375 C 379.785156 78.40625 379.527344 77.921875 379.316406 77.417969 C 379.109375 76.910156 378.949219 76.390625 378.84375 75.851562 C 378.734375 75.316406 378.683594 74.773438 378.683594 74.222656 C 378.683594 73.675781 378.734375 73.132812 378.84375 72.597656 C 378.949219 72.058594 379.109375 71.535156 379.316406 71.03125 C 379.527344 70.523438 379.785156 70.042969 380.089844 69.589844 C 380.394531 69.132812 380.738281 68.710938 381.125 68.324219 C 381.511719 67.9375 381.933594 67.589844 382.390625 67.285156 C 382.847656 66.980469 383.328125 66.722656 383.832031 66.515625 C 384.339844 66.304688 384.859375 66.148438 385.398438 66.039062 C 385.9375 65.933594 386.480469 65.878906 387.027344 65.878906 C 387.574219 65.878906 388.117188 65.933594 388.65625 66.039062 C 389.191406 66.148438 389.714844 66.304688 390.21875 66.515625 C 390.726562 66.722656 391.207031 66.980469 391.664062 67.285156 C 392.117188 67.589844 392.539062 67.9375 392.925781 68.324219 C 393.316406 68.710938 393.660156 69.132812 393.964844 69.589844 C 394.269531 70.042969 394.527344 70.523438 394.734375 71.03125 C 394.945312 71.535156 395.105469 72.058594 395.210938 72.597656 C 395.316406 73.132812 395.371094 73.675781 395.371094 74.222656 Z M 395.371094 74.222656 " fill-opacity="1" fill-rule="nonzero"/><path fill="#ddd5c9" d="M 395.371094 103.871094 C 395.371094 104.417969 395.316406 104.960938 395.210938 105.5 C 395.105469 106.035156 394.945312 106.558594 394.734375 107.066406 C 394.527344 107.570312 394.269531 108.050781 393.964844 108.507812 C 393.660156 108.964844 393.316406 109.382812 392.925781 109.773438 C 392.539062 110.160156 392.117188 110.503906 391.664062 110.808594 C 391.207031 111.113281 390.726562 111.371094 390.21875 111.582031 C 389.714844 111.789062 389.191406 111.949219 388.65625 112.054688 C 388.117188 112.164062 387.574219 112.214844 387.027344 112.214844 C 386.480469 112.214844 385.9375 112.164062 385.398438 112.054688 C 384.859375 111.949219 384.339844 111.789062 383.832031 111.582031 C 383.328125 111.371094 382.847656 111.113281 382.390625 110.808594 C 381.933594 110.503906 381.511719 110.160156 381.125 109.773438 C 380.738281 109.382812 380.394531 108.964844 380.089844 108.507812 C 379.785156 108.050781 379.527344 107.570312 379.316406 107.066406 C 379.109375 106.558594 378.949219 106.035156 378.84375 105.5 C 378.734375 104.960938 378.683594 104.417969 378.683594 103.871094 C 378.683594 103.324219 378.734375 102.78125 378.84375 102.242188 C 378.949219 101.707031 379.109375 101.183594 379.316406 100.679688 C 379.527344 100.171875 379.785156 99.691406 380.089844 99.234375 C 380.394531 98.78125 380.738281 98.359375 381.125 97.972656 C 381.511719 97.582031 381.933594 97.238281 382.390625 96.933594 C 382.847656 96.628906 383.328125 96.371094 383.832031 96.160156 C 384.339844 95.953125 384.859375 95.792969 385.398438 95.6875 C 385.9375 95.582031 386.480469 95.527344 387.027344 95.527344 C 387.574219 95.527344 388.117188 95.582031 388.65625 95.6875 C 389.191406 95.792969 389.714844 95.953125 390.21875 96.160156 C 390.726562 96.371094 391.207031 96.628906 391.664062 96.933594 C 392.117188 97.238281 392.539062 97.582031 392.925781 97.972656 C 393.316406 98.359375 393.660156 98.78125 393.964844 99.234375 C 394.269531 99.691406 394.527344 100.171875 394.734375 100.679688 C 394.945312 101.183594 395.105469 101.707031 395.210938 102.242188 C 395.316406 102.78125 395.371094 103.324219 395.371094 103.871094 Z M 395.371094 103.871094 " fill-opacity="1" fill-rule="nonzero"/><path fill="#1a3636" d="M 252.128906 102.949219 L 253.382812 101.195312 L 300.628906 134.941406 L 299.375 136.695312 Z M 252.128906 102.949219 " fill-opacity="1" fill-rule="nonzero"/><path fill="#1a3636" d="M 252.539062 101.015625 L 299.785156 91.375 L 300.214844 93.488281 L 252.96875 103.128906 Z M 252.539062 101.015625 " fill-opacity="1" fill-rule="nonzero"/><path fill="#1a3636" d="M 252 101.308594 L 299.242188 54.839844 L 300.753906 56.378906 L 253.511719 102.84375 Z M 252 101.308594 " fill-opacity="1" fill-rule="nonzero"/><path fill="#1a3636" d="M 251.804688 101.554688 L 299.058594 15.292969 L 300.949219 16.328125 L 253.695312 102.589844 Z M 251.804688 101.554688 " fill-opacity="1" fill-rule="nonzero"/><path fill="#1a3636" d="M 250.199219 47.710938 L 297.445312 13.96875 L 298.699219 15.722656 L 251.453125 49.46875 Z M 250.199219 47.710938 " fill-opacity="1" fill-rule="nonzero"/><path fill="#1a3636" d="M 250.609375 49.648438 L 251.042969 47.535156 L 298.289062 57.175781 L 297.855469 59.289062 Z M 250.609375 49.648438 " fill-opacity="1" fill-rule="nonzero"/><path fill="#1a3636" d="M 250.070312 49.359375 L 251.582031 47.824219 L 298.828125 94.285156 L 297.316406 95.820312 Z M 250.070312 49.359375 " fill-opacity="1" fill-rule="nonzero"/><g clip-path="url(#a7863d1511)"><path fill="#40534c" d="M 260.871094 44.578125 C 260.871094 45.125 260.820312 45.667969 260.710938 46.203125 C 260.605469 46.742188 260.449219 47.261719 260.238281 47.769531 C 260.027344 48.277344 259.769531 48.757812 259.464844 49.210938 C 259.164062 49.667969 258.816406 50.089844 258.429688 50.476562 C 258.042969 50.863281 257.621094 51.210938 257.164062 51.515625 C 256.707031 51.820312 256.226562 52.074219 255.722656 52.285156 C 255.214844 52.496094 254.695312 52.652344 254.15625 52.761719 C 253.617188 52.867188 253.078125 52.921875 252.527344 52.921875 C 251.980469 52.921875 251.4375 52.867188 250.902344 52.761719 C 250.363281 52.652344 249.839844 52.496094 249.335938 52.285156 C 248.828125 52.074219 248.347656 51.820312 247.890625 51.515625 C 247.4375 51.210938 247.015625 50.863281 246.628906 50.476562 C 246.242188 50.089844 245.894531 49.667969 245.589844 49.210938 C 245.285156 48.757812 245.027344 48.277344 244.820312 47.769531 C 244.609375 47.261719 244.449219 46.742188 244.34375 46.203125 C 244.238281 45.667969 244.183594 45.125 244.183594 44.578125 C 244.183594 44.027344 244.238281 43.484375 244.34375 42.949219 C 244.449219 42.410156 244.609375 41.890625 244.820312 41.382812 C 245.027344 40.875 245.285156 40.394531 245.589844 39.941406 C 245.894531 39.484375 246.242188 39.0625 246.628906 38.675781 C 247.015625 38.289062 247.4375 37.941406 247.890625 37.636719 C 248.347656 37.332031 248.828125 37.078125 249.335938 36.867188 C 249.839844 36.65625 250.363281 36.5 250.902344 36.390625 C 251.4375 36.285156 251.980469 36.230469 252.527344 36.230469 C 253.078125 36.230469 253.617188 36.285156 254.15625 36.390625 C 254.695312 36.5 255.214844 36.65625 255.722656 36.867188 C 256.226562 37.078125 256.707031 37.332031 257.164062 37.636719 C 257.621094 37.941406 258.042969 38.289062 258.429688 38.675781 C 258.816406 39.0625 259.164062 39.484375 259.464844 39.941406 C 259.769531 40.394531 260.027344 40.875 260.238281 41.382812 C 260.449219 41.890625 260.605469 42.410156 260.710938 42.949219 C 260.820312 43.484375 260.871094 44.027344 260.871094 44.578125 Z M 260.871094 44.578125 " fill-opacity="1" fill-rule="nonzero"/></g><g clip-path="url(#7de920fd8f)"><path fill="#40534c" d="M 260.871094 74.222656 C 260.871094 74.773438 260.820312 75.316406 260.710938 75.851562 C 260.605469 76.390625 260.449219 76.910156 260.238281 77.417969 C 260.027344 77.921875 259.769531 78.40625 259.464844 78.859375 C 259.164062 79.316406 258.816406 79.738281 258.429688 80.125 C 258.042969 80.511719 257.621094 80.859375 257.164062 81.164062 C 256.707031 81.46875 256.226562 81.722656 255.722656 81.933594 C 255.214844 82.144531 254.695312 82.300781 254.15625 82.410156 C 253.617188 82.515625 253.078125 82.570312 252.527344 82.570312 C 251.980469 82.570312 251.4375 82.515625 250.902344 82.410156 C 250.363281 82.300781 249.839844 82.144531 249.335938 81.933594 C 248.828125 81.722656 248.347656 81.46875 247.890625 81.164062 C 247.4375 80.859375 247.015625 80.511719 246.628906 80.125 C 246.242188 79.738281 245.894531 79.316406 245.589844 78.859375 C 245.285156 78.40625 245.027344 77.921875 244.820312 77.417969 C 244.609375 76.910156 244.449219 76.390625 244.34375 75.851562 C 244.238281 75.316406 244.183594 74.773438 244.183594 74.222656 C 244.183594 73.675781 244.238281 73.132812 244.34375 72.597656 C 244.449219 72.058594 244.609375 71.535156 244.820312 71.03125 C 245.027344 70.523438 245.285156 70.042969 245.589844 69.589844 C 245.894531 69.132812 246.242188 68.710938 246.628906 68.324219 C 247.015625 67.9375 247.4375 67.589844 247.890625 67.285156 C 248.347656 66.980469 248.828125 66.722656 249.335938 66.515625 C 249.839844 66.304688 250.363281 66.148438 250.902344 66.039062 C 251.4375 65.933594 251.980469 65.878906 252.527344 65.878906 C 253.078125 65.878906 253.617188 65.933594 254.15625 66.039062 C 254.695312 66.148438 255.214844 66.304688 255.722656 66.515625 C 256.226562 66.722656 256.707031 66.980469 257.164062 67.285156 C 257.621094 67.589844 258.042969 67.9375 258.429688 68.324219 C 258.816406 68.710938 259.164062 69.132812 259.464844 69.589844 C 259.769531 70.042969 260.027344 70.523438 260.238281 71.03125 C 260.449219 71.535156 260.605469 72.058594 260.710938 72.597656 C 260.820312 73.132812 260.871094 73.675781 260.871094 74.222656 Z M 260.871094 74.222656 " fill-opacity="1" fill-rule="nonzero"/></g><g clip-path="url(#696845082e)"><path fill="#40534c" d="M 260.871094 103.871094 C 260.871094 104.417969 260.820312 104.960938 260.710938 105.5 C 260.605469 106.035156 260.449219 106.558594 260.238281 107.066406 C 260.027344 107.570312 259.769531 108.050781 259.464844 108.507812 C 259.164062 108.964844 258.816406 109.382812 258.429688 109.773438 C 258.042969 110.160156 257.621094 110.503906 257.164062 110.808594 C 256.707031 111.113281 256.226562 111.371094 255.722656 111.582031 C 255.214844 111.789062 254.695312 111.949219 254.15625 112.054688 C 253.617188 112.164062 253.078125 112.214844 252.527344 112.214844 C 251.980469 112.214844 251.4375 112.164062 250.902344 112.054688 C 250.363281 111.949219 249.839844 111.789062 249.335938 111.582031 C 248.828125 111.371094 248.347656 111.113281 247.890625 110.808594 C 247.4375 110.503906 247.015625 110.160156 246.628906 109.773438 C 246.242188 109.382812 245.894531 108.964844 245.589844 108.507812 C 245.285156 108.050781 245.027344 107.570312 244.820312 107.066406 C 244.609375 106.558594 244.449219 106.035156 244.34375 105.5 C 244.238281 104.960938 244.183594 104.417969 244.183594 103.871094 C 244.183594 103.324219 244.238281 102.78125 244.34375 102.242188 C 244.449219 101.707031 244.609375 101.183594 244.820312 100.679688 C 245.027344 100.171875 245.285156 99.691406 245.589844 99.234375 C 245.894531 98.78125 246.242188 98.359375 246.628906 97.972656 C 247.015625 97.582031 247.4375 97.238281 247.890625 96.933594 C 248.347656 96.628906 248.828125 96.371094 249.335938 96.160156 C 249.839844 95.953125 250.363281 95.792969 250.902344 95.6875 C 251.4375 95.582031 251.980469 95.527344 252.527344 95.527344 C 253.078125 95.527344 253.617188 95.582031 254.15625 95.6875 C 254.695312 95.792969 255.214844 95.953125 255.722656 96.160156 C 256.226562 96.371094 256.707031 96.628906 257.164062 96.933594 C 257.621094 97.238281 258.042969 97.582031 258.429688 97.972656 C 258.816406 98.359375 259.164062 98.78125 259.464844 99.234375 C 259.769531 99.691406 260.027344 100.171875 260.238281 100.679688 C 260.449219 101.183594 260.605469 101.707031 260.710938 102.242188 C 260.820312 102.78125 260.871094 103.324219 260.871094 103.871094 Z M 260.871094 103.871094 " fill-opacity="1" fill-rule="nonzero"/></g><path fill="#1a3636" d="M 296.671875 51.347656 L 341.726562 13.503906 L 343.113281 15.152344 L 298.058594 52.996094 Z M 296.671875 51.347656 " fill-opacity="1" fill-rule="nonzero"/><path fill="#1a3636" d="M 296.667969 91.140625 L 341.738281 53.5 L 343.117188 55.152344 L 298.050781 92.796875 Z M 296.667969 91.140625 " fill-opacity="1" fill-rule="nonzero"/><path fill="#1a3636" d="M 296.34375 131.574219 L 341.425781 13.949219 L 343.441406 14.71875 L 298.359375 132.34375 Z M 296.34375 131.574219 " fill-opacity="1" fill-rule="nonzero"/><g clip-path="url(#c03f5d34cb)"><path fill="#1a3636" d="M 350.539062 14.519531 C 350.539062 15.066406 350.484375 15.609375 350.378906 16.148438 C 350.269531 16.683594 350.113281 17.207031 349.902344 17.714844 C 349.695312 18.21875 349.4375 18.699219 349.132812 19.15625 C 348.828125 19.613281 348.480469 20.035156 348.09375 20.421875 C 347.707031 20.808594 347.285156 21.152344 346.828125 21.457031 C 346.375 21.761719 345.894531 22.019531 345.386719 22.230469 C 344.882812 22.4375 344.359375 22.597656 343.820312 22.703125 C 343.285156 22.8125 342.742188 22.863281 342.195312 22.863281 C 341.644531 22.863281 341.101562 22.8125 340.566406 22.703125 C 340.027344 22.597656 339.507812 22.4375 339 22.230469 C 338.496094 22.019531 338.011719 21.761719 337.558594 21.457031 C 337.101562 21.152344 336.679688 20.808594 336.292969 20.421875 C 335.90625 20.035156 335.558594 19.613281 335.253906 19.15625 C 334.949219 18.699219 334.695312 18.21875 334.484375 17.714844 C 334.273438 17.207031 334.117188 16.683594 334.007812 16.148438 C 333.902344 15.609375 333.847656 15.066406 333.847656 14.519531 C 333.847656 13.972656 333.902344 13.429688 334.007812 12.890625 C 334.117188 12.355469 334.273438 11.832031 334.484375 11.328125 C 334.695312 10.820312 334.949219 10.339844 335.253906 9.882812 C 335.558594 9.429688 335.90625 9.007812 336.292969 8.621094 C 336.679688 8.230469 337.101562 7.886719 337.558594 7.582031 C 338.011719 7.277344 338.496094 7.019531 339 6.8125 C 339.507812 6.601562 340.027344 6.441406 340.566406 6.335938 C 341.101562 6.230469 341.644531 6.175781 342.195312 6.175781 C 342.742188 6.175781 343.285156 6.230469 343.820312 6.335938 C 344.359375 6.441406 344.882812 6.601562 345.386719 6.8125 C 345.894531 7.019531 346.375 7.277344 346.828125 7.582031 C 347.285156 7.886719 347.707031 8.230469 348.09375 8.621094 C 348.480469 9.007812 348.828125 9.429688 349.132812 9.882812 C 349.4375 10.339844 349.695312 10.820312 349.902344 11.328125 C 350.113281 11.832031 350.269531 12.355469 350.378906 12.890625 C 350.484375 13.429688 350.539062 13.972656 350.539062 14.519531 Z M 350.539062 14.519531 " fill-opacity="1" fill-rule="nonzero"/></g><path fill="#1a3636" d="M 350.539062 54.324219 C 350.539062 54.871094 350.484375 55.414062 350.378906 55.949219 C 350.269531 56.488281 350.113281 57.011719 349.902344 57.515625 C 349.695312 58.023438 349.4375 58.503906 349.132812 58.957031 C 348.828125 59.414062 348.480469 59.835938 348.09375 60.222656 C 347.707031 60.609375 347.285156 60.957031 346.828125 61.261719 C 346.375 61.566406 345.894531 61.824219 345.386719 62.03125 C 344.882812 62.242188 344.359375 62.398438 343.820312 62.507812 C 343.285156 62.613281 342.742188 62.667969 342.195312 62.667969 C 341.644531 62.667969 341.101562 62.613281 340.566406 62.507812 C 340.027344 62.398438 339.507812 62.242188 339 62.03125 C 338.496094 61.824219 338.011719 61.566406 337.558594 61.261719 C 337.101562 60.957031 336.679688 60.609375 336.292969 60.222656 C 335.90625 59.835938 335.558594 59.414062 335.253906 58.957031 C 334.949219 58.503906 334.695312 58.023438 334.484375 57.515625 C 334.273438 57.011719 334.117188 56.488281 334.007812 55.949219 C 333.902344 55.414062 333.847656 54.871094 333.847656 54.324219 C 333.847656 53.773438 333.902344 53.230469 334.007812 52.695312 C 334.117188 52.15625 334.273438 51.636719 334.484375 51.128906 C 334.695312 50.625 334.949219 50.140625 335.253906 49.6875 C 335.558594 49.230469 335.90625 48.808594 336.292969 48.421875 C 336.679688 48.035156 337.101562 47.6875 337.558594 47.382812 C 338.011719 47.082031 338.496094 46.824219 339 46.613281 C 339.507812 46.402344 340.027344 46.246094 340.566406 46.136719 C 341.101562 46.03125 341.644531 45.976562 342.195312 45.976562 C 342.742188 45.976562 343.285156 46.03125 343.820312 46.136719 C 344.359375 46.246094 344.882812 46.402344 345.386719 46.613281 C 345.894531 46.824219 346.375 47.082031 346.828125 47.382812 C 347.285156 47.6875 347.707031 48.035156 348.09375 48.421875 C 348.480469 48.808594 348.828125 49.230469 349.132812 49.6875 C 349.4375 50.140625 349.695312 50.625 349.902344 51.128906 C 350.113281 51.636719 350.269531 52.15625 350.378906 52.695312 C 350.484375 53.230469 350.539062 53.773438 350.539062 54.324219 Z M 350.539062 54.324219 " fill-opacity="1" fill-rule="nonzero"/><path fill="#1a3636" d="M 350.539062 94.125 C 350.539062 94.671875 350.484375 95.214844 350.378906 95.753906 C 350.269531 96.289062 350.113281 96.8125 349.902344 97.320312 C 349.695312 97.824219 349.4375 98.304688 349.132812 98.761719 C 348.828125 99.21875 348.480469 99.636719 348.09375 100.027344 C 347.707031 100.414062 347.285156 100.757812 346.828125 101.0625 C 346.375 101.367188 345.894531 101.625 345.386719 101.835938 C 344.882812 102.042969 344.359375 102.203125 343.820312 102.308594 C 343.285156 102.417969 342.742188 102.46875 342.195312 102.46875 C 341.644531 102.46875 341.101562 102.417969 340.566406 102.308594 C 340.027344 102.203125 339.507812 102.042969 339 101.835938 C 338.496094 101.625 338.011719 101.367188 337.558594 101.0625 C 337.101562 100.757812 336.679688 100.414062 336.292969 100.027344 C 335.90625 99.636719 335.558594 99.21875 335.253906 98.761719 C 334.949219 98.304688 334.695312 97.824219 334.484375 97.320312 C 334.273438 96.8125 334.117188 96.289062 334.007812 95.753906 C 333.902344 95.214844 333.847656 94.671875 333.847656 94.125 C 333.847656 93.578125 333.902344 93.035156 334.007812 92.496094 C 334.117188 91.960938 334.273438 91.4375 334.484375 90.933594 C 334.695312 90.425781 334.949219 89.945312 335.253906 89.488281 C 335.558594 89.035156 335.90625 88.613281 336.292969 88.226562 C 336.679688 87.835938 337.101562 87.492188 337.558594 87.1875 C 338.011719 86.882812 338.496094 86.625 339 86.417969 C 339.507812 86.207031 340.027344 86.046875 340.566406 85.941406 C 341.101562 85.835938 341.644531 85.78125 342.195312 85.78125 C 342.742188 85.78125 343.285156 85.835938 343.820312 85.941406 C 344.359375 86.046875 344.882812 86.207031 345.386719 86.417969 C 345.894531 86.625 346.375 86.882812 346.828125 87.1875 C 347.285156 87.492188 347.707031 87.835938 348.09375 88.226562 C 348.480469 88.613281 348.828125 89.035156 349.132812 89.488281 C 349.4375 89.945312 349.695312 90.425781 349.902344 90.933594 C 350.113281 91.4375 350.269531 91.960938 350.378906 92.496094 C 350.484375 93.035156 350.539062 93.578125 350.539062 94.125 Z M 350.539062 94.125 " fill-opacity="1" fill-rule="nonzero"/><g clip-path="url(#0195b089f1)"><path fill="#1a3636" d="M 350.539062 133.925781 C 350.539062 134.476562 350.484375 135.019531 350.378906 135.554688 C 350.269531 136.09375 350.113281 136.613281 349.902344 137.121094 C 349.695312 137.628906 349.4375 138.109375 349.132812 138.5625 C 348.828125 139.019531 348.480469 139.441406 348.09375 139.828125 C 347.707031 140.214844 347.285156 140.5625 346.828125 140.867188 C 346.375 141.171875 345.894531 141.425781 345.386719 141.636719 C 344.882812 141.847656 344.359375 142.003906 343.820312 142.113281 C 343.285156 142.21875 342.742188 142.273438 342.195312 142.273438 C 341.644531 142.273438 341.101562 142.21875 340.566406 142.113281 C 340.027344 142.003906 339.507812 141.847656 339 141.636719 C 338.496094 141.425781 338.011719 141.171875 337.558594 140.867188 C 337.101562 140.5625 336.679688 140.214844 336.292969 139.828125 C 335.90625 139.441406 335.558594 139.019531 335.253906 138.5625 C 334.949219 138.109375 334.695312 137.628906 334.484375 137.121094 C 334.273438 136.613281 334.117188 136.09375 334.007812 135.554688 C 333.902344 135.019531 333.847656 134.476562 333.847656 133.925781 C 333.847656 133.378906 333.902344 132.835938 334.007812 132.300781 C 334.117188 131.761719 334.273438 131.242188 334.484375 130.734375 C 334.695312 130.226562 334.949219 129.746094 335.253906 129.292969 C 335.558594 128.835938 335.90625 128.414062 336.292969 128.027344 C 336.679688 127.640625 337.101562 127.292969 337.558594 126.988281 C 338.011719 126.683594 338.496094 126.429688 339 126.21875 C 339.507812 126.007812 340.027344 125.851562 340.566406 125.742188 C 341.101562 125.636719 341.644531 125.582031 342.195312 125.582031 C 342.742188 125.582031 343.285156 125.636719 343.820312 125.742188 C 344.359375 125.851562 344.882812 126.007812 345.386719 126.21875 C 345.894531 126.429688 346.375 126.683594 346.828125 126.988281 C 347.285156 127.292969 347.707031 127.640625 348.09375 128.027344 C 348.480469 128.414062 348.828125 128.835938 349.132812 129.292969 C 349.4375 129.746094 349.695312 130.226562 349.902344 130.734375 C 350.113281 131.242188 350.269531 131.761719 350.378906 132.300781 C 350.484375 132.835938 350.539062 133.378906 350.539062 133.925781 Z M 350.539062 133.925781 " fill-opacity="1" fill-rule="nonzero"/></g><g clip-path="url(#b89a1d4153)"><path fill="#40534c" d="M 305.707031 14.519531 C 305.707031 15.066406 305.652344 15.609375 305.546875 16.148438 C 305.4375 16.683594 305.28125 17.207031 305.070312 17.714844 C 304.859375 18.21875 304.605469 18.699219 304.300781 19.15625 C 303.996094 19.613281 303.648438 20.035156 303.261719 20.421875 C 302.875 20.808594 302.453125 21.152344 301.996094 21.457031 C 301.542969 21.761719 301.0625 22.019531 300.554688 22.230469 C 300.046875 22.4375 299.527344 22.597656 298.988281 22.703125 C 298.453125 22.8125 297.910156 22.863281 297.359375 22.863281 C 296.8125 22.863281 296.269531 22.8125 295.734375 22.703125 C 295.195312 22.597656 294.675781 22.4375 294.167969 22.230469 C 293.660156 22.019531 293.179688 21.761719 292.726562 21.457031 C 292.269531 21.152344 291.847656 20.808594 291.460938 20.421875 C 291.074219 20.035156 290.726562 19.613281 290.421875 19.15625 C 290.117188 18.699219 289.863281 18.21875 289.652344 17.714844 C 289.441406 17.207031 289.285156 16.683594 289.175781 16.148438 C 289.070312 15.609375 289.015625 15.066406 289.015625 14.519531 C 289.015625 13.972656 289.070312 13.429688 289.175781 12.890625 C 289.285156 12.355469 289.441406 11.832031 289.652344 11.328125 C 289.863281 10.820312 290.117188 10.339844 290.421875 9.882812 C 290.726562 9.429688 291.074219 9.007812 291.460938 8.621094 C 291.847656 8.230469 292.269531 7.886719 292.726562 7.582031 C 293.179688 7.277344 293.660156 7.019531 294.167969 6.8125 C 294.675781 6.601562 295.195312 6.441406 295.734375 6.335938 C 296.269531 6.230469 296.8125 6.175781 297.359375 6.175781 C 297.910156 6.175781 298.453125 6.230469 298.988281 6.335938 C 299.527344 6.441406 300.046875 6.601562 300.554688 6.8125 C 301.0625 7.019531 301.542969 7.277344 301.996094 7.582031 C 302.453125 7.886719 302.875 8.230469 303.261719 8.621094 C 303.648438 9.007812 303.996094 9.429688 304.300781 9.882812 C 304.605469 10.339844 304.859375 10.820312 305.070312 11.328125 C 305.28125 11.832031 305.4375 12.355469 305.546875 12.890625 C 305.652344 13.429688 305.707031 13.972656 305.707031 14.519531 Z M 305.707031 14.519531 " fill-opacity="1" fill-rule="nonzero"/></g><path fill="#40534c" d="M 305.707031 54.324219 C 305.707031 54.871094 305.652344 55.414062 305.546875 55.949219 C 305.4375 56.488281 305.28125 57.011719 305.070312 57.515625 C 304.859375 58.023438 304.605469 58.503906 304.300781 58.957031 C 303.996094 59.414062 303.648438 59.835938 303.261719 60.222656 C 302.875 60.609375 302.453125 60.957031 301.996094 61.261719 C 301.542969 61.566406 301.0625 61.824219 300.554688 62.03125 C 300.046875 62.242188 299.527344 62.398438 298.988281 62.507812 C 298.453125 62.613281 297.910156 62.667969 297.359375 62.667969 C 296.8125 62.667969 296.269531 62.613281 295.734375 62.507812 C 295.195312 62.398438 294.675781 62.242188 294.167969 62.03125 C 293.660156 61.824219 293.179688 61.566406 292.726562 61.261719 C 292.269531 60.957031 291.847656 60.609375 291.460938 60.222656 C 291.074219 59.835938 290.726562 59.414062 290.421875 58.957031 C 290.117188 58.503906 289.863281 58.023438 289.652344 57.515625 C 289.441406 57.011719 289.285156 56.488281 289.175781 55.949219 C 289.070312 55.414062 289.015625 54.871094 289.015625 54.324219 C 289.015625 53.773438 289.070312 53.230469 289.175781 52.695312 C 289.285156 52.15625 289.441406 51.636719 289.652344 51.128906 C 289.863281 50.625 290.117188 50.140625 290.421875 49.6875 C 290.726562 49.230469 291.074219 48.808594 291.460938 48.421875 C 291.847656 48.035156 292.269531 47.6875 292.726562 47.382812 C 293.179688 47.082031 293.660156 46.824219 294.167969 46.613281 C 294.675781 46.402344 295.195312 46.246094 295.734375 46.136719 C 296.269531 46.03125 296.8125 45.976562 297.359375 45.976562 C 297.910156 45.976562 298.453125 46.03125 298.988281 46.136719 C 299.527344 46.246094 300.046875 46.402344 300.554688 46.613281 C 301.0625 46.824219 301.542969 47.082031 301.996094 47.382812 C 302.453125 47.6875 302.875 48.035156 303.261719 48.421875 C 303.648438 48.808594 303.996094 49.230469 304.300781 49.6875 C 304.605469 50.140625 304.859375 50.625 305.070312 51.128906 C 305.28125 51.636719 305.4375 52.15625 305.546875 52.695312 C 305.652344 53.230469 305.707031 53.773438 305.707031 54.324219 Z M 305.707031 54.324219 " fill-opacity="1" fill-rule="nonzero"/><path fill="#40534c" d="M 305.707031 94.125 C 305.707031 94.671875 305.652344 95.214844 305.546875 95.753906 C 305.4375 96.289062 305.28125 96.8125 305.070312 97.320312 C 304.859375 97.824219 304.605469 98.304688 304.300781 98.761719 C 303.996094 99.21875 303.648438 99.636719 303.261719 100.027344 C 302.875 100.414062 302.453125 100.757812 301.996094 101.0625 C 301.542969 101.367188 301.0625 101.625 300.554688 101.835938 C 300.046875 102.042969 299.527344 102.203125 298.988281 102.308594 C 298.453125 102.417969 297.910156 102.46875 297.359375 102.46875 C 296.8125 102.46875 296.269531 102.417969 295.734375 102.308594 C 295.195312 102.203125 294.675781 102.042969 294.167969 101.835938 C 293.660156 101.625 293.179688 101.367188 292.726562 101.0625 C 292.269531 100.757812 291.847656 100.414062 291.460938 100.027344 C 291.074219 99.636719 290.726562 99.21875 290.421875 98.761719 C 290.117188 98.304688 289.863281 97.824219 289.652344 97.320312 C 289.441406 96.8125 289.285156 96.289062 289.175781 95.753906 C 289.070312 95.214844 289.015625 94.671875 289.015625 94.125 C 289.015625 93.578125 289.070312 93.035156 289.175781 92.496094 C 289.285156 91.960938 289.441406 91.4375 289.652344 90.933594 C 289.863281 90.425781 290.117188 89.945312 290.421875 89.488281 C 290.726562 89.035156 291.074219 88.613281 291.460938 88.226562 C 291.847656 87.835938 292.269531 87.492188 292.726562 87.1875 C 293.179688 86.882812 293.660156 86.625 294.167969 86.417969 C 294.675781 86.207031 295.195312 86.046875 295.734375 85.941406 C 296.269531 85.835938 296.8125 85.78125 297.359375 85.78125 C 297.910156 85.78125 298.453125 85.835938 298.988281 85.941406 C 299.527344 86.046875 300.046875 86.207031 300.554688 86.417969 C 301.0625 86.625 301.542969 86.882812 301.996094 87.1875 C 302.453125 87.492188 302.875 87.835938 303.261719 88.226562 C 303.648438 88.613281 303.996094 89.035156 304.300781 89.488281 C 304.605469 89.945312 304.859375 90.425781 305.070312 90.933594 C 305.28125 91.4375 305.4375 91.960938 305.546875 92.496094 C 305.652344 93.035156 305.707031 93.578125 305.707031 94.125 Z M 305.707031 94.125 " fill-opacity="1" fill-rule="nonzero"/><g clip-path="url(#eecc3074b8)"><path fill="#40534c" d="M 305.707031 133.925781 C 305.707031 134.476562 305.652344 135.019531 305.546875 135.554688 C 305.4375 136.09375 305.28125 136.613281 305.070312 137.121094 C 304.859375 137.628906 304.605469 138.109375 304.300781 138.5625 C 303.996094 139.019531 303.648438 139.441406 303.261719 139.828125 C 302.875 140.214844 302.453125 140.5625 301.996094 140.867188 C 301.542969 141.171875 301.0625 141.425781 300.554688 141.636719 C 300.046875 141.847656 299.527344 142.003906 298.988281 142.113281 C 298.453125 142.21875 297.910156 142.273438 297.359375 142.273438 C 296.8125 142.273438 296.269531 142.21875 295.734375 142.113281 C 295.195312 142.003906 294.675781 141.847656 294.167969 141.636719 C 293.660156 141.425781 293.179688 141.171875 292.726562 140.867188 C 292.269531 140.5625 291.847656 140.214844 291.460938 139.828125 C 291.074219 139.441406 290.726562 139.019531 290.421875 138.5625 C 290.117188 138.109375 289.863281 137.628906 289.652344 137.121094 C 289.441406 136.613281 289.285156 136.09375 289.175781 135.554688 C 289.070312 135.019531 289.015625 134.476562 289.015625 133.925781 C 289.015625 133.378906 289.070312 132.835938 289.175781 132.300781 C 289.285156 131.761719 289.441406 131.242188 289.652344 130.734375 C 289.863281 130.226562 290.117188 129.746094 290.421875 129.292969 C 290.726562 128.835938 291.074219 128.414062 291.460938 128.027344 C 291.847656 127.640625 292.269531 127.292969 292.726562 126.988281 C 293.179688 126.683594 293.660156 126.429688 294.167969 126.21875 C 294.675781 126.007812 295.195312 125.851562 295.734375 125.742188 C 296.269531 125.636719 296.8125 125.582031 297.359375 125.582031 C 297.910156 125.582031 298.453125 125.636719 298.988281 125.742188 C 299.527344 125.851562 300.046875 126.007812 300.554688 126.21875 C 301.0625 126.429688 301.542969 126.683594 301.996094 126.988281 C 302.453125 127.292969 302.875 127.640625 303.261719 128.027344 C 303.648438 128.414062 303.996094 128.835938 304.300781 129.292969 C 304.605469 129.746094 304.859375 130.226562 305.070312 130.734375 C 305.28125 131.242188 305.4375 131.761719 305.546875 132.300781 C 305.652344 132.835938 305.707031 133.378906 305.707031 133.925781 Z M 305.707031 133.925781 " fill-opacity="1" fill-rule="nonzero"/></g></svg>