<svg xmlns="http://www.w3.org/2000/svg" xmlns:xlink="http://www.w3.org/1999/xlink" width="600" zoomAndPan="magnify" viewBox="0 0 450 149.999998" height="200" preserveAspectRatio="xMidYMid meet" version="1.0"><defs><g/><clipPath id="56fc60f4db"><path d="M 0 0 L 449.996094 0 L 449.996094 150 L 0 150 Z M 0 0 " clip-rule="nonzero"/></clipPath><clipPath id="778d6c8acf"><path d="M 18.75 -0.601562 L 431.25 -0.601562 C 441.605469 -0.601562 450 7.792969 450 18.148438 L 450 131.851562 C 450 142.207031 441.605469 150.601562 431.25 150.601562 L 18.75 150.601562 C 8.394531 150.601562 0 142.207031 0 131.851562 L 0 18.148438 C 0 7.792969 8.394531 -0.601562 18.75 -0.601562 Z M 18.75 -0.601562 " clip-rule="nonzero"/></clipPath><linearGradient x1="126.987415" gradientTransform="matrix(0.590625, 0, 0, 0.590625, -0.00425002, -0.600004)" y1="-125.964582" x2="634.921202" gradientUnits="userSpaceOnUse" y2="381.968193" id="fb070e7fff"><stop stop-opacity="1" stop-color="rgb(86.605835%, 83.430481%, 78.72467%)" offset="0"/><stop stop-opacity="1" stop-color="rgb(86.244202%, 83.1604%, 78.434753%)" offset="0.00390625"/><stop stop-opacity="1" stop-color="rgb(85.884094%, 82.891846%, 78.144836%)" offset="0.0078125"/><stop stop-opacity="1" stop-color="rgb(85.522461%, 82.621765%, 77.854919%)" offset="0.0117188"/><stop stop-opacity="1" stop-color="rgb(85.162354%, 82.35321%, 77.565002%)" offset="0.015625"/><stop stop-opacity="1" stop-color="rgb(84.80072%, 82.084656%, 77.27356%)" offset="0.0195313"/><stop stop-opacity="1" stop-color="rgb(84.440613%, 81.816101%, 76.983643%)" offset="0.0234375"/><stop stop-opacity="1" stop-color="rgb(84.078979%, 81.546021%, 76.693726%)" offset="0.0273438"/><stop stop-opacity="1" stop-color="rgb(83.718872%, 81.277466%, 76.403809%)" offset="0.03125"/><stop stop-opacity="1" stop-color="rgb(83.357239%, 81.008911%, 76.113892%)" offset="0.0351563"/><stop stop-opacity="1" stop-color="rgb(82.995605%, 80.740356%, 75.823975%)" offset="0.0390625"/><stop stop-opacity="1" stop-color="rgb(82.633972%, 80.470276%, 75.534058%)" offset="0.0429688"/><stop stop-opacity="1" stop-color="rgb(82.273865%, 80.201721%, 75.244141%)" offset="0.046875"/><stop stop-opacity="1" stop-color="rgb(81.912231%, 79.933167%, 74.954224%)" offset="0.0507813"/><stop stop-opacity="1" stop-color="rgb(81.552124%, 79.664612%, 74.664307%)" offset="0.0546875"/><stop stop-opacity="1" stop-color="rgb(81.190491%, 79.394531%, 74.37439%)" offset="0.0585938"/><stop stop-opacity="1" stop-color="rgb(80.830383%, 79.125977%, 74.084473%)" offset="0.0625"/><stop stop-opacity="1" stop-color="rgb(80.46875%, 78.855896%, 73.79303%)" offset="0.0664063"/><stop stop-opacity="1" stop-color="rgb(80.108643%, 78.587341%, 73.503113%)" offset="0.0703125"/><stop stop-opacity="1" stop-color="rgb(79.747009%, 78.318787%, 73.213196%)" offset="0.0742188"/><stop stop-opacity="1" stop-color="rgb(79.386902%, 78.050232%, 72.923279%)" offset="0.078125"/><stop stop-opacity="1" stop-color="rgb(79.025269%, 77.780151%, 72.633362%)" offset="0.0820313"/><stop stop-opacity="1" stop-color="rgb(78.663635%, 77.511597%, 72.343445%)" offset="0.0859375"/><stop stop-opacity="1" stop-color="rgb(78.302002%, 77.243042%, 72.053528%)" offset="0.0898438"/><stop stop-opacity="1" stop-color="rgb(77.941895%, 76.974487%, 71.763611%)" offset="0.09375"/><stop stop-opacity="1" stop-color="rgb(77.580261%, 76.704407%, 71.473694%)" offset="0.0976563"/><stop stop-opacity="1" stop-color="rgb(77.220154%, 76.435852%, 71.183777%)" offset="0.101563"/><stop stop-opacity="1" stop-color="rgb(76.858521%, 76.167297%, 70.89386%)" offset="0.105469"/><stop stop-opacity="1" stop-color="rgb(76.498413%, 75.898743%, 70.603943%)" offset="0.109375"/><stop stop-opacity="1" stop-color="rgb(76.13678%, 75.628662%, 70.3125%)" offset="0.113281"/><stop stop-opacity="1" stop-color="rgb(75.776672%, 75.360107%, 70.022583%)" offset="0.117188"/><stop stop-opacity="1" stop-color="rgb(75.415039%, 75.090027%, 69.732666%)" offset="0.121094"/><stop stop-opacity="1" stop-color="rgb(75.054932%, 74.821472%, 69.442749%)" offset="0.125"/><stop stop-opacity="1" stop-color="rgb(74.693298%, 74.552917%, 69.152832%)" offset="0.128906"/><stop stop-opacity="1" stop-color="rgb(74.331665%, 74.284363%, 68.862915%)" offset="0.132812"/><stop stop-opacity="1" stop-color="rgb(73.970032%, 74.014282%, 68.572998%)" offset="0.136719"/><stop stop-opacity="1" stop-color="rgb(73.609924%, 73.745728%, 68.283081%)" offset="0.140625"/><stop stop-opacity="1" stop-color="rgb(73.248291%, 73.477173%, 67.993164%)" offset="0.144531"/><stop stop-opacity="1" stop-color="rgb(72.888184%, 73.208618%, 67.703247%)" offset="0.148438"/><stop stop-opacity="1" stop-color="rgb(72.52655%, 72.938538%, 67.41333%)" offset="0.152344"/><stop stop-opacity="1" stop-color="rgb(72.166443%, 72.669983%, 67.123413%)" offset="0.15625"/><stop stop-opacity="1" stop-color="rgb(71.80481%, 72.401428%, 66.83197%)" offset="0.160156"/><stop stop-opacity="1" stop-color="rgb(71.444702%, 72.132874%, 66.542053%)" offset="0.164062"/><stop stop-opacity="1" stop-color="rgb(71.083069%, 71.862793%, 66.252136%)" offset="0.167969"/><stop stop-opacity="1" stop-color="rgb(70.722961%, 71.594238%, 65.962219%)" offset="0.171875"/><stop stop-opacity="1" stop-color="rgb(70.361328%, 71.324158%, 65.672302%)" offset="0.175781"/><stop stop-opacity="1" stop-color="rgb(69.999695%, 71.055603%, 65.382385%)" offset="0.179688"/><stop stop-opacity="1" stop-color="rgb(69.638062%, 70.787048%, 65.092468%)" offset="0.183594"/><stop stop-opacity="1" stop-color="rgb(69.277954%, 70.518494%, 64.802551%)" offset="0.1875"/><stop stop-opacity="1" stop-color="rgb(68.916321%, 70.248413%, 64.512634%)" offset="0.191406"/><stop stop-opacity="1" stop-color="rgb(68.556213%, 69.979858%, 64.222717%)" offset="0.195312"/><stop stop-opacity="1" stop-color="rgb(68.19458%, 69.711304%, 63.9328%)" offset="0.199219"/><stop stop-opacity="1" stop-color="rgb(67.834473%, 69.442749%, 63.642883%)" offset="0.203125"/><stop stop-opacity="1" stop-color="rgb(67.472839%, 69.172668%, 63.35144%)" offset="0.207031"/><stop stop-opacity="1" stop-color="rgb(67.112732%, 68.904114%, 63.061523%)" offset="0.210938"/><stop stop-opacity="1" stop-color="rgb(66.751099%, 68.635559%, 62.771606%)" offset="0.214844"/><stop stop-opacity="1" stop-color="rgb(66.390991%, 68.367004%, 62.481689%)" offset="0.21875"/><stop stop-opacity="1" stop-color="rgb(66.029358%, 68.096924%, 62.191772%)" offset="0.222656"/><stop stop-opacity="1" stop-color="rgb(65.66925%, 67.828369%, 61.901855%)" offset="0.226562"/><stop stop-opacity="1" stop-color="rgb(65.307617%, 67.558289%, 61.611938%)" offset="0.230469"/><stop stop-opacity="1" stop-color="rgb(64.945984%, 67.289734%, 61.322021%)" offset="0.234375"/><stop stop-opacity="1" stop-color="rgb(64.584351%, 67.021179%, 61.032104%)" offset="0.238281"/><stop stop-opacity="1" stop-color="rgb(64.224243%, 66.752625%, 60.742188%)" offset="0.242188"/><stop stop-opacity="1" stop-color="rgb(63.86261%, 66.482544%, 60.452271%)" offset="0.246094"/><stop stop-opacity="1" stop-color="rgb(63.502502%, 66.213989%, 60.162354%)" offset="0.25"/><stop stop-opacity="1" stop-color="rgb(63.140869%, 65.945435%, 59.870911%)" offset="0.253906"/><stop stop-opacity="1" stop-color="rgb(62.780762%, 65.67688%, 59.580994%)" offset="0.257813"/><stop stop-opacity="1" stop-color="rgb(62.419128%, 65.406799%, 59.291077%)" offset="0.261719"/><stop stop-opacity="1" stop-color="rgb(62.059021%, 65.138245%, 59.00116%)" offset="0.265625"/><stop stop-opacity="1" stop-color="rgb(61.697388%, 64.86969%, 58.711243%)" offset="0.269531"/><stop stop-opacity="1" stop-color="rgb(61.33728%, 64.601135%, 58.421326%)" offset="0.273438"/><stop stop-opacity="1" stop-color="rgb(60.975647%, 64.331055%, 58.131409%)" offset="0.277344"/><stop stop-opacity="1" stop-color="rgb(60.614014%, 64.0625%, 57.841492%)" offset="0.28125"/><stop stop-opacity="1" stop-color="rgb(60.25238%, 63.792419%, 57.551575%)" offset="0.285156"/><stop stop-opacity="1" stop-color="rgb(59.892273%, 63.523865%, 57.261658%)" offset="0.289062"/><stop stop-opacity="1" stop-color="rgb(59.53064%, 63.25531%, 56.971741%)" offset="0.292969"/><stop stop-opacity="1" stop-color="rgb(59.170532%, 62.986755%, 56.681824%)" offset="0.296875"/><stop stop-opacity="1" stop-color="rgb(58.808899%, 62.716675%, 56.390381%)" offset="0.300781"/><stop stop-opacity="1" stop-color="rgb(58.448792%, 62.44812%, 56.100464%)" offset="0.304688"/><stop stop-opacity="1" stop-color="rgb(58.087158%, 62.179565%, 55.810547%)" offset="0.308594"/><stop stop-opacity="1" stop-color="rgb(57.727051%, 61.911011%, 55.52063%)" offset="0.3125"/><stop stop-opacity="1" stop-color="rgb(57.365417%, 61.64093%, 55.230713%)" offset="0.316406"/><stop stop-opacity="1" stop-color="rgb(57.00531%, 61.372375%, 54.940796%)" offset="0.320312"/><stop stop-opacity="1" stop-color="rgb(56.643677%, 61.103821%, 54.650879%)" offset="0.324219"/><stop stop-opacity="1" stop-color="rgb(56.282043%, 60.835266%, 54.360962%)" offset="0.328125"/><stop stop-opacity="1" stop-color="rgb(55.92041%, 60.565186%, 54.071045%)" offset="0.332031"/><stop stop-opacity="1" stop-color="rgb(55.560303%, 60.296631%, 53.781128%)" offset="0.335938"/><stop stop-opacity="1" stop-color="rgb(55.198669%, 60.02655%, 53.491211%)" offset="0.339844"/><stop stop-opacity="1" stop-color="rgb(54.838562%, 59.757996%, 53.201294%)" offset="0.34375"/><stop stop-opacity="1" stop-color="rgb(54.476929%, 59.489441%, 52.909851%)" offset="0.347656"/><stop stop-opacity="1" stop-color="rgb(54.116821%, 59.220886%, 52.619934%)" offset="0.351563"/><stop stop-opacity="1" stop-color="rgb(53.755188%, 58.950806%, 52.330017%)" offset="0.355469"/><stop stop-opacity="1" stop-color="rgb(53.395081%, 58.682251%, 52.0401%)" offset="0.359375"/><stop stop-opacity="1" stop-color="rgb(53.033447%, 58.413696%, 51.750183%)" offset="0.363281"/><stop stop-opacity="1" stop-color="rgb(52.67334%, 58.145142%, 51.460266%)" offset="0.367188"/><stop stop-opacity="1" stop-color="rgb(52.311707%, 57.875061%, 51.170349%)" offset="0.371094"/><stop stop-opacity="1" stop-color="rgb(51.950073%, 57.606506%, 50.880432%)" offset="0.375"/><stop stop-opacity="1" stop-color="rgb(51.58844%, 57.337952%, 50.590515%)" offset="0.378906"/><stop stop-opacity="1" stop-color="rgb(51.228333%, 57.069397%, 50.300598%)" offset="0.382812"/><stop stop-opacity="1" stop-color="rgb(50.866699%, 56.799316%, 50.010681%)" offset="0.386719"/><stop stop-opacity="1" stop-color="rgb(50.506592%, 56.530762%, 49.720764%)" offset="0.390625"/><stop stop-opacity="1" stop-color="rgb(50.144958%, 56.260681%, 49.429321%)" offset="0.394531"/><stop stop-opacity="1" stop-color="rgb(49.784851%, 55.992126%, 49.139404%)" offset="0.398438"/><stop stop-opacity="1" stop-color="rgb(49.423218%, 55.723572%, 48.849487%)" offset="0.402344"/><stop stop-opacity="1" stop-color="rgb(49.06311%, 55.455017%, 48.55957%)" offset="0.40625"/><stop stop-opacity="1" stop-color="rgb(48.701477%, 55.184937%, 48.269653%)" offset="0.410156"/><stop stop-opacity="1" stop-color="rgb(48.34137%, 54.916382%, 47.979736%)" offset="0.414063"/><stop stop-opacity="1" stop-color="rgb(47.979736%, 54.647827%, 47.689819%)" offset="0.417969"/><stop stop-opacity="1" stop-color="rgb(47.618103%, 54.379272%, 47.399902%)" offset="0.421875"/><stop stop-opacity="1" stop-color="rgb(47.25647%, 54.109192%, 47.109985%)" offset="0.425781"/><stop stop-opacity="1" stop-color="rgb(46.896362%, 53.840637%, 46.820068%)" offset="0.429688"/><stop stop-opacity="1" stop-color="rgb(46.534729%, 53.572083%, 46.530151%)" offset="0.433594"/><stop stop-opacity="1" stop-color="rgb(46.174622%, 53.303528%, 46.240234%)" offset="0.4375"/><stop stop-opacity="1" stop-color="rgb(45.812988%, 53.033447%, 45.948792%)" offset="0.441406"/><stop stop-opacity="1" stop-color="rgb(45.452881%, 52.764893%, 45.658875%)" offset="0.445312"/><stop stop-opacity="1" stop-color="rgb(45.091248%, 52.494812%, 45.368958%)" offset="0.449219"/><stop stop-opacity="1" stop-color="rgb(44.73114%, 52.226257%, 45.079041%)" offset="0.453125"/><stop stop-opacity="1" stop-color="rgb(44.369507%, 51.957703%, 44.789124%)" offset="0.457031"/><stop stop-opacity="1" stop-color="rgb(44.009399%, 51.689148%, 44.499207%)" offset="0.460937"/><stop stop-opacity="1" stop-color="rgb(43.647766%, 51.419067%, 44.20929%)" offset="0.464844"/><stop stop-opacity="1" stop-color="rgb(43.286133%, 51.150513%, 43.919373%)" offset="0.46875"/><stop stop-opacity="1" stop-color="rgb(42.9245%, 50.881958%, 43.629456%)" offset="0.472656"/><stop stop-opacity="1" stop-color="rgb(42.564392%, 50.613403%, 43.339539%)" offset="0.476563"/><stop stop-opacity="1" stop-color="rgb(42.202759%, 50.343323%, 43.049622%)" offset="0.480469"/><stop stop-opacity="1" stop-color="rgb(41.842651%, 50.074768%, 42.759705%)" offset="0.484375"/><stop stop-opacity="1" stop-color="rgb(41.481018%, 49.806213%, 42.468262%)" offset="0.488281"/><stop stop-opacity="1" stop-color="rgb(41.120911%, 49.537659%, 42.178345%)" offset="0.492188"/><stop stop-opacity="1" stop-color="rgb(40.759277%, 49.267578%, 41.888428%)" offset="0.496094"/><stop stop-opacity="1" stop-color="rgb(40.39917%, 48.999023%, 41.598511%)" offset="0.5"/><stop stop-opacity="1" stop-color="rgb(40.280151%, 48.869324%, 41.506958%)" offset="0.507812"/><stop stop-opacity="1" stop-color="rgb(40.040588%, 48.612976%, 41.322327%)" offset="0.515625"/><stop stop-opacity="1" stop-color="rgb(39.802551%, 48.355103%, 41.139221%)" offset="0.523438"/><stop stop-opacity="1" stop-color="rgb(39.564514%, 48.098755%, 40.95459%)" offset="0.53125"/><stop stop-opacity="1" stop-color="rgb(39.324951%, 47.840881%, 40.769958%)" offset="0.539062"/><stop stop-opacity="1" stop-color="rgb(39.086914%, 47.583008%, 40.586853%)" offset="0.546875"/><stop stop-opacity="1" stop-color="rgb(38.847351%, 47.32666%, 40.402222%)" offset="0.554688"/><stop stop-opacity="1" stop-color="rgb(38.609314%, 47.068787%, 40.219116%)" offset="0.5625"/><stop stop-opacity="1" stop-color="rgb(38.371277%, 46.810913%, 40.034485%)" offset="0.570312"/><stop stop-opacity="1" stop-color="rgb(38.131714%, 46.554565%, 39.851379%)" offset="0.578125"/><stop stop-opacity="1" stop-color="rgb(37.893677%, 46.296692%, 39.666748%)" offset="0.585938"/><stop stop-opacity="1" stop-color="rgb(37.65564%, 46.040344%, 39.482117%)" offset="0.59375"/><stop stop-opacity="1" stop-color="rgb(37.416077%, 45.782471%, 39.299011%)" offset="0.601562"/><stop stop-opacity="1" stop-color="rgb(37.17804%, 45.524597%, 39.11438%)" offset="0.609375"/><stop stop-opacity="1" stop-color="rgb(36.940002%, 45.26825%, 38.931274%)" offset="0.617188"/><stop stop-opacity="1" stop-color="rgb(36.700439%, 45.010376%, 38.746643%)" offset="0.625"/><stop stop-opacity="1" stop-color="rgb(36.462402%, 44.752502%, 38.562012%)" offset="0.632813"/><stop stop-opacity="1" stop-color="rgb(36.224365%, 44.496155%, 38.378906%)" offset="0.640625"/><stop stop-opacity="1" stop-color="rgb(35.984802%, 44.238281%, 38.194275%)" offset="0.648438"/><stop stop-opacity="1" stop-color="rgb(35.746765%, 43.981934%, 38.011169%)" offset="0.65625"/><stop stop-opacity="1" stop-color="rgb(35.507202%, 43.72406%, 37.826538%)" offset="0.664062"/><stop stop-opacity="1" stop-color="rgb(35.269165%, 43.466187%, 37.641907%)" offset="0.671875"/><stop stop-opacity="1" stop-color="rgb(35.031128%, 43.209839%, 37.458801%)" offset="0.679688"/><stop stop-opacity="1" stop-color="rgb(34.791565%, 42.951965%, 37.27417%)" offset="0.6875"/><stop stop-opacity="1" stop-color="rgb(34.553528%, 42.695618%, 37.091064%)" offset="0.695312"/><stop stop-opacity="1" stop-color="rgb(34.315491%, 42.437744%, 36.906433%)" offset="0.703125"/><stop stop-opacity="1" stop-color="rgb(34.075928%, 42.179871%, 36.721802%)" offset="0.710938"/><stop stop-opacity="1" stop-color="rgb(33.837891%, 41.923523%, 36.538696%)" offset="0.71875"/><stop stop-opacity="1" stop-color="rgb(33.599854%, 41.665649%, 36.354065%)" offset="0.726563"/><stop stop-opacity="1" stop-color="rgb(33.360291%, 41.407776%, 36.170959%)" offset="0.734375"/><stop stop-opacity="1" stop-color="rgb(33.122253%, 41.151428%, 35.986328%)" offset="0.742188"/><stop stop-opacity="1" stop-color="rgb(32.884216%, 40.893555%, 35.803223%)" offset="0.749999"/><stop stop-opacity="1" stop-color="rgb(32.765198%, 40.765381%, 35.71167%)" offset="0.75"/><stop stop-opacity="1" stop-color="rgb(32.644653%, 40.637207%, 35.618591%)" offset="0.757812"/><stop stop-opacity="1" stop-color="rgb(32.406616%, 40.379333%, 35.43396%)" offset="0.765625"/><stop stop-opacity="1" stop-color="rgb(32.167053%, 40.12146%, 35.250854%)" offset="0.773438"/><stop stop-opacity="1" stop-color="rgb(31.929016%, 39.865112%, 35.066223%)" offset="0.78125"/><stop stop-opacity="1" stop-color="rgb(31.690979%, 39.607239%, 34.883118%)" offset="0.789062"/><stop stop-opacity="1" stop-color="rgb(31.451416%, 39.349365%, 34.698486%)" offset="0.796875"/><stop stop-opacity="1" stop-color="rgb(31.213379%, 39.093018%, 34.513855%)" offset="0.804688"/><stop stop-opacity="1" stop-color="rgb(30.975342%, 38.835144%, 34.33075%)" offset="0.8125"/><stop stop-opacity="1" stop-color="rgb(30.735779%, 38.578796%, 34.146118%)" offset="0.820312"/><stop stop-opacity="1" stop-color="rgb(30.497742%, 38.320923%, 33.963013%)" offset="0.828125"/><stop stop-opacity="1" stop-color="rgb(30.259705%, 38.063049%, 33.778381%)" offset="0.835938"/><stop stop-opacity="1" stop-color="rgb(30.020142%, 37.806702%, 33.59375%)" offset="0.84375"/><stop stop-opacity="1" stop-color="rgb(29.782104%, 37.548828%, 33.410645%)" offset="0.851563"/><stop stop-opacity="1" stop-color="rgb(29.542542%, 37.290955%, 33.226013%)" offset="0.859375"/><stop stop-opacity="1" stop-color="rgb(29.304504%, 37.034607%, 33.042908%)" offset="0.867188"/><stop stop-opacity="1" stop-color="rgb(29.066467%, 36.776733%, 32.858276%)" offset="0.875"/><stop stop-opacity="1" stop-color="rgb(28.826904%, 36.520386%, 32.675171%)" offset="0.882812"/><stop stop-opacity="1" stop-color="rgb(28.588867%, 36.262512%, 32.49054%)" offset="0.890625"/><stop stop-opacity="1" stop-color="rgb(28.35083%, 36.004639%, 32.305908%)" offset="0.898438"/><stop stop-opacity="1" stop-color="rgb(28.111267%, 35.748291%, 32.122803%)" offset="0.90625"/><stop stop-opacity="1" stop-color="rgb(27.87323%, 35.490417%, 31.938171%)" offset="0.914062"/><stop stop-opacity="1" stop-color="rgb(27.635193%, 35.232544%, 31.755066%)" offset="0.921875"/><stop stop-opacity="1" stop-color="rgb(27.39563%, 34.976196%, 31.570435%)" offset="0.929688"/><stop stop-opacity="1" stop-color="rgb(27.157593%, 34.718323%, 31.385803%)" offset="0.9375"/><stop stop-opacity="1" stop-color="rgb(26.919556%, 34.461975%, 31.202698%)" offset="0.945312"/><stop stop-opacity="1" stop-color="rgb(26.679993%, 34.204102%, 31.018066%)" offset="0.953125"/><stop stop-opacity="1" stop-color="rgb(26.441956%, 33.946228%, 30.834961%)" offset="0.960938"/><stop stop-opacity="1" stop-color="rgb(26.202393%, 33.68988%, 30.65033%)" offset="0.96875"/><stop stop-opacity="1" stop-color="rgb(25.964355%, 33.432007%, 30.465698%)" offset="0.976562"/><stop stop-opacity="1" stop-color="rgb(25.726318%, 33.175659%, 30.282593%)" offset="0.984375"/><stop stop-opacity="1" stop-color="rgb(25.486755%, 32.917786%, 30.097961%)" offset="0.992188"/><stop stop-opacity="1" stop-color="rgb(25.248718%, 32.659912%, 29.914856%)" offset="1"/></linearGradient><clipPath id="01cb0e4ffe"><path d="M 268.648438 18.804688 L 402.898438 18.804688 L 402.898438 131.304688 L 268.648438 131.304688 Z M 268.648438 18.804688 " clip-rule="nonzero"/></clipPath></defs><g clip-path="url(#56fc60f4db)"><g clip-path="url(#778d6c8acf)"><path fill="url(#fb070e7fff)" d="M 0 0 L 0 150 L 449.996094 150 L 449.996094 0 Z M 0 0 " fill-rule="nonzero"/></g></g><g clip-path="url(#01cb0e4ffe)"><path fill="#1a3636" d="M 394.714844 110.867188 L 277.171875 110.867188 C 274.261719 110.867188 271.890625 108.816406 271.890625 106.296875 L 271.890625 100.121094 L 360.523438 100.121094 C 361.417969 100.121094 362.140625 99.398438 362.140625 98.503906 C 362.140625 97.613281 361.417969 96.890625 360.523438 96.890625 L 271.890625 96.890625 L 271.890625 26.605469 C 271.890625 24.085938 274.261719 22.035156 277.171875 22.035156 L 394.714844 22.035156 C 397.625 22.035156 399.992188 24.085938 399.992188 26.605469 L 399.992188 96.890625 L 384.824219 96.890625 C 383.929688 96.890625 383.207031 97.613281 383.207031 98.503906 C 383.207031 99.398438 383.929688 100.121094 384.824219 100.121094 L 399.992188 100.121094 L 399.992188 106.296875 C 399.992188 108.816406 397.625 110.867188 394.714844 110.867188 Z M 400.667969 21.03125 C 399.070312 19.59375 396.957031 18.804688 394.714844 18.804688 L 277.171875 18.804688 C 274.929688 18.804688 272.816406 19.59375 271.214844 21.03125 C 269.566406 22.507812 268.660156 24.488281 268.660156 26.605469 L 268.660156 106.296875 C 268.660156 108.414062 269.566406 110.394531 271.214844 111.875 C 272.816406 113.308594 274.929688 114.097656 277.171875 114.097656 L 320.257812 114.097656 L 317.871094 127.953125 L 310.808594 127.953125 C 309.914062 127.953125 309.191406 128.679688 309.191406 129.570312 C 309.191406 130.464844 309.914062 131.1875 310.808594 131.1875 L 339.167969 131.1875 C 340.058594 131.1875 340.785156 130.464844 340.785156 129.570312 C 340.785156 128.679688 340.058594 127.953125 339.167969 127.953125 L 321.152344 127.953125 L 323.539062 114.097656 L 348.347656 114.097656 L 350.734375 127.953125 L 348.441406 127.953125 C 347.546875 127.953125 346.824219 128.679688 346.824219 129.570312 C 346.824219 130.464844 347.546875 131.1875 348.441406 131.1875 L 361.078125 131.1875 C 361.96875 131.1875 362.695312 130.464844 362.695312 129.570312 C 362.695312 128.679688 361.96875 127.953125 361.078125 127.953125 L 354.015625 127.953125 L 351.628906 114.097656 L 394.714844 114.097656 C 396.957031 114.097656 399.070312 113.308594 400.667969 111.875 C 402.320312 110.394531 403.226562 108.414062 403.226562 106.296875 L 403.226562 26.605469 C 403.226562 24.488281 402.320312 22.507812 400.667969 21.03125 " fill-opacity="1" fill-rule="nonzero"/></g><path fill="#1a3636" d="M 291.675781 34.734375 L 294.757812 44.957031 C 294.757812 44.964844 294.761719 44.972656 294.765625 44.984375 C 294.769531 45 294.773438 45.015625 294.78125 45.03125 C 294.785156 45.039062 294.789062 45.046875 294.789062 45.054688 C 294.796875 45.070312 294.800781 45.089844 294.808594 45.105469 C 294.8125 45.109375 294.816406 45.117188 294.816406 45.125 C 294.824219 45.140625 294.832031 45.160156 294.839844 45.175781 C 294.84375 45.179688 294.84375 45.183594 294.847656 45.191406 C 294.855469 45.210938 294.867188 45.230469 294.875 45.25 C 294.878906 45.25 294.878906 45.25 294.878906 45.25 C 295.007812 45.492188 295.195312 45.703125 295.441406 45.855469 C 295.449219 45.859375 295.457031 45.867188 295.460938 45.871094 C 295.472656 45.875 295.480469 45.878906 295.488281 45.886719 C 295.503906 45.894531 295.515625 45.902344 295.53125 45.910156 L 304.902344 51.015625 C 302.925781 53.609375 299.808594 55.289062 296.304688 55.289062 C 290.351562 55.289062 285.507812 50.445312 285.507812 44.488281 C 285.507812 40.191406 288.03125 36.472656 291.675781 34.734375 Z M 299.949219 34.324219 L 296.730469 40.296875 L 294.769531 33.800781 C 295.269531 33.730469 295.78125 33.691406 296.304688 33.691406 C 297.582031 33.691406 298.808594 33.914062 299.949219 34.324219 Z M 307.101562 44.488281 C 307.101562 45.785156 306.871094 47.027344 306.453125 48.179688 L 298.492188 43.839844 L 302.792969 35.863281 C 305.410156 37.835938 307.101562 40.96875 307.101562 44.488281 Z M 296.304688 58.519531 C 300.050781 58.519531 303.574219 57.0625 306.226562 54.410156 C 308.875 51.761719 310.335938 48.238281 310.335938 44.488281 C 310.335938 40.742188 308.875 37.21875 306.226562 34.570312 C 303.574219 31.917969 300.050781 30.457031 296.304688 30.457031 C 292.554688 30.457031 289.03125 31.917969 286.382812 34.570312 C 283.730469 37.21875 282.273438 40.742188 282.273438 44.488281 C 282.273438 48.238281 283.730469 51.761719 286.382812 54.410156 C 289.03125 57.0625 292.554688 58.519531 296.304688 58.519531 " fill-opacity="1" fill-rule="nonzero"/><path fill="#1a3636" d="M 328.394531 86.671875 L 328.394531 61.097656 C 328.421875 60.980469 328.4375 60.859375 328.4375 60.738281 C 328.4375 60.613281 328.421875 60.492188 328.394531 60.378906 L 328.394531 52.53125 L 334.746094 52.53125 L 334.746094 86.671875 Z M 290.140625 80.003906 L 296.492188 80.003906 L 296.492188 82.484375 C 296.492188 83.378906 297.214844 84.101562 298.109375 84.101562 C 299.003906 84.101562 299.726562 83.378906 299.726562 82.484375 L 299.726562 70.101562 L 306.078125 70.101562 L 306.078125 72.117188 C 306.050781 72.234375 306.035156 72.355469 306.035156 72.476562 L 306.035156 86.671875 L 290.140625 86.671875 Z M 317.234375 81.757812 C 318.128906 81.757812 318.851562 81.03125 318.851562 80.140625 L 318.851562 62.355469 L 325.164062 62.355469 L 325.164062 86.671875 L 309.269531 86.671875 L 309.269531 74.09375 L 315.621094 74.09375 L 315.621094 80.140625 C 315.621094 81.03125 316.34375 81.757812 317.234375 81.757812 Z M 341.386719 86.671875 L 337.980469 86.671875 L 337.980469 50.914062 C 337.980469 50.019531 337.253906 49.296875 336.363281 49.296875 L 326.777344 49.296875 C 325.886719 49.296875 325.164062 50.019531 325.164062 50.914062 L 325.164062 59.121094 L 317.234375 59.121094 C 316.34375 59.121094 315.621094 59.84375 315.621094 60.738281 L 315.621094 70.859375 L 309.308594 70.859375 L 309.308594 68.484375 C 309.308594 67.589844 308.585938 66.867188 307.691406 66.867188 L 298.109375 66.867188 C 297.214844 66.867188 296.492188 67.589844 296.492188 68.484375 L 296.492188 76.769531 L 288.527344 76.769531 C 287.632812 76.769531 286.910156 77.492188 286.910156 78.386719 L 286.910156 86.671875 L 283.496094 86.671875 C 282.601562 86.671875 281.878906 87.398438 281.878906 88.289062 C 281.878906 89.183594 282.601562 89.90625 283.496094 89.90625 L 341.386719 89.90625 C 342.277344 89.90625 343 89.183594 343 88.289062 C 343 87.398438 342.277344 86.671875 341.386719 86.671875 " fill-opacity="1" fill-rule="nonzero"/><path fill="#1a3636" d="M 349.484375 68.25 C 349.589844 68.25 349.695312 68.238281 349.804688 68.21875 C 352.359375 67.703125 353.832031 65.136719 355.253906 62.652344 C 356.890625 59.800781 358.09375 57.929688 359.84375 57.914062 C 359.851562 57.914062 359.863281 57.914062 359.875 57.914062 C 361.539062 57.914062 362.363281 59.109375 363.671875 61.214844 C 364.410156 62.398438 365.171875 63.625 366.265625 64.617188 C 367.625 65.847656 369.195312 66.433594 371.058594 66.410156 C 372.371094 66.390625 373.59375 65.878906 374.6875 64.878906 C 375.546875 64.097656 376.335938 63.019531 377.097656 61.582031 C 378.414062 59.09375 379.488281 55.828125 380.523438 52.664062 C 381.539062 49.574219 382.589844 46.378906 383.8125 44.089844 C 385.507812 40.921875 386.777344 40.921875 387.195312 40.921875 C 388.085938 40.921875 388.8125 40.195312 388.8125 39.304688 C 388.8125 38.410156 388.085938 37.6875 387.195312 37.6875 C 385.84375 37.6875 384.582031 38.199219 383.453125 39.203125 C 382.5625 39.996094 381.746094 41.097656 380.960938 42.566406 C 379.605469 45.101562 378.511719 48.433594 377.453125 51.65625 C 376.457031 54.6875 375.425781 57.824219 374.238281 60.066406 C 372.605469 63.15625 371.410156 63.171875 371.019531 63.175781 C 368.832031 63.203125 367.84375 61.800781 366.417969 59.503906 C 365.082031 57.355469 363.417969 54.679688 359.878906 54.679688 C 359.855469 54.679688 359.832031 54.679688 359.8125 54.679688 C 358.105469 54.699219 356.542969 55.472656 355.171875 56.984375 C 354.101562 58.164062 353.261719 59.625 352.449219 61.042969 C 351.382812 62.902344 350.28125 64.824219 349.164062 65.046875 C 348.289062 65.226562 347.722656 66.078125 347.898438 66.953125 C 348.054688 67.71875 348.730469 68.25 349.484375 68.25 " fill-opacity="1" fill-rule="nonzero"/><path fill="#1a3636" d="M 390.007812 88.289062 C 390.007812 87.398438 389.285156 86.671875 388.390625 86.671875 L 347.585938 86.671875 C 346.691406 86.671875 345.96875 87.398438 345.96875 88.289062 C 345.96875 89.183594 346.691406 89.90625 347.585938 89.90625 L 388.390625 89.90625 C 389.285156 89.90625 390.007812 89.183594 390.007812 88.289062 " fill-opacity="1" fill-rule="nonzero"/><path fill="#1a3636" d="M 361.671875 64.792969 C 361.671875 63.898438 360.945312 63.175781 360.054688 63.175781 C 359.160156 63.175781 358.4375 63.898438 358.4375 64.792969 L 358.4375 66.078125 C 358.4375 66.96875 359.160156 67.691406 360.054688 67.691406 C 360.945312 67.691406 361.671875 66.96875 361.671875 66.078125 L 361.671875 64.792969 " fill-opacity="1" fill-rule="nonzero"/><path fill="#1a3636" d="M 361.671875 72.035156 C 361.671875 71.140625 360.945312 70.417969 360.054688 70.417969 C 359.160156 70.417969 358.4375 71.140625 358.4375 72.035156 L 358.4375 73.320312 C 358.4375 74.210938 359.160156 74.9375 360.054688 74.9375 C 360.945312 74.9375 361.671875 74.210938 361.671875 73.320312 L 361.671875 72.035156 " fill-opacity="1" fill-rule="nonzero"/><path fill="#1a3636" d="M 360.054688 78.175781 C 359.160156 78.175781 358.4375 78.898438 358.4375 79.792969 L 358.4375 81.074219 C 358.4375 81.96875 359.160156 82.691406 360.054688 82.691406 C 360.945312 82.691406 361.671875 81.96875 361.671875 81.074219 L 361.671875 79.792969 C 361.671875 78.898438 360.945312 78.175781 360.054688 78.175781 " fill-opacity="1" fill-rule="nonzero"/><path fill="#1a3636" d="M 386.285156 72.421875 C 386.285156 71.527344 385.558594 70.804688 384.667969 70.804688 C 383.773438 70.804688 383.050781 71.527344 383.050781 72.421875 L 383.050781 73.703125 C 383.050781 74.597656 383.773438 75.320312 384.667969 75.320312 C 385.558594 75.320312 386.285156 74.597656 386.285156 73.703125 L 386.285156 72.421875 " fill-opacity="1" fill-rule="nonzero"/><path fill="#1a3636" d="M 384.667969 78.558594 C 383.773438 78.558594 383.050781 79.285156 383.050781 80.175781 L 383.050781 81.460938 C 383.050781 82.355469 383.773438 83.078125 384.667969 83.078125 C 385.558594 83.078125 386.285156 82.355469 386.285156 81.460938 L 386.285156 80.175781 C 386.285156 79.285156 385.558594 78.558594 384.667969 78.558594 " fill-opacity="1" fill-rule="nonzero"/><path fill="#1a3636" d="M 386.285156 50.347656 C 386.285156 49.457031 385.558594 48.730469 384.667969 48.730469 C 383.773438 48.730469 383.050781 49.457031 383.050781 50.347656 L 383.050781 51.632812 C 383.050781 52.527344 383.773438 53.25 384.667969 53.25 C 385.558594 53.25 386.285156 52.527344 386.285156 51.632812 L 386.285156 50.347656 " fill-opacity="1" fill-rule="nonzero"/><path fill="#1a3636" d="M 386.285156 57.589844 C 386.285156 56.699219 385.558594 55.976562 384.667969 55.976562 C 383.773438 55.976562 383.050781 56.699219 383.050781 57.589844 L 383.050781 58.875 C 383.050781 59.769531 383.773438 60.492188 384.667969 60.492188 C 385.558594 60.492188 386.285156 59.769531 386.285156 58.875 L 386.285156 57.589844 " fill-opacity="1" fill-rule="nonzero"/><path fill="#1a3636" d="M 386.285156 66.460938 L 386.285156 65.175781 C 386.285156 64.285156 385.558594 63.5625 384.667969 63.5625 C 383.773438 63.5625 383.050781 64.285156 383.050781 65.175781 L 383.050781 66.632812 C 383.050781 67.523438 383.773438 68.25 384.667969 68.25 C 385.558594 68.25 386.285156 67.523438 386.285156 66.632812 L 386.285156 66.460938 " fill-opacity="1" fill-rule="nonzero"/><path fill="#1a3636" d="M 374.046875 71.777344 C 374.046875 70.886719 373.324219 70.160156 372.429688 70.160156 C 371.535156 70.160156 370.8125 70.886719 370.8125 71.777344 L 370.8125 73.0625 C 370.8125 73.957031 371.535156 74.679688 372.429688 74.679688 C 373.324219 74.679688 374.046875 73.957031 374.046875 73.0625 L 374.046875 71.777344 " fill-opacity="1" fill-rule="nonzero"/><path fill="#1a3636" d="M 372.429688 77.917969 C 371.535156 77.917969 370.8125 78.640625 370.8125 79.535156 L 370.8125 80.820312 C 370.8125 81.710938 371.535156 82.4375 372.429688 82.4375 C 373.324219 82.4375 374.046875 81.710938 374.046875 80.820312 L 374.046875 79.535156 C 374.046875 78.640625 373.324219 77.917969 372.429688 77.917969 " fill-opacity="1" fill-rule="nonzero"/><path fill="#1a3636" d="M 351.101562 72.035156 C 351.101562 71.140625 350.378906 70.417969 349.484375 70.417969 C 348.59375 70.417969 347.867188 71.140625 347.867188 72.035156 L 347.867188 73.320312 C 347.867188 74.210938 348.59375 74.9375 349.484375 74.9375 C 350.378906 74.9375 351.101562 74.210938 351.101562 73.320312 L 351.101562 72.035156 " fill-opacity="1" fill-rule="nonzero"/><path fill="#1a3636" d="M 349.484375 78.175781 C 348.59375 78.175781 347.867188 78.898438 347.867188 79.792969 L 347.867188 81.074219 C 347.867188 81.96875 348.59375 82.691406 349.484375 82.691406 C 350.378906 82.691406 351.101562 81.96875 351.101562 81.074219 L 351.101562 79.792969 C 351.101562 78.898438 350.378906 78.175781 349.484375 78.175781 " fill-opacity="1" fill-rule="nonzero"/><path fill="#1a3636" d="M 337.289062 103.738281 L 334.59375 103.738281 C 333.703125 103.738281 332.980469 104.464844 332.980469 105.355469 C 332.980469 106.25 333.703125 106.972656 334.59375 106.972656 L 337.289062 106.972656 C 338.183594 106.972656 338.90625 106.25 338.90625 105.355469 C 338.90625 104.464844 338.183594 103.738281 337.289062 103.738281 " fill-opacity="1" fill-rule="nonzero"/><g fill="#1a3636" fill-opacity="1"><g transform="translate(24.59335, 45.664335)"><g><path d="M 7.546875 -2.859375 C 8.265625 -2.859375 8.847656 -3.054688 9.296875 -3.453125 C 9.742188 -3.847656 9.976562 -4.375 10 -5.03125 L 13.640625 -5.03125 C 13.628906 -4.039062 13.359375 -3.132812 12.828125 -2.3125 C 12.296875 -1.5 11.570312 -0.863281 10.65625 -0.40625 C 9.738281 0.0390625 8.722656 0.265625 7.609375 0.265625 C 5.535156 0.265625 3.894531 -0.394531 2.6875 -1.71875 C 1.488281 -3.039062 0.890625 -4.867188 0.890625 -7.203125 L 0.890625 -7.453125 C 0.890625 -9.691406 1.484375 -11.476562 2.671875 -12.8125 C 3.867188 -14.15625 5.507812 -14.828125 7.59375 -14.828125 C 9.40625 -14.828125 10.859375 -14.304688 11.953125 -13.265625 C 13.054688 -12.234375 13.617188 -10.859375 13.640625 -9.140625 L 10 -9.140625 C 9.976562 -9.890625 9.742188 -10.5 9.296875 -10.96875 C 8.847656 -11.4375 8.253906 -11.671875 7.515625 -11.671875 C 6.609375 -11.671875 5.925781 -11.34375 5.46875 -10.6875 C 5.007812 -10.03125 4.78125 -8.960938 4.78125 -7.484375 L 4.78125 -7.078125 C 4.78125 -5.578125 5.003906 -4.5 5.453125 -3.84375 C 5.910156 -3.1875 6.609375 -2.859375 7.546875 -2.859375 Z M 7.546875 -2.859375 "/></g></g></g><g fill="#1a3636" fill-opacity="1"><g transform="translate(38.95454, 45.664335)"><g><path d="M 0.890625 -7.40625 C 0.890625 -8.851562 1.164062 -10.140625 1.71875 -11.265625 C 2.28125 -12.398438 3.082031 -13.273438 4.125 -13.890625 C 5.164062 -14.515625 6.378906 -14.828125 7.765625 -14.828125 C 9.722656 -14.828125 11.320312 -14.222656 12.5625 -13.015625 C 13.8125 -11.816406 14.503906 -10.1875 14.640625 -8.125 L 14.671875 -7.125 C 14.671875 -4.894531 14.046875 -3.101562 12.796875 -1.75 C 11.554688 -0.40625 9.882812 0.265625 7.78125 0.265625 C 5.6875 0.265625 4.015625 -0.40625 2.765625 -1.75 C 1.515625 -3.09375 0.890625 -4.921875 0.890625 -7.234375 Z M 4.78125 -7.125 C 4.78125 -5.75 5.035156 -4.691406 5.546875 -3.953125 C 6.066406 -3.222656 6.8125 -2.859375 7.78125 -2.859375 C 8.726562 -2.859375 9.460938 -3.21875 9.984375 -3.9375 C 10.515625 -4.664062 10.78125 -5.820312 10.78125 -7.40625 C 10.78125 -8.757812 10.515625 -9.804688 9.984375 -10.546875 C 9.460938 -11.296875 8.722656 -11.671875 7.765625 -11.671875 C 6.804688 -11.671875 6.066406 -11.300781 5.546875 -10.5625 C 5.035156 -9.820312 4.78125 -8.675781 4.78125 -7.125 Z M 4.78125 -7.125 "/></g></g></g><g fill="#1a3636" fill-opacity="1"><g transform="translate(54.525942, 45.664335)"><g><path d="M 0.921875 -7.390625 C 0.921875 -9.617188 1.453125 -11.414062 2.515625 -12.78125 C 3.578125 -14.144531 5.007812 -14.828125 6.8125 -14.828125 C 8.414062 -14.828125 9.660156 -14.28125 10.546875 -13.1875 L 10.703125 -14.546875 L 14.234375 -14.546875 L 14.234375 -0.484375 C 14.234375 0.785156 13.941406 1.890625 13.359375 2.828125 C 12.785156 3.773438 11.972656 4.492188 10.921875 4.984375 C 9.867188 5.484375 8.640625 5.734375 7.234375 5.734375 C 6.171875 5.734375 5.128906 5.519531 4.109375 5.09375 C 3.097656 4.664062 2.332031 4.113281 1.8125 3.4375 L 3.53125 1.078125 C 4.5 2.160156 5.675781 2.703125 7.0625 2.703125 C 8.09375 2.703125 8.894531 2.425781 9.46875 1.875 C 10.039062 1.320312 10.328125 0.539062 10.328125 -0.46875 L 10.328125 -1.25 C 9.429688 -0.238281 8.253906 0.265625 6.796875 0.265625 C 5.046875 0.265625 3.628906 -0.414062 2.546875 -1.78125 C 1.460938 -3.144531 0.921875 -4.957031 0.921875 -7.21875 Z M 4.8125 -7.109375 C 4.8125 -5.785156 5.078125 -4.75 5.609375 -4 C 6.140625 -3.25 6.863281 -2.875 7.78125 -2.875 C 8.96875 -2.875 9.816406 -3.316406 10.328125 -4.203125 L 10.328125 -10.328125 C 9.804688 -11.210938 8.96875 -11.65625 7.8125 -11.65625 C 6.882812 -11.65625 6.148438 -11.273438 5.609375 -10.515625 C 5.078125 -9.753906 4.8125 -8.617188 4.8125 -7.109375 Z M 4.8125 -7.109375 "/></g></g></g><g fill="#1a3636" fill-opacity="1"><g transform="translate(70.245259, 45.664335)"><g><path d="M 6.9375 -4.75 L 9.640625 -14.546875 L 13.703125 -14.546875 L 8.796875 0 L 5.078125 0 L 0.171875 -14.546875 L 4.234375 -14.546875 Z M 6.9375 -4.75 "/></g></g></g><g fill="#1a3636" fill-opacity="1"><g transform="translate(84.162705, 45.664335)"><g><path d="M 5.59375 0 L 1.6875 0 L 1.6875 -14.546875 L 5.59375 -14.546875 Z M 1.46875 -18.3125 C 1.46875 -18.894531 1.660156 -19.375 2.046875 -19.75 C 2.441406 -20.132812 2.972656 -20.328125 3.640625 -20.328125 C 4.304688 -20.328125 4.835938 -20.132812 5.234375 -19.75 C 5.628906 -19.375 5.828125 -18.894531 5.828125 -18.3125 C 5.828125 -17.726562 5.625 -17.242188 5.21875 -16.859375 C 4.820312 -16.484375 4.296875 -16.296875 3.640625 -16.296875 C 2.984375 -16.296875 2.457031 -16.484375 2.0625 -16.859375 C 1.664062 -17.242188 1.46875 -17.726562 1.46875 -18.3125 Z M 1.46875 -18.3125 "/></g></g></g><g fill="#1a3636" fill-opacity="1"><g transform="translate(91.464321, 45.664335)"><g><path d="M 9.375 -4.015625 C 9.375 -4.492188 9.140625 -4.867188 8.671875 -5.140625 C 8.203125 -5.421875 7.445312 -5.664062 6.40625 -5.875 C 2.9375 -6.601562 1.203125 -8.078125 1.203125 -10.296875 C 1.203125 -11.585938 1.738281 -12.664062 2.8125 -13.53125 C 3.882812 -14.394531 5.285156 -14.828125 7.015625 -14.828125 C 8.867188 -14.828125 10.347656 -14.390625 11.453125 -13.515625 C 12.554688 -12.648438 13.109375 -11.519531 13.109375 -10.125 L 9.234375 -10.125 C 9.234375 -10.6875 9.050781 -11.144531 8.6875 -11.5 C 8.332031 -11.863281 7.769531 -12.046875 7 -12.046875 C 6.351562 -12.046875 5.847656 -11.894531 5.484375 -11.59375 C 5.128906 -11.300781 4.953125 -10.929688 4.953125 -10.484375 C 4.953125 -10.046875 5.15625 -9.691406 5.5625 -9.421875 C 5.96875 -9.160156 6.65625 -8.929688 7.625 -8.734375 C 8.59375 -8.546875 9.410156 -8.332031 10.078125 -8.09375 C 12.128906 -7.34375 13.15625 -6.039062 13.15625 -4.1875 C 13.15625 -2.851562 12.582031 -1.773438 11.4375 -0.953125 C 10.300781 -0.140625 8.832031 0.265625 7.03125 0.265625 C 5.8125 0.265625 4.726562 0.0507812 3.78125 -0.375 C 2.84375 -0.8125 2.101562 -1.410156 1.5625 -2.171875 C 1.019531 -2.929688 0.75 -3.75 0.75 -4.625 L 4.4375 -4.625 C 4.476562 -3.9375 4.734375 -3.40625 5.203125 -3.03125 C 5.679688 -2.664062 6.316406 -2.484375 7.109375 -2.484375 C 7.859375 -2.484375 8.421875 -2.625 8.796875 -2.90625 C 9.179688 -3.1875 9.375 -3.554688 9.375 -4.015625 Z M 9.375 -4.015625 "/></g></g></g><g fill="#1a3636" fill-opacity="1"><g transform="translate(105.623809, 45.664335)"><g><path d="M 12.8125 -4.03125 L 5.734375 -4.03125 L 4.390625 0 L 0.09375 0 L 7.390625 -19.578125 L 11.125 -19.578125 L 18.453125 0 L 14.15625 0 Z M 6.8125 -7.296875 L 11.71875 -7.296875 L 9.25 -14.640625 Z M 6.8125 -7.296875 "/></g></g></g><g fill="#1a3636" fill-opacity="1"><g transform="translate(124.153509, 45.664335)"><g><path d="M 6.046875 0 L 2 0 L 2 -19.578125 L 6.046875 -19.578125 Z M 6.046875 0 "/></g></g></g><g fill="#1a3636" fill-opacity="1"><g transform="translate(132.181252, 45.664335)"><g><path d="M 1.671875 -1.90625 C 1.671875 -2.53125 1.878906 -3.035156 2.296875 -3.421875 C 2.722656 -3.804688 3.25 -4 3.875 -4 C 4.507812 -4 5.035156 -3.804688 5.453125 -3.421875 C 5.867188 -3.035156 6.078125 -2.53125 6.078125 -1.90625 C 6.078125 -1.300781 5.867188 -0.804688 5.453125 -0.421875 C 5.046875 -0.046875 4.519531 0.140625 3.875 0.140625 C 3.238281 0.140625 2.710938 -0.046875 2.296875 -0.421875 C 1.878906 -0.804688 1.671875 -1.300781 1.671875 -1.90625 Z M 1.671875 -12.921875 C 1.671875 -13.546875 1.878906 -14.050781 2.296875 -14.4375 C 2.722656 -14.820312 3.25 -15.015625 3.875 -15.015625 C 4.507812 -15.015625 5.035156 -14.820312 5.453125 -14.4375 C 5.867188 -14.050781 6.078125 -13.546875 6.078125 -12.921875 C 6.078125 -12.316406 5.867188 -11.820312 5.453125 -11.4375 C 5.046875 -11.0625 4.519531 -10.875 3.875 -10.875 C 3.238281 -10.875 2.710938 -11.0625 2.296875 -11.4375 C 1.878906 -11.820312 1.671875 -12.316406 1.671875 -12.921875 Z M 1.671875 -12.921875 "/></g></g></g><g fill="#1a3636" fill-opacity="1"><g transform="translate(139.964437, 45.664335)"><g/></g></g><g fill="#1a3636" fill-opacity="1"><g transform="translate(24.59335, 83.914333)"><g><path d="M 7.015625 -19.578125 L 12.046875 -5.375 L 17.0625 -19.578125 L 22.359375 -19.578125 L 22.359375 0 L 18.3125 0 L 18.3125 -5.359375 L 18.703125 -14.59375 L 13.421875 0 L 10.65625 0 L 5.375 -14.578125 L 5.78125 -5.359375 L 5.78125 0 L 1.75 0 L 1.75 -19.578125 Z M 7.015625 -19.578125 "/></g></g></g><g fill="#1a3636" fill-opacity="1"><g transform="translate(48.716922, 83.914333)"><g><path d="M 9.921875 0 C 9.742188 -0.351562 9.613281 -0.789062 9.53125 -1.3125 C 8.59375 -0.257812 7.367188 0.265625 5.859375 0.265625 C 4.429688 0.265625 3.25 -0.144531 2.3125 -0.96875 C 1.382812 -1.789062 0.921875 -2.832031 0.921875 -4.09375 C 0.921875 -5.632812 1.488281 -6.816406 2.625 -7.640625 C 3.769531 -8.460938 5.425781 -8.878906 7.59375 -8.890625 L 9.375 -8.890625 L 9.375 -9.71875 C 9.375 -10.394531 9.203125 -10.929688 8.859375 -11.328125 C 8.515625 -11.734375 7.96875 -11.9375 7.21875 -11.9375 C 6.5625 -11.9375 6.046875 -11.78125 5.671875 -11.46875 C 5.304688 -11.15625 5.125 -10.726562 5.125 -10.1875 L 1.234375 -10.1875 C 1.234375 -11.03125 1.492188 -11.804688 2.015625 -12.515625 C 2.535156 -13.234375 3.269531 -13.796875 4.21875 -14.203125 C 5.175781 -14.617188 6.242188 -14.828125 7.421875 -14.828125 C 9.210938 -14.828125 10.632812 -14.375 11.6875 -13.46875 C 12.75 -12.570312 13.28125 -11.304688 13.28125 -9.671875 L 13.28125 -3.359375 C 13.289062 -1.984375 13.484375 -0.941406 13.859375 -0.234375 L 13.859375 0 Z M 6.71875 -2.703125 C 7.289062 -2.703125 7.816406 -2.828125 8.296875 -3.078125 C 8.785156 -3.335938 9.144531 -3.679688 9.375 -4.109375 L 9.375 -6.625 L 7.921875 -6.625 C 5.972656 -6.625 4.9375 -5.945312 4.8125 -4.59375 L 4.796875 -4.375 C 4.796875 -3.882812 4.96875 -3.484375 5.3125 -3.171875 C 5.65625 -2.859375 6.125 -2.703125 6.71875 -2.703125 Z M 6.71875 -2.703125 "/></g></g></g><g fill="#1a3636" fill-opacity="1"><g transform="translate(63.481516, 83.914333)"><g><path d="M 5.59375 0 L 1.6875 0 L 1.6875 -14.546875 L 5.59375 -14.546875 Z M 1.46875 -18.3125 C 1.46875 -18.894531 1.660156 -19.375 2.046875 -19.75 C 2.441406 -20.132812 2.972656 -20.328125 3.640625 -20.328125 C 4.304688 -20.328125 4.835938 -20.132812 5.234375 -19.75 C 5.628906 -19.375 5.828125 -18.894531 5.828125 -18.3125 C 5.828125 -17.726562 5.625 -17.242188 5.21875 -16.859375 C 4.820312 -16.484375 4.296875 -16.296875 3.640625 -16.296875 C 2.984375 -16.296875 2.457031 -16.484375 2.0625 -16.859375 C 1.664062 -17.242188 1.46875 -17.726562 1.46875 -18.3125 Z M 1.46875 -18.3125 "/></g></g></g><g fill="#1a3636" fill-opacity="1"><g transform="translate(70.783132, 83.914333)"><g><path d="M 5.078125 -14.546875 L 5.1875 -12.875 C 6.226562 -14.175781 7.625 -14.828125 9.375 -14.828125 C 10.914062 -14.828125 12.0625 -14.375 12.8125 -13.46875 C 13.570312 -12.5625 13.957031 -11.207031 13.96875 -9.40625 L 13.96875 0 L 10.09375 0 L 10.09375 -9.3125 C 10.09375 -10.132812 9.910156 -10.726562 9.546875 -11.09375 C 9.191406 -11.46875 8.597656 -11.65625 7.765625 -11.65625 C 6.671875 -11.65625 5.847656 -11.191406 5.296875 -10.265625 L 5.296875 0 L 1.40625 0 L 1.40625 -14.546875 Z M 5.078125 -14.546875 "/></g></g></g><g fill="#1a3636" fill-opacity="1"><g transform="translate(86.20662, 83.914333)"><g><path d="M 6.140625 -18.125 L 6.140625 -14.546875 L 8.640625 -14.546875 L 8.640625 -11.703125 L 6.140625 -11.703125 L 6.140625 -4.4375 C 6.140625 -3.894531 6.242188 -3.507812 6.453125 -3.28125 C 6.660156 -3.050781 7.054688 -2.9375 7.640625 -2.9375 C 8.066406 -2.9375 8.445312 -2.96875 8.78125 -3.03125 L 8.78125 -0.078125 C 8.019531 0.148438 7.234375 0.265625 6.421875 0.265625 C 3.703125 0.265625 2.316406 -1.109375 2.265625 -3.859375 L 2.265625 -11.703125 L 0.140625 -11.703125 L 0.140625 -14.546875 L 2.265625 -14.546875 L 2.265625 -18.125 Z M 6.140625 -18.125 "/></g></g></g><g fill="#1a3636" fill-opacity="1"><g transform="translate(95.51181, 83.914333)"><g><path d="M 8.1875 0.265625 C 6.050781 0.265625 4.3125 -0.382812 2.96875 -1.6875 C 1.632812 -3 0.96875 -4.742188 0.96875 -6.921875 L 0.96875 -7.296875 C 0.96875 -8.765625 1.25 -10.070312 1.8125 -11.21875 C 2.375 -12.375 3.171875 -13.265625 4.203125 -13.890625 C 5.242188 -14.515625 6.429688 -14.828125 7.765625 -14.828125 C 9.753906 -14.828125 11.316406 -14.195312 12.453125 -12.9375 C 13.597656 -11.6875 14.171875 -9.90625 14.171875 -7.59375 L 14.171875 -6.015625 L 4.90625 -6.015625 C 5.03125 -5.066406 5.410156 -4.300781 6.046875 -3.71875 C 6.679688 -3.144531 7.484375 -2.859375 8.453125 -2.859375 C 9.941406 -2.859375 11.109375 -3.40625 11.953125 -4.5 L 13.875 -2.359375 C 13.289062 -1.523438 12.5 -0.878906 11.5 -0.421875 C 10.5 0.0351562 9.394531 0.265625 8.1875 0.265625 Z M 7.75 -11.671875 C 6.976562 -11.671875 6.351562 -11.410156 5.875 -10.890625 C 5.394531 -10.367188 5.085938 -9.625 4.953125 -8.65625 L 10.359375 -8.65625 L 10.359375 -8.96875 C 10.335938 -9.832031 10.101562 -10.5 9.65625 -10.96875 C 9.207031 -11.4375 8.570312 -11.671875 7.75 -11.671875 Z M 7.75 -11.671875 "/></g></g></g><g fill="#1a3636" fill-opacity="1"><g transform="translate(110.397425, 83.914333)"><g><path d="M 5.078125 -14.546875 L 5.1875 -12.875 C 6.226562 -14.175781 7.625 -14.828125 9.375 -14.828125 C 10.914062 -14.828125 12.0625 -14.375 12.8125 -13.46875 C 13.570312 -12.5625 13.957031 -11.207031 13.96875 -9.40625 L 13.96875 0 L 10.09375 0 L 10.09375 -9.3125 C 10.09375 -10.132812 9.910156 -10.726562 9.546875 -11.09375 C 9.191406 -11.46875 8.597656 -11.65625 7.765625 -11.65625 C 6.671875 -11.65625 5.847656 -11.191406 5.296875 -10.265625 L 5.296875 0 L 1.40625 0 L 1.40625 -14.546875 Z M 5.078125 -14.546875 "/></g></g></g><g fill="#1a3636" fill-opacity="1"><g transform="translate(125.820913, 83.914333)"><g><path d="M 9.921875 0 C 9.742188 -0.351562 9.613281 -0.789062 9.53125 -1.3125 C 8.59375 -0.257812 7.367188 0.265625 5.859375 0.265625 C 4.429688 0.265625 3.25 -0.144531 2.3125 -0.96875 C 1.382812 -1.789062 0.921875 -2.832031 0.921875 -4.09375 C 0.921875 -5.632812 1.488281 -6.816406 2.625 -7.640625 C 3.769531 -8.460938 5.425781 -8.878906 7.59375 -8.890625 L 9.375 -8.890625 L 9.375 -9.71875 C 9.375 -10.394531 9.203125 -10.929688 8.859375 -11.328125 C 8.515625 -11.734375 7.96875 -11.9375 7.21875 -11.9375 C 6.5625 -11.9375 6.046875 -11.78125 5.671875 -11.46875 C 5.304688 -11.15625 5.125 -10.726562 5.125 -10.1875 L 1.234375 -10.1875 C 1.234375 -11.03125 1.492188 -11.804688 2.015625 -12.515625 C 2.535156 -13.234375 3.269531 -13.796875 4.21875 -14.203125 C 5.175781 -14.617188 6.242188 -14.828125 7.421875 -14.828125 C 9.210938 -14.828125 10.632812 -14.375 11.6875 -13.46875 C 12.75 -12.570312 13.28125 -11.304688 13.28125 -9.671875 L 13.28125 -3.359375 C 13.289062 -1.984375 13.484375 -0.941406 13.859375 -0.234375 L 13.859375 0 Z M 6.71875 -2.703125 C 7.289062 -2.703125 7.816406 -2.828125 8.296875 -3.078125 C 8.785156 -3.335938 9.144531 -3.679688 9.375 -4.109375 L 9.375 -6.625 L 7.921875 -6.625 C 5.972656 -6.625 4.9375 -5.945312 4.8125 -4.59375 L 4.796875 -4.375 C 4.796875 -3.882812 4.96875 -3.484375 5.3125 -3.171875 C 5.65625 -2.859375 6.125 -2.703125 6.71875 -2.703125 Z M 6.71875 -2.703125 "/></g></g></g><g fill="#1a3636" fill-opacity="1"><g transform="translate(140.585507, 83.914333)"><g><path d="M 5.078125 -14.546875 L 5.1875 -12.875 C 6.226562 -14.175781 7.625 -14.828125 9.375 -14.828125 C 10.914062 -14.828125 12.0625 -14.375 12.8125 -13.46875 C 13.570312 -12.5625 13.957031 -11.207031 13.96875 -9.40625 L 13.96875 0 L 10.09375 0 L 10.09375 -9.3125 C 10.09375 -10.132812 9.910156 -10.726562 9.546875 -11.09375 C 9.191406 -11.46875 8.597656 -11.65625 7.765625 -11.65625 C 6.671875 -11.65625 5.847656 -11.191406 5.296875 -10.265625 L 5.296875 0 L 1.40625 0 L 1.40625 -14.546875 Z M 5.078125 -14.546875 "/></g></g></g><g fill="#1a3636" fill-opacity="1"><g transform="translate(156.008994, 83.914333)"><g><path d="M 7.546875 -2.859375 C 8.265625 -2.859375 8.847656 -3.054688 9.296875 -3.453125 C 9.742188 -3.847656 9.976562 -4.375 10 -5.03125 L 13.640625 -5.03125 C 13.628906 -4.039062 13.359375 -3.132812 12.828125 -2.3125 C 12.296875 -1.5 11.570312 -0.863281 10.65625 -0.40625 C 9.738281 0.0390625 8.722656 0.265625 7.609375 0.265625 C 5.535156 0.265625 3.894531 -0.394531 2.6875 -1.71875 C 1.488281 -3.039062 0.890625 -4.867188 0.890625 -7.203125 L 0.890625 -7.453125 C 0.890625 -9.691406 1.484375 -11.476562 2.671875 -12.8125 C 3.867188 -14.15625 5.507812 -14.828125 7.59375 -14.828125 C 9.40625 -14.828125 10.859375 -14.304688 11.953125 -13.265625 C 13.054688 -12.234375 13.617188 -10.859375 13.640625 -9.140625 L 10 -9.140625 C 9.976562 -9.890625 9.742188 -10.5 9.296875 -10.96875 C 8.847656 -11.4375 8.253906 -11.671875 7.515625 -11.671875 C 6.609375 -11.671875 5.925781 -11.34375 5.46875 -10.6875 C 5.007812 -10.03125 4.78125 -8.960938 4.78125 -7.484375 L 4.78125 -7.078125 C 4.78125 -5.578125 5.003906 -4.5 5.453125 -3.84375 C 5.910156 -3.1875 6.609375 -2.859375 7.546875 -2.859375 Z M 7.546875 -2.859375 "/></g></g></g><g fill="#1a3636" fill-opacity="1"><g transform="translate(170.370184, 83.914333)"><g><path d="M 8.1875 0.265625 C 6.050781 0.265625 4.3125 -0.382812 2.96875 -1.6875 C 1.632812 -3 0.96875 -4.742188 0.96875 -6.921875 L 0.96875 -7.296875 C 0.96875 -8.765625 1.25 -10.070312 1.8125 -11.21875 C 2.375 -12.375 3.171875 -13.265625 4.203125 -13.890625 C 5.242188 -14.515625 6.429688 -14.828125 7.765625 -14.828125 C 9.753906 -14.828125 11.316406 -14.195312 12.453125 -12.9375 C 13.597656 -11.6875 14.171875 -9.90625 14.171875 -7.59375 L 14.171875 -6.015625 L 4.90625 -6.015625 C 5.03125 -5.066406 5.410156 -4.300781 6.046875 -3.71875 C 6.679688 -3.144531 7.484375 -2.859375 8.453125 -2.859375 C 9.941406 -2.859375 11.109375 -3.40625 11.953125 -4.5 L 13.875 -2.359375 C 13.289062 -1.523438 12.5 -0.878906 11.5 -0.421875 C 10.5 0.0351562 9.394531 0.265625 8.1875 0.265625 Z M 7.75 -11.671875 C 6.976562 -11.671875 6.351562 -11.410156 5.875 -10.890625 C 5.394531 -10.367188 5.085938 -9.625 4.953125 -8.65625 L 10.359375 -8.65625 L 10.359375 -8.96875 C 10.335938 -9.832031 10.101562 -10.5 9.65625 -10.96875 C 9.207031 -11.4375 8.570312 -11.671875 7.75 -11.671875 Z M 7.75 -11.671875 "/></g></g></g><g fill="#1a3636" fill-opacity="1"><g transform="translate(185.255799, 83.914333)"><g><path d="M 2.5 4.90625 L 0.46875 3.84375 L 0.953125 2.96875 C 1.554688 1.875 1.867188 0.785156 1.890625 -0.296875 L 1.890625 -3.3125 L 5.171875 -3.3125 L 5.15625 -0.625 C 5.144531 0.375 4.890625 1.378906 4.390625 2.390625 C 3.898438 3.410156 3.269531 4.25 2.5 4.90625 Z M 2.5 4.90625 "/></g></g></g><g fill="#1a3636" fill-opacity="1"><g transform="translate(24.59335, 122.164331)"><g><path d="M 13.53125 -8 L 5.78125 -8 L 5.78125 0 L 1.75 0 L 1.75 -19.578125 L 14.5 -19.578125 L 14.5 -16.3125 L 5.78125 -16.3125 L 5.78125 -11.265625 L 13.53125 -11.265625 Z M 13.53125 -8 "/></g></g></g><g fill="#1a3636" fill-opacity="1"><g transform="translate(39.680668, 122.164331)"><g><path d="M 8.1875 0.265625 C 6.050781 0.265625 4.3125 -0.382812 2.96875 -1.6875 C 1.632812 -3 0.96875 -4.742188 0.96875 -6.921875 L 0.96875 -7.296875 C 0.96875 -8.765625 1.25 -10.070312 1.8125 -11.21875 C 2.375 -12.375 3.171875 -13.265625 4.203125 -13.890625 C 5.242188 -14.515625 6.429688 -14.828125 7.765625 -14.828125 C 9.753906 -14.828125 11.316406 -14.195312 12.453125 -12.9375 C 13.597656 -11.6875 14.171875 -9.90625 14.171875 -7.59375 L 14.171875 -6.015625 L 4.90625 -6.015625 C 5.03125 -5.066406 5.410156 -4.300781 6.046875 -3.71875 C 6.679688 -3.144531 7.484375 -2.859375 8.453125 -2.859375 C 9.941406 -2.859375 11.109375 -3.40625 11.953125 -4.5 L 13.875 -2.359375 C 13.289062 -1.523438 12.5 -0.878906 11.5 -0.421875 C 10.5 0.0351562 9.394531 0.265625 8.1875 0.265625 Z M 7.75 -11.671875 C 6.976562 -11.671875 6.351562 -11.410156 5.875 -10.890625 C 5.394531 -10.367188 5.085938 -9.625 4.953125 -8.65625 L 10.359375 -8.65625 L 10.359375 -8.96875 C 10.335938 -9.832031 10.101562 -10.5 9.65625 -10.96875 C 9.207031 -11.4375 8.570312 -11.671875 7.75 -11.671875 Z M 7.75 -11.671875 "/></g></g></g><g fill="#1a3636" fill-opacity="1"><g transform="translate(54.566283, 122.164331)"><g><path d="M 9.921875 0 C 9.742188 -0.351562 9.613281 -0.789062 9.53125 -1.3125 C 8.59375 -0.257812 7.367188 0.265625 5.859375 0.265625 C 4.429688 0.265625 3.25 -0.144531 2.3125 -0.96875 C 1.382812 -1.789062 0.921875 -2.832031 0.921875 -4.09375 C 0.921875 -5.632812 1.488281 -6.816406 2.625 -7.640625 C 3.769531 -8.460938 5.425781 -8.878906 7.59375 -8.890625 L 9.375 -8.890625 L 9.375 -9.71875 C 9.375 -10.394531 9.203125 -10.929688 8.859375 -11.328125 C 8.515625 -11.734375 7.96875 -11.9375 7.21875 -11.9375 C 6.5625 -11.9375 6.046875 -11.78125 5.671875 -11.46875 C 5.304688 -11.15625 5.125 -10.726562 5.125 -10.1875 L 1.234375 -10.1875 C 1.234375 -11.03125 1.492188 -11.804688 2.015625 -12.515625 C 2.535156 -13.234375 3.269531 -13.796875 4.21875 -14.203125 C 5.175781 -14.617188 6.242188 -14.828125 7.421875 -14.828125 C 9.210938 -14.828125 10.632812 -14.375 11.6875 -13.46875 C 12.75 -12.570312 13.28125 -11.304688 13.28125 -9.671875 L 13.28125 -3.359375 C 13.289062 -1.984375 13.484375 -0.941406 13.859375 -0.234375 L 13.859375 0 Z M 6.71875 -2.703125 C 7.289062 -2.703125 7.816406 -2.828125 8.296875 -3.078125 C 8.785156 -3.335938 9.144531 -3.679688 9.375 -4.109375 L 9.375 -6.625 L 7.921875 -6.625 C 5.972656 -6.625 4.9375 -5.945312 4.8125 -4.59375 L 4.796875 -4.375 C 4.796875 -3.882812 4.96875 -3.484375 5.3125 -3.171875 C 5.65625 -2.859375 6.125 -2.703125 6.71875 -2.703125 Z M 6.71875 -2.703125 "/></g></g></g><g fill="#1a3636" fill-opacity="1"><g transform="translate(69.330877, 122.164331)"><g><path d="M 6.140625 -18.125 L 6.140625 -14.546875 L 8.640625 -14.546875 L 8.640625 -11.703125 L 6.140625 -11.703125 L 6.140625 -4.4375 C 6.140625 -3.894531 6.242188 -3.507812 6.453125 -3.28125 C 6.660156 -3.050781 7.054688 -2.9375 7.640625 -2.9375 C 8.066406 -2.9375 8.445312 -2.96875 8.78125 -3.03125 L 8.78125 -0.078125 C 8.019531 0.148438 7.234375 0.265625 6.421875 0.265625 C 3.703125 0.265625 2.316406 -1.109375 2.265625 -3.859375 L 2.265625 -11.703125 L 0.140625 -11.703125 L 0.140625 -14.546875 L 2.265625 -14.546875 L 2.265625 -18.125 Z M 6.140625 -18.125 "/></g></g></g><g fill="#1a3636" fill-opacity="1"><g transform="translate(78.636068, 122.164331)"><g><path d="M 10.203125 -1.484375 C 9.242188 -0.316406 7.921875 0.265625 6.234375 0.265625 C 4.671875 0.265625 3.476562 -0.179688 2.65625 -1.078125 C 1.832031 -1.972656 1.414062 -3.285156 1.40625 -5.015625 L 1.40625 -14.546875 L 5.28125 -14.546875 L 5.28125 -5.15625 C 5.28125 -3.632812 5.972656 -2.875 7.359375 -2.875 C 8.671875 -2.875 9.578125 -3.332031 10.078125 -4.25 L 10.078125 -14.546875 L 13.96875 -14.546875 L 13.96875 0 L 10.3125 0 Z M 10.203125 -1.484375 "/></g></g></g><g fill="#1a3636" fill-opacity="1"><g transform="translate(94.046108, 122.164331)"><g><path d="M 9.671875 -10.90625 C 9.140625 -10.976562 8.671875 -11.015625 8.265625 -11.015625 C 6.796875 -11.015625 5.832031 -10.515625 5.375 -9.515625 L 5.375 0 L 1.5 0 L 1.5 -14.546875 L 5.171875 -14.546875 L 5.265625 -12.8125 C 6.046875 -14.15625 7.128906 -14.828125 8.515625 -14.828125 C 8.941406 -14.828125 9.34375 -14.765625 9.71875 -14.640625 Z M 9.671875 -10.90625 "/></g></g></g><g fill="#1a3636" fill-opacity="1"><g transform="translate(104.090873, 122.164331)"><g><path d="M 8.1875 0.265625 C 6.050781 0.265625 4.3125 -0.382812 2.96875 -1.6875 C 1.632812 -3 0.96875 -4.742188 0.96875 -6.921875 L 0.96875 -7.296875 C 0.96875 -8.765625 1.25 -10.070312 1.8125 -11.21875 C 2.375 -12.375 3.171875 -13.265625 4.203125 -13.890625 C 5.242188 -14.515625 6.429688 -14.828125 7.765625 -14.828125 C 9.753906 -14.828125 11.316406 -14.195312 12.453125 -12.9375 C 13.597656 -11.6875 14.171875 -9.90625 14.171875 -7.59375 L 14.171875 -6.015625 L 4.90625 -6.015625 C 5.03125 -5.066406 5.410156 -4.300781 6.046875 -3.71875 C 6.679688 -3.144531 7.484375 -2.859375 8.453125 -2.859375 C 9.941406 -2.859375 11.109375 -3.40625 11.953125 -4.5 L 13.875 -2.359375 C 13.289062 -1.523438 12.5 -0.878906 11.5 -0.421875 C 10.5 0.0351562 9.394531 0.265625 8.1875 0.265625 Z M 7.75 -11.671875 C 6.976562 -11.671875 6.351562 -11.410156 5.875 -10.890625 C 5.394531 -10.367188 5.085938 -9.625 4.953125 -8.65625 L 10.359375 -8.65625 L 10.359375 -8.96875 C 10.335938 -9.832031 10.101562 -10.5 9.65625 -10.96875 C 9.207031 -11.4375 8.570312 -11.671875 7.75 -11.671875 Z M 7.75 -11.671875 "/></g></g></g><g fill="#1a3636" fill-opacity="1"><g transform="translate(118.976488, 122.164331)"><g><path d="M 9.375 -4.015625 C 9.375 -4.492188 9.140625 -4.867188 8.671875 -5.140625 C 8.203125 -5.421875 7.445312 -5.664062 6.40625 -5.875 C 2.9375 -6.601562 1.203125 -8.078125 1.203125 -10.296875 C 1.203125 -11.585938 1.738281 -12.664062 2.8125 -13.53125 C 3.882812 -14.394531 5.285156 -14.828125 7.015625 -14.828125 C 8.867188 -14.828125 10.347656 -14.390625 11.453125 -13.515625 C 12.554688 -12.648438 13.109375 -11.519531 13.109375 -10.125 L 9.234375 -10.125 C 9.234375 -10.6875 9.050781 -11.144531 8.6875 -11.5 C 8.332031 -11.863281 7.769531 -12.046875 7 -12.046875 C 6.351562 -12.046875 5.847656 -11.894531 5.484375 -11.59375 C 5.128906 -11.300781 4.953125 -10.929688 4.953125 -10.484375 C 4.953125 -10.046875 5.15625 -9.691406 5.5625 -9.421875 C 5.96875 -9.160156 6.65625 -8.929688 7.625 -8.734375 C 8.59375 -8.546875 9.410156 -8.332031 10.078125 -8.09375 C 12.128906 -7.34375 13.15625 -6.039062 13.15625 -4.1875 C 13.15625 -2.851562 12.582031 -1.773438 11.4375 -0.953125 C 10.300781 -0.140625 8.832031 0.265625 7.03125 0.265625 C 5.8125 0.265625 4.726562 0.0507812 3.78125 -0.375 C 2.84375 -0.8125 2.101562 -1.410156 1.5625 -2.171875 C 1.019531 -2.929688 0.75 -3.75 0.75 -4.625 L 4.4375 -4.625 C 4.476562 -3.9375 4.734375 -3.40625 5.203125 -3.03125 C 5.679688 -2.664062 6.316406 -2.484375 7.109375 -2.484375 C 7.859375 -2.484375 8.421875 -2.625 8.796875 -2.90625 C 9.179688 -3.1875 9.375 -3.554688 9.375 -4.015625 Z M 9.375 -4.015625 "/></g></g></g></svg>