<svg xmlns="http://www.w3.org/2000/svg" xmlns:xlink="http://www.w3.org/1999/xlink" width="600" zoomAndPan="magnify" viewBox="0 0 450 149.999998" height="200" preserveAspectRatio="xMidYMid meet" version="1.0"><defs><g/><clipPath id="05c5b0afb1"><path d="M 0 0 L 449.996094 0 L 449.996094 150 L 0 150 Z M 0 0 " clip-rule="nonzero"/></clipPath><clipPath id="e98e919ac3"><path d="M 18.75 -0.601562 L 431.25 -0.601562 C 441.605469 -0.601562 450 7.792969 450 18.148438 L 450 131.851562 C 450 142.207031 441.605469 150.601562 431.25 150.601562 L 18.75 150.601562 C 8.394531 150.601562 0 142.207031 0 131.851562 L 0 18.148438 C 0 7.792969 8.394531 -0.601562 18.75 -0.601562 Z M 18.75 -0.601562 " clip-rule="nonzero"/></clipPath><linearGradient x1="126.987415" gradientTransform="matrix(0.590625, 0, 0, 0.590625, -0.00425002, -0.600004)" y1="-125.964582" x2="634.921202" gradientUnits="userSpaceOnUse" y2="381.968193" id="2be4a3fa62"><stop stop-opacity="1" stop-color="rgb(99.958801%, 99.949646%, 99.935913%)" offset="0"/><stop stop-opacity="1" stop-color="rgb(99.803162%, 99.755859%, 99.687195%)" offset="0.00390625"/><stop stop-opacity="1" stop-color="rgb(99.647522%, 99.563599%, 99.438477%)" offset="0.0078125"/><stop stop-opacity="1" stop-color="rgb(99.491882%, 99.369812%, 99.189758%)" offset="0.0117188"/><stop stop-opacity="1" stop-color="rgb(99.336243%, 99.176025%, 98.942566%)" offset="0.015625"/><stop stop-opacity="1" stop-color="rgb(99.180603%, 98.982239%, 98.693848%)" offset="0.0195313"/><stop stop-opacity="1" stop-color="rgb(99.024963%, 98.789978%, 98.446655%)" offset="0.0234375"/><stop stop-opacity="1" stop-color="rgb(98.869324%, 98.596191%, 98.197937%)" offset="0.0273438"/><stop stop-opacity="1" stop-color="rgb(98.713684%, 98.403931%, 97.949219%)" offset="0.03125"/><stop stop-opacity="1" stop-color="rgb(98.558044%, 98.210144%, 97.7005%)" offset="0.0351563"/><stop stop-opacity="1" stop-color="rgb(98.402405%, 98.017883%, 97.453308%)" offset="0.0390625"/><stop stop-opacity="1" stop-color="rgb(98.246765%, 97.824097%, 97.20459%)" offset="0.0429688"/><stop stop-opacity="1" stop-color="rgb(98.091125%, 97.631836%, 96.957397%)" offset="0.046875"/><stop stop-opacity="1" stop-color="rgb(97.935486%, 97.438049%, 96.708679%)" offset="0.0507813"/><stop stop-opacity="1" stop-color="rgb(97.779846%, 97.245789%, 96.459961%)" offset="0.0546875"/><stop stop-opacity="1" stop-color="rgb(97.624207%, 97.052002%, 96.211243%)" offset="0.0585938"/><stop stop-opacity="1" stop-color="rgb(97.468567%, 96.858215%, 95.96405%)" offset="0.0625"/><stop stop-opacity="1" stop-color="rgb(97.311401%, 96.664429%, 95.715332%)" offset="0.0664063"/><stop stop-opacity="1" stop-color="rgb(97.155762%, 96.472168%, 95.46814%)" offset="0.0703125"/><stop stop-opacity="1" stop-color="rgb(97.000122%, 96.278381%, 95.219421%)" offset="0.0742188"/><stop stop-opacity="1" stop-color="rgb(96.844482%, 96.086121%, 94.972229%)" offset="0.078125"/><stop stop-opacity="1" stop-color="rgb(96.688843%, 95.892334%, 94.723511%)" offset="0.0820313"/><stop stop-opacity="1" stop-color="rgb(96.533203%, 95.700073%, 94.474792%)" offset="0.0859375"/><stop stop-opacity="1" stop-color="rgb(96.377563%, 95.506287%, 94.226074%)" offset="0.0898438"/><stop stop-opacity="1" stop-color="rgb(96.221924%, 95.314026%, 93.978882%)" offset="0.09375"/><stop stop-opacity="1" stop-color="rgb(96.066284%, 95.120239%, 93.730164%)" offset="0.0976563"/><stop stop-opacity="1" stop-color="rgb(95.910645%, 94.926453%, 93.482971%)" offset="0.101563"/><stop stop-opacity="1" stop-color="rgb(95.755005%, 94.732666%, 93.234253%)" offset="0.105469"/><stop stop-opacity="1" stop-color="rgb(95.599365%, 94.540405%, 92.985535%)" offset="0.109375"/><stop stop-opacity="1" stop-color="rgb(95.443726%, 94.346619%, 92.736816%)" offset="0.113281"/><stop stop-opacity="1" stop-color="rgb(95.288086%, 94.154358%, 92.489624%)" offset="0.117188"/><stop stop-opacity="1" stop-color="rgb(95.132446%, 93.960571%, 92.240906%)" offset="0.121094"/><stop stop-opacity="1" stop-color="rgb(94.976807%, 93.768311%, 91.993713%)" offset="0.125"/><stop stop-opacity="1" stop-color="rgb(94.821167%, 93.574524%, 91.744995%)" offset="0.128906"/><stop stop-opacity="1" stop-color="rgb(94.665527%, 93.382263%, 91.496277%)" offset="0.132812"/><stop stop-opacity="1" stop-color="rgb(94.509888%, 93.188477%, 91.247559%)" offset="0.136719"/><stop stop-opacity="1" stop-color="rgb(94.354248%, 92.996216%, 91.000366%)" offset="0.140625"/><stop stop-opacity="1" stop-color="rgb(94.198608%, 92.802429%, 90.751648%)" offset="0.144531"/><stop stop-opacity="1" stop-color="rgb(94.042969%, 92.608643%, 90.504456%)" offset="0.148438"/><stop stop-opacity="1" stop-color="rgb(93.887329%, 92.414856%, 90.255737%)" offset="0.152344"/><stop stop-opacity="1" stop-color="rgb(93.731689%, 92.222595%, 90.007019%)" offset="0.15625"/><stop stop-opacity="1" stop-color="rgb(93.574524%, 92.028809%, 89.758301%)" offset="0.160156"/><stop stop-opacity="1" stop-color="rgb(93.418884%, 91.836548%, 89.511108%)" offset="0.164062"/><stop stop-opacity="1" stop-color="rgb(93.263245%, 91.642761%, 89.26239%)" offset="0.167969"/><stop stop-opacity="1" stop-color="rgb(93.107605%, 91.4505%, 89.015198%)" offset="0.171875"/><stop stop-opacity="1" stop-color="rgb(92.951965%, 91.256714%, 88.766479%)" offset="0.175781"/><stop stop-opacity="1" stop-color="rgb(92.796326%, 91.064453%, 88.519287%)" offset="0.179688"/><stop stop-opacity="1" stop-color="rgb(92.640686%, 90.870667%, 88.270569%)" offset="0.183594"/><stop stop-opacity="1" stop-color="rgb(92.485046%, 90.67688%, 88.021851%)" offset="0.1875"/><stop stop-opacity="1" stop-color="rgb(92.329407%, 90.483093%, 87.773132%)" offset="0.191406"/><stop stop-opacity="1" stop-color="rgb(92.173767%, 90.290833%, 87.52594%)" offset="0.195312"/><stop stop-opacity="1" stop-color="rgb(92.018127%, 90.097046%, 87.277222%)" offset="0.199219"/><stop stop-opacity="1" stop-color="rgb(91.862488%, 89.904785%, 87.030029%)" offset="0.203125"/><stop stop-opacity="1" stop-color="rgb(91.706848%, 89.710999%, 86.781311%)" offset="0.207031"/><stop stop-opacity="1" stop-color="rgb(91.551208%, 89.518738%, 86.532593%)" offset="0.210938"/><stop stop-opacity="1" stop-color="rgb(91.395569%, 89.324951%, 86.283875%)" offset="0.214844"/><stop stop-opacity="1" stop-color="rgb(91.239929%, 89.13269%, 86.036682%)" offset="0.21875"/><stop stop-opacity="1" stop-color="rgb(91.08429%, 88.938904%, 85.787964%)" offset="0.222656"/><stop stop-opacity="1" stop-color="rgb(90.92865%, 88.745117%, 85.540771%)" offset="0.226562"/><stop stop-opacity="1" stop-color="rgb(90.77301%, 88.551331%, 85.292053%)" offset="0.230469"/><stop stop-opacity="1" stop-color="rgb(90.617371%, 88.35907%, 85.043335%)" offset="0.234375"/><stop stop-opacity="1" stop-color="rgb(90.461731%, 88.165283%, 84.794617%)" offset="0.238281"/><stop stop-opacity="1" stop-color="rgb(90.306091%, 87.973022%, 84.547424%)" offset="0.242188"/><stop stop-opacity="1" stop-color="rgb(90.150452%, 87.779236%, 84.298706%)" offset="0.246094"/><stop stop-opacity="1" stop-color="rgb(89.994812%, 87.586975%, 84.051514%)" offset="0.25"/><stop stop-opacity="1" stop-color="rgb(89.837646%, 87.393188%, 83.802795%)" offset="0.253906"/><stop stop-opacity="1" stop-color="rgb(89.682007%, 87.200928%, 83.555603%)" offset="0.257813"/><stop stop-opacity="1" stop-color="rgb(89.526367%, 87.007141%, 83.306885%)" offset="0.261719"/><stop stop-opacity="1" stop-color="rgb(89.370728%, 86.81488%, 83.058167%)" offset="0.265625"/><stop stop-opacity="1" stop-color="rgb(89.215088%, 86.621094%, 82.809448%)" offset="0.269531"/><stop stop-opacity="1" stop-color="rgb(89.059448%, 86.427307%, 82.562256%)" offset="0.273438"/><stop stop-opacity="1" stop-color="rgb(88.903809%, 86.233521%, 82.313538%)" offset="0.277344"/><stop stop-opacity="1" stop-color="rgb(88.748169%, 86.04126%, 82.066345%)" offset="0.28125"/><stop stop-opacity="1" stop-color="rgb(88.592529%, 85.847473%, 81.817627%)" offset="0.285156"/><stop stop-opacity="1" stop-color="rgb(88.43689%, 85.655212%, 81.568909%)" offset="0.289062"/><stop stop-opacity="1" stop-color="rgb(88.28125%, 85.461426%, 81.32019%)" offset="0.292969"/><stop stop-opacity="1" stop-color="rgb(88.12561%, 85.269165%, 81.072998%)" offset="0.296875"/><stop stop-opacity="1" stop-color="rgb(87.969971%, 85.075378%, 80.82428%)" offset="0.300781"/><stop stop-opacity="1" stop-color="rgb(87.814331%, 84.883118%, 80.577087%)" offset="0.304688"/><stop stop-opacity="1" stop-color="rgb(87.658691%, 84.689331%, 80.328369%)" offset="0.308594"/><stop stop-opacity="1" stop-color="rgb(87.503052%, 84.495544%, 80.079651%)" offset="0.3125"/><stop stop-opacity="1" stop-color="rgb(87.347412%, 84.301758%, 79.830933%)" offset="0.316406"/><stop stop-opacity="1" stop-color="rgb(87.191772%, 84.109497%, 79.58374%)" offset="0.320312"/><stop stop-opacity="1" stop-color="rgb(87.036133%, 83.91571%, 79.335022%)" offset="0.324219"/><stop stop-opacity="1" stop-color="rgb(86.880493%, 83.72345%, 79.08783%)" offset="0.328125"/><stop stop-opacity="1" stop-color="rgb(86.56311%, 83.442688%, 78.761292%)" offset="0.332031"/><stop stop-opacity="1" stop-color="rgb(86.245728%, 83.161926%, 78.434753%)" offset="0.335938"/><stop stop-opacity="1" stop-color="rgb(85.705566%, 82.759094%, 77.999878%)" offset="0.339844"/><stop stop-opacity="1" stop-color="rgb(85.165405%, 82.356262%, 77.566528%)" offset="0.34375"/><stop stop-opacity="1" stop-color="rgb(84.625244%, 81.95343%, 77.131653%)" offset="0.347656"/><stop stop-opacity="1" stop-color="rgb(84.085083%, 81.550598%, 76.698303%)" offset="0.351563"/><stop stop-opacity="1" stop-color="rgb(83.543396%, 81.147766%, 76.263428%)" offset="0.355469"/><stop stop-opacity="1" stop-color="rgb(83.003235%, 80.744934%, 75.830078%)" offset="0.359375"/><stop stop-opacity="1" stop-color="rgb(82.463074%, 80.342102%, 75.395203%)" offset="0.363281"/><stop stop-opacity="1" stop-color="rgb(81.922913%, 79.940796%, 74.961853%)" offset="0.367188"/><stop stop-opacity="1" stop-color="rgb(81.382751%, 79.537964%, 74.526978%)" offset="0.371094"/><stop stop-opacity="1" stop-color="rgb(80.84259%, 79.135132%, 74.093628%)" offset="0.375"/><stop stop-opacity="1" stop-color="rgb(80.300903%, 78.7323%, 73.658752%)" offset="0.378906"/><stop stop-opacity="1" stop-color="rgb(79.760742%, 78.329468%, 73.225403%)" offset="0.382812"/><stop stop-opacity="1" stop-color="rgb(79.220581%, 77.926636%, 72.790527%)" offset="0.386719"/><stop stop-opacity="1" stop-color="rgb(78.68042%, 77.523804%, 72.355652%)" offset="0.390625"/><stop stop-opacity="1" stop-color="rgb(78.140259%, 77.120972%, 71.920776%)" offset="0.394531"/><stop stop-opacity="1" stop-color="rgb(77.600098%, 76.71814%, 71.487427%)" offset="0.398438"/><stop stop-opacity="1" stop-color="rgb(77.058411%, 76.315308%, 71.052551%)" offset="0.402344"/><stop stop-opacity="1" stop-color="rgb(76.51825%, 75.912476%, 70.619202%)" offset="0.40625"/><stop stop-opacity="1" stop-color="rgb(75.978088%, 75.509644%, 70.184326%)" offset="0.410156"/><stop stop-opacity="1" stop-color="rgb(75.437927%, 75.108337%, 69.750977%)" offset="0.414063"/><stop stop-opacity="1" stop-color="rgb(74.897766%, 74.705505%, 69.316101%)" offset="0.417969"/><stop stop-opacity="1" stop-color="rgb(74.357605%, 74.302673%, 68.882751%)" offset="0.421875"/><stop stop-opacity="1" stop-color="rgb(73.815918%, 73.899841%, 68.447876%)" offset="0.425781"/><stop stop-opacity="1" stop-color="rgb(73.275757%, 73.497009%, 68.014526%)" offset="0.429688"/><stop stop-opacity="1" stop-color="rgb(72.735596%, 73.094177%, 67.579651%)" offset="0.433594"/><stop stop-opacity="1" stop-color="rgb(72.195435%, 72.691345%, 67.146301%)" offset="0.4375"/><stop stop-opacity="1" stop-color="rgb(71.655273%, 72.288513%, 66.711426%)" offset="0.441406"/><stop stop-opacity="1" stop-color="rgb(71.115112%, 71.885681%, 66.278076%)" offset="0.445312"/><stop stop-opacity="1" stop-color="rgb(70.573425%, 71.482849%, 65.843201%)" offset="0.449219"/><stop stop-opacity="1" stop-color="rgb(70.033264%, 71.081543%, 65.409851%)" offset="0.453125"/><stop stop-opacity="1" stop-color="rgb(69.493103%, 70.678711%, 64.974976%)" offset="0.457031"/><stop stop-opacity="1" stop-color="rgb(68.952942%, 70.275879%, 64.5401%)" offset="0.460937"/><stop stop-opacity="1" stop-color="rgb(68.412781%, 69.873047%, 64.105225%)" offset="0.464844"/><stop stop-opacity="1" stop-color="rgb(67.87262%, 69.470215%, 63.671875%)" offset="0.46875"/><stop stop-opacity="1" stop-color="rgb(67.330933%, 69.067383%, 63.237%)" offset="0.472656"/><stop stop-opacity="1" stop-color="rgb(66.790771%, 68.664551%, 62.80365%)" offset="0.476563"/><stop stop-opacity="1" stop-color="rgb(66.25061%, 68.261719%, 62.368774%)" offset="0.480469"/><stop stop-opacity="1" stop-color="rgb(65.710449%, 67.858887%, 61.935425%)" offset="0.484375"/><stop stop-opacity="1" stop-color="rgb(65.170288%, 67.456055%, 61.500549%)" offset="0.488281"/><stop stop-opacity="1" stop-color="rgb(64.630127%, 67.054749%, 61.0672%)" offset="0.492188"/><stop stop-opacity="1" stop-color="rgb(64.08844%, 66.651917%, 60.632324%)" offset="0.496094"/><stop stop-opacity="1" stop-color="rgb(63.548279%, 66.249084%, 60.198975%)" offset="0.5"/><stop stop-opacity="1" stop-color="rgb(63.008118%, 65.846252%, 59.764099%)" offset="0.503906"/><stop stop-opacity="1" stop-color="rgb(62.467957%, 65.44342%, 59.33075%)" offset="0.507812"/><stop stop-opacity="1" stop-color="rgb(61.927795%, 65.040588%, 58.895874%)" offset="0.511719"/><stop stop-opacity="1" stop-color="rgb(61.387634%, 64.637756%, 58.462524%)" offset="0.515625"/><stop stop-opacity="1" stop-color="rgb(60.845947%, 64.234924%, 58.027649%)" offset="0.519531"/><stop stop-opacity="1" stop-color="rgb(60.305786%, 63.832092%, 57.594299%)" offset="0.523438"/><stop stop-opacity="1" stop-color="rgb(59.765625%, 63.42926%, 57.159424%)" offset="0.527344"/><stop stop-opacity="1" stop-color="rgb(59.225464%, 63.027954%, 56.724548%)" offset="0.53125"/><stop stop-opacity="1" stop-color="rgb(58.685303%, 62.625122%, 56.289673%)" offset="0.535156"/><stop stop-opacity="1" stop-color="rgb(58.145142%, 62.22229%, 55.856323%)" offset="0.539062"/><stop stop-opacity="1" stop-color="rgb(57.603455%, 61.819458%, 55.421448%)" offset="0.542969"/><stop stop-opacity="1" stop-color="rgb(57.063293%, 61.416626%, 54.988098%)" offset="0.546875"/><stop stop-opacity="1" stop-color="rgb(56.523132%, 61.013794%, 54.553223%)" offset="0.550781"/><stop stop-opacity="1" stop-color="rgb(55.982971%, 60.610962%, 54.119873%)" offset="0.554688"/><stop stop-opacity="1" stop-color="rgb(55.44281%, 60.20813%, 53.684998%)" offset="0.558594"/><stop stop-opacity="1" stop-color="rgb(54.902649%, 59.805298%, 53.251648%)" offset="0.5625"/><stop stop-opacity="1" stop-color="rgb(54.360962%, 59.402466%, 52.816772%)" offset="0.566406"/><stop stop-opacity="1" stop-color="rgb(53.820801%, 59.00116%, 52.383423%)" offset="0.570312"/><stop stop-opacity="1" stop-color="rgb(53.28064%, 58.598328%, 51.948547%)" offset="0.574219"/><stop stop-opacity="1" stop-color="rgb(52.740479%, 58.195496%, 51.515198%)" offset="0.578125"/><stop stop-opacity="1" stop-color="rgb(52.200317%, 57.792664%, 51.080322%)" offset="0.582031"/><stop stop-opacity="1" stop-color="rgb(51.660156%, 57.389832%, 50.646973%)" offset="0.585938"/><stop stop-opacity="1" stop-color="rgb(51.118469%, 56.987%, 50.212097%)" offset="0.589844"/><stop stop-opacity="1" stop-color="rgb(50.578308%, 56.584167%, 49.778748%)" offset="0.59375"/><stop stop-opacity="1" stop-color="rgb(50.038147%, 56.181335%, 49.343872%)" offset="0.597656"/><stop stop-opacity="1" stop-color="rgb(49.497986%, 55.778503%, 48.908997%)" offset="0.601562"/><stop stop-opacity="1" stop-color="rgb(48.957825%, 55.375671%, 48.474121%)" offset="0.605469"/><stop stop-opacity="1" stop-color="rgb(48.417664%, 54.974365%, 48.040771%)" offset="0.609375"/><stop stop-opacity="1" stop-color="rgb(47.875977%, 54.571533%, 47.605896%)" offset="0.613281"/><stop stop-opacity="1" stop-color="rgb(47.335815%, 54.168701%, 47.172546%)" offset="0.617188"/><stop stop-opacity="1" stop-color="rgb(46.795654%, 53.765869%, 46.737671%)" offset="0.621094"/><stop stop-opacity="1" stop-color="rgb(46.255493%, 53.363037%, 46.304321%)" offset="0.625"/><stop stop-opacity="1" stop-color="rgb(45.715332%, 52.960205%, 45.869446%)" offset="0.628906"/><stop stop-opacity="1" stop-color="rgb(45.175171%, 52.557373%, 45.436096%)" offset="0.632813"/><stop stop-opacity="1" stop-color="rgb(44.633484%, 52.154541%, 45.001221%)" offset="0.636719"/><stop stop-opacity="1" stop-color="rgb(44.093323%, 51.751709%, 44.567871%)" offset="0.640625"/><stop stop-opacity="1" stop-color="rgb(43.553162%, 51.348877%, 44.132996%)" offset="0.644531"/><stop stop-opacity="1" stop-color="rgb(43.013%, 50.947571%, 43.699646%)" offset="0.648438"/><stop stop-opacity="1" stop-color="rgb(42.472839%, 50.544739%, 43.264771%)" offset="0.652344"/><stop stop-opacity="1" stop-color="rgb(41.932678%, 50.141907%, 42.831421%)" offset="0.65625"/><stop stop-opacity="1" stop-color="rgb(41.390991%, 49.739075%, 42.396545%)" offset="0.660156"/><stop stop-opacity="1" stop-color="rgb(40.85083%, 49.336243%, 41.963196%)" offset="0.664062"/><stop stop-opacity="1" stop-color="rgb(40.52124%, 49.055481%, 41.700745%)" offset="0.667969"/><stop stop-opacity="1" stop-color="rgb(40.19165%, 48.774719%, 41.438293%)" offset="0.671875"/><stop stop-opacity="1" stop-color="rgb(40.011597%, 48.580933%, 41.299438%)" offset="0.679688"/><stop stop-opacity="1" stop-color="rgb(39.653015%, 48.194885%, 41.023254%)" offset="0.6875"/><stop stop-opacity="1" stop-color="rgb(39.294434%, 47.808838%, 40.74707%)" offset="0.695312"/><stop stop-opacity="1" stop-color="rgb(38.935852%, 47.421265%, 40.470886%)" offset="0.703125"/><stop stop-opacity="1" stop-color="rgb(38.578796%, 47.035217%, 40.194702%)" offset="0.710938"/><stop stop-opacity="1" stop-color="rgb(38.220215%, 46.64917%, 39.918518%)" offset="0.71875"/><stop stop-opacity="1" stop-color="rgb(37.861633%, 46.263123%, 39.642334%)" offset="0.726563"/><stop stop-opacity="1" stop-color="rgb(37.503052%, 45.877075%, 39.36615%)" offset="0.734375"/><stop stop-opacity="1" stop-color="rgb(37.145996%, 45.489502%, 39.089966%)" offset="0.742188"/><stop stop-opacity="1" stop-color="rgb(36.787415%, 45.103455%, 38.813782%)" offset="0.749999"/><stop stop-opacity="1" stop-color="rgb(36.608887%, 44.911194%, 38.676453%)" offset="0.75"/><stop stop-opacity="1" stop-color="rgb(36.428833%, 44.717407%, 38.537598%)" offset="0.757812"/><stop stop-opacity="1" stop-color="rgb(36.070251%, 44.33136%, 38.259888%)" offset="0.765625"/><stop stop-opacity="1" stop-color="rgb(35.71167%, 43.945312%, 37.983704%)" offset="0.773438"/><stop stop-opacity="1" stop-color="rgb(35.354614%, 43.557739%, 37.70752%)" offset="0.78125"/><stop stop-opacity="1" stop-color="rgb(34.996033%, 43.171692%, 37.431335%)" offset="0.789062"/><stop stop-opacity="1" stop-color="rgb(34.637451%, 42.785645%, 37.155151%)" offset="0.796875"/><stop stop-opacity="1" stop-color="rgb(34.27887%, 42.399597%, 36.878967%)" offset="0.804688"/><stop stop-opacity="1" stop-color="rgb(33.921814%, 42.01355%, 36.602783%)" offset="0.8125"/><stop stop-opacity="1" stop-color="rgb(33.563232%, 41.627502%, 36.326599%)" offset="0.820312"/><stop stop-opacity="1" stop-color="rgb(33.204651%, 41.239929%, 36.050415%)" offset="0.828125"/><stop stop-opacity="1" stop-color="rgb(32.846069%, 40.853882%, 35.774231%)" offset="0.835938"/><stop stop-opacity="1" stop-color="rgb(32.489014%, 40.467834%, 35.498047%)" offset="0.84375"/><stop stop-opacity="1" stop-color="rgb(32.130432%, 40.081787%, 35.221863%)" offset="0.851563"/><stop stop-opacity="1" stop-color="rgb(31.771851%, 39.69574%, 34.945679%)" offset="0.859375"/><stop stop-opacity="1" stop-color="rgb(31.413269%, 39.308167%, 34.669495%)" offset="0.867188"/><stop stop-opacity="1" stop-color="rgb(31.054688%, 38.922119%, 34.393311%)" offset="0.875"/><stop stop-opacity="1" stop-color="rgb(30.697632%, 38.536072%, 34.115601%)" offset="0.882812"/><stop stop-opacity="1" stop-color="rgb(30.33905%, 38.150024%, 33.839417%)" offset="0.890625"/><stop stop-opacity="1" stop-color="rgb(29.980469%, 37.763977%, 33.563232%)" offset="0.898438"/><stop stop-opacity="1" stop-color="rgb(29.621887%, 37.37793%, 33.287048%)" offset="0.90625"/><stop stop-opacity="1" stop-color="rgb(29.264832%, 36.990356%, 33.010864%)" offset="0.914062"/><stop stop-opacity="1" stop-color="rgb(28.90625%, 36.604309%, 32.73468%)" offset="0.921875"/><stop stop-opacity="1" stop-color="rgb(28.547668%, 36.218262%, 32.458496%)" offset="0.929688"/><stop stop-opacity="1" stop-color="rgb(28.189087%, 35.832214%, 32.182312%)" offset="0.9375"/><stop stop-opacity="1" stop-color="rgb(27.830505%, 35.446167%, 31.906128%)" offset="0.945312"/><stop stop-opacity="1" stop-color="rgb(27.47345%, 35.058594%, 31.629944%)" offset="0.953125"/><stop stop-opacity="1" stop-color="rgb(27.114868%, 34.672546%, 31.35376%)" offset="0.960938"/><stop stop-opacity="1" stop-color="rgb(26.756287%, 34.286499%, 31.077576%)" offset="0.96875"/><stop stop-opacity="1" stop-color="rgb(26.397705%, 33.900452%, 30.801392%)" offset="0.976562"/><stop stop-opacity="1" stop-color="rgb(26.040649%, 33.514404%, 30.525208%)" offset="0.984375"/><stop stop-opacity="1" stop-color="rgb(25.682068%, 33.126831%, 30.249023%)" offset="0.992188"/><stop stop-opacity="1" stop-color="rgb(25.323486%, 32.740784%, 29.971313%)" offset="1"/></linearGradient><clipPath id="53dd618734"><path d="M 423 40 L 431.476562 40 L 431.476562 53 L 423 53 Z M 423 40 " clip-rule="nonzero"/></clipPath><clipPath id="fe76eac02e"><path d="M 423 70 L 431.476562 70 L 431.476562 83 L 423 83 Z M 423 70 " clip-rule="nonzero"/></clipPath><clipPath id="e62ed378e3"><path d="M 423 99 L 431.476562 99 L 431.476562 112 L 423 112 Z M 423 99 " clip-rule="nonzero"/></clipPath><clipPath id="339f844fbf"><path d="M 248.476562 37 L 266 37 L 266 54 L 248.476562 54 Z M 248.476562 37 " clip-rule="nonzero"/></clipPath><clipPath id="3ec05fa501"><path d="M 248.476562 66 L 266 66 L 266 84 L 248.476562 84 Z M 248.476562 66 " clip-rule="nonzero"/></clipPath><clipPath id="3de80a2d64"><path d="M 248.476562 96 L 266 96 L 266 113 L 248.476562 113 Z M 248.476562 96 " clip-rule="nonzero"/></clipPath><clipPath id="21df316ef1"><path d="M 338 6.785156 L 355 6.785156 L 355 24 L 338 24 Z M 338 6.785156 " clip-rule="nonzero"/></clipPath><clipPath id="517f1bbd62"><path d="M 338 126 L 355 126 L 355 143.285156 L 338 143.285156 Z M 338 126 " clip-rule="nonzero"/></clipPath><clipPath id="6a74e59d7a"><path d="M 293 6.785156 L 310 6.785156 L 310 24 L 293 24 Z M 293 6.785156 " clip-rule="nonzero"/></clipPath><clipPath id="85f57520d2"><path d="M 293 126 L 310 126 L 310 143.285156 L 293 143.285156 Z M 293 126 " clip-rule="nonzero"/></clipPath></defs><g clip-path="url(#05c5b0afb1)"><g clip-path="url(#e98e919ac3)"><path fill="url(#2be4a3fa62)" d="M 0 0 L 0 150 L 449.996094 150 L 449.996094 0 Z M 0 0 " fill-rule="nonzero"/></g></g><g fill="#1a3636" fill-opacity="1"><g transform="translate(17.8504, 45.977638)"><g><path d="M 10.75 0.28125 C 8.9375 0.28125 7.335938 -0.09375 5.953125 -0.84375 C 4.578125 -1.601562 3.5 -2.738281 2.71875 -4.25 C 1.9375 -5.757812 1.546875 -7.617188 1.546875 -9.828125 C 1.546875 -12.046875 1.9375 -13.910156 2.71875 -15.421875 C 3.5 -16.929688 4.578125 -18.0625 5.953125 -18.8125 C 7.335938 -19.570312 8.9375 -19.953125 10.75 -19.953125 C 12.632812 -19.953125 14.238281 -19.582031 15.5625 -18.84375 C 16.882812 -18.101562 17.832031 -16.972656 18.40625 -15.453125 L 15.5625 -13.71875 L 15.21875 -13.734375 C 14.800781 -14.753906 14.226562 -15.484375 13.5 -15.921875 C 12.78125 -16.367188 11.863281 -16.59375 10.75 -16.59375 C 9.113281 -16.59375 7.835938 -16.050781 6.921875 -14.96875 C 6.015625 -13.894531 5.5625 -12.179688 5.5625 -9.828125 C 5.5625 -7.492188 6.015625 -5.785156 6.921875 -4.703125 C 7.835938 -3.617188 9.113281 -3.078125 10.75 -3.078125 C 13.300781 -3.078125 14.863281 -4.320312 15.4375 -6.8125 L 15.78125 -6.8125 L 18.640625 -5.3125 C 18.097656 -3.445312 17.175781 -2.046875 15.875 -1.109375 C 14.582031 -0.179688 12.875 0.28125 10.75 0.28125 Z M 10.75 0.28125 "/></g></g></g><g fill="#1a3636" fill-opacity="1"><g transform="translate(37.137134, 45.977638)"><g><path d="M 8.625 0.28125 C 7.164062 0.28125 5.882812 -0.015625 4.78125 -0.609375 C 3.6875 -1.203125 2.835938 -2.078125 2.234375 -3.234375 C 1.628906 -4.390625 1.328125 -5.78125 1.328125 -7.40625 C 1.328125 -9.039062 1.628906 -10.4375 2.234375 -11.59375 C 2.835938 -12.75 3.6875 -13.625 4.78125 -14.21875 C 5.882812 -14.820312 7.164062 -15.125 8.625 -15.125 C 10.070312 -15.125 11.34375 -14.820312 12.4375 -14.21875 C 13.539062 -13.625 14.394531 -12.75 15 -11.59375 C 15.613281 -10.4375 15.921875 -9.039062 15.921875 -7.40625 C 15.921875 -5.78125 15.613281 -4.390625 15 -3.234375 C 14.394531 -2.078125 13.539062 -1.203125 12.4375 -0.609375 C 11.34375 -0.015625 10.070312 0.28125 8.625 0.28125 Z M 8.625 -2.875 C 10.925781 -2.875 12.078125 -4.382812 12.078125 -7.40625 C 12.078125 -8.976562 11.78125 -10.128906 11.1875 -10.859375 C 10.59375 -11.585938 9.738281 -11.953125 8.625 -11.953125 C 6.320312 -11.953125 5.171875 -10.4375 5.171875 -7.40625 C 5.171875 -4.382812 6.320312 -2.875 8.625 -2.875 Z M 8.625 -2.875 "/></g></g></g><g fill="#1a3636" fill-opacity="1"><g transform="translate(54.379528, 45.977638)"><g><path d="M 2.140625 0 L 2.140625 -14.84375 L 5.71875 -14.84375 L 5.71875 -12.65625 L 6 -12.59375 C 6.925781 -14.28125 8.421875 -15.125 10.484375 -15.125 C 12.203125 -15.125 13.460938 -14.65625 14.265625 -13.71875 C 15.066406 -12.789062 15.46875 -11.429688 15.46875 -9.640625 L 15.46875 0 L 11.75 0 L 11.75 -9.1875 C 11.75 -10.175781 11.550781 -10.882812 11.15625 -11.3125 C 10.757812 -11.75 10.125 -11.96875 9.25 -11.96875 C 8.1875 -11.96875 7.351562 -11.625 6.75 -10.9375 C 6.15625 -10.25 5.859375 -9.164062 5.859375 -7.6875 L 5.859375 0 Z M 2.140625 0 "/></g></g></g><g fill="#1a3636" fill-opacity="1"><g transform="translate(71.756417, 45.977638)"><g><path d="M 10.203125 0 L 5.765625 0 L 0.28125 -14.84375 L 4.1875 -14.84375 L 7.875 -4.265625 L 8.171875 -4.265625 L 11.875 -14.84375 L 15.6875 -14.84375 Z M 10.203125 0 "/></g></g></g><g fill="#1a3636" fill-opacity="1"><g transform="translate(87.707648, 45.977638)"><g><path d="M 8.625 0.28125 C 7.164062 0.28125 5.882812 -0.015625 4.78125 -0.609375 C 3.6875 -1.203125 2.835938 -2.078125 2.234375 -3.234375 C 1.628906 -4.390625 1.328125 -5.78125 1.328125 -7.40625 C 1.328125 -9.039062 1.628906 -10.4375 2.234375 -11.59375 C 2.835938 -12.75 3.6875 -13.625 4.78125 -14.21875 C 5.882812 -14.820312 7.164062 -15.125 8.625 -15.125 C 10.070312 -15.125 11.34375 -14.820312 12.4375 -14.21875 C 13.539062 -13.625 14.394531 -12.75 15 -11.59375 C 15.613281 -10.4375 15.921875 -9.039062 15.921875 -7.40625 C 15.921875 -5.78125 15.613281 -4.390625 15 -3.234375 C 14.394531 -2.078125 13.539062 -1.203125 12.4375 -0.609375 C 11.34375 -0.015625 10.070312 0.28125 8.625 0.28125 Z M 8.625 -2.875 C 10.925781 -2.875 12.078125 -4.382812 12.078125 -7.40625 C 12.078125 -8.976562 11.78125 -10.128906 11.1875 -10.859375 C 10.59375 -11.585938 9.738281 -11.953125 8.625 -11.953125 C 6.320312 -11.953125 5.171875 -10.4375 5.171875 -7.40625 C 5.171875 -4.382812 6.320312 -2.875 8.625 -2.875 Z M 8.625 -2.875 "/></g></g></g><g fill="#1a3636" fill-opacity="1"><g transform="translate(104.950042, 45.977638)"><g><path d="M 6.15625 0.28125 C 4.820312 0.28125 3.800781 -0.078125 3.09375 -0.796875 C 2.394531 -1.523438 2.046875 -2.625 2.046875 -4.09375 L 2.046875 -20.796875 L 5.765625 -20.796875 L 5.765625 -4.234375 C 5.765625 -3.328125 6.144531 -2.875 6.90625 -2.875 C 7.113281 -2.875 7.34375 -2.910156 7.59375 -2.984375 L 7.78125 -2.9375 L 8.109375 -0.0625 C 7.898438 0.0390625 7.625 0.125 7.28125 0.1875 C 6.945312 0.25 6.570312 0.28125 6.15625 0.28125 Z M 6.15625 0.28125 "/></g></g></g><g fill="#1a3636" fill-opacity="1"><g transform="translate(113.477091, 45.977638)"><g><path d="M 6.796875 0.28125 C 5.128906 0.28125 3.894531 -0.171875 3.09375 -1.078125 C 2.300781 -1.992188 1.90625 -3.300781 1.90625 -5 L 1.90625 -14.84375 L 5.640625 -14.84375 L 5.640625 -5.46875 C 5.640625 -4.5625 5.832031 -3.898438 6.21875 -3.484375 C 6.613281 -3.066406 7.21875 -2.859375 8.03125 -2.859375 C 9.0625 -2.859375 9.863281 -3.195312 10.4375 -3.875 C 11.007812 -4.550781 11.296875 -5.617188 11.296875 -7.078125 L 11.296875 -14.84375 L 15.03125 -14.84375 L 15.03125 0 L 11.453125 0 L 11.453125 -2.171875 L 11.15625 -2.25 C 10.6875 -1.394531 10.109375 -0.757812 9.421875 -0.34375 C 8.734375 0.0703125 7.859375 0.28125 6.796875 0.28125 Z M 6.796875 0.28125 "/></g></g></g><g fill="#1a3636" fill-opacity="1"><g transform="translate(130.638787, 45.977638)"><g><path d="M 10.234375 -3.53125 L 11.203125 -0.78125 C 10.796875 -0.445312 10.285156 -0.1875 9.671875 0 C 9.066406 0.1875 8.378906 0.28125 7.609375 0.28125 C 6.003906 0.28125 4.785156 -0.15625 3.953125 -1.03125 C 3.117188 -1.90625 2.703125 -3.175781 2.703125 -4.84375 L 2.703125 -11.890625 L 0.4375 -11.890625 L 0.4375 -14.84375 L 2.703125 -14.84375 L 2.703125 -17.734375 L 6.421875 -18.34375 L 6.421875 -14.84375 L 10.640625 -14.84375 L 10.640625 -11.890625 L 6.421875 -11.890625 L 6.421875 -5.109375 C 6.421875 -4.378906 6.570312 -3.84375 6.875 -3.5 C 7.1875 -3.164062 7.632812 -3 8.21875 -3 C 8.882812 -3 9.460938 -3.175781 9.953125 -3.53125 Z M 10.234375 -3.53125 "/></g></g></g><g fill="#1a3636" fill-opacity="1"><g transform="translate(142.165098, 45.977638)"><g><path d="M 4 -16.609375 C 3.320312 -16.609375 2.769531 -16.8125 2.34375 -17.21875 C 1.925781 -17.625 1.71875 -18.148438 1.71875 -18.796875 C 1.71875 -19.441406 1.925781 -19.96875 2.34375 -20.375 C 2.769531 -20.78125 3.320312 -20.984375 4 -20.984375 C 4.445312 -20.984375 4.84375 -20.890625 5.1875 -20.703125 C 5.539062 -20.515625 5.8125 -20.253906 6 -19.921875 C 6.195312 -19.597656 6.296875 -19.222656 6.296875 -18.796875 C 6.296875 -18.378906 6.195312 -18.003906 6 -17.671875 C 5.8125 -17.335938 5.539062 -17.078125 5.1875 -16.890625 C 4.84375 -16.703125 4.445312 -16.609375 4 -16.609375 Z M 2.140625 0 L 2.140625 -14.84375 L 5.859375 -14.84375 L 5.859375 0 Z M 2.140625 0 "/></g></g></g><g fill="#1a3636" fill-opacity="1"><g transform="translate(150.154164, 45.977638)"><g><path d="M 8.625 0.28125 C 7.164062 0.28125 5.882812 -0.015625 4.78125 -0.609375 C 3.6875 -1.203125 2.835938 -2.078125 2.234375 -3.234375 C 1.628906 -4.390625 1.328125 -5.78125 1.328125 -7.40625 C 1.328125 -9.039062 1.628906 -10.4375 2.234375 -11.59375 C 2.835938 -12.75 3.6875 -13.625 4.78125 -14.21875 C 5.882812 -14.820312 7.164062 -15.125 8.625 -15.125 C 10.070312 -15.125 11.34375 -14.820312 12.4375 -14.21875 C 13.539062 -13.625 14.394531 -12.75 15 -11.59375 C 15.613281 -10.4375 15.921875 -9.039062 15.921875 -7.40625 C 15.921875 -5.78125 15.613281 -4.390625 15 -3.234375 C 14.394531 -2.078125 13.539062 -1.203125 12.4375 -0.609375 C 11.34375 -0.015625 10.070312 0.28125 8.625 0.28125 Z M 8.625 -2.875 C 10.925781 -2.875 12.078125 -4.382812 12.078125 -7.40625 C 12.078125 -8.976562 11.78125 -10.128906 11.1875 -10.859375 C 10.59375 -11.585938 9.738281 -11.953125 8.625 -11.953125 C 6.320312 -11.953125 5.171875 -10.4375 5.171875 -7.40625 C 5.171875 -4.382812 6.320312 -2.875 8.625 -2.875 Z M 8.625 -2.875 "/></g></g></g><g fill="#1a3636" fill-opacity="1"><g transform="translate(167.396558, 45.977638)"><g><path d="M 2.140625 0 L 2.140625 -14.84375 L 5.71875 -14.84375 L 5.71875 -12.65625 L 6 -12.59375 C 6.925781 -14.28125 8.421875 -15.125 10.484375 -15.125 C 12.203125 -15.125 13.460938 -14.65625 14.265625 -13.71875 C 15.066406 -12.789062 15.46875 -11.429688 15.46875 -9.640625 L 15.46875 0 L 11.75 0 L 11.75 -9.1875 C 11.75 -10.175781 11.550781 -10.882812 11.15625 -11.3125 C 10.757812 -11.75 10.125 -11.96875 9.25 -11.96875 C 8.1875 -11.96875 7.351562 -11.625 6.75 -10.9375 C 6.15625 -10.25 5.859375 -9.164062 5.859375 -7.6875 L 5.859375 0 Z M 2.140625 0 "/></g></g></g><g fill="#1a3636" fill-opacity="1"><g transform="translate(184.773447, 45.977638)"><g><path d="M 5.78125 0.28125 C 4.832031 0.28125 4.007812 0.109375 3.3125 -0.234375 C 2.613281 -0.585938 2.070312 -1.101562 1.6875 -1.78125 C 1.3125 -2.457031 1.125 -3.269531 1.125 -4.21875 C 1.125 -5.101562 1.3125 -5.84375 1.6875 -6.4375 C 2.070312 -7.03125 2.65625 -7.515625 3.4375 -7.890625 C 4.226562 -8.273438 5.257812 -8.570312 6.53125 -8.78125 C 7.425781 -8.925781 8.101562 -9.082031 8.5625 -9.25 C 9.019531 -9.425781 9.328125 -9.617188 9.484375 -9.828125 C 9.648438 -10.046875 9.734375 -10.320312 9.734375 -10.65625 C 9.734375 -11.125 9.566406 -11.484375 9.234375 -11.734375 C 8.910156 -11.992188 8.363281 -12.125 7.59375 -12.125 C 6.757812 -12.125 5.96875 -11.9375 5.21875 -11.5625 C 4.476562 -11.195312 3.835938 -10.710938 3.296875 -10.109375 L 3.03125 -10.109375 L 1.46875 -12.46875 C 2.21875 -13.300781 3.132812 -13.953125 4.21875 -14.421875 C 5.300781 -14.890625 6.488281 -15.125 7.78125 -15.125 C 9.738281 -15.125 11.15625 -14.703125 12.03125 -13.859375 C 12.914062 -13.023438 13.359375 -11.84375 13.359375 -10.3125 L 13.359375 -3.875 C 13.359375 -3.207031 13.648438 -2.875 14.234375 -2.875 C 14.453125 -2.875 14.671875 -2.914062 14.890625 -3 L 15.078125 -2.953125 L 15.34375 -0.34375 C 15.132812 -0.207031 14.847656 -0.0976562 14.484375 -0.015625 C 14.117188 0.0664062 13.71875 0.109375 13.28125 0.109375 C 12.382812 0.109375 11.6875 -0.0625 11.1875 -0.40625 C 10.695312 -0.75 10.34375 -1.28125 10.125 -2 L 9.84375 -2.03125 C 9.113281 -0.488281 7.757812 0.28125 5.78125 0.28125 Z M 6.96875 -2.5 C 7.832031 -2.5 8.519531 -2.785156 9.03125 -3.359375 C 9.550781 -3.941406 9.8125 -4.75 9.8125 -5.78125 L 9.8125 -7.296875 L 9.546875 -7.34375 C 9.328125 -7.164062 9.035156 -7.015625 8.671875 -6.890625 C 8.304688 -6.773438 7.785156 -6.65625 7.109375 -6.53125 C 6.296875 -6.394531 5.710938 -6.164062 5.359375 -5.84375 C 5.003906 -5.519531 4.828125 -5.054688 4.828125 -4.453125 C 4.828125 -3.816406 5.015625 -3.332031 5.390625 -3 C 5.765625 -2.664062 6.289062 -2.5 6.96875 -2.5 Z M 6.96875 -2.5 "/></g></g></g><g fill="#1a3636" fill-opacity="1"><g transform="translate(200.415337, 45.977638)"><g><path d="M 6.15625 0.28125 C 4.820312 0.28125 3.800781 -0.078125 3.09375 -0.796875 C 2.394531 -1.523438 2.046875 -2.625 2.046875 -4.09375 L 2.046875 -20.796875 L 5.765625 -20.796875 L 5.765625 -4.234375 C 5.765625 -3.328125 6.144531 -2.875 6.90625 -2.875 C 7.113281 -2.875 7.34375 -2.910156 7.59375 -2.984375 L 7.78125 -2.9375 L 8.109375 -0.0625 C 7.898438 0.0390625 7.625 0.125 7.28125 0.1875 C 6.945312 0.25 6.570312 0.28125 6.15625 0.28125 Z M 6.15625 0.28125 "/></g></g></g><g fill="#1a3636" fill-opacity="1"><g transform="translate(17.8504, 84.534741)"><g><path d="M 6.328125 0 L 2.5625 0 L 2.5625 -19.671875 L 7 -19.671875 L 14.90625 -7 L 15.25 -7.046875 L 15.25 -19.671875 L 19 -19.671875 L 19 0 L 15.015625 0 L 6.65625 -13.53125 L 6.328125 -13.484375 Z M 6.328125 0 "/></g></g></g><g fill="#1a3636" fill-opacity="1"><g transform="translate(39.410117, 84.534741)"><g><path d="M 14.65625 -6.578125 L 5.125 -6.578125 C 5.226562 -5.285156 5.59375 -4.34375 6.21875 -3.75 C 6.851562 -3.164062 7.710938 -2.875 8.796875 -2.875 C 9.648438 -2.875 10.335938 -3.03125 10.859375 -3.34375 C 11.390625 -3.664062 11.816406 -4.148438 12.140625 -4.796875 L 12.421875 -4.796875 L 14.90625 -3.21875 C 14.414062 -2.175781 13.679688 -1.332031 12.703125 -0.6875 C 11.734375 -0.0390625 10.429688 0.28125 8.796875 0.28125 C 7.265625 0.28125 5.9375 -0.0078125 4.8125 -0.59375 C 3.695312 -1.175781 2.835938 -2.039062 2.234375 -3.1875 C 1.628906 -4.34375 1.328125 -5.75 1.328125 -7.40625 C 1.328125 -9.09375 1.644531 -10.515625 2.28125 -11.671875 C 2.914062 -12.828125 3.773438 -13.691406 4.859375 -14.265625 C 5.953125 -14.835938 7.175781 -15.125 8.53125 -15.125 C 10.625 -15.125 12.226562 -14.566406 13.34375 -13.453125 C 14.46875 -12.335938 15.03125 -10.703125 15.03125 -8.546875 C 15.03125 -7.773438 15 -7.171875 14.9375 -6.734375 Z M 11.453125 -8.984375 C 11.421875 -10.117188 11.160156 -10.941406 10.671875 -11.453125 C 10.179688 -11.972656 9.46875 -12.234375 8.53125 -12.234375 C 6.644531 -12.234375 5.535156 -11.148438 5.203125 -8.984375 Z M 11.453125 -8.984375 "/></g></g></g><g fill="#1a3636" fill-opacity="1"><g transform="translate(55.536193, 84.534741)"><g><path d="M 6.796875 0.28125 C 5.128906 0.28125 3.894531 -0.171875 3.09375 -1.078125 C 2.300781 -1.992188 1.90625 -3.300781 1.90625 -5 L 1.90625 -14.84375 L 5.640625 -14.84375 L 5.640625 -5.46875 C 5.640625 -4.5625 5.832031 -3.898438 6.21875 -3.484375 C 6.613281 -3.066406 7.21875 -2.859375 8.03125 -2.859375 C 9.0625 -2.859375 9.863281 -3.195312 10.4375 -3.875 C 11.007812 -4.550781 11.296875 -5.617188 11.296875 -7.078125 L 11.296875 -14.84375 L 15.03125 -14.84375 L 15.03125 0 L 11.453125 0 L 11.453125 -2.171875 L 11.15625 -2.25 C 10.6875 -1.394531 10.109375 -0.757812 9.421875 -0.34375 C 8.734375 0.0703125 7.859375 0.28125 6.796875 0.28125 Z M 6.796875 0.28125 "/></g></g></g><g fill="#1a3636" fill-opacity="1"><g transform="translate(72.697889, 84.534741)"><g><path d="M 2.140625 0 L 2.140625 -14.84375 L 5.75 -14.84375 L 5.75 -12.625 L 6.046875 -12.578125 C 6.398438 -13.398438 6.867188 -14.003906 7.453125 -14.390625 C 8.035156 -14.773438 8.742188 -14.96875 9.578125 -14.96875 C 10.421875 -14.96875 11.0625 -14.828125 11.5 -14.546875 L 10.875 -11.328125 L 10.578125 -11.265625 C 10.335938 -11.367188 10.101562 -11.441406 9.875 -11.484375 C 9.65625 -11.523438 9.382812 -11.546875 9.0625 -11.546875 C 8.019531 -11.546875 7.222656 -11.179688 6.671875 -10.453125 C 6.128906 -9.722656 5.859375 -8.550781 5.859375 -6.9375 L 5.859375 0 Z M 2.140625 0 "/></g></g></g><g fill="#1a3636" fill-opacity="1"><g transform="translate(84.331797, 84.534741)"><g><path d="M 5.78125 0.28125 C 4.832031 0.28125 4.007812 0.109375 3.3125 -0.234375 C 2.613281 -0.585938 2.070312 -1.101562 1.6875 -1.78125 C 1.3125 -2.457031 1.125 -3.269531 1.125 -4.21875 C 1.125 -5.101562 1.3125 -5.84375 1.6875 -6.4375 C 2.070312 -7.03125 2.65625 -7.515625 3.4375 -7.890625 C 4.226562 -8.273438 5.257812 -8.570312 6.53125 -8.78125 C 7.425781 -8.925781 8.101562 -9.082031 8.5625 -9.25 C 9.019531 -9.425781 9.328125 -9.617188 9.484375 -9.828125 C 9.648438 -10.046875 9.734375 -10.320312 9.734375 -10.65625 C 9.734375 -11.125 9.566406 -11.484375 9.234375 -11.734375 C 8.910156 -11.992188 8.363281 -12.125 7.59375 -12.125 C 6.757812 -12.125 5.96875 -11.9375 5.21875 -11.5625 C 4.476562 -11.195312 3.835938 -10.710938 3.296875 -10.109375 L 3.03125 -10.109375 L 1.46875 -12.46875 C 2.21875 -13.300781 3.132812 -13.953125 4.21875 -14.421875 C 5.300781 -14.890625 6.488281 -15.125 7.78125 -15.125 C 9.738281 -15.125 11.15625 -14.703125 12.03125 -13.859375 C 12.914062 -13.023438 13.359375 -11.84375 13.359375 -10.3125 L 13.359375 -3.875 C 13.359375 -3.207031 13.648438 -2.875 14.234375 -2.875 C 14.453125 -2.875 14.671875 -2.914062 14.890625 -3 L 15.078125 -2.953125 L 15.34375 -0.34375 C 15.132812 -0.207031 14.847656 -0.0976562 14.484375 -0.015625 C 14.117188 0.0664062 13.71875 0.109375 13.28125 0.109375 C 12.382812 0.109375 11.6875 -0.0625 11.1875 -0.40625 C 10.695312 -0.75 10.34375 -1.28125 10.125 -2 L 9.84375 -2.03125 C 9.113281 -0.488281 7.757812 0.28125 5.78125 0.28125 Z M 6.96875 -2.5 C 7.832031 -2.5 8.519531 -2.785156 9.03125 -3.359375 C 9.550781 -3.941406 9.8125 -4.75 9.8125 -5.78125 L 9.8125 -7.296875 L 9.546875 -7.34375 C 9.328125 -7.164062 9.035156 -7.015625 8.671875 -6.890625 C 8.304688 -6.773438 7.785156 -6.65625 7.109375 -6.53125 C 6.296875 -6.394531 5.710938 -6.164062 5.359375 -5.84375 C 5.003906 -5.519531 4.828125 -5.054688 4.828125 -4.453125 C 4.828125 -3.816406 5.015625 -3.332031 5.390625 -3 C 5.765625 -2.664062 6.289062 -2.5 6.96875 -2.5 Z M 6.96875 -2.5 "/></g></g></g><g fill="#1a3636" fill-opacity="1"><g transform="translate(99.973687, 84.534741)"><g><path d="M 6.15625 0.28125 C 4.820312 0.28125 3.800781 -0.078125 3.09375 -0.796875 C 2.394531 -1.523438 2.046875 -2.625 2.046875 -4.09375 L 2.046875 -20.796875 L 5.765625 -20.796875 L 5.765625 -4.234375 C 5.765625 -3.328125 6.144531 -2.875 6.90625 -2.875 C 7.113281 -2.875 7.34375 -2.910156 7.59375 -2.984375 L 7.78125 -2.9375 L 8.109375 -0.0625 C 7.898438 0.0390625 7.625 0.125 7.28125 0.1875 C 6.945312 0.25 6.570312 0.28125 6.15625 0.28125 Z M 6.15625 0.28125 "/></g></g></g><g fill="#1a3636" fill-opacity="1"><g transform="translate(108.512832, 84.534741)"><g/></g></g><g fill="#1a3636" fill-opacity="1"><g transform="translate(17.8504, 123.091844)"><g><path d="M 6.328125 0 L 2.5625 0 L 2.5625 -19.671875 L 7 -19.671875 L 14.90625 -7 L 15.25 -7.046875 L 15.25 -19.671875 L 19 -19.671875 L 19 0 L 15.015625 0 L 6.65625 -13.53125 L 6.328125 -13.484375 Z M 6.328125 0 "/></g></g></g><g fill="#1a3636" fill-opacity="1"><g transform="translate(39.410117, 123.091844)"><g><path d="M 14.65625 -6.578125 L 5.125 -6.578125 C 5.226562 -5.285156 5.59375 -4.34375 6.21875 -3.75 C 6.851562 -3.164062 7.710938 -2.875 8.796875 -2.875 C 9.648438 -2.875 10.335938 -3.03125 10.859375 -3.34375 C 11.390625 -3.664062 11.816406 -4.148438 12.140625 -4.796875 L 12.421875 -4.796875 L 14.90625 -3.21875 C 14.414062 -2.175781 13.679688 -1.332031 12.703125 -0.6875 C 11.734375 -0.0390625 10.429688 0.28125 8.796875 0.28125 C 7.265625 0.28125 5.9375 -0.0078125 4.8125 -0.59375 C 3.695312 -1.175781 2.835938 -2.039062 2.234375 -3.1875 C 1.628906 -4.34375 1.328125 -5.75 1.328125 -7.40625 C 1.328125 -9.09375 1.644531 -10.515625 2.28125 -11.671875 C 2.914062 -12.828125 3.773438 -13.691406 4.859375 -14.265625 C 5.953125 -14.835938 7.175781 -15.125 8.53125 -15.125 C 10.625 -15.125 12.226562 -14.566406 13.34375 -13.453125 C 14.46875 -12.335938 15.03125 -10.703125 15.03125 -8.546875 C 15.03125 -7.773438 15 -7.171875 14.9375 -6.734375 Z M 11.453125 -8.984375 C 11.421875 -10.117188 11.160156 -10.941406 10.671875 -11.453125 C 10.179688 -11.972656 9.46875 -12.234375 8.53125 -12.234375 C 6.644531 -12.234375 5.535156 -11.148438 5.203125 -8.984375 Z M 11.453125 -8.984375 "/></g></g></g><g fill="#1a3636" fill-opacity="1"><g transform="translate(55.536193, 123.091844)"><g><path d="M 10.234375 -3.53125 L 11.203125 -0.78125 C 10.796875 -0.445312 10.285156 -0.1875 9.671875 0 C 9.066406 0.1875 8.378906 0.28125 7.609375 0.28125 C 6.003906 0.28125 4.785156 -0.15625 3.953125 -1.03125 C 3.117188 -1.90625 2.703125 -3.175781 2.703125 -4.84375 L 2.703125 -11.890625 L 0.4375 -11.890625 L 0.4375 -14.84375 L 2.703125 -14.84375 L 2.703125 -17.734375 L 6.421875 -18.34375 L 6.421875 -14.84375 L 10.640625 -14.84375 L 10.640625 -11.890625 L 6.421875 -11.890625 L 6.421875 -5.109375 C 6.421875 -4.378906 6.570312 -3.84375 6.875 -3.5 C 7.1875 -3.164062 7.632812 -3 8.21875 -3 C 8.882812 -3 9.460938 -3.175781 9.953125 -3.53125 Z M 10.234375 -3.53125 "/></g></g></g><g fill="#1a3636" fill-opacity="1"><g transform="translate(67.062505, 123.091844)"><g><path d="M 7.96875 0 L 4.0625 0 L 0.53125 -14.84375 L 4 -14.84375 L 6.171875 -4.796875 L 6.453125 -4.796875 L 9.28125 -14.84375 L 12.515625 -14.84375 L 15.421875 -4.796875 L 15.703125 -4.796875 L 17.8125 -14.84375 L 21.171875 -14.84375 L 17.6875 0 L 13.78125 0 L 10.96875 -10.09375 L 10.6875 -10.09375 Z M 7.96875 0 "/></g></g></g><g fill="#1a3636" fill-opacity="1"><g transform="translate(88.756718, 123.091844)"><g><path d="M 8.625 0.28125 C 7.164062 0.28125 5.882812 -0.015625 4.78125 -0.609375 C 3.6875 -1.203125 2.835938 -2.078125 2.234375 -3.234375 C 1.628906 -4.390625 1.328125 -5.78125 1.328125 -7.40625 C 1.328125 -9.039062 1.628906 -10.4375 2.234375 -11.59375 C 2.835938 -12.75 3.6875 -13.625 4.78125 -14.21875 C 5.882812 -14.820312 7.164062 -15.125 8.625 -15.125 C 10.070312 -15.125 11.34375 -14.820312 12.4375 -14.21875 C 13.539062 -13.625 14.394531 -12.75 15 -11.59375 C 15.613281 -10.4375 15.921875 -9.039062 15.921875 -7.40625 C 15.921875 -5.78125 15.613281 -4.390625 15 -3.234375 C 14.394531 -2.078125 13.539062 -1.203125 12.4375 -0.609375 C 11.34375 -0.015625 10.070312 0.28125 8.625 0.28125 Z M 8.625 -2.875 C 10.925781 -2.875 12.078125 -4.382812 12.078125 -7.40625 C 12.078125 -8.976562 11.78125 -10.128906 11.1875 -10.859375 C 10.59375 -11.585938 9.738281 -11.953125 8.625 -11.953125 C 6.320312 -11.953125 5.171875 -10.4375 5.171875 -7.40625 C 5.171875 -4.382812 6.320312 -2.875 8.625 -2.875 Z M 8.625 -2.875 "/></g></g></g><g fill="#1a3636" fill-opacity="1"><g transform="translate(105.999112, 123.091844)"><g><path d="M 2.140625 0 L 2.140625 -14.84375 L 5.75 -14.84375 L 5.75 -12.625 L 6.046875 -12.578125 C 6.398438 -13.398438 6.867188 -14.003906 7.453125 -14.390625 C 8.035156 -14.773438 8.742188 -14.96875 9.578125 -14.96875 C 10.421875 -14.96875 11.0625 -14.828125 11.5 -14.546875 L 10.875 -11.328125 L 10.578125 -11.265625 C 10.335938 -11.367188 10.101562 -11.441406 9.875 -11.484375 C 9.65625 -11.523438 9.382812 -11.546875 9.0625 -11.546875 C 8.019531 -11.546875 7.222656 -11.179688 6.671875 -10.453125 C 6.128906 -9.722656 5.859375 -8.550781 5.859375 -6.9375 L 5.859375 0 Z M 2.140625 0 "/></g></g></g><g fill="#1a3636" fill-opacity="1"><g transform="translate(117.63302, 123.091844)"><g><path d="M 2.140625 0 L 2.140625 -20.796875 L 5.859375 -20.796875 L 5.859375 -9.25 L 6.234375 -9.25 L 10.515625 -14.84375 L 14.296875 -14.84375 L 14.296875 -14.53125 L 9.25 -8.015625 L 14.859375 -0.34375 L 14.859375 0 L 10.9375 0 L 6.234375 -6.25 L 5.859375 -6.25 L 5.859375 0 Z M 2.140625 0 "/></g></g></g><path fill="#1a3636" d="M 300.960938 95.726562 L 302.34375 94.078125 L 347.410156 131.914062 L 346.023438 133.566406 Z M 300.960938 95.726562 " fill-opacity="1" fill-rule="nonzero"/><path fill="#1a3636" d="M 300.929688 55.898438 L 302.375 54.300781 L 347.4375 95.03125 L 345.992188 96.628906 Z M 300.929688 55.898438 " fill-opacity="1" fill-rule="nonzero"/><path fill="#1a3636" d="M 300.644531 15.496094 L 302.660156 14.722656 L 347.722656 132.355469 L 345.707031 133.125 Z M 300.644531 15.496094 " fill-opacity="1" fill-rule="nonzero"/><path fill="#1a3636" d="M 340.785156 135.71875 L 388.035156 101.972656 L 389.285156 103.730469 L 342.039062 137.472656 Z M 340.785156 135.71875 " fill-opacity="1" fill-rule="nonzero"/><path fill="#1a3636" d="M 341.199219 94.265625 L 341.628906 92.152344 L 388.875 101.792969 L 388.441406 103.90625 Z M 341.199219 94.265625 " fill-opacity="1" fill-rule="nonzero"/><path fill="#1a3636" d="M 340.65625 57.15625 L 342.167969 55.621094 L 389.414062 102.082031 L 387.902344 103.621094 Z M 340.65625 57.15625 " fill-opacity="1" fill-rule="nonzero"/><path fill="#1a3636" d="M 340.46875 17.101562 L 342.359375 16.066406 L 389.605469 102.332031 L 387.714844 103.367188 Z M 340.46875 17.101562 " fill-opacity="1" fill-rule="nonzero"/><path fill="#1a3636" d="M 342.714844 16.5 L 343.96875 14.746094 L 391.214844 48.492188 L 389.960938 50.246094 Z M 342.714844 16.5 " fill-opacity="1" fill-rule="nonzero"/><path fill="#1a3636" d="M 343.125 57.953125 L 390.371094 48.3125 L 390.800781 50.425781 L 343.554688 60.066406 Z M 343.125 57.953125 " fill-opacity="1" fill-rule="nonzero"/><path fill="#1a3636" d="M 342.390625 135.113281 L 389.644531 48.851562 L 391.535156 49.886719 L 344.28125 136.148438 Z M 342.390625 135.113281 " fill-opacity="1" fill-rule="nonzero"/><g clip-path="url(#53dd618734)"><path fill="#1a3636" d="M 423.378906 52.5625 L 423.378906 40.386719 L 431.273438 46.476562 Z M 423.378906 52.5625 " fill-opacity="1" fill-rule="nonzero"/></g><path fill="#1a3636" d="M 387.21875 45.398438 L 426.265625 45.398438 L 426.265625 47.554688 L 387.21875 47.554688 Z M 387.21875 45.398438 " fill-opacity="1" fill-rule="nonzero"/><g clip-path="url(#fe76eac02e)"><path fill="#1a3636" d="M 423.378906 82.210938 L 423.378906 70.035156 L 431.273438 76.121094 Z M 423.378906 82.210938 " fill-opacity="1" fill-rule="nonzero"/></g><path fill="#1a3636" d="M 387.21875 75.042969 L 426.265625 75.042969 L 426.265625 77.199219 L 387.21875 77.199219 Z M 387.21875 75.042969 " fill-opacity="1" fill-rule="nonzero"/><g clip-path="url(#e62ed378e3)"><path fill="#1a3636" d="M 423.378906 111.855469 L 423.378906 99.683594 L 431.273438 105.769531 Z M 423.378906 111.855469 " fill-opacity="1" fill-rule="nonzero"/></g><path fill="#1a3636" d="M 387.21875 104.691406 L 426.265625 104.691406 L 426.265625 106.847656 L 387.21875 106.847656 Z M 387.21875 104.691406 " fill-opacity="1" fill-rule="nonzero"/><path fill="#ddd5c9" d="M 399.664062 45.351562 C 399.664062 45.902344 399.609375 46.445312 399.5 46.980469 C 399.394531 47.519531 399.238281 48.039062 399.027344 48.546875 C 398.816406 49.054688 398.558594 49.535156 398.253906 49.988281 C 397.953125 50.445312 397.605469 50.867188 397.21875 51.253906 C 396.832031 51.640625 396.410156 51.988281 395.953125 52.292969 C 395.496094 52.597656 395.015625 52.851562 394.511719 53.0625 C 394.003906 53.273438 393.484375 53.429688 392.945312 53.539062 C 392.40625 53.644531 391.867188 53.699219 391.316406 53.699219 C 390.769531 53.699219 390.226562 53.644531 389.691406 53.539062 C 389.152344 53.429688 388.628906 53.273438 388.125 53.0625 C 387.617188 52.851562 387.136719 52.597656 386.679688 52.292969 C 386.226562 51.988281 385.804688 51.640625 385.417969 51.253906 C 385.03125 50.867188 384.683594 50.445312 384.378906 49.988281 C 384.074219 49.535156 383.816406 49.054688 383.609375 48.546875 C 383.398438 48.039062 383.238281 47.519531 383.132812 46.980469 C 383.027344 46.445312 382.972656 45.902344 382.972656 45.351562 C 382.972656 44.804688 383.027344 44.261719 383.132812 43.726562 C 383.238281 43.1875 383.398438 42.667969 383.609375 42.160156 C 383.816406 41.652344 384.074219 41.171875 384.378906 40.71875 C 384.683594 40.261719 385.03125 39.839844 385.417969 39.453125 C 385.804688 39.066406 386.226562 38.71875 386.679688 38.414062 C 387.136719 38.109375 387.617188 37.855469 388.125 37.644531 C 388.628906 37.433594 389.152344 37.277344 389.691406 37.167969 C 390.226562 37.0625 390.769531 37.007812 391.316406 37.007812 C 391.867188 37.007812 392.40625 37.0625 392.945312 37.167969 C 393.484375 37.277344 394.003906 37.433594 394.511719 37.644531 C 395.015625 37.855469 395.496094 38.109375 395.953125 38.414062 C 396.410156 38.71875 396.832031 39.066406 397.21875 39.453125 C 397.605469 39.839844 397.953125 40.261719 398.253906 40.71875 C 398.558594 41.171875 398.816406 41.652344 399.027344 42.160156 C 399.238281 42.667969 399.394531 43.1875 399.5 43.726562 C 399.609375 44.261719 399.664062 44.804688 399.664062 45.351562 Z M 399.664062 45.351562 " fill-opacity="1" fill-rule="nonzero"/><path fill="#ddd5c9" d="M 399.664062 75 C 399.664062 75.550781 399.609375 76.089844 399.5 76.628906 C 399.394531 77.167969 399.238281 77.6875 399.027344 78.195312 C 398.816406 78.699219 398.558594 79.179688 398.253906 79.636719 C 397.953125 80.09375 397.605469 80.515625 397.21875 80.902344 C 396.832031 81.289062 396.410156 81.636719 395.953125 81.941406 C 395.496094 82.242188 395.015625 82.5 394.511719 82.710938 C 394.003906 82.921875 393.484375 83.078125 392.945312 83.183594 C 392.40625 83.292969 391.867188 83.347656 391.316406 83.347656 C 390.769531 83.347656 390.226562 83.292969 389.691406 83.183594 C 389.152344 83.078125 388.628906 82.921875 388.125 82.710938 C 387.617188 82.5 387.136719 82.242188 386.679688 81.941406 C 386.226562 81.636719 385.804688 81.289062 385.417969 80.902344 C 385.03125 80.515625 384.683594 80.09375 384.378906 79.636719 C 384.074219 79.179688 383.816406 78.699219 383.609375 78.195312 C 383.398438 77.6875 383.238281 77.167969 383.132812 76.628906 C 383.027344 76.089844 382.972656 75.550781 382.972656 75 C 382.972656 74.453125 383.027344 73.910156 383.132812 73.375 C 383.238281 72.835938 383.398438 72.3125 383.609375 71.808594 C 383.816406 71.300781 384.074219 70.820312 384.378906 70.363281 C 384.683594 69.910156 385.03125 69.488281 385.417969 69.101562 C 385.804688 68.714844 386.226562 68.367188 386.679688 68.0625 C 387.136719 67.757812 387.617188 67.5 388.125 67.292969 C 388.628906 67.082031 389.152344 66.925781 389.691406 66.816406 C 390.226562 66.710938 390.769531 66.65625 391.316406 66.65625 C 391.867188 66.65625 392.40625 66.710938 392.945312 66.816406 C 393.484375 66.925781 394.003906 67.082031 394.511719 67.292969 C 395.015625 67.5 395.496094 67.757812 395.953125 68.0625 C 396.410156 68.367188 396.832031 68.714844 397.21875 69.101562 C 397.605469 69.488281 397.953125 69.910156 398.253906 70.363281 C 398.558594 70.820312 398.816406 71.300781 399.027344 71.808594 C 399.238281 72.3125 399.394531 72.835938 399.5 73.375 C 399.609375 73.910156 399.664062 74.453125 399.664062 75 Z M 399.664062 75 " fill-opacity="1" fill-rule="nonzero"/><path fill="#ddd5c9" d="M 399.664062 104.648438 C 399.664062 105.195312 399.609375 105.738281 399.5 106.277344 C 399.394531 106.8125 399.238281 107.335938 399.027344 107.839844 C 398.816406 108.347656 398.558594 108.828125 398.253906 109.285156 C 397.953125 109.738281 397.605469 110.160156 397.21875 110.550781 C 396.832031 110.9375 396.410156 111.28125 395.953125 111.585938 C 395.496094 111.890625 395.015625 112.148438 394.511719 112.359375 C 394.003906 112.566406 393.484375 112.726562 392.945312 112.832031 C 392.40625 112.941406 391.867188 112.992188 391.316406 112.992188 C 390.769531 112.992188 390.226562 112.941406 389.691406 112.832031 C 389.152344 112.726562 388.628906 112.566406 388.125 112.359375 C 387.617188 112.148438 387.136719 111.890625 386.679688 111.585938 C 386.226562 111.28125 385.804688 110.9375 385.417969 110.550781 C 385.03125 110.160156 384.683594 109.738281 384.378906 109.285156 C 384.074219 108.828125 383.816406 108.347656 383.609375 107.839844 C 383.398438 107.335938 383.238281 106.8125 383.132812 106.277344 C 383.027344 105.738281 382.972656 105.195312 382.972656 104.648438 C 382.972656 104.101562 383.027344 103.558594 383.132812 103.019531 C 383.238281 102.484375 383.398438 101.960938 383.609375 101.453125 C 383.816406 100.949219 384.074219 100.46875 384.378906 100.011719 C 384.683594 99.558594 385.03125 99.136719 385.417969 98.746094 C 385.804688 98.359375 386.226562 98.015625 386.679688 97.710938 C 387.136719 97.40625 387.617188 97.148438 388.125 96.9375 C 388.628906 96.730469 389.152344 96.570312 389.691406 96.464844 C 390.226562 96.355469 390.769531 96.304688 391.316406 96.304688 C 391.867188 96.304688 392.40625 96.355469 392.945312 96.464844 C 393.484375 96.570312 394.003906 96.730469 394.511719 96.9375 C 395.015625 97.148438 395.496094 97.40625 395.953125 97.710938 C 396.410156 98.015625 396.832031 98.359375 397.21875 98.746094 C 397.605469 99.136719 397.953125 99.558594 398.253906 100.011719 C 398.558594 100.46875 398.816406 100.949219 399.027344 101.453125 C 399.238281 101.960938 399.394531 102.484375 399.5 103.019531 C 399.609375 103.558594 399.664062 104.101562 399.664062 104.648438 Z M 399.664062 104.648438 " fill-opacity="1" fill-rule="nonzero"/><path fill="#1a3636" d="M 256.417969 103.726562 L 257.671875 101.972656 L 304.917969 135.71875 L 303.664062 137.472656 Z M 256.417969 103.726562 " fill-opacity="1" fill-rule="nonzero"/><path fill="#1a3636" d="M 256.828125 101.792969 L 304.074219 92.152344 L 304.507812 94.265625 L 257.261719 103.90625 Z M 256.828125 101.792969 " fill-opacity="1" fill-rule="nonzero"/><path fill="#1a3636" d="M 256.292969 102.082031 L 303.535156 55.617188 L 305.046875 57.15625 L 257.804688 103.621094 Z M 256.292969 102.082031 " fill-opacity="1" fill-rule="nonzero"/><path fill="#1a3636" d="M 256.097656 102.332031 L 303.351562 16.070312 L 305.242188 17.105469 L 257.988281 103.367188 Z M 256.097656 102.332031 " fill-opacity="1" fill-rule="nonzero"/><path fill="#1a3636" d="M 254.488281 48.488281 L 301.738281 14.746094 L 302.992188 16.5 L 255.742188 50.246094 Z M 254.488281 48.488281 " fill-opacity="1" fill-rule="nonzero"/><path fill="#1a3636" d="M 254.902344 50.425781 L 255.332031 48.3125 L 302.578125 57.953125 L 302.148438 60.066406 Z M 254.902344 50.425781 " fill-opacity="1" fill-rule="nonzero"/><path fill="#1a3636" d="M 254.363281 50.136719 L 255.875 48.597656 L 303.117188 95.0625 L 301.605469 96.597656 Z M 254.363281 50.136719 " fill-opacity="1" fill-rule="nonzero"/><g clip-path="url(#339f844fbf)"><path fill="#40534c" d="M 265.164062 45.351562 C 265.164062 45.902344 265.109375 46.445312 265.003906 46.980469 C 264.898438 47.519531 264.738281 48.039062 264.527344 48.546875 C 264.320312 49.054688 264.0625 49.535156 263.757812 49.988281 C 263.453125 50.445312 263.105469 50.867188 262.71875 51.253906 C 262.332031 51.640625 261.910156 51.988281 261.457031 52.292969 C 261 52.597656 260.519531 52.851562 260.011719 53.0625 C 259.507812 53.273438 258.984375 53.429688 258.449219 53.539062 C 257.910156 53.644531 257.367188 53.699219 256.820312 53.699219 C 256.269531 53.699219 255.730469 53.644531 255.191406 53.539062 C 254.652344 53.429688 254.132812 53.273438 253.625 53.0625 C 253.121094 52.851562 252.640625 52.597656 252.183594 52.292969 C 251.726562 51.988281 251.304688 51.640625 250.917969 51.253906 C 250.53125 50.867188 250.183594 50.445312 249.882812 49.988281 C 249.578125 49.535156 249.320312 49.054688 249.109375 48.546875 C 248.898438 48.039062 248.742188 47.519531 248.636719 46.980469 C 248.527344 46.445312 248.476562 45.902344 248.476562 45.351562 C 248.476562 44.804688 248.527344 44.261719 248.636719 43.726562 C 248.742188 43.1875 248.898438 42.667969 249.109375 42.160156 C 249.320312 41.652344 249.578125 41.171875 249.882812 40.71875 C 250.183594 40.261719 250.53125 39.839844 250.917969 39.453125 C 251.304688 39.066406 251.726562 38.71875 252.183594 38.414062 C 252.640625 38.109375 253.121094 37.855469 253.625 37.644531 C 254.132812 37.433594 254.652344 37.277344 255.191406 37.167969 C 255.730469 37.0625 256.269531 37.007812 256.820312 37.007812 C 257.367188 37.007812 257.910156 37.0625 258.449219 37.167969 C 258.984375 37.277344 259.507812 37.433594 260.011719 37.644531 C 260.519531 37.855469 261 38.109375 261.457031 38.414062 C 261.910156 38.71875 262.332031 39.066406 262.71875 39.453125 C 263.105469 39.839844 263.453125 40.261719 263.757812 40.71875 C 264.0625 41.171875 264.320312 41.652344 264.527344 42.160156 C 264.738281 42.667969 264.898438 43.1875 265.003906 43.726562 C 265.109375 44.261719 265.164062 44.804688 265.164062 45.351562 Z M 265.164062 45.351562 " fill-opacity="1" fill-rule="nonzero"/></g><g clip-path="url(#3ec05fa501)"><path fill="#40534c" d="M 265.164062 75 C 265.164062 75.550781 265.109375 76.089844 265.003906 76.628906 C 264.898438 77.167969 264.738281 77.6875 264.527344 78.195312 C 264.320312 78.699219 264.0625 79.179688 263.757812 79.636719 C 263.453125 80.09375 263.105469 80.515625 262.71875 80.902344 C 262.332031 81.289062 261.910156 81.636719 261.457031 81.941406 C 261 82.242188 260.519531 82.5 260.011719 82.710938 C 259.507812 82.921875 258.984375 83.078125 258.449219 83.183594 C 257.910156 83.292969 257.367188 83.347656 256.820312 83.347656 C 256.269531 83.347656 255.730469 83.292969 255.191406 83.183594 C 254.652344 83.078125 254.132812 82.921875 253.625 82.710938 C 253.121094 82.5 252.640625 82.242188 252.183594 81.941406 C 251.726562 81.636719 251.304688 81.289062 250.917969 80.902344 C 250.53125 80.515625 250.183594 80.09375 249.882812 79.636719 C 249.578125 79.179688 249.320312 78.699219 249.109375 78.195312 C 248.898438 77.6875 248.742188 77.167969 248.636719 76.628906 C 248.527344 76.089844 248.476562 75.550781 248.476562 75 C 248.476562 74.453125 248.527344 73.910156 248.636719 73.375 C 248.742188 72.835938 248.898438 72.3125 249.109375 71.808594 C 249.320312 71.300781 249.578125 70.820312 249.882812 70.363281 C 250.183594 69.910156 250.53125 69.488281 250.917969 69.101562 C 251.304688 68.714844 251.726562 68.367188 252.183594 68.0625 C 252.640625 67.757812 253.121094 67.5 253.625 67.292969 C 254.132812 67.082031 254.652344 66.925781 255.191406 66.816406 C 255.730469 66.710938 256.269531 66.65625 256.820312 66.65625 C 257.367188 66.65625 257.910156 66.710938 258.449219 66.816406 C 258.984375 66.925781 259.507812 67.082031 260.011719 67.292969 C 260.519531 67.5 261 67.757812 261.457031 68.0625 C 261.910156 68.367188 262.332031 68.714844 262.71875 69.101562 C 263.105469 69.488281 263.453125 69.910156 263.757812 70.363281 C 264.0625 70.820312 264.320312 71.300781 264.527344 71.808594 C 264.738281 72.3125 264.898438 72.835938 265.003906 73.375 C 265.109375 73.910156 265.164062 74.453125 265.164062 75 Z M 265.164062 75 " fill-opacity="1" fill-rule="nonzero"/></g><g clip-path="url(#3de80a2d64)"><path fill="#40534c" d="M 265.164062 104.648438 C 265.164062 105.195312 265.109375 105.738281 265.003906 106.277344 C 264.898438 106.8125 264.738281 107.335938 264.527344 107.839844 C 264.320312 108.347656 264.0625 108.828125 263.757812 109.285156 C 263.453125 109.738281 263.105469 110.160156 262.71875 110.550781 C 262.332031 110.9375 261.910156 111.28125 261.457031 111.585938 C 261 111.890625 260.519531 112.148438 260.011719 112.359375 C 259.507812 112.566406 258.984375 112.726562 258.449219 112.832031 C 257.910156 112.941406 257.367188 112.992188 256.820312 112.992188 C 256.269531 112.992188 255.730469 112.941406 255.191406 112.832031 C 254.652344 112.726562 254.132812 112.566406 253.625 112.359375 C 253.121094 112.148438 252.640625 111.890625 252.183594 111.585938 C 251.726562 111.28125 251.304688 110.9375 250.917969 110.550781 C 250.53125 110.160156 250.183594 109.738281 249.882812 109.285156 C 249.578125 108.828125 249.320312 108.347656 249.109375 107.839844 C 248.898438 107.335938 248.742188 106.8125 248.636719 106.277344 C 248.527344 105.738281 248.476562 105.195312 248.476562 104.648438 C 248.476562 104.101562 248.527344 103.558594 248.636719 103.019531 C 248.742188 102.484375 248.898438 101.960938 249.109375 101.453125 C 249.320312 100.949219 249.578125 100.46875 249.882812 100.011719 C 250.183594 99.558594 250.53125 99.136719 250.917969 98.746094 C 251.304688 98.359375 251.726562 98.015625 252.183594 97.710938 C 252.640625 97.40625 253.121094 97.148438 253.625 96.9375 C 254.132812 96.730469 254.652344 96.570312 255.191406 96.464844 C 255.730469 96.355469 256.269531 96.304688 256.820312 96.304688 C 257.367188 96.304688 257.910156 96.355469 258.449219 96.464844 C 258.984375 96.570312 259.507812 96.730469 260.011719 96.9375 C 260.519531 97.148438 261 97.40625 261.457031 97.710938 C 261.910156 98.015625 262.332031 98.359375 262.71875 98.746094 C 263.105469 99.136719 263.453125 99.558594 263.757812 100.011719 C 264.0625 100.46875 264.320312 100.949219 264.527344 101.453125 C 264.738281 101.960938 264.898438 102.484375 265.003906 103.019531 C 265.109375 103.558594 265.164062 104.101562 265.164062 104.648438 Z M 265.164062 104.648438 " fill-opacity="1" fill-rule="nonzero"/></g><path fill="#1a3636" d="M 300.960938 52.125 L 346.019531 14.277344 L 347.40625 15.929688 L 302.347656 53.773438 Z M 300.960938 52.125 " fill-opacity="1" fill-rule="nonzero"/><path fill="#1a3636" d="M 300.957031 91.917969 L 346.027344 54.273438 L 347.410156 55.929688 L 302.339844 93.574219 Z M 300.957031 91.917969 " fill-opacity="1" fill-rule="nonzero"/><path fill="#1a3636" d="M 300.636719 132.351562 L 345.71875 14.726562 L 347.730469 15.496094 L 302.648438 133.121094 Z M 300.636719 132.351562 " fill-opacity="1" fill-rule="nonzero"/><g clip-path="url(#21df316ef1)"><path fill="#1a3636" d="M 354.828125 15.296875 C 354.828125 15.84375 354.777344 16.386719 354.667969 16.925781 C 354.5625 17.460938 354.402344 17.984375 354.195312 18.492188 C 353.984375 18.996094 353.726562 19.476562 353.421875 19.933594 C 353.117188 20.390625 352.773438 20.808594 352.386719 21.199219 C 351.996094 21.585938 351.578125 21.929688 351.121094 22.234375 C 350.664062 22.539062 350.183594 22.796875 349.679688 23.007812 C 349.171875 23.214844 348.648438 23.375 348.113281 23.480469 C 347.574219 23.589844 347.03125 23.640625 346.484375 23.640625 C 345.9375 23.640625 345.394531 23.589844 344.855469 23.480469 C 344.320312 23.375 343.796875 23.214844 343.292969 23.007812 C 342.785156 22.796875 342.304688 22.539062 341.847656 22.234375 C 341.394531 21.929688 340.972656 21.585938 340.585938 21.199219 C 340.195312 20.808594 339.851562 20.390625 339.546875 19.933594 C 339.242188 19.476562 338.984375 18.996094 338.777344 18.492188 C 338.566406 17.984375 338.40625 17.460938 338.300781 16.925781 C 338.195312 16.386719 338.140625 15.84375 338.140625 15.296875 C 338.140625 14.75 338.195312 14.207031 338.300781 13.667969 C 338.40625 13.132812 338.566406 12.609375 338.777344 12.105469 C 338.984375 11.597656 339.242188 11.117188 339.546875 10.660156 C 339.851562 10.207031 340.195312 9.785156 340.585938 9.398438 C 340.972656 9.007812 341.394531 8.664062 341.847656 8.359375 C 342.304688 8.054688 342.785156 7.796875 343.292969 7.585938 C 343.796875 7.378906 344.320312 7.21875 344.855469 7.113281 C 345.394531 7.007812 345.9375 6.953125 346.484375 6.953125 C 347.03125 6.953125 347.574219 7.007812 348.113281 7.113281 C 348.648438 7.21875 349.171875 7.378906 349.679688 7.585938 C 350.183594 7.796875 350.664062 8.054688 351.121094 8.359375 C 351.578125 8.664062 351.996094 9.007812 352.386719 9.398438 C 352.773438 9.785156 353.117188 10.207031 353.421875 10.660156 C 353.726562 11.117188 353.984375 11.597656 354.195312 12.105469 C 354.402344 12.609375 354.5625 13.132812 354.667969 13.667969 C 354.777344 14.207031 354.828125 14.75 354.828125 15.296875 Z M 354.828125 15.296875 " fill-opacity="1" fill-rule="nonzero"/></g><path fill="#1a3636" d="M 354.828125 55.101562 C 354.828125 55.648438 354.777344 56.191406 354.667969 56.726562 C 354.5625 57.265625 354.402344 57.785156 354.195312 58.292969 C 353.984375 58.800781 353.726562 59.28125 353.421875 59.734375 C 353.117188 60.191406 352.773438 60.613281 352.386719 61 C 351.996094 61.386719 351.578125 61.734375 351.121094 62.039062 C 350.664062 62.34375 350.183594 62.597656 349.679688 62.808594 C 349.171875 63.019531 348.648438 63.175781 348.113281 63.285156 C 347.574219 63.390625 347.03125 63.445312 346.484375 63.445312 C 345.9375 63.445312 345.394531 63.390625 344.855469 63.285156 C 344.320312 63.175781 343.796875 63.019531 343.292969 62.808594 C 342.785156 62.597656 342.304688 62.34375 341.847656 62.039062 C 341.394531 61.734375 340.972656 61.386719 340.585938 61 C 340.195312 60.613281 339.851562 60.191406 339.546875 59.734375 C 339.242188 59.28125 338.984375 58.800781 338.777344 58.292969 C 338.566406 57.785156 338.40625 57.265625 338.300781 56.726562 C 338.195312 56.191406 338.140625 55.648438 338.140625 55.101562 C 338.140625 54.550781 338.195312 54.007812 338.300781 53.472656 C 338.40625 52.933594 338.566406 52.414062 338.777344 51.90625 C 338.984375 51.398438 339.242188 50.917969 339.546875 50.464844 C 339.851562 50.007812 340.195312 49.585938 340.585938 49.199219 C 340.972656 48.8125 341.394531 48.464844 341.847656 48.160156 C 342.304688 47.855469 342.785156 47.601562 343.292969 47.390625 C 343.796875 47.179688 344.320312 47.023438 344.855469 46.914062 C 345.394531 46.808594 345.9375 46.753906 346.484375 46.753906 C 347.03125 46.753906 347.574219 46.808594 348.113281 46.914062 C 348.648438 47.023438 349.171875 47.179688 349.679688 47.390625 C 350.183594 47.601562 350.664062 47.855469 351.121094 48.160156 C 351.578125 48.464844 351.996094 48.8125 352.386719 49.199219 C 352.773438 49.585938 353.117188 50.007812 353.421875 50.464844 C 353.726562 50.917969 353.984375 51.398438 354.195312 51.90625 C 354.402344 52.414062 354.5625 52.933594 354.667969 53.472656 C 354.777344 54.007812 354.828125 54.550781 354.828125 55.101562 Z M 354.828125 55.101562 " fill-opacity="1" fill-rule="nonzero"/><path fill="#1a3636" d="M 354.828125 94.902344 C 354.828125 95.449219 354.777344 95.992188 354.667969 96.53125 C 354.5625 97.066406 354.402344 97.589844 354.195312 98.097656 C 353.984375 98.601562 353.726562 99.082031 353.421875 99.539062 C 353.117188 99.992188 352.773438 100.414062 352.386719 100.804688 C 351.996094 101.191406 351.578125 101.535156 351.121094 101.839844 C 350.664062 102.144531 350.183594 102.402344 349.679688 102.613281 C 349.171875 102.820312 348.648438 102.980469 348.113281 103.085938 C 347.574219 103.195312 347.03125 103.246094 346.484375 103.246094 C 345.9375 103.246094 345.394531 103.195312 344.855469 103.085938 C 344.320312 102.980469 343.796875 102.820312 343.292969 102.613281 C 342.785156 102.402344 342.304688 102.144531 341.847656 101.839844 C 341.394531 101.535156 340.972656 101.191406 340.585938 100.804688 C 340.195312 100.414062 339.851562 99.992188 339.546875 99.539062 C 339.242188 99.082031 338.984375 98.601562 338.777344 98.097656 C 338.566406 97.589844 338.40625 97.066406 338.300781 96.53125 C 338.195312 95.992188 338.140625 95.449219 338.140625 94.902344 C 338.140625 94.355469 338.195312 93.8125 338.300781 93.273438 C 338.40625 92.738281 338.566406 92.214844 338.777344 91.710938 C 338.984375 91.203125 339.242188 90.722656 339.546875 90.265625 C 339.851562 89.8125 340.195312 89.390625 340.585938 89.003906 C 340.972656 88.613281 341.394531 88.269531 341.847656 87.964844 C 342.304688 87.660156 342.785156 87.402344 343.292969 87.191406 C 343.796875 86.984375 344.320312 86.824219 344.855469 86.71875 C 345.394531 86.613281 345.9375 86.558594 346.484375 86.558594 C 347.03125 86.558594 347.574219 86.613281 348.113281 86.71875 C 348.648438 86.824219 349.171875 86.984375 349.679688 87.191406 C 350.183594 87.402344 350.664062 87.660156 351.121094 87.964844 C 351.578125 88.269531 351.996094 88.613281 352.386719 89.003906 C 352.773438 89.390625 353.117188 89.8125 353.421875 90.265625 C 353.726562 90.722656 353.984375 91.203125 354.195312 91.710938 C 354.402344 92.214844 354.5625 92.738281 354.667969 93.273438 C 354.777344 93.8125 354.828125 94.355469 354.828125 94.902344 Z M 354.828125 94.902344 " fill-opacity="1" fill-rule="nonzero"/><g clip-path="url(#517f1bbd62)"><path fill="#1a3636" d="M 354.828125 134.703125 C 354.828125 135.253906 354.777344 135.796875 354.667969 136.332031 C 354.5625 136.871094 354.402344 137.390625 354.195312 137.898438 C 353.984375 138.402344 353.726562 138.886719 353.421875 139.339844 C 353.117188 139.796875 352.773438 140.21875 352.386719 140.605469 C 351.996094 140.992188 351.578125 141.339844 351.121094 141.644531 C 350.664062 141.949219 350.183594 142.203125 349.679688 142.414062 C 349.171875 142.625 348.648438 142.78125 348.113281 142.890625 C 347.574219 142.996094 347.03125 143.050781 346.484375 143.050781 C 345.9375 143.050781 345.394531 142.996094 344.855469 142.890625 C 344.320312 142.78125 343.796875 142.625 343.292969 142.414062 C 342.785156 142.203125 342.304688 141.949219 341.847656 141.644531 C 341.394531 141.339844 340.972656 140.992188 340.585938 140.605469 C 340.195312 140.21875 339.851562 139.796875 339.546875 139.339844 C 339.242188 138.886719 338.984375 138.402344 338.777344 137.898438 C 338.566406 137.390625 338.40625 136.871094 338.300781 136.332031 C 338.195312 135.796875 338.140625 135.253906 338.140625 134.703125 C 338.140625 134.15625 338.195312 133.613281 338.300781 133.078125 C 338.40625 132.539062 338.566406 132.015625 338.777344 131.511719 C 338.984375 131.003906 339.242188 130.523438 339.546875 130.070312 C 339.851562 129.613281 340.195312 129.191406 340.585938 128.804688 C 340.972656 128.417969 341.394531 128.070312 341.847656 127.765625 C 342.304688 127.460938 342.785156 127.203125 343.292969 126.996094 C 343.796875 126.785156 344.320312 126.628906 344.855469 126.519531 C 345.394531 126.414062 345.9375 126.359375 346.484375 126.359375 C 347.03125 126.359375 347.574219 126.414062 348.113281 126.519531 C 348.648438 126.628906 349.171875 126.785156 349.679688 126.996094 C 350.183594 127.203125 350.664062 127.460938 351.121094 127.765625 C 351.578125 128.070312 351.996094 128.417969 352.386719 128.804688 C 352.773438 129.191406 353.117188 129.613281 353.421875 130.070312 C 353.726562 130.523438 353.984375 131.003906 354.195312 131.511719 C 354.402344 132.015625 354.5625 132.539062 354.667969 133.078125 C 354.777344 133.613281 354.828125 134.15625 354.828125 134.703125 Z M 354.828125 134.703125 " fill-opacity="1" fill-rule="nonzero"/></g><g clip-path="url(#6a74e59d7a)"><path fill="#40534c" d="M 309.996094 15.296875 C 309.996094 15.84375 309.941406 16.386719 309.835938 16.925781 C 309.730469 17.460938 309.570312 17.984375 309.363281 18.492188 C 309.152344 18.996094 308.894531 19.476562 308.589844 19.933594 C 308.285156 20.390625 307.941406 20.808594 307.550781 21.199219 C 307.164062 21.585938 306.742188 21.929688 306.289062 22.234375 C 305.832031 22.539062 305.351562 22.796875 304.84375 23.007812 C 304.339844 23.214844 303.816406 23.375 303.28125 23.480469 C 302.742188 23.589844 302.199219 23.640625 301.652344 23.640625 C 301.105469 23.640625 300.5625 23.589844 300.023438 23.480469 C 299.488281 23.375 298.964844 23.214844 298.457031 23.007812 C 297.953125 22.796875 297.472656 22.539062 297.015625 22.234375 C 296.558594 21.929688 296.140625 21.585938 295.75 21.199219 C 295.363281 20.808594 295.019531 20.390625 294.714844 19.933594 C 294.410156 19.476562 294.152344 18.996094 293.941406 18.492188 C 293.734375 17.984375 293.574219 17.460938 293.46875 16.925781 C 293.359375 16.386719 293.308594 15.84375 293.308594 15.296875 C 293.308594 14.75 293.359375 14.207031 293.46875 13.667969 C 293.574219 13.132812 293.734375 12.609375 293.941406 12.105469 C 294.152344 11.597656 294.410156 11.117188 294.714844 10.660156 C 295.019531 10.207031 295.363281 9.785156 295.75 9.398438 C 296.140625 9.007812 296.558594 8.664062 297.015625 8.359375 C 297.472656 8.054688 297.953125 7.796875 298.457031 7.585938 C 298.964844 7.378906 299.488281 7.21875 300.023438 7.113281 C 300.5625 7.007812 301.105469 6.953125 301.652344 6.953125 C 302.199219 6.953125 302.742188 7.007812 303.28125 7.113281 C 303.816406 7.21875 304.339844 7.378906 304.84375 7.585938 C 305.351562 7.796875 305.832031 8.054688 306.289062 8.359375 C 306.742188 8.664062 307.164062 9.007812 307.550781 9.398438 C 307.941406 9.785156 308.285156 10.207031 308.589844 10.660156 C 308.894531 11.117188 309.152344 11.597656 309.363281 12.105469 C 309.570312 12.609375 309.730469 13.132812 309.835938 13.667969 C 309.941406 14.207031 309.996094 14.75 309.996094 15.296875 Z M 309.996094 15.296875 " fill-opacity="1" fill-rule="nonzero"/></g><path fill="#40534c" d="M 309.996094 55.101562 C 309.996094 55.648438 309.941406 56.191406 309.835938 56.726562 C 309.730469 57.265625 309.570312 57.785156 309.363281 58.292969 C 309.152344 58.800781 308.894531 59.28125 308.589844 59.734375 C 308.285156 60.191406 307.941406 60.613281 307.550781 61 C 307.164062 61.386719 306.742188 61.734375 306.289062 62.039062 C 305.832031 62.34375 305.351562 62.597656 304.84375 62.808594 C 304.339844 63.019531 303.816406 63.175781 303.28125 63.285156 C 302.742188 63.390625 302.199219 63.445312 301.652344 63.445312 C 301.105469 63.445312 300.5625 63.390625 300.023438 63.285156 C 299.488281 63.175781 298.964844 63.019531 298.457031 62.808594 C 297.953125 62.597656 297.472656 62.34375 297.015625 62.039062 C 296.558594 61.734375 296.140625 61.386719 295.75 61 C 295.363281 60.613281 295.019531 60.191406 294.714844 59.734375 C 294.410156 59.28125 294.152344 58.800781 293.941406 58.292969 C 293.734375 57.785156 293.574219 57.265625 293.46875 56.726562 C 293.359375 56.191406 293.308594 55.648438 293.308594 55.101562 C 293.308594 54.550781 293.359375 54.007812 293.46875 53.472656 C 293.574219 52.933594 293.734375 52.414062 293.941406 51.90625 C 294.152344 51.398438 294.410156 50.917969 294.714844 50.464844 C 295.019531 50.007812 295.363281 49.585938 295.75 49.199219 C 296.140625 48.8125 296.558594 48.464844 297.015625 48.160156 C 297.472656 47.855469 297.953125 47.601562 298.457031 47.390625 C 298.964844 47.179688 299.488281 47.023438 300.023438 46.914062 C 300.5625 46.808594 301.105469 46.753906 301.652344 46.753906 C 302.199219 46.753906 302.742188 46.808594 303.28125 46.914062 C 303.816406 47.023438 304.339844 47.179688 304.84375 47.390625 C 305.351562 47.601562 305.832031 47.855469 306.289062 48.160156 C 306.742188 48.464844 307.164062 48.8125 307.550781 49.199219 C 307.941406 49.585938 308.285156 50.007812 308.589844 50.464844 C 308.894531 50.917969 309.152344 51.398438 309.363281 51.90625 C 309.570312 52.414062 309.730469 52.933594 309.835938 53.472656 C 309.941406 54.007812 309.996094 54.550781 309.996094 55.101562 Z M 309.996094 55.101562 " fill-opacity="1" fill-rule="nonzero"/><path fill="#40534c" d="M 309.996094 94.902344 C 309.996094 95.449219 309.941406 95.992188 309.835938 96.53125 C 309.730469 97.066406 309.570312 97.589844 309.363281 98.097656 C 309.152344 98.601562 308.894531 99.082031 308.589844 99.539062 C 308.285156 99.992188 307.941406 100.414062 307.550781 100.804688 C 307.164062 101.191406 306.742188 101.535156 306.289062 101.839844 C 305.832031 102.144531 305.351562 102.402344 304.84375 102.613281 C 304.339844 102.820312 303.816406 102.980469 303.28125 103.085938 C 302.742188 103.195312 302.199219 103.246094 301.652344 103.246094 C 301.105469 103.246094 300.5625 103.195312 300.023438 103.085938 C 299.488281 102.980469 298.964844 102.820312 298.457031 102.613281 C 297.953125 102.402344 297.472656 102.144531 297.015625 101.839844 C 296.558594 101.535156 296.140625 101.191406 295.75 100.804688 C 295.363281 100.414062 295.019531 99.992188 294.714844 99.539062 C 294.410156 99.082031 294.152344 98.601562 293.941406 98.097656 C 293.734375 97.589844 293.574219 97.066406 293.46875 96.53125 C 293.359375 95.992188 293.308594 95.449219 293.308594 94.902344 C 293.308594 94.355469 293.359375 93.8125 293.46875 93.273438 C 293.574219 92.738281 293.734375 92.214844 293.941406 91.710938 C 294.152344 91.203125 294.410156 90.722656 294.714844 90.265625 C 295.019531 89.8125 295.363281 89.390625 295.75 89.003906 C 296.140625 88.613281 296.558594 88.269531 297.015625 87.964844 C 297.472656 87.660156 297.953125 87.402344 298.457031 87.191406 C 298.964844 86.984375 299.488281 86.824219 300.023438 86.71875 C 300.5625 86.613281 301.105469 86.558594 301.652344 86.558594 C 302.199219 86.558594 302.742188 86.613281 303.28125 86.71875 C 303.816406 86.824219 304.339844 86.984375 304.84375 87.191406 C 305.351562 87.402344 305.832031 87.660156 306.289062 87.964844 C 306.742188 88.269531 307.164062 88.613281 307.550781 89.003906 C 307.941406 89.390625 308.285156 89.8125 308.589844 90.265625 C 308.894531 90.722656 309.152344 91.203125 309.363281 91.710938 C 309.570312 92.214844 309.730469 92.738281 309.835938 93.273438 C 309.941406 93.8125 309.996094 94.355469 309.996094 94.902344 Z M 309.996094 94.902344 " fill-opacity="1" fill-rule="nonzero"/><g clip-path="url(#85f57520d2)"><path fill="#40534c" d="M 309.996094 134.703125 C 309.996094 135.253906 309.941406 135.796875 309.835938 136.332031 C 309.730469 136.871094 309.570312 137.390625 309.363281 137.898438 C 309.152344 138.402344 308.894531 138.886719 308.589844 139.339844 C 308.285156 139.796875 307.941406 140.21875 307.550781 140.605469 C 307.164062 140.992188 306.742188 141.339844 306.289062 141.644531 C 305.832031 141.949219 305.351562 142.203125 304.84375 142.414062 C 304.339844 142.625 303.816406 142.78125 303.28125 142.890625 C 302.742188 142.996094 302.199219 143.050781 301.652344 143.050781 C 301.105469 143.050781 300.5625 142.996094 300.023438 142.890625 C 299.488281 142.78125 298.964844 142.625 298.457031 142.414062 C 297.953125 142.203125 297.472656 141.949219 297.015625 141.644531 C 296.558594 141.339844 296.140625 140.992188 295.75 140.605469 C 295.363281 140.21875 295.019531 139.796875 294.714844 139.339844 C 294.410156 138.886719 294.152344 138.402344 293.941406 137.898438 C 293.734375 137.390625 293.574219 136.871094 293.46875 136.332031 C 293.359375 135.796875 293.308594 135.253906 293.308594 134.703125 C 293.308594 134.15625 293.359375 133.613281 293.46875 133.078125 C 293.574219 132.539062 293.734375 132.015625 293.941406 131.511719 C 294.152344 131.003906 294.410156 130.523438 294.714844 130.070312 C 295.019531 129.613281 295.363281 129.191406 295.75 128.804688 C 296.140625 128.417969 296.558594 128.070312 297.015625 127.765625 C 297.472656 127.460938 297.953125 127.203125 298.457031 126.996094 C 298.964844 126.785156 299.488281 126.628906 300.023438 126.519531 C 300.5625 126.414062 301.105469 126.359375 301.652344 126.359375 C 302.199219 126.359375 302.742188 126.414062 303.28125 126.519531 C 303.816406 126.628906 304.339844 126.785156 304.84375 126.996094 C 305.351562 127.203125 305.832031 127.460938 306.289062 127.765625 C 306.742188 128.070312 307.164062 128.417969 307.550781 128.804688 C 307.941406 129.191406 308.285156 129.613281 308.589844 130.070312 C 308.894531 130.523438 309.152344 131.003906 309.363281 131.511719 C 309.570312 132.015625 309.730469 132.539062 309.835938 133.078125 C 309.941406 133.613281 309.996094 134.15625 309.996094 134.703125 Z M 309.996094 134.703125 " fill-opacity="1" fill-rule="nonzero"/></g></svg>