<svg xmlns="http://www.w3.org/2000/svg" xmlns:xlink="http://www.w3.org/1999/xlink" width="600" zoomAndPan="magnify" viewBox="0 0 450 149.999998" height="200" preserveAspectRatio="xMidYMid meet" version="1.0"><defs><g/><clipPath id="84af9c00f2"><path d="M 0 0 L 449.996094 0 L 449.996094 150 L 0 150 Z M 0 0 " clip-rule="nonzero"/></clipPath><clipPath id="fb8b431baf"><path d="M 18.75 -0.601562 L 431.25 -0.601562 C 441.605469 -0.601562 450 7.792969 450 18.148438 L 450 131.851562 C 450 142.207031 441.605469 150.601562 431.25 150.601562 L 18.75 150.601562 C 8.394531 150.601562 0 142.207031 0 131.851562 L 0 18.148438 C 0 7.792969 8.394531 -0.601562 18.75 -0.601562 Z M 18.75 -0.601562 " clip-rule="nonzero"/></clipPath><linearGradient x1="126.987415" gradientTransform="matrix(0.590625, 0, 0, 0.590625, -0.00425002, -0.600004)" y1="-125.964582" x2="634.921202" gradientUnits="userSpaceOnUse" y2="381.968193" id="1d32df79d5"><stop stop-opacity="1" stop-color="rgb(86.605835%, 83.430481%, 78.72467%)" offset="0"/><stop stop-opacity="1" stop-color="rgb(86.244202%, 83.1604%, 78.434753%)" offset="0.00390625"/><stop stop-opacity="1" stop-color="rgb(85.884094%, 82.891846%, 78.144836%)" offset="0.0078125"/><stop stop-opacity="1" stop-color="rgb(85.522461%, 82.621765%, 77.854919%)" offset="0.0117188"/><stop stop-opacity="1" stop-color="rgb(85.162354%, 82.35321%, 77.565002%)" offset="0.015625"/><stop stop-opacity="1" stop-color="rgb(84.80072%, 82.084656%, 77.27356%)" offset="0.0195313"/><stop stop-opacity="1" stop-color="rgb(84.440613%, 81.816101%, 76.983643%)" offset="0.0234375"/><stop stop-opacity="1" stop-color="rgb(84.078979%, 81.546021%, 76.693726%)" offset="0.0273438"/><stop stop-opacity="1" stop-color="rgb(83.718872%, 81.277466%, 76.403809%)" offset="0.03125"/><stop stop-opacity="1" stop-color="rgb(83.357239%, 81.008911%, 76.113892%)" offset="0.0351563"/><stop stop-opacity="1" stop-color="rgb(82.995605%, 80.740356%, 75.823975%)" offset="0.0390625"/><stop stop-opacity="1" stop-color="rgb(82.633972%, 80.470276%, 75.534058%)" offset="0.0429688"/><stop stop-opacity="1" stop-color="rgb(82.273865%, 80.201721%, 75.244141%)" offset="0.046875"/><stop stop-opacity="1" stop-color="rgb(81.912231%, 79.933167%, 74.954224%)" offset="0.0507813"/><stop stop-opacity="1" stop-color="rgb(81.552124%, 79.664612%, 74.664307%)" offset="0.0546875"/><stop stop-opacity="1" stop-color="rgb(81.190491%, 79.394531%, 74.37439%)" offset="0.0585938"/><stop stop-opacity="1" stop-color="rgb(80.830383%, 79.125977%, 74.084473%)" offset="0.0625"/><stop stop-opacity="1" stop-color="rgb(80.46875%, 78.855896%, 73.79303%)" offset="0.0664063"/><stop stop-opacity="1" stop-color="rgb(80.108643%, 78.587341%, 73.503113%)" offset="0.0703125"/><stop stop-opacity="1" stop-color="rgb(79.747009%, 78.318787%, 73.213196%)" offset="0.0742188"/><stop stop-opacity="1" stop-color="rgb(79.386902%, 78.050232%, 72.923279%)" offset="0.078125"/><stop stop-opacity="1" stop-color="rgb(79.025269%, 77.780151%, 72.633362%)" offset="0.0820313"/><stop stop-opacity="1" stop-color="rgb(78.663635%, 77.511597%, 72.343445%)" offset="0.0859375"/><stop stop-opacity="1" stop-color="rgb(78.302002%, 77.243042%, 72.053528%)" offset="0.0898438"/><stop stop-opacity="1" stop-color="rgb(77.941895%, 76.974487%, 71.763611%)" offset="0.09375"/><stop stop-opacity="1" stop-color="rgb(77.580261%, 76.704407%, 71.473694%)" offset="0.0976563"/><stop stop-opacity="1" stop-color="rgb(77.220154%, 76.435852%, 71.183777%)" offset="0.101563"/><stop stop-opacity="1" stop-color="rgb(76.858521%, 76.167297%, 70.89386%)" offset="0.105469"/><stop stop-opacity="1" stop-color="rgb(76.498413%, 75.898743%, 70.603943%)" offset="0.109375"/><stop stop-opacity="1" stop-color="rgb(76.13678%, 75.628662%, 70.3125%)" offset="0.113281"/><stop stop-opacity="1" stop-color="rgb(75.776672%, 75.360107%, 70.022583%)" offset="0.117188"/><stop stop-opacity="1" stop-color="rgb(75.415039%, 75.090027%, 69.732666%)" offset="0.121094"/><stop stop-opacity="1" stop-color="rgb(75.054932%, 74.821472%, 69.442749%)" offset="0.125"/><stop stop-opacity="1" stop-color="rgb(74.693298%, 74.552917%, 69.152832%)" offset="0.128906"/><stop stop-opacity="1" stop-color="rgb(74.331665%, 74.284363%, 68.862915%)" offset="0.132812"/><stop stop-opacity="1" stop-color="rgb(73.970032%, 74.014282%, 68.572998%)" offset="0.136719"/><stop stop-opacity="1" stop-color="rgb(73.609924%, 73.745728%, 68.283081%)" offset="0.140625"/><stop stop-opacity="1" stop-color="rgb(73.248291%, 73.477173%, 67.993164%)" offset="0.144531"/><stop stop-opacity="1" stop-color="rgb(72.888184%, 73.208618%, 67.703247%)" offset="0.148438"/><stop stop-opacity="1" stop-color="rgb(72.52655%, 72.938538%, 67.41333%)" offset="0.152344"/><stop stop-opacity="1" stop-color="rgb(72.166443%, 72.669983%, 67.123413%)" offset="0.15625"/><stop stop-opacity="1" stop-color="rgb(71.80481%, 72.401428%, 66.83197%)" offset="0.160156"/><stop stop-opacity="1" stop-color="rgb(71.444702%, 72.132874%, 66.542053%)" offset="0.164062"/><stop stop-opacity="1" stop-color="rgb(71.083069%, 71.862793%, 66.252136%)" offset="0.167969"/><stop stop-opacity="1" stop-color="rgb(70.722961%, 71.594238%, 65.962219%)" offset="0.171875"/><stop stop-opacity="1" stop-color="rgb(70.361328%, 71.324158%, 65.672302%)" offset="0.175781"/><stop stop-opacity="1" stop-color="rgb(69.999695%, 71.055603%, 65.382385%)" offset="0.179688"/><stop stop-opacity="1" stop-color="rgb(69.638062%, 70.787048%, 65.092468%)" offset="0.183594"/><stop stop-opacity="1" stop-color="rgb(69.277954%, 70.518494%, 64.802551%)" offset="0.1875"/><stop stop-opacity="1" stop-color="rgb(68.916321%, 70.248413%, 64.512634%)" offset="0.191406"/><stop stop-opacity="1" stop-color="rgb(68.556213%, 69.979858%, 64.222717%)" offset="0.195312"/><stop stop-opacity="1" stop-color="rgb(68.19458%, 69.711304%, 63.9328%)" offset="0.199219"/><stop stop-opacity="1" stop-color="rgb(67.834473%, 69.442749%, 63.642883%)" offset="0.203125"/><stop stop-opacity="1" stop-color="rgb(67.472839%, 69.172668%, 63.35144%)" offset="0.207031"/><stop stop-opacity="1" stop-color="rgb(67.112732%, 68.904114%, 63.061523%)" offset="0.210938"/><stop stop-opacity="1" stop-color="rgb(66.751099%, 68.635559%, 62.771606%)" offset="0.214844"/><stop stop-opacity="1" stop-color="rgb(66.390991%, 68.367004%, 62.481689%)" offset="0.21875"/><stop stop-opacity="1" stop-color="rgb(66.029358%, 68.096924%, 62.191772%)" offset="0.222656"/><stop stop-opacity="1" stop-color="rgb(65.66925%, 67.828369%, 61.901855%)" offset="0.226562"/><stop stop-opacity="1" stop-color="rgb(65.307617%, 67.558289%, 61.611938%)" offset="0.230469"/><stop stop-opacity="1" stop-color="rgb(64.945984%, 67.289734%, 61.322021%)" offset="0.234375"/><stop stop-opacity="1" stop-color="rgb(64.584351%, 67.021179%, 61.032104%)" offset="0.238281"/><stop stop-opacity="1" stop-color="rgb(64.224243%, 66.752625%, 60.742188%)" offset="0.242188"/><stop stop-opacity="1" stop-color="rgb(63.86261%, 66.482544%, 60.452271%)" offset="0.246094"/><stop stop-opacity="1" stop-color="rgb(63.502502%, 66.213989%, 60.162354%)" offset="0.25"/><stop stop-opacity="1" stop-color="rgb(63.140869%, 65.945435%, 59.870911%)" offset="0.253906"/><stop stop-opacity="1" stop-color="rgb(62.780762%, 65.67688%, 59.580994%)" offset="0.257813"/><stop stop-opacity="1" stop-color="rgb(62.419128%, 65.406799%, 59.291077%)" offset="0.261719"/><stop stop-opacity="1" stop-color="rgb(62.059021%, 65.138245%, 59.00116%)" offset="0.265625"/><stop stop-opacity="1" stop-color="rgb(61.697388%, 64.86969%, 58.711243%)" offset="0.269531"/><stop stop-opacity="1" stop-color="rgb(61.33728%, 64.601135%, 58.421326%)" offset="0.273438"/><stop stop-opacity="1" stop-color="rgb(60.975647%, 64.331055%, 58.131409%)" offset="0.277344"/><stop stop-opacity="1" stop-color="rgb(60.614014%, 64.0625%, 57.841492%)" offset="0.28125"/><stop stop-opacity="1" stop-color="rgb(60.25238%, 63.792419%, 57.551575%)" offset="0.285156"/><stop stop-opacity="1" stop-color="rgb(59.892273%, 63.523865%, 57.261658%)" offset="0.289062"/><stop stop-opacity="1" stop-color="rgb(59.53064%, 63.25531%, 56.971741%)" offset="0.292969"/><stop stop-opacity="1" stop-color="rgb(59.170532%, 62.986755%, 56.681824%)" offset="0.296875"/><stop stop-opacity="1" stop-color="rgb(58.808899%, 62.716675%, 56.390381%)" offset="0.300781"/><stop stop-opacity="1" stop-color="rgb(58.448792%, 62.44812%, 56.100464%)" offset="0.304688"/><stop stop-opacity="1" stop-color="rgb(58.087158%, 62.179565%, 55.810547%)" offset="0.308594"/><stop stop-opacity="1" stop-color="rgb(57.727051%, 61.911011%, 55.52063%)" offset="0.3125"/><stop stop-opacity="1" stop-color="rgb(57.365417%, 61.64093%, 55.230713%)" offset="0.316406"/><stop stop-opacity="1" stop-color="rgb(57.00531%, 61.372375%, 54.940796%)" offset="0.320312"/><stop stop-opacity="1" stop-color="rgb(56.643677%, 61.103821%, 54.650879%)" offset="0.324219"/><stop stop-opacity="1" stop-color="rgb(56.282043%, 60.835266%, 54.360962%)" offset="0.328125"/><stop stop-opacity="1" stop-color="rgb(55.92041%, 60.565186%, 54.071045%)" offset="0.332031"/><stop stop-opacity="1" stop-color="rgb(55.560303%, 60.296631%, 53.781128%)" offset="0.335938"/><stop stop-opacity="1" stop-color="rgb(55.198669%, 60.02655%, 53.491211%)" offset="0.339844"/><stop stop-opacity="1" stop-color="rgb(54.838562%, 59.757996%, 53.201294%)" offset="0.34375"/><stop stop-opacity="1" stop-color="rgb(54.476929%, 59.489441%, 52.909851%)" offset="0.347656"/><stop stop-opacity="1" stop-color="rgb(54.116821%, 59.220886%, 52.619934%)" offset="0.351563"/><stop stop-opacity="1" stop-color="rgb(53.755188%, 58.950806%, 52.330017%)" offset="0.355469"/><stop stop-opacity="1" stop-color="rgb(53.395081%, 58.682251%, 52.0401%)" offset="0.359375"/><stop stop-opacity="1" stop-color="rgb(53.033447%, 58.413696%, 51.750183%)" offset="0.363281"/><stop stop-opacity="1" stop-color="rgb(52.67334%, 58.145142%, 51.460266%)" offset="0.367188"/><stop stop-opacity="1" stop-color="rgb(52.311707%, 57.875061%, 51.170349%)" offset="0.371094"/><stop stop-opacity="1" stop-color="rgb(51.950073%, 57.606506%, 50.880432%)" offset="0.375"/><stop stop-opacity="1" stop-color="rgb(51.58844%, 57.337952%, 50.590515%)" offset="0.378906"/><stop stop-opacity="1" stop-color="rgb(51.228333%, 57.069397%, 50.300598%)" offset="0.382812"/><stop stop-opacity="1" stop-color="rgb(50.866699%, 56.799316%, 50.010681%)" offset="0.386719"/><stop stop-opacity="1" stop-color="rgb(50.506592%, 56.530762%, 49.720764%)" offset="0.390625"/><stop stop-opacity="1" stop-color="rgb(50.144958%, 56.260681%, 49.429321%)" offset="0.394531"/><stop stop-opacity="1" stop-color="rgb(49.784851%, 55.992126%, 49.139404%)" offset="0.398438"/><stop stop-opacity="1" stop-color="rgb(49.423218%, 55.723572%, 48.849487%)" offset="0.402344"/><stop stop-opacity="1" stop-color="rgb(49.06311%, 55.455017%, 48.55957%)" offset="0.40625"/><stop stop-opacity="1" stop-color="rgb(48.701477%, 55.184937%, 48.269653%)" offset="0.410156"/><stop stop-opacity="1" stop-color="rgb(48.34137%, 54.916382%, 47.979736%)" offset="0.414063"/><stop stop-opacity="1" stop-color="rgb(47.979736%, 54.647827%, 47.689819%)" offset="0.417969"/><stop stop-opacity="1" stop-color="rgb(47.618103%, 54.379272%, 47.399902%)" offset="0.421875"/><stop stop-opacity="1" stop-color="rgb(47.25647%, 54.109192%, 47.109985%)" offset="0.425781"/><stop stop-opacity="1" stop-color="rgb(46.896362%, 53.840637%, 46.820068%)" offset="0.429688"/><stop stop-opacity="1" stop-color="rgb(46.534729%, 53.572083%, 46.530151%)" offset="0.433594"/><stop stop-opacity="1" stop-color="rgb(46.174622%, 53.303528%, 46.240234%)" offset="0.4375"/><stop stop-opacity="1" stop-color="rgb(45.812988%, 53.033447%, 45.948792%)" offset="0.441406"/><stop stop-opacity="1" stop-color="rgb(45.452881%, 52.764893%, 45.658875%)" offset="0.445312"/><stop stop-opacity="1" stop-color="rgb(45.091248%, 52.494812%, 45.368958%)" offset="0.449219"/><stop stop-opacity="1" stop-color="rgb(44.73114%, 52.226257%, 45.079041%)" offset="0.453125"/><stop stop-opacity="1" stop-color="rgb(44.369507%, 51.957703%, 44.789124%)" offset="0.457031"/><stop stop-opacity="1" stop-color="rgb(44.009399%, 51.689148%, 44.499207%)" offset="0.460937"/><stop stop-opacity="1" stop-color="rgb(43.647766%, 51.419067%, 44.20929%)" offset="0.464844"/><stop stop-opacity="1" stop-color="rgb(43.286133%, 51.150513%, 43.919373%)" offset="0.46875"/><stop stop-opacity="1" stop-color="rgb(42.9245%, 50.881958%, 43.629456%)" offset="0.472656"/><stop stop-opacity="1" stop-color="rgb(42.564392%, 50.613403%, 43.339539%)" offset="0.476563"/><stop stop-opacity="1" stop-color="rgb(42.202759%, 50.343323%, 43.049622%)" offset="0.480469"/><stop stop-opacity="1" stop-color="rgb(41.842651%, 50.074768%, 42.759705%)" offset="0.484375"/><stop stop-opacity="1" stop-color="rgb(41.481018%, 49.806213%, 42.468262%)" offset="0.488281"/><stop stop-opacity="1" stop-color="rgb(41.120911%, 49.537659%, 42.178345%)" offset="0.492188"/><stop stop-opacity="1" stop-color="rgb(40.759277%, 49.267578%, 41.888428%)" offset="0.496094"/><stop stop-opacity="1" stop-color="rgb(40.39917%, 48.999023%, 41.598511%)" offset="0.5"/><stop stop-opacity="1" stop-color="rgb(40.280151%, 48.869324%, 41.506958%)" offset="0.507812"/><stop stop-opacity="1" stop-color="rgb(40.040588%, 48.612976%, 41.322327%)" offset="0.515625"/><stop stop-opacity="1" stop-color="rgb(39.802551%, 48.355103%, 41.139221%)" offset="0.523438"/><stop stop-opacity="1" stop-color="rgb(39.564514%, 48.098755%, 40.95459%)" offset="0.53125"/><stop stop-opacity="1" stop-color="rgb(39.324951%, 47.840881%, 40.769958%)" offset="0.539062"/><stop stop-opacity="1" stop-color="rgb(39.086914%, 47.583008%, 40.586853%)" offset="0.546875"/><stop stop-opacity="1" stop-color="rgb(38.847351%, 47.32666%, 40.402222%)" offset="0.554688"/><stop stop-opacity="1" stop-color="rgb(38.609314%, 47.068787%, 40.219116%)" offset="0.5625"/><stop stop-opacity="1" stop-color="rgb(38.371277%, 46.810913%, 40.034485%)" offset="0.570312"/><stop stop-opacity="1" stop-color="rgb(38.131714%, 46.554565%, 39.851379%)" offset="0.578125"/><stop stop-opacity="1" stop-color="rgb(37.893677%, 46.296692%, 39.666748%)" offset="0.585938"/><stop stop-opacity="1" stop-color="rgb(37.65564%, 46.040344%, 39.482117%)" offset="0.59375"/><stop stop-opacity="1" stop-color="rgb(37.416077%, 45.782471%, 39.299011%)" offset="0.601562"/><stop stop-opacity="1" stop-color="rgb(37.17804%, 45.524597%, 39.11438%)" offset="0.609375"/><stop stop-opacity="1" stop-color="rgb(36.940002%, 45.26825%, 38.931274%)" offset="0.617188"/><stop stop-opacity="1" stop-color="rgb(36.700439%, 45.010376%, 38.746643%)" offset="0.625"/><stop stop-opacity="1" stop-color="rgb(36.462402%, 44.752502%, 38.562012%)" offset="0.632813"/><stop stop-opacity="1" stop-color="rgb(36.224365%, 44.496155%, 38.378906%)" offset="0.640625"/><stop stop-opacity="1" stop-color="rgb(35.984802%, 44.238281%, 38.194275%)" offset="0.648438"/><stop stop-opacity="1" stop-color="rgb(35.746765%, 43.981934%, 38.011169%)" offset="0.65625"/><stop stop-opacity="1" stop-color="rgb(35.507202%, 43.72406%, 37.826538%)" offset="0.664062"/><stop stop-opacity="1" stop-color="rgb(35.269165%, 43.466187%, 37.641907%)" offset="0.671875"/><stop stop-opacity="1" stop-color="rgb(35.031128%, 43.209839%, 37.458801%)" offset="0.679688"/><stop stop-opacity="1" stop-color="rgb(34.791565%, 42.951965%, 37.27417%)" offset="0.6875"/><stop stop-opacity="1" stop-color="rgb(34.553528%, 42.695618%, 37.091064%)" offset="0.695312"/><stop stop-opacity="1" stop-color="rgb(34.315491%, 42.437744%, 36.906433%)" offset="0.703125"/><stop stop-opacity="1" stop-color="rgb(34.075928%, 42.179871%, 36.721802%)" offset="0.710938"/><stop stop-opacity="1" stop-color="rgb(33.837891%, 41.923523%, 36.538696%)" offset="0.71875"/><stop stop-opacity="1" stop-color="rgb(33.599854%, 41.665649%, 36.354065%)" offset="0.726563"/><stop stop-opacity="1" stop-color="rgb(33.360291%, 41.407776%, 36.170959%)" offset="0.734375"/><stop stop-opacity="1" stop-color="rgb(33.122253%, 41.151428%, 35.986328%)" offset="0.742188"/><stop stop-opacity="1" stop-color="rgb(32.884216%, 40.893555%, 35.803223%)" offset="0.749999"/><stop stop-opacity="1" stop-color="rgb(32.765198%, 40.765381%, 35.71167%)" offset="0.75"/><stop stop-opacity="1" stop-color="rgb(32.644653%, 40.637207%, 35.618591%)" offset="0.757812"/><stop stop-opacity="1" stop-color="rgb(32.406616%, 40.379333%, 35.43396%)" offset="0.765625"/><stop stop-opacity="1" stop-color="rgb(32.167053%, 40.12146%, 35.250854%)" offset="0.773438"/><stop stop-opacity="1" stop-color="rgb(31.929016%, 39.865112%, 35.066223%)" offset="0.78125"/><stop stop-opacity="1" stop-color="rgb(31.690979%, 39.607239%, 34.883118%)" offset="0.789062"/><stop stop-opacity="1" stop-color="rgb(31.451416%, 39.349365%, 34.698486%)" offset="0.796875"/><stop stop-opacity="1" stop-color="rgb(31.213379%, 39.093018%, 34.513855%)" offset="0.804688"/><stop stop-opacity="1" stop-color="rgb(30.975342%, 38.835144%, 34.33075%)" offset="0.8125"/><stop stop-opacity="1" stop-color="rgb(30.735779%, 38.578796%, 34.146118%)" offset="0.820312"/><stop stop-opacity="1" stop-color="rgb(30.497742%, 38.320923%, 33.963013%)" offset="0.828125"/><stop stop-opacity="1" stop-color="rgb(30.259705%, 38.063049%, 33.778381%)" offset="0.835938"/><stop stop-opacity="1" stop-color="rgb(30.020142%, 37.806702%, 33.59375%)" offset="0.84375"/><stop stop-opacity="1" stop-color="rgb(29.782104%, 37.548828%, 33.410645%)" offset="0.851563"/><stop stop-opacity="1" stop-color="rgb(29.542542%, 37.290955%, 33.226013%)" offset="0.859375"/><stop stop-opacity="1" stop-color="rgb(29.304504%, 37.034607%, 33.042908%)" offset="0.867188"/><stop stop-opacity="1" stop-color="rgb(29.066467%, 36.776733%, 32.858276%)" offset="0.875"/><stop stop-opacity="1" stop-color="rgb(28.826904%, 36.520386%, 32.675171%)" offset="0.882812"/><stop stop-opacity="1" stop-color="rgb(28.588867%, 36.262512%, 32.49054%)" offset="0.890625"/><stop stop-opacity="1" stop-color="rgb(28.35083%, 36.004639%, 32.305908%)" offset="0.898438"/><stop stop-opacity="1" stop-color="rgb(28.111267%, 35.748291%, 32.122803%)" offset="0.90625"/><stop stop-opacity="1" stop-color="rgb(27.87323%, 35.490417%, 31.938171%)" offset="0.914062"/><stop stop-opacity="1" stop-color="rgb(27.635193%, 35.232544%, 31.755066%)" offset="0.921875"/><stop stop-opacity="1" stop-color="rgb(27.39563%, 34.976196%, 31.570435%)" offset="0.929688"/><stop stop-opacity="1" stop-color="rgb(27.157593%, 34.718323%, 31.385803%)" offset="0.9375"/><stop stop-opacity="1" stop-color="rgb(26.919556%, 34.461975%, 31.202698%)" offset="0.945312"/><stop stop-opacity="1" stop-color="rgb(26.679993%, 34.204102%, 31.018066%)" offset="0.953125"/><stop stop-opacity="1" stop-color="rgb(26.441956%, 33.946228%, 30.834961%)" offset="0.960938"/><stop stop-opacity="1" stop-color="rgb(26.202393%, 33.68988%, 30.65033%)" offset="0.96875"/><stop stop-opacity="1" stop-color="rgb(25.964355%, 33.432007%, 30.465698%)" offset="0.976562"/><stop stop-opacity="1" stop-color="rgb(25.726318%, 33.175659%, 30.282593%)" offset="0.984375"/><stop stop-opacity="1" stop-color="rgb(25.486755%, 32.917786%, 30.097961%)" offset="0.992188"/><stop stop-opacity="1" stop-color="rgb(25.248718%, 32.659912%, 29.914856%)" offset="1"/></linearGradient><clipPath id="8528933936"><path d="M 265 10.328125 L 392.664062 10.328125 L 392.664062 60 L 265 60 Z M 265 10.328125 " clip-rule="nonzero"/></clipPath><clipPath id="671244d774"><path d="M 262.164062 44 L 392 44 L 392 139.328125 L 262.164062 139.328125 Z M 262.164062 44 " clip-rule="nonzero"/></clipPath></defs><g clip-path="url(#84af9c00f2)"><g clip-path="url(#fb8b431baf)"><path fill="url(#1d32df79d5)" d="M 0 0 L 0 150 L 449.996094 150 L 449.996094 0 Z M 0 0 " fill-rule="nonzero"/></g></g><g clip-path="url(#8528933936)"><path fill="#1a3636" d="M 268.660156 47.988281 C 267.914062 48.578125 266.828125 48.453125 266.238281 47.707031 C 265.648438 46.957031 265.777344 45.875 266.523438 45.285156 L 301.136719 17.886719 C 300.988281 17.367188 300.910156 16.820312 300.910156 16.25 C 300.910156 14.617188 301.574219 13.132812 302.644531 12.0625 C 303.71875 10.988281 305.199219 10.324219 306.835938 10.324219 C 308.472656 10.324219 309.953125 10.988281 311.027344 12.0625 C 312.101562 13.132812 312.765625 14.617188 312.765625 16.25 C 312.765625 16.941406 312.644531 17.605469 312.429688 18.21875 L 336.359375 34.488281 L 336.394531 34.453125 C 337.46875 33.378906 338.949219 32.714844 340.585938 32.714844 C 342.222656 32.714844 343.707031 33.378906 344.777344 34.453125 C 345.851562 35.523438 346.515625 37.007812 346.515625 38.644531 C 346.515625 39.34375 346.390625 40.019531 346.167969 40.644531 L 356.652344 48.4375 C 357.636719 47.710938 358.855469 47.277344 360.171875 47.277344 C 360.96875 47.277344 361.730469 47.4375 362.421875 47.722656 L 374.828125 32.558594 C 374.199219 31.617188 373.828125 30.484375 373.828125 29.265625 C 373.828125 27.628906 374.492188 26.144531 375.566406 25.074219 C 376.640625 24 378.121094 23.335938 379.757812 23.335938 C 381.394531 23.335938 382.875 24 383.949219 25.074219 C 385.019531 26.144531 385.683594 27.628906 385.683594 29.265625 C 385.683594 29.460938 385.675781 29.652344 385.65625 29.839844 L 391.296875 32.179688 C 392.179688 32.539062 392.597656 33.550781 392.238281 34.429688 C 391.875 35.3125 390.867188 35.734375 389.984375 35.371094 L 384.335938 33.03125 C 384.214844 33.179688 384.085938 33.320312 383.949219 33.457031 C 382.875 34.527344 381.394531 35.191406 379.757812 35.191406 C 378.960938 35.191406 378.199219 35.035156 377.507812 34.75 L 365.101562 49.914062 C 365.730469 50.855469 366.097656 51.988281 366.097656 53.207031 C 366.097656 54.84375 365.4375 56.324219 364.363281 57.398438 C 363.289062 58.46875 361.808594 59.132812 360.171875 59.132812 C 358.535156 59.132812 357.054688 58.46875 355.980469 57.398438 C 354.910156 56.324219 354.246094 54.84375 354.246094 53.207031 C 354.246094 52.503906 354.367188 51.832031 354.589844 51.207031 L 344.105469 43.414062 C 343.121094 44.140625 341.90625 44.570312 340.585938 44.570312 C 338.949219 44.570312 337.46875 43.90625 336.394531 42.835938 C 335.324219 41.761719 334.660156 40.28125 334.660156 38.644531 C 334.660156 38.277344 334.691406 37.917969 334.757812 37.570312 L 310.386719 21 C 309.394531 21.742188 308.167969 22.179688 306.835938 22.179688 C 305.386719 22.179688 304.054688 21.65625 303.023438 20.789062 Z M 268.660156 47.988281 " fill-opacity="1" fill-rule="evenodd"/></g><g clip-path="url(#671244d774)"><path fill="#1a3636" d="M 370.105469 53.8125 L 389.410156 53.8125 C 390.367188 53.8125 391.140625 54.589844 391.140625 55.542969 L 391.140625 128.203125 C 391.140625 129.160156 390.367188 129.933594 389.410156 129.933594 L 370.105469 129.933594 C 370.058594 129.933594 370.011719 129.933594 369.964844 129.929688 C 369.917969 129.933594 369.871094 129.933594 369.824219 129.933594 L 350.519531 129.933594 C 350.472656 129.933594 350.425781 129.933594 350.378906 129.929688 C 350.332031 129.933594 350.285156 129.933594 350.238281 129.933594 L 342.386719 129.933594 L 342.386719 130.488281 C 342.386719 133.359375 339.613281 135.789062 335.125 137.390625 C 331.175781 138.804688 325.75 139.675781 319.789062 139.675781 C 313.828125 139.675781 308.402344 138.804688 304.449219 137.390625 C 300.613281 136.019531 298.03125 134.046875 297.359375 131.707031 C 297.25 131.480469 297.1875 131.222656 297.1875 130.953125 L 297.1875 92.859375 C 297.21875 90.296875 299.441406 88.101562 303.113281 86.535156 C 305.738281 85.414062 309.199219 84.558594 313.128906 84.101562 C 311.21875 81.238281 309.125 78.355469 306.867188 75.484375 C 306.289062 75.6875 305.675781 75.769531 305.070312 75.730469 C 305.011719 75.726562 304.953125 75.722656 304.890625 75.714844 L 275.703125 103.375 C 275.035156 104.011719 274.285156 104.484375 273.460938 104.789062 C 272.640625 105.097656 271.765625 105.230469 270.84375 105.1875 C 269.921875 105.148438 269.0625 104.933594 268.269531 104.554688 C 267.472656 104.171875 266.765625 103.636719 266.160156 102.949219 L 263.933594 100.421875 C 263.328125 99.734375 262.886719 98.964844 262.605469 98.125 C 262.328125 97.285156 262.222656 96.410156 262.300781 95.5 C 262.375 94.582031 262.617188 93.730469 263.027344 92.949219 C 263.441406 92.164062 264.003906 91.476562 264.710938 90.898438 L 295.605469 65.625 C 295.589844 65.410156 295.589844 65.195312 295.601562 64.980469 C 295.640625 64.375 295.796875 63.777344 296.070312 63.226562 C 293.234375 60.34375 290.363281 57.671875 287.503906 55.230469 C 284.238281 52.441406 280.980469 49.949219 277.789062 47.789062 C 276.996094 47.253906 276.785156 46.179688 277.320312 45.390625 C 277.621094 44.945312 278.089844 44.683594 278.585938 44.636719 C 282.980469 43.871094 287.90625 44.453125 292.882812 46.246094 C 297.464844 47.898438 302.105469 50.582031 306.417969 54.195312 C 306.957031 54.027344 307.515625 53.960938 308.070312 53.996094 C 308.613281 54.03125 309.148438 54.160156 309.648438 54.382812 L 314 50.75 C 314.722656 50.148438 315.789062 50.234375 316.40625 50.933594 L 316.410156 50.933594 L 321.632812 56.863281 C 322.261719 57.582031 322.195312 58.675781 321.476562 59.304688 L 321.445312 59.332031 L 317.355469 63.132812 C 317.511719 63.65625 317.574219 64.203125 317.539062 64.746094 C 317.503906 65.300781 317.371094 65.851562 317.136719 66.363281 C 320.171875 71.097656 322.25 76.039062 323.308594 80.792969 C 323.539062 81.828125 323.722656 82.851562 323.855469 83.867188 C 325.734375 83.996094 327.527344 84.210938 329.203125 84.503906 L 329.203125 62.195312 C 329.203125 61.238281 329.980469 60.460938 330.9375 60.460938 L 350.238281 60.460938 C 351.195312 60.460938 351.96875 61.238281 351.96875 62.195312 L 351.96875 72.21875 L 368.375 72.21875 L 368.375 55.542969 C 368.375 54.589844 369.148438 53.8125 370.105469 53.8125 Z M 370.105469 53.8125 " fill-opacity="1" fill-rule="evenodd"/></g><path fill="#677d6a" d="M 313.820312 63.730469 L 308.609375 57.816406 C 308.410156 57.589844 308.136719 57.464844 307.855469 57.445312 C 307.570312 57.429688 307.28125 57.515625 307.054688 57.71875 L 299.421875 64.441406 C 299.195312 64.640625 299.070312 64.914062 299.050781 65.199219 C 299.042969 65.347656 299.0625 65.496094 299.113281 65.640625 C 299.121094 65.660156 299.128906 65.683594 299.136719 65.707031 C 299.183594 65.808594 299.242188 65.90625 299.324219 65.996094 L 304.53125 71.910156 C 304.730469 72.136719 305.007812 72.261719 305.289062 72.28125 C 305.570312 72.296875 305.859375 72.210938 306.089844 72.007812 L 313.722656 65.285156 C 313.949219 65.085938 314.074219 64.808594 314.089844 64.527344 C 314.109375 64.246094 314.019531 63.957031 313.820312 63.730469 Z M 313.820312 63.730469 " fill-opacity="1" fill-rule="evenodd"/><path fill="#40534c" d="M 298.429688 60.703125 C 295.554688 57.785156 292.648438 55.078125 289.75 52.605469 C 287.734375 50.882812 285.730469 49.277344 283.746094 47.789062 C 286.300781 47.933594 288.992188 48.507812 291.71875 49.492188 C 295.671875 50.917969 299.691406 53.199219 303.484375 56.25 Z M 298.429688 60.703125 " fill-opacity="1" fill-rule="evenodd"/><path fill="#677d6a" d="M 298.429688 60.703125 C 296.050781 58.285156 293.648438 56.015625 291.246094 53.902344 C 291.566406 52.492188 291.945312 51.101562 292.378906 49.738281 C 296.117188 51.175781 299.902344 53.367188 303.484375 56.25 Z M 298.429688 60.703125 " fill-opacity="1" fill-rule="evenodd"/><path fill="#40534c" d="M 301.722656 73.957031 L 273.324219 100.871094 C 272.992188 101.1875 272.636719 101.417969 272.257812 101.558594 C 271.878906 101.699219 271.453125 101.761719 270.992188 101.738281 C 270.535156 101.71875 270.125 101.621094 269.757812 101.445312 C 269.398438 101.273438 269.066406 101.011719 268.757812 100.664062 L 266.53125 98.132812 C 266.222656 97.785156 266.003906 97.417969 265.878906 97.042969 C 265.753906 96.664062 265.710938 96.238281 265.75 95.769531 C 265.785156 95.308594 265.898438 94.902344 266.085938 94.546875 C 266.269531 94.195312 266.542969 93.871094 266.902344 93.578125 L 297.1875 68.804688 Z M 301.722656 73.957031 " fill-opacity="1" fill-rule="evenodd"/><path fill="#677d6a" d="M 301.722656 73.957031 L 292.6875 82.523438 C 291.777344 79.832031 291.082031 77.042969 290.617188 74.179688 L 297.1875 68.804688 Z M 301.722656 73.957031 " fill-opacity="1" fill-rule="evenodd"/><path fill="#677d6a" d="M 314.726562 69.011719 C 317.273438 73.160156 319.027344 77.433594 319.941406 81.539062 C 320.574219 84.367188 320.804688 87.105469 320.621094 89.660156 C 319.394531 87.496094 318.058594 85.304688 316.613281 83.097656 C 314.527344 79.921875 312.210938 76.695312 309.671875 73.464844 Z M 314.726562 69.011719 " fill-opacity="1" fill-rule="evenodd"/><path fill="#677d6a" d="M 312.25 56.714844 L 314.925781 54.484375 L 317.925781 57.886719 L 315.371094 60.257812 Z M 312.25 56.714844 " fill-opacity="1" fill-rule="evenodd"/><path fill="#40534c" d="M 300.652344 117.960938 C 300.652344 119.207031 302.546875 120.507812 305.613281 121.605469 C 309.214844 122.890625 314.222656 123.6875 319.789062 123.6875 C 325.351562 123.6875 330.363281 122.890625 333.960938 121.605469 C 337.027344 120.507812 338.925781 119.207031 338.925781 117.960938 L 338.925781 110.523438 C 337.863281 111.207031 336.585938 111.816406 335.125 112.335938 C 331.175781 113.75 325.75 114.625 319.789062 114.625 C 313.828125 114.625 308.402344 113.75 304.449219 112.335938 C 302.992188 111.816406 301.710938 111.207031 300.652344 110.523438 Z M 300.652344 117.960938 " fill-opacity="1" fill-rule="evenodd"/><path fill="#677d6a" d="M 338.902344 118.203125 C 338.917969 118.121094 338.925781 118.039062 338.925781 117.960938 L 338.925781 110.523438 C 337.863281 111.207031 336.585938 111.816406 335.125 112.335938 C 331.886719 113.496094 327.652344 114.292969 322.949219 114.539062 C 327.933594 116.546875 333.296875 117.8125 338.902344 118.203125 Z M 338.902344 118.203125 " fill-opacity="1" fill-rule="evenodd"/><path fill="#40534c" d="M 300.652344 130.488281 L 300.652344 123.050781 C 301.710938 123.734375 302.992188 124.34375 304.449219 124.863281 C 308.402344 126.277344 313.828125 127.152344 319.789062 127.152344 C 325.75 127.152344 331.175781 126.277344 335.125 124.863281 C 336.585938 124.34375 337.863281 123.734375 338.925781 123.050781 L 338.925781 130.488281 C 338.925781 131.734375 337.027344 133.035156 333.960938 134.132812 C 330.359375 135.417969 325.351562 136.214844 319.789062 136.214844 C 314.222656 136.214844 309.214844 135.417969 305.613281 134.132812 C 302.546875 133.035156 300.652344 131.734375 300.652344 130.488281 Z M 300.652344 130.488281 " fill-opacity="1" fill-rule="evenodd"/><path fill="#40534c" d="M 331.402344 100.890625 C 331.347656 100.902344 331.292969 100.917969 331.238281 100.925781 C 331.164062 100.941406 331.089844 100.957031 331.019531 100.976562 C 330.941406 100.992188 330.867188 101.007812 330.792969 101.023438 C 330.71875 101.039062 330.640625 101.054688 330.566406 101.070312 C 330.492188 101.085938 330.414062 101.101562 330.335938 101.117188 C 330.261719 101.132812 330.183594 101.148438 330.109375 101.164062 C 330.03125 101.175781 329.953125 101.191406 329.875 101.207031 C 329.800781 101.222656 329.722656 101.238281 329.644531 101.25 L 329.410156 101.292969 C 329.328125 101.308594 329.25 101.320312 329.171875 101.335938 L 328.933594 101.375 C 328.855469 101.390625 328.773438 101.402344 328.695312 101.414062 C 328.613281 101.429688 328.535156 101.441406 328.453125 101.453125 L 328.210938 101.492188 L 327.964844 101.527344 C 327.886719 101.539062 327.804688 101.550781 327.722656 101.5625 L 327.472656 101.597656 C 327.390625 101.609375 327.308594 101.621094 327.226562 101.632812 C 327.144531 101.640625 327.058594 101.652344 326.976562 101.664062 C 326.894531 101.675781 326.808594 101.683594 326.726562 101.695312 C 326.640625 101.707031 326.558594 101.714844 326.472656 101.726562 C 326.386719 101.734375 326.304688 101.746094 326.21875 101.753906 L 325.964844 101.78125 L 325.449219 101.835938 C 325.363281 101.84375 325.277344 101.851562 325.191406 101.859375 L 324.929688 101.882812 L 324.671875 101.90625 C 324.582031 101.914062 324.496094 101.917969 324.40625 101.925781 C 324.320312 101.933594 324.230469 101.941406 324.144531 101.945312 C 324.058594 101.953125 323.96875 101.960938 323.878906 101.964844 L 323.613281 101.984375 C 323.527344 101.988281 323.4375 101.996094 323.347656 102 L 323.078125 102.015625 C 322.992188 102.019531 322.902344 102.023438 322.8125 102.03125 C 322.722656 102.035156 322.632812 102.039062 322.542969 102.042969 C 322.449219 102.046875 322.359375 102.050781 322.269531 102.054688 C 322.179688 102.058594 322.089844 102.0625 322 102.066406 L 321.996094 102.066406 C 321.90625 102.066406 321.816406 102.070312 321.726562 102.074219 C 321.632812 102.078125 321.542969 102.078125 321.453125 102.082031 C 321.359375 102.085938 321.269531 102.085938 321.175781 102.089844 C 321.085938 102.089844 320.992188 102.09375 320.902344 102.09375 C 320.808594 102.097656 320.71875 102.097656 320.625 102.097656 C 320.53125 102.101562 320.441406 102.101562 320.347656 102.101562 C 320.253906 102.101562 320.160156 102.105469 320.070312 102.105469 C 319.976562 102.105469 319.882812 102.105469 319.789062 102.105469 C 313.828125 102.105469 308.402344 101.230469 304.453125 99.820312 C 302.992188 99.296875 301.714844 98.6875 300.652344 98.003906 L 300.652344 105.433594 C 300.652344 106.679688 302.550781 107.980469 305.617188 109.078125 C 309.214844 110.363281 314.226562 111.160156 319.789062 111.160156 C 325.355469 111.160156 330.363281 110.363281 333.964844 109.078125 C 337.03125 107.980469 338.925781 106.679688 338.925781 105.433594 L 338.925781 98.003906 C 338.882812 98.03125 338.84375 98.058594 338.800781 98.085938 C 338.746094 98.117188 338.695312 98.148438 338.644531 98.183594 C 338.589844 98.214844 338.535156 98.246094 338.484375 98.277344 C 338.429688 98.308594 338.375 98.339844 338.320312 98.371094 C 338.265625 98.40625 338.210938 98.4375 338.15625 98.46875 C 338.097656 98.5 338.042969 98.527344 337.984375 98.558594 C 337.929688 98.589844 337.871094 98.621094 337.816406 98.652344 C 337.757812 98.683594 337.699219 98.710938 337.640625 98.742188 C 337.582031 98.773438 337.523438 98.800781 337.464844 98.832031 C 337.402344 98.863281 337.34375 98.890625 337.285156 98.921875 C 337.222656 98.949219 337.164062 98.980469 337.101562 99.007812 C 337.039062 99.035156 336.976562 99.066406 336.914062 99.09375 C 336.855469 99.121094 336.789062 99.152344 336.726562 99.179688 C 336.664062 99.207031 336.601562 99.234375 336.539062 99.261719 C 336.472656 99.289062 336.410156 99.320312 336.34375 99.347656 C 336.277344 99.375 336.214844 99.402344 336.148438 99.425781 C 336.082031 99.453125 336.015625 99.480469 335.949219 99.507812 C 335.882812 99.535156 335.816406 99.5625 335.746094 99.585938 C 335.679688 99.613281 335.613281 99.640625 335.542969 99.664062 C 335.476562 99.691406 335.40625 99.71875 335.335938 99.742188 C 335.265625 99.769531 335.199219 99.792969 335.128906 99.820312 C 335.066406 99.839844 335.003906 99.863281 334.941406 99.882812 C 334.878906 99.90625 334.816406 99.929688 334.753906 99.949219 C 334.691406 99.972656 334.625 99.992188 334.5625 100.011719 C 334.5 100.035156 334.433594 100.054688 334.371094 100.078125 C 334.304688 100.097656 334.242188 100.117188 334.175781 100.140625 C 334.109375 100.160156 334.042969 100.179688 333.980469 100.203125 C 333.914062 100.222656 333.847656 100.242188 333.78125 100.261719 C 333.714844 100.28125 333.644531 100.300781 333.578125 100.324219 C 333.511719 100.34375 333.445312 100.363281 333.375 100.382812 C 333.308594 100.402344 333.242188 100.421875 333.171875 100.441406 C 333.101562 100.460938 333.035156 100.476562 332.964844 100.496094 L 332.757812 100.554688 C 332.6875 100.574219 332.617188 100.589844 332.546875 100.609375 C 332.476562 100.628906 332.40625 100.648438 332.332031 100.664062 C 332.261719 100.683594 332.191406 100.699219 332.121094 100.71875 L 331.902344 100.773438 C 331.832031 100.789062 331.757812 100.808594 331.6875 100.824219 C 331.613281 100.839844 331.539062 100.859375 331.464844 100.875 L 331.40625 100.890625 Z M 331.402344 100.890625 " fill-opacity="1" fill-rule="evenodd"/><path fill="#677d6a" d="M 331.402344 100.890625 C 331.347656 100.902344 331.292969 100.917969 331.238281 100.925781 C 331.164062 100.941406 331.089844 100.957031 331.019531 100.976562 C 330.941406 100.992188 330.867188 101.007812 330.792969 101.023438 C 330.71875 101.039062 330.640625 101.054688 330.566406 101.070312 C 330.492188 101.085938 330.414062 101.101562 330.335938 101.117188 C 330.261719 101.132812 330.183594 101.148438 330.109375 101.164062 C 330.03125 101.175781 329.953125 101.191406 329.875 101.207031 C 329.800781 101.222656 329.722656 101.238281 329.644531 101.25 L 329.410156 101.292969 C 329.328125 101.308594 329.25 101.320312 329.171875 101.335938 L 328.933594 101.375 C 328.855469 101.390625 328.773438 101.402344 328.695312 101.414062 C 328.613281 101.429688 328.535156 101.441406 328.453125 101.453125 L 328.210938 101.492188 L 327.964844 101.527344 C 327.886719 101.539062 327.804688 101.550781 327.722656 101.5625 L 327.472656 101.597656 C 327.390625 101.609375 327.308594 101.621094 327.226562 101.632812 C 327.144531 101.640625 327.058594 101.652344 326.976562 101.664062 C 326.894531 101.675781 326.808594 101.683594 326.726562 101.695312 C 326.640625 101.707031 326.558594 101.714844 326.472656 101.726562 C 326.386719 101.734375 326.304688 101.746094 326.21875 101.753906 L 325.964844 101.78125 L 325.449219 101.835938 C 325.363281 101.84375 325.277344 101.851562 325.191406 101.859375 L 324.929688 101.882812 L 324.671875 101.90625 C 324.582031 101.914062 324.496094 101.917969 324.40625 101.925781 C 324.320312 101.933594 324.230469 101.941406 324.144531 101.945312 C 324.058594 101.953125 323.96875 101.960938 323.878906 101.964844 L 323.613281 101.984375 C 323.527344 101.988281 323.4375 101.996094 323.347656 102 L 323.078125 102.015625 C 322.992188 102.019531 322.902344 102.023438 322.8125 102.03125 C 322.722656 102.035156 322.632812 102.039062 322.542969 102.042969 C 322.449219 102.046875 322.359375 102.050781 322.269531 102.054688 C 322.179688 102.058594 322.089844 102.0625 322 102.066406 L 321.996094 102.066406 C 321.90625 102.066406 321.816406 102.070312 321.726562 102.074219 C 321.632812 102.078125 321.542969 102.078125 321.453125 102.082031 C 321.359375 102.085938 321.269531 102.085938 321.175781 102.089844 C 321.085938 102.089844 320.992188 102.09375 320.902344 102.09375 C 320.808594 102.097656 320.71875 102.097656 320.625 102.097656 C 320.53125 102.101562 320.441406 102.101562 320.347656 102.101562 C 320.253906 102.101562 320.160156 102.105469 320.070312 102.105469 C 319.976562 102.105469 319.882812 102.105469 319.789062 102.105469 C 313.828125 102.105469 308.402344 101.230469 304.453125 99.820312 C 303.308594 99.410156 302.273438 98.945312 301.371094 98.4375 C 305.371094 103.460938 310.269531 107.734375 315.824219 111.023438 C 317.105469 111.113281 318.429688 111.160156 319.789062 111.160156 C 325.355469 111.160156 330.363281 110.363281 333.964844 109.078125 C 337.03125 107.980469 338.925781 106.679688 338.925781 105.433594 L 338.925781 98.003906 C 338.882812 98.03125 338.84375 98.058594 338.800781 98.085938 C 338.746094 98.117188 338.695312 98.148438 338.644531 98.179688 C 338.589844 98.214844 338.535156 98.246094 338.484375 98.277344 C 338.429688 98.308594 338.375 98.339844 338.320312 98.371094 C 338.265625 98.402344 338.210938 98.4375 338.15625 98.464844 C 338.097656 98.496094 338.042969 98.527344 337.984375 98.558594 C 337.929688 98.589844 337.871094 98.621094 337.816406 98.652344 C 337.757812 98.683594 337.699219 98.710938 337.640625 98.742188 C 337.582031 98.773438 337.523438 98.800781 337.464844 98.832031 C 337.402344 98.863281 337.34375 98.890625 337.285156 98.921875 C 337.222656 98.949219 337.164062 98.976562 337.101562 99.007812 C 337.039062 99.035156 336.976562 99.066406 336.914062 99.09375 C 336.855469 99.121094 336.789062 99.152344 336.726562 99.179688 C 336.664062 99.207031 336.601562 99.234375 336.539062 99.261719 C 336.472656 99.289062 336.410156 99.320312 336.34375 99.347656 C 336.277344 99.375 336.214844 99.402344 336.148438 99.425781 C 336.082031 99.453125 336.015625 99.480469 335.949219 99.507812 C 335.882812 99.535156 335.816406 99.5625 335.746094 99.585938 C 335.679688 99.613281 335.613281 99.640625 335.542969 99.664062 C 335.476562 99.691406 335.40625 99.71875 335.335938 99.742188 C 335.265625 99.769531 335.199219 99.792969 335.128906 99.816406 C 335.066406 99.839844 335.003906 99.863281 334.941406 99.882812 C 334.878906 99.90625 334.816406 99.925781 334.753906 99.949219 C 334.691406 99.96875 334.625 99.992188 334.5625 100.011719 C 334.5 100.035156 334.433594 100.054688 334.371094 100.078125 C 334.304688 100.097656 334.242188 100.117188 334.175781 100.140625 C 334.109375 100.160156 334.042969 100.179688 333.980469 100.199219 C 333.914062 100.222656 333.847656 100.242188 333.78125 100.261719 C 333.714844 100.28125 333.644531 100.300781 333.578125 100.320312 C 333.511719 100.34375 333.445312 100.363281 333.375 100.382812 C 333.308594 100.402344 333.242188 100.421875 333.171875 100.441406 C 333.101562 100.457031 333.035156 100.476562 332.964844 100.496094 L 332.757812 100.554688 C 332.6875 100.574219 332.617188 100.589844 332.546875 100.609375 C 332.476562 100.628906 332.40625 100.644531 332.332031 100.664062 C 332.261719 100.683594 332.191406 100.699219 332.121094 100.71875 L 331.902344 100.769531 C 331.832031 100.789062 331.757812 100.804688 331.6875 100.824219 C 331.613281 100.839844 331.539062 100.859375 331.464844 100.875 L 331.40625 100.886719 Z M 331.402344 100.890625 " fill-opacity="1" fill-rule="evenodd"/><path fill="#40534c" d="M 342.386719 126.472656 L 342.386719 92.902344 C 342.386719 92.902344 342.386719 92.894531 342.386719 92.894531 C 342.375 90.226562 339.984375 87.953125 336.054688 86.367188 C 335.035156 85.953125 333.902344 85.582031 332.667969 85.253906 L 332.667969 63.925781 L 348.507812 63.925781 L 348.507812 126.472656 Z M 342.386719 126.472656 " fill-opacity="1" fill-rule="evenodd"/><path fill="#677d6a" d="M 342.386719 118.332031 L 342.386719 92.902344 C 342.386719 92.902344 342.386719 92.894531 342.386719 92.894531 C 342.375 90.226562 339.984375 87.953125 336.054688 86.367188 C 335.035156 85.953125 333.902344 85.582031 332.667969 85.253906 L 332.667969 63.925781 L 348.507812 63.925781 L 348.507812 118 C 346.566406 118.21875 344.597656 118.332031 342.601562 118.332031 C 342.53125 118.332031 342.457031 118.332031 342.386719 118.328125 Z M 342.386719 118.332031 " fill-opacity="1" fill-rule="evenodd"/><path fill="#677d6a" d="M 330.695312 88.320312 C 330.597656 88.308594 330.503906 88.285156 330.410156 88.257812 C 328.515625 87.835938 326.394531 87.523438 324.128906 87.347656 C 324.1875 90.171875 323.839844 92.859375 323.066406 95.308594 C 322.785156 96.21875 321.816406 96.726562 320.902344 96.445312 C 320.417969 96.292969 320.042969 95.945312 319.847656 95.515625 C 318.507812 92.871094 316.964844 90.144531 315.234375 87.367188 C 310.921875 87.71875 307.167969 88.5625 304.464844 89.714844 C 302.09375 90.726562 300.660156 91.847656 300.652344 92.902344 C 300.660156 94.148438 302.554688 95.445312 305.613281 96.539062 C 309.214844 97.828125 314.222656 98.625 319.789062 98.625 C 323.734375 98.625 327.398438 98.222656 330.480469 97.53125 C 330.527344 97.519531 330.578125 97.507812 330.628906 97.496094 C 331.835938 97.222656 332.953125 96.898438 333.960938 96.539062 C 337.019531 95.445312 338.914062 94.148438 338.925781 92.902344 C 338.914062 91.789062 337.347656 90.613281 334.769531 89.570312 C 333.582031 89.09375 332.210938 88.671875 330.695312 88.320312 Z M 330.695312 88.320312 " fill-opacity="1" fill-rule="evenodd"/><path fill="#40534c" d="M 352.253906 75.683594 L 368.089844 75.683594 L 368.089844 126.472656 L 352.253906 126.472656 Z M 352.253906 75.683594 " fill-opacity="1" fill-rule="nonzero"/><path fill="#677d6a" d="M 368.089844 75.683594 L 352.253906 75.683594 L 352.253906 117.449219 C 357.898438 116.402344 363.230469 114.453125 368.089844 111.761719 Z M 368.089844 75.683594 " fill-opacity="1" fill-rule="evenodd"/><path fill="#40534c" d="M 371.839844 57.277344 L 387.675781 57.277344 L 387.675781 126.472656 L 371.839844 126.472656 Z M 371.839844 57.277344 " fill-opacity="1" fill-rule="nonzero"/><path fill="#677d6a" d="M 387.675781 57.277344 L 371.839844 57.277344 L 371.839844 109.476562 C 378.25 105.191406 383.667969 99.535156 387.675781 92.925781 Z M 387.675781 57.277344 " fill-opacity="1" fill-rule="evenodd"/><path fill="#40534c" d="M 342.328125 36.902344 C 341.882812 36.453125 341.265625 36.179688 340.585938 36.179688 C 339.90625 36.179688 339.289062 36.453125 338.84375 36.902344 C 338.398438 37.347656 338.121094 37.964844 338.121094 38.644531 C 338.121094 39.324219 338.398438 39.941406 338.84375 40.386719 C 339.289062 40.832031 339.90625 41.109375 340.585938 41.109375 C 341.269531 41.109375 341.882812 40.832031 342.328125 40.386719 C 342.777344 39.941406 343.050781 39.324219 343.050781 38.644531 C 343.050781 37.960938 342.777344 37.347656 342.328125 36.902344 Z M 342.328125 36.902344 " fill-opacity="1" fill-rule="evenodd"/><path fill="#40534c" d="M 361.914062 51.464844 C 361.46875 51.019531 360.851562 50.742188 360.171875 50.742188 C 359.492188 50.742188 358.875 51.019531 358.429688 51.464844 C 357.984375 51.910156 357.707031 52.527344 357.707031 53.207031 C 357.707031 53.886719 357.984375 54.503906 358.429688 54.949219 C 358.875 55.394531 359.492188 55.671875 360.171875 55.671875 C 360.851562 55.671875 361.46875 55.394531 361.914062 54.949219 C 362.359375 54.503906 362.636719 53.886719 362.636719 53.207031 C 362.636719 52.523438 362.359375 51.910156 361.914062 51.464844 Z M 361.914062 51.464844 " fill-opacity="1" fill-rule="evenodd"/><path fill="#40534c" d="M 381.5 27.523438 C 381.054688 27.074219 380.4375 26.800781 379.757812 26.800781 C 379.078125 26.800781 378.460938 27.074219 378.015625 27.523438 C 377.570312 27.96875 377.292969 28.582031 377.292969 29.265625 C 377.292969 29.945312 377.570312 30.5625 378.015625 31.007812 C 378.460938 31.453125 379.078125 31.730469 379.757812 31.730469 C 380.4375 31.730469 381.054688 31.453125 381.5 31.007812 C 381.945312 30.5625 382.222656 29.945312 382.222656 29.265625 C 382.222656 28.582031 381.945312 27.96875 381.5 27.523438 Z M 381.5 27.523438 " fill-opacity="1" fill-rule="evenodd"/><path fill="#40534c" d="M 308.578125 14.507812 C 308.132812 14.0625 307.515625 13.789062 306.835938 13.789062 C 306.15625 13.789062 305.539062 14.0625 305.09375 14.507812 C 304.648438 14.953125 304.371094 15.570312 304.371094 16.253906 C 304.371094 16.933594 304.648438 17.550781 305.09375 17.996094 C 305.539062 18.441406 306.15625 18.714844 306.835938 18.714844 C 307.515625 18.714844 308.132812 18.441406 308.578125 17.996094 C 309.023438 17.550781 309.300781 16.933594 309.300781 16.253906 C 309.300781 15.570312 309.023438 14.953125 308.578125 14.507812 Z M 308.578125 14.507812 " fill-opacity="1" fill-rule="evenodd"/><g fill="#1a3636" fill-opacity="1"><g transform="translate(24.59335, 45.664335)"><g><path d="M 12.8125 -4.03125 L 5.734375 -4.03125 L 4.390625 0 L 0.09375 0 L 7.390625 -19.578125 L 11.125 -19.578125 L 18.453125 0 L 14.15625 0 Z M 6.8125 -7.296875 L 11.71875 -7.296875 L 9.25 -14.640625 Z M 6.8125 -7.296875 "/></g></g></g><g fill="#1a3636" fill-opacity="1"><g transform="translate(43.12305, 45.664335)"><g><path d="M 10.203125 -1.484375 C 9.242188 -0.316406 7.921875 0.265625 6.234375 0.265625 C 4.671875 0.265625 3.476562 -0.179688 2.65625 -1.078125 C 1.832031 -1.972656 1.414062 -3.285156 1.40625 -5.015625 L 1.40625 -14.546875 L 5.28125 -14.546875 L 5.28125 -5.15625 C 5.28125 -3.632812 5.972656 -2.875 7.359375 -2.875 C 8.671875 -2.875 9.578125 -3.332031 10.078125 -4.25 L 10.078125 -14.546875 L 13.96875 -14.546875 L 13.96875 0 L 10.3125 0 Z M 10.203125 -1.484375 "/></g></g></g><g fill="#1a3636" fill-opacity="1"><g transform="translate(58.533091, 45.664335)"><g><path d="M 6.140625 -18.125 L 6.140625 -14.546875 L 8.640625 -14.546875 L 8.640625 -11.703125 L 6.140625 -11.703125 L 6.140625 -4.4375 C 6.140625 -3.894531 6.242188 -3.507812 6.453125 -3.28125 C 6.660156 -3.050781 7.054688 -2.9375 7.640625 -2.9375 C 8.066406 -2.9375 8.445312 -2.96875 8.78125 -3.03125 L 8.78125 -0.078125 C 8.019531 0.148438 7.234375 0.265625 6.421875 0.265625 C 3.703125 0.265625 2.316406 -1.109375 2.265625 -3.859375 L 2.265625 -11.703125 L 0.140625 -11.703125 L 0.140625 -14.546875 L 2.265625 -14.546875 L 2.265625 -18.125 Z M 6.140625 -18.125 "/></g></g></g><g fill="#1a3636" fill-opacity="1"><g transform="translate(67.838281, 45.664335)"><g><path d="M 0.890625 -7.40625 C 0.890625 -8.851562 1.164062 -10.140625 1.71875 -11.265625 C 2.28125 -12.398438 3.082031 -13.273438 4.125 -13.890625 C 5.164062 -14.515625 6.378906 -14.828125 7.765625 -14.828125 C 9.722656 -14.828125 11.320312 -14.222656 12.5625 -13.015625 C 13.8125 -11.816406 14.503906 -10.1875 14.640625 -8.125 L 14.671875 -7.125 C 14.671875 -4.894531 14.046875 -3.101562 12.796875 -1.75 C 11.554688 -0.40625 9.882812 0.265625 7.78125 0.265625 C 5.6875 0.265625 4.015625 -0.40625 2.765625 -1.75 C 1.515625 -3.09375 0.890625 -4.921875 0.890625 -7.234375 Z M 4.78125 -7.125 C 4.78125 -5.75 5.035156 -4.691406 5.546875 -3.953125 C 6.066406 -3.222656 6.8125 -2.859375 7.78125 -2.859375 C 8.726562 -2.859375 9.460938 -3.21875 9.984375 -3.9375 C 10.515625 -4.664062 10.78125 -5.820312 10.78125 -7.40625 C 10.78125 -8.757812 10.515625 -9.804688 9.984375 -10.546875 C 9.460938 -11.296875 8.722656 -11.671875 7.765625 -11.671875 C 6.804688 -11.671875 6.066406 -11.300781 5.546875 -10.5625 C 5.035156 -9.820312 4.78125 -8.675781 4.78125 -7.125 Z M 4.78125 -7.125 "/></g></g></g><g fill="#1a3636" fill-opacity="1"><g transform="translate(83.409683, 45.664335)"><g><path d="M 5.140625 -14.546875 L 5.265625 -12.921875 C 6.296875 -14.191406 7.6875 -14.828125 9.4375 -14.828125 C 11.3125 -14.828125 12.597656 -14.085938 13.296875 -12.609375 C 14.328125 -14.085938 15.785156 -14.828125 17.671875 -14.828125 C 19.253906 -14.828125 20.429688 -14.363281 21.203125 -13.4375 C 21.972656 -12.519531 22.359375 -11.140625 22.359375 -9.296875 L 22.359375 0 L 18.453125 0 L 18.453125 -9.28125 C 18.453125 -10.101562 18.289062 -10.703125 17.96875 -11.078125 C 17.644531 -11.460938 17.078125 -11.65625 16.265625 -11.65625 C 15.097656 -11.65625 14.289062 -11.101562 13.84375 -10 L 13.859375 0 L 9.96875 0 L 9.96875 -9.265625 C 9.96875 -10.109375 9.800781 -10.71875 9.46875 -11.09375 C 9.132812 -11.46875 8.570312 -11.65625 7.78125 -11.65625 C 6.675781 -11.65625 5.875 -11.203125 5.375 -10.296875 L 5.375 0 L 1.5 0 L 1.5 -14.546875 Z M 5.140625 -14.546875 "/></g></g></g><g fill="#1a3636" fill-opacity="1"><g transform="translate(107.250872, 45.664335)"><g><path d="M 9.921875 0 C 9.742188 -0.351562 9.613281 -0.789062 9.53125 -1.3125 C 8.59375 -0.257812 7.367188 0.265625 5.859375 0.265625 C 4.429688 0.265625 3.25 -0.144531 2.3125 -0.96875 C 1.382812 -1.789062 0.921875 -2.832031 0.921875 -4.09375 C 0.921875 -5.632812 1.488281 -6.816406 2.625 -7.640625 C 3.769531 -8.460938 5.425781 -8.878906 7.59375 -8.890625 L 9.375 -8.890625 L 9.375 -9.71875 C 9.375 -10.394531 9.203125 -10.929688 8.859375 -11.328125 C 8.515625 -11.734375 7.96875 -11.9375 7.21875 -11.9375 C 6.5625 -11.9375 6.046875 -11.78125 5.671875 -11.46875 C 5.304688 -11.15625 5.125 -10.726562 5.125 -10.1875 L 1.234375 -10.1875 C 1.234375 -11.03125 1.492188 -11.804688 2.015625 -12.515625 C 2.535156 -13.234375 3.269531 -13.796875 4.21875 -14.203125 C 5.175781 -14.617188 6.242188 -14.828125 7.421875 -14.828125 C 9.210938 -14.828125 10.632812 -14.375 11.6875 -13.46875 C 12.75 -12.570312 13.28125 -11.304688 13.28125 -9.671875 L 13.28125 -3.359375 C 13.289062 -1.984375 13.484375 -0.941406 13.859375 -0.234375 L 13.859375 0 Z M 6.71875 -2.703125 C 7.289062 -2.703125 7.816406 -2.828125 8.296875 -3.078125 C 8.785156 -3.335938 9.144531 -3.679688 9.375 -4.109375 L 9.375 -6.625 L 7.921875 -6.625 C 5.972656 -6.625 4.9375 -5.945312 4.8125 -4.59375 L 4.796875 -4.375 C 4.796875 -3.882812 4.96875 -3.484375 5.3125 -3.171875 C 5.65625 -2.859375 6.125 -2.703125 6.71875 -2.703125 Z M 6.71875 -2.703125 "/></g></g></g><g fill="#1a3636" fill-opacity="1"><g transform="translate(122.015467, 45.664335)"><g><path d="M 6.140625 -18.125 L 6.140625 -14.546875 L 8.640625 -14.546875 L 8.640625 -11.703125 L 6.140625 -11.703125 L 6.140625 -4.4375 C 6.140625 -3.894531 6.242188 -3.507812 6.453125 -3.28125 C 6.660156 -3.050781 7.054688 -2.9375 7.640625 -2.9375 C 8.066406 -2.9375 8.445312 -2.96875 8.78125 -3.03125 L 8.78125 -0.078125 C 8.019531 0.148438 7.234375 0.265625 6.421875 0.265625 C 3.703125 0.265625 2.316406 -1.109375 2.265625 -3.859375 L 2.265625 -11.703125 L 0.140625 -11.703125 L 0.140625 -14.546875 L 2.265625 -14.546875 L 2.265625 -18.125 Z M 6.140625 -18.125 "/></g></g></g><g fill="#1a3636" fill-opacity="1"><g transform="translate(131.320657, 45.664335)"><g><path d="M 8.1875 0.265625 C 6.050781 0.265625 4.3125 -0.382812 2.96875 -1.6875 C 1.632812 -3 0.96875 -4.742188 0.96875 -6.921875 L 0.96875 -7.296875 C 0.96875 -8.765625 1.25 -10.070312 1.8125 -11.21875 C 2.375 -12.375 3.171875 -13.265625 4.203125 -13.890625 C 5.242188 -14.515625 6.429688 -14.828125 7.765625 -14.828125 C 9.753906 -14.828125 11.316406 -14.195312 12.453125 -12.9375 C 13.597656 -11.6875 14.171875 -9.90625 14.171875 -7.59375 L 14.171875 -6.015625 L 4.90625 -6.015625 C 5.03125 -5.066406 5.410156 -4.300781 6.046875 -3.71875 C 6.679688 -3.144531 7.484375 -2.859375 8.453125 -2.859375 C 9.941406 -2.859375 11.109375 -3.40625 11.953125 -4.5 L 13.875 -2.359375 C 13.289062 -1.523438 12.5 -0.878906 11.5 -0.421875 C 10.5 0.0351562 9.394531 0.265625 8.1875 0.265625 Z M 7.75 -11.671875 C 6.976562 -11.671875 6.351562 -11.410156 5.875 -10.890625 C 5.394531 -10.367188 5.085938 -9.625 4.953125 -8.65625 L 10.359375 -8.65625 L 10.359375 -8.96875 C 10.335938 -9.832031 10.101562 -10.5 9.65625 -10.96875 C 9.207031 -11.4375 8.570312 -11.671875 7.75 -11.671875 Z M 7.75 -11.671875 "/></g></g></g><g fill="#1a3636" fill-opacity="1"><g transform="translate(146.206273, 45.664335)"><g><path d="M 0.890625 -7.390625 C 0.890625 -9.648438 1.394531 -11.453125 2.40625 -12.796875 C 3.425781 -14.148438 4.820312 -14.828125 6.59375 -14.828125 C 8.007812 -14.828125 9.175781 -14.296875 10.09375 -13.234375 L 10.09375 -20.65625 L 14 -20.65625 L 14 0 L 10.484375 0 L 10.296875 -1.546875 C 9.328125 -0.335938 8.082031 0.265625 6.5625 0.265625 C 4.851562 0.265625 3.476562 -0.40625 2.4375 -1.75 C 1.40625 -3.101562 0.890625 -4.984375 0.890625 -7.390625 Z M 4.78125 -7.109375 C 4.78125 -5.742188 5.015625 -4.695312 5.484375 -3.96875 C 5.960938 -3.238281 6.65625 -2.875 7.5625 -2.875 C 8.757812 -2.875 9.601562 -3.378906 10.09375 -4.390625 L 10.09375 -10.140625 C 9.613281 -11.148438 8.78125 -11.65625 7.59375 -11.65625 C 5.71875 -11.65625 4.78125 -10.140625 4.78125 -7.109375 Z M 4.78125 -7.109375 "/></g></g></g><g fill="#1a3636" fill-opacity="1"><g transform="translate(24.59335, 83.914333)"><g><path d="M 1.75 0 L 1.75 -19.578125 L 7.78125 -19.578125 C 9.5 -19.578125 11.035156 -19.1875 12.390625 -18.40625 C 13.753906 -17.632812 14.816406 -16.535156 15.578125 -15.109375 C 16.335938 -13.679688 16.71875 -12.054688 16.71875 -10.234375 L 16.71875 -9.328125 C 16.71875 -7.515625 16.34375 -5.898438 15.59375 -4.484375 C 14.84375 -3.066406 13.785156 -1.96875 12.421875 -1.1875 C 11.066406 -0.40625 9.53125 -0.0078125 7.8125 0 Z M 5.78125 -16.3125 L 5.78125 -3.234375 L 7.734375 -3.234375 C 9.304688 -3.234375 10.507812 -3.75 11.34375 -4.78125 C 12.1875 -5.8125 12.613281 -7.289062 12.625 -9.21875 L 12.625 -10.25 C 12.625 -12.238281 12.210938 -13.742188 11.390625 -14.765625 C 10.566406 -15.796875 9.363281 -16.3125 7.78125 -16.3125 Z M 5.78125 -16.3125 "/></g></g></g><g fill="#1a3636" fill-opacity="1"><g transform="translate(42.49105, 83.914333)"><g><path d="M 9.921875 0 C 9.742188 -0.351562 9.613281 -0.789062 9.53125 -1.3125 C 8.59375 -0.257812 7.367188 0.265625 5.859375 0.265625 C 4.429688 0.265625 3.25 -0.144531 2.3125 -0.96875 C 1.382812 -1.789062 0.921875 -2.832031 0.921875 -4.09375 C 0.921875 -5.632812 1.488281 -6.816406 2.625 -7.640625 C 3.769531 -8.460938 5.425781 -8.878906 7.59375 -8.890625 L 9.375 -8.890625 L 9.375 -9.71875 C 9.375 -10.394531 9.203125 -10.929688 8.859375 -11.328125 C 8.515625 -11.734375 7.96875 -11.9375 7.21875 -11.9375 C 6.5625 -11.9375 6.046875 -11.78125 5.671875 -11.46875 C 5.304688 -11.15625 5.125 -10.726562 5.125 -10.1875 L 1.234375 -10.1875 C 1.234375 -11.03125 1.492188 -11.804688 2.015625 -12.515625 C 2.535156 -13.234375 3.269531 -13.796875 4.21875 -14.203125 C 5.175781 -14.617188 6.242188 -14.828125 7.421875 -14.828125 C 9.210938 -14.828125 10.632812 -14.375 11.6875 -13.46875 C 12.75 -12.570312 13.28125 -11.304688 13.28125 -9.671875 L 13.28125 -3.359375 C 13.289062 -1.984375 13.484375 -0.941406 13.859375 -0.234375 L 13.859375 0 Z M 6.71875 -2.703125 C 7.289062 -2.703125 7.816406 -2.828125 8.296875 -3.078125 C 8.785156 -3.335938 9.144531 -3.679688 9.375 -4.109375 L 9.375 -6.625 L 7.921875 -6.625 C 5.972656 -6.625 4.9375 -5.945312 4.8125 -4.59375 L 4.796875 -4.375 C 4.796875 -3.882812 4.96875 -3.484375 5.3125 -3.171875 C 5.65625 -2.859375 6.125 -2.703125 6.71875 -2.703125 Z M 6.71875 -2.703125 "/></g></g></g><g fill="#1a3636" fill-opacity="1"><g transform="translate(57.255645, 83.914333)"><g><path d="M 6.140625 -18.125 L 6.140625 -14.546875 L 8.640625 -14.546875 L 8.640625 -11.703125 L 6.140625 -11.703125 L 6.140625 -4.4375 C 6.140625 -3.894531 6.242188 -3.507812 6.453125 -3.28125 C 6.660156 -3.050781 7.054688 -2.9375 7.640625 -2.9375 C 8.066406 -2.9375 8.445312 -2.96875 8.78125 -3.03125 L 8.78125 -0.078125 C 8.019531 0.148438 7.234375 0.265625 6.421875 0.265625 C 3.703125 0.265625 2.316406 -1.109375 2.265625 -3.859375 L 2.265625 -11.703125 L 0.140625 -11.703125 L 0.140625 -14.546875 L 2.265625 -14.546875 L 2.265625 -18.125 Z M 6.140625 -18.125 "/></g></g></g><g fill="#1a3636" fill-opacity="1"><g transform="translate(66.560835, 83.914333)"><g><path d="M 9.921875 0 C 9.742188 -0.351562 9.613281 -0.789062 9.53125 -1.3125 C 8.59375 -0.257812 7.367188 0.265625 5.859375 0.265625 C 4.429688 0.265625 3.25 -0.144531 2.3125 -0.96875 C 1.382812 -1.789062 0.921875 -2.832031 0.921875 -4.09375 C 0.921875 -5.632812 1.488281 -6.816406 2.625 -7.640625 C 3.769531 -8.460938 5.425781 -8.878906 7.59375 -8.890625 L 9.375 -8.890625 L 9.375 -9.71875 C 9.375 -10.394531 9.203125 -10.929688 8.859375 -11.328125 C 8.515625 -11.734375 7.96875 -11.9375 7.21875 -11.9375 C 6.5625 -11.9375 6.046875 -11.78125 5.671875 -11.46875 C 5.304688 -11.15625 5.125 -10.726562 5.125 -10.1875 L 1.234375 -10.1875 C 1.234375 -11.03125 1.492188 -11.804688 2.015625 -12.515625 C 2.535156 -13.234375 3.269531 -13.796875 4.21875 -14.203125 C 5.175781 -14.617188 6.242188 -14.828125 7.421875 -14.828125 C 9.210938 -14.828125 10.632812 -14.375 11.6875 -13.46875 C 12.75 -12.570312 13.28125 -11.304688 13.28125 -9.671875 L 13.28125 -3.359375 C 13.289062 -1.984375 13.484375 -0.941406 13.859375 -0.234375 L 13.859375 0 Z M 6.71875 -2.703125 C 7.289062 -2.703125 7.816406 -2.828125 8.296875 -3.078125 C 8.785156 -3.335938 9.144531 -3.679688 9.375 -4.109375 L 9.375 -6.625 L 7.921875 -6.625 C 5.972656 -6.625 4.9375 -5.945312 4.8125 -4.59375 L 4.796875 -4.375 C 4.796875 -3.882812 4.96875 -3.484375 5.3125 -3.171875 C 5.65625 -2.859375 6.125 -2.703125 6.71875 -2.703125 Z M 6.71875 -2.703125 "/></g></g></g><g fill="#1a3636" fill-opacity="1"><g transform="translate(24.59335, 122.164331)"><g><path d="M 13.53125 -8.484375 L 5.78125 -8.484375 L 5.78125 -3.234375 L 14.875 -3.234375 L 14.875 0 L 1.75 0 L 1.75 -19.578125 L 14.84375 -19.578125 L 14.84375 -16.3125 L 5.78125 -16.3125 L 5.78125 -11.640625 L 13.53125 -11.640625 Z M 13.53125 -8.484375 "/></g></g></g><g fill="#1a3636" fill-opacity="1"><g transform="translate(40.084072, 122.164331)"><g><path d="M 7.03125 -10.203125 L 9.484375 -14.546875 L 13.640625 -14.546875 L 9.5 -7.421875 L 13.8125 0 L 9.640625 0 L 7.046875 -4.578125 L 4.46875 0 L 0.28125 0 L 4.59375 -7.421875 L 0.46875 -14.546875 L 4.640625 -14.546875 Z M 7.03125 -10.203125 "/></g></g></g><g fill="#1a3636" fill-opacity="1"><g transform="translate(54.095645, 122.164331)"><g><path d="M 6.140625 -18.125 L 6.140625 -14.546875 L 8.640625 -14.546875 L 8.640625 -11.703125 L 6.140625 -11.703125 L 6.140625 -4.4375 C 6.140625 -3.894531 6.242188 -3.507812 6.453125 -3.28125 C 6.660156 -3.050781 7.054688 -2.9375 7.640625 -2.9375 C 8.066406 -2.9375 8.445312 -2.96875 8.78125 -3.03125 L 8.78125 -0.078125 C 8.019531 0.148438 7.234375 0.265625 6.421875 0.265625 C 3.703125 0.265625 2.316406 -1.109375 2.265625 -3.859375 L 2.265625 -11.703125 L 0.140625 -11.703125 L 0.140625 -14.546875 L 2.265625 -14.546875 L 2.265625 -18.125 Z M 6.140625 -18.125 "/></g></g></g><g fill="#1a3636" fill-opacity="1"><g transform="translate(63.400835, 122.164331)"><g><path d="M 9.671875 -10.90625 C 9.140625 -10.976562 8.671875 -11.015625 8.265625 -11.015625 C 6.796875 -11.015625 5.832031 -10.515625 5.375 -9.515625 L 5.375 0 L 1.5 0 L 1.5 -14.546875 L 5.171875 -14.546875 L 5.265625 -12.8125 C 6.046875 -14.15625 7.128906 -14.828125 8.515625 -14.828125 C 8.941406 -14.828125 9.34375 -14.765625 9.71875 -14.640625 Z M 9.671875 -10.90625 "/></g></g></g><g fill="#1a3636" fill-opacity="1"><g transform="translate(73.4456, 122.164331)"><g><path d="M 9.921875 0 C 9.742188 -0.351562 9.613281 -0.789062 9.53125 -1.3125 C 8.59375 -0.257812 7.367188 0.265625 5.859375 0.265625 C 4.429688 0.265625 3.25 -0.144531 2.3125 -0.96875 C 1.382812 -1.789062 0.921875 -2.832031 0.921875 -4.09375 C 0.921875 -5.632812 1.488281 -6.816406 2.625 -7.640625 C 3.769531 -8.460938 5.425781 -8.878906 7.59375 -8.890625 L 9.375 -8.890625 L 9.375 -9.71875 C 9.375 -10.394531 9.203125 -10.929688 8.859375 -11.328125 C 8.515625 -11.734375 7.96875 -11.9375 7.21875 -11.9375 C 6.5625 -11.9375 6.046875 -11.78125 5.671875 -11.46875 C 5.304688 -11.15625 5.125 -10.726562 5.125 -10.1875 L 1.234375 -10.1875 C 1.234375 -11.03125 1.492188 -11.804688 2.015625 -12.515625 C 2.535156 -13.234375 3.269531 -13.796875 4.21875 -14.203125 C 5.175781 -14.617188 6.242188 -14.828125 7.421875 -14.828125 C 9.210938 -14.828125 10.632812 -14.375 11.6875 -13.46875 C 12.75 -12.570312 13.28125 -11.304688 13.28125 -9.671875 L 13.28125 -3.359375 C 13.289062 -1.984375 13.484375 -0.941406 13.859375 -0.234375 L 13.859375 0 Z M 6.71875 -2.703125 C 7.289062 -2.703125 7.816406 -2.828125 8.296875 -3.078125 C 8.785156 -3.335938 9.144531 -3.679688 9.375 -4.109375 L 9.375 -6.625 L 7.921875 -6.625 C 5.972656 -6.625 4.9375 -5.945312 4.8125 -4.59375 L 4.796875 -4.375 C 4.796875 -3.882812 4.96875 -3.484375 5.3125 -3.171875 C 5.65625 -2.859375 6.125 -2.703125 6.71875 -2.703125 Z M 6.71875 -2.703125 "/></g></g></g><g fill="#1a3636" fill-opacity="1"><g transform="translate(88.210194, 122.164331)"><g><path d="M 7.546875 -2.859375 C 8.265625 -2.859375 8.847656 -3.054688 9.296875 -3.453125 C 9.742188 -3.847656 9.976562 -4.375 10 -5.03125 L 13.640625 -5.03125 C 13.628906 -4.039062 13.359375 -3.132812 12.828125 -2.3125 C 12.296875 -1.5 11.570312 -0.863281 10.65625 -0.40625 C 9.738281 0.0390625 8.722656 0.265625 7.609375 0.265625 C 5.535156 0.265625 3.894531 -0.394531 2.6875 -1.71875 C 1.488281 -3.039062 0.890625 -4.867188 0.890625 -7.203125 L 0.890625 -7.453125 C 0.890625 -9.691406 1.484375 -11.476562 2.671875 -12.8125 C 3.867188 -14.15625 5.507812 -14.828125 7.59375 -14.828125 C 9.40625 -14.828125 10.859375 -14.304688 11.953125 -13.265625 C 13.054688 -12.234375 13.617188 -10.859375 13.640625 -9.140625 L 10 -9.140625 C 9.976562 -9.890625 9.742188 -10.5 9.296875 -10.96875 C 8.847656 -11.4375 8.253906 -11.671875 7.515625 -11.671875 C 6.609375 -11.671875 5.925781 -11.34375 5.46875 -10.6875 C 5.007812 -10.03125 4.78125 -8.960938 4.78125 -7.484375 L 4.78125 -7.078125 C 4.78125 -5.578125 5.003906 -4.5 5.453125 -3.84375 C 5.910156 -3.1875 6.609375 -2.859375 7.546875 -2.859375 Z M 7.546875 -2.859375 "/></g></g></g><g fill="#1a3636" fill-opacity="1"><g transform="translate(102.571384, 122.164331)"><g><path d="M 6.140625 -18.125 L 6.140625 -14.546875 L 8.640625 -14.546875 L 8.640625 -11.703125 L 6.140625 -11.703125 L 6.140625 -4.4375 C 6.140625 -3.894531 6.242188 -3.507812 6.453125 -3.28125 C 6.660156 -3.050781 7.054688 -2.9375 7.640625 -2.9375 C 8.066406 -2.9375 8.445312 -2.96875 8.78125 -3.03125 L 8.78125 -0.078125 C 8.019531 0.148438 7.234375 0.265625 6.421875 0.265625 C 3.703125 0.265625 2.316406 -1.109375 2.265625 -3.859375 L 2.265625 -11.703125 L 0.140625 -11.703125 L 0.140625 -14.546875 L 2.265625 -14.546875 L 2.265625 -18.125 Z M 6.140625 -18.125 "/></g></g></g><g fill="#1a3636" fill-opacity="1"><g transform="translate(111.876574, 122.164331)"><g><path d="M 5.59375 0 L 1.6875 0 L 1.6875 -14.546875 L 5.59375 -14.546875 Z M 1.46875 -18.3125 C 1.46875 -18.894531 1.660156 -19.375 2.046875 -19.75 C 2.441406 -20.132812 2.972656 -20.328125 3.640625 -20.328125 C 4.304688 -20.328125 4.835938 -20.132812 5.234375 -19.75 C 5.628906 -19.375 5.828125 -18.894531 5.828125 -18.3125 C 5.828125 -17.726562 5.625 -17.242188 5.21875 -16.859375 C 4.820312 -16.484375 4.296875 -16.296875 3.640625 -16.296875 C 2.984375 -16.296875 2.457031 -16.484375 2.0625 -16.859375 C 1.664062 -17.242188 1.46875 -17.726562 1.46875 -18.3125 Z M 1.46875 -18.3125 "/></g></g></g><g fill="#1a3636" fill-opacity="1"><g transform="translate(119.178191, 122.164331)"><g><path d="M 0.890625 -7.40625 C 0.890625 -8.851562 1.164062 -10.140625 1.71875 -11.265625 C 2.28125 -12.398438 3.082031 -13.273438 4.125 -13.890625 C 5.164062 -14.515625 6.378906 -14.828125 7.765625 -14.828125 C 9.722656 -14.828125 11.320312 -14.222656 12.5625 -13.015625 C 13.8125 -11.816406 14.503906 -10.1875 14.640625 -8.125 L 14.671875 -7.125 C 14.671875 -4.894531 14.046875 -3.101562 12.796875 -1.75 C 11.554688 -0.40625 9.882812 0.265625 7.78125 0.265625 C 5.6875 0.265625 4.015625 -0.40625 2.765625 -1.75 C 1.515625 -3.09375 0.890625 -4.921875 0.890625 -7.234375 Z M 4.78125 -7.125 C 4.78125 -5.75 5.035156 -4.691406 5.546875 -3.953125 C 6.066406 -3.222656 6.8125 -2.859375 7.78125 -2.859375 C 8.726562 -2.859375 9.460938 -3.21875 9.984375 -3.9375 C 10.515625 -4.664062 10.78125 -5.820312 10.78125 -7.40625 C 10.78125 -8.757812 10.515625 -9.804688 9.984375 -10.546875 C 9.460938 -11.296875 8.722656 -11.671875 7.765625 -11.671875 C 6.804688 -11.671875 6.066406 -11.300781 5.546875 -10.5625 C 5.035156 -9.820312 4.78125 -8.675781 4.78125 -7.125 Z M 4.78125 -7.125 "/></g></g></g><g fill="#1a3636" fill-opacity="1"><g transform="translate(134.749593, 122.164331)"><g><path d="M 5.078125 -14.546875 L 5.1875 -12.875 C 6.226562 -14.175781 7.625 -14.828125 9.375 -14.828125 C 10.914062 -14.828125 12.0625 -14.375 12.8125 -13.46875 C 13.570312 -12.5625 13.957031 -11.207031 13.96875 -9.40625 L 13.96875 0 L 10.09375 0 L 10.09375 -9.3125 C 10.09375 -10.132812 9.910156 -10.726562 9.546875 -11.09375 C 9.191406 -11.46875 8.597656 -11.65625 7.765625 -11.65625 C 6.671875 -11.65625 5.847656 -11.191406 5.296875 -10.265625 L 5.296875 0 L 1.40625 0 L 1.40625 -14.546875 Z M 5.078125 -14.546875 "/></g></g></g></svg>