<svg xmlns="http://www.w3.org/2000/svg" xmlns:xlink="http://www.w3.org/1999/xlink" width="600" zoomAndPan="magnify" viewBox="0 0 450 749.999995" height="1000" preserveAspectRatio="xMidYMid meet" version="1.0"><defs><clipPath id="4a83afbf18"><path d="M 7.996094 467 L 173 467 L 173 749.980469 L 7.996094 749.980469 Z M 7.996094 467 " clip-rule="nonzero"/></clipPath><clipPath id="53781b73ab"><path d="M 273 102 L 450 102 L 450 749.980469 L 273 749.980469 Z M 273 102 " clip-rule="nonzero"/></clipPath><clipPath id="2b1b96ae91"><path d="M 118 262 L 429 262 L 429 749.980469 L 118 749.980469 Z M 118 262 " clip-rule="nonzero"/></clipPath><clipPath id="cb67b0dde5"><path d="M 436.296875 731.164062 L 450 731.164062 L 450 740.164062 L 436.296875 740.164062 Z M 436.296875 731.164062 " clip-rule="nonzero"/></clipPath></defs><g clip-path="url(#4a83afbf18)"><path fill="#677d6a" d="M 8.074219 578.058594 C 8.074219 583.382812 8.074219 588.710938 8.074219 594.113281 L 8.074219 717.390625 C 8.074219 721.125 8.074219 724.78125 8.074219 728.519531 C 8.074219 733.367188 8.074219 738.292969 8.074219 743.144531 C 8.074219 745.289062 8.074219 747.355469 8.074219 749.5 L 172.285156 749.5 C 172.285156 748.230469 172.285156 746.957031 172.285156 745.6875 L 172.285156 743.0625 C 172.285156 738.136719 172.285156 733.128906 172.285156 728.199219 C 172.285156 724.542969 172.285156 720.96875 172.285156 717.3125 L 172.285156 627.257812 C 172.285156 616.210938 172.285156 605.164062 172.285156 594.113281 L 172.285156 577.980469 C 172.285156 574.5625 172.285156 571.066406 172.285156 567.648438 C 172.285156 560.492188 172.363281 553.179688 172.207031 545.949219 C 172.046875 532.515625 169.582031 521.46875 164.734375 512.246094 C 163.9375 510.660156 162.984375 509.070312 161.953125 507.398438 C 160.363281 504.855469 158.613281 502.472656 156.707031 500.167969 C 156.148438 499.453125 155.515625 498.816406 154.957031 498.101562 C 154.71875 497.863281 154.480469 497.625 154.320312 497.386719 L 153.84375 496.828125 C 153.605469 496.511719 153.367188 496.273438 153.050781 495.953125 C 142.398438 484.429688 129.445312 476.003906 115.695312 471.472656 C 113.46875 470.757812 111.164062 470.121094 108.777344 469.488281 L 107.1875 469.089844 C 106.871094 469.007812 106.554688 468.929688 106.15625 468.851562 C 105.839844 468.769531 105.601562 468.691406 105.28125 468.691406 L 105.121094 468.691406 C 105.042969 468.691406 104.882812 468.613281 104.804688 468.613281 L 104.566406 468.53125 C 93.835938 466.625 83.027344 466.863281 72.457031 469.40625 L 72.21875 469.488281 C 72.058594 469.488281 71.898438 469.566406 71.742188 469.566406 C 69.355469 470.121094 67.050781 470.757812 64.824219 471.472656 C 50.996094 476.003906 38.121094 484.507812 27.46875 495.953125 C 27.230469 496.191406 26.992188 496.511719 26.753906 496.75 L 26.195312 497.386719 C 25.957031 497.625 25.71875 497.863281 25.5625 498.101562 C 25.003906 498.734375 24.367188 499.453125 23.8125 500.167969 C 21.90625 502.472656 20.15625 504.9375 18.566406 507.398438 C 17.535156 509.070312 16.578125 510.660156 15.785156 512.246094 C 10.9375 521.46875 8.472656 532.515625 8.3125 545.949219 C 7.996094 553.339844 7.996094 560.730469 7.996094 567.964844 C 7.996094 571.304688 8.074219 574.722656 8.074219 578.058594 Z M 8.074219 578.058594 " fill-opacity="1" fill-rule="nonzero"/></g><g clip-path="url(#53781b73ab)"><path fill="#40534c" d="M 273.863281 354.714844 C 273.863281 366.875 273.863281 378.957031 273.863281 391.117188 L 273.863281 671.132812 C 273.863281 679.558594 273.863281 687.984375 273.863281 696.40625 C 273.863281 707.535156 273.863281 718.582031 273.863281 729.710938 C 273.863281 736.308594 273.863281 742.824219 273.785156 749.421875 L 646.953125 749.421875 C 646.953125 749.34375 646.953125 749.34375 646.953125 749.261719 C 646.953125 744.652344 646.953125 740.042969 646.871094 735.355469 L 646.871094 729.394531 C 646.871094 718.105469 646.871094 706.898438 646.871094 695.613281 C 646.871094 687.347656 646.871094 679.082031 646.871094 670.8125 L 646.871094 466.148438 C 646.871094 441.03125 646.871094 415.914062 646.871094 390.800781 L 646.871094 354.398438 C 646.871094 346.609375 646.871094 338.738281 646.953125 330.949219 C 647.03125 314.734375 647.03125 298.042969 646.871094 281.511719 C 646.472656 250.992188 640.910156 225.953125 629.941406 204.890625 C 628.035156 201.234375 625.96875 197.660156 623.582031 193.84375 C 620.007812 188.121094 615.953125 182.558594 611.660156 177.390625 C 610.308594 175.800781 609.039062 174.289062 607.6875 172.78125 C 607.210938 172.222656 606.652344 171.667969 606.175781 171.109375 L 605.0625 169.839844 C 604.507812 169.203125 603.871094 168.566406 603.316406 167.851562 C 578.996094 141.863281 549.585938 122.628906 518.269531 112.292969 C 513.183594 110.625 507.9375 109.117188 502.53125 107.84375 L 498.875 106.96875 C 498.160156 106.808594 497.367188 106.652344 496.492188 106.492188 C 495.855469 106.332031 495.140625 106.175781 494.503906 106.09375 L 494.109375 106.015625 C 493.871094 105.9375 493.628906 105.9375 493.390625 105.855469 L 492.835938 105.777344 C 468.433594 101.324219 443.875 102.042969 419.792969 107.683594 L 419.316406 107.765625 C 418.996094 107.84375 418.601562 107.921875 418.28125 108.003906 C 412.878906 109.273438 407.632812 110.785156 402.542969 112.453125 C 371.148438 122.785156 341.742188 142.019531 317.578125 168.171875 C 317.023438 168.804688 316.464844 169.363281 315.910156 170 L 314.636719 171.351562 C 314.160156 171.90625 313.605469 172.460938 313.128906 173.019531 C 311.777344 174.527344 310.425781 176.117188 309.152344 177.707031 C 304.78125 182.953125 300.726562 188.519531 297.230469 194.160156 C 294.847656 197.898438 292.699219 201.554688 290.792969 205.128906 C 279.746094 226.191406 274.261719 251.230469 273.863281 281.75 C 273.625 298.363281 273.703125 315.292969 273.785156 331.585938 C 273.785156 339.375 273.863281 347.003906 273.863281 354.714844 Z M 273.863281 354.714844 " fill-opacity="1" fill-rule="nonzero"/></g><g clip-path="url(#2b1b96ae91)"><path fill="#ddd5c9" d="M 118.476562 447.550781 C 118.394531 435.785156 118.394531 423.625 118.554688 411.625 C 118.875 386.347656 123.640625 365.285156 133.101562 347.164062 C 134.691406 344.0625 136.519531 340.964844 138.585938 337.785156 C 141.605469 332.9375 145.023438 328.246094 148.757812 323.796875 C 149.710938 322.605469 150.746094 321.410156 151.9375 320.058594 C 152.335938 319.582031 152.734375 319.105469 153.210938 318.628906 L 154.082031 317.597656 C 154.640625 316.960938 155.117188 316.484375 155.515625 316.007812 C 175.304688 294.625 199.46875 278.808594 225.457031 270.304688 C 229.671875 268.953125 234.042969 267.683594 238.414062 266.648438 C 238.730469 266.570312 239.128906 266.488281 239.449219 266.410156 L 239.6875 266.332031 C 259.714844 261.640625 280.460938 261.085938 300.726562 264.742188 L 301.125 264.820312 C 301.523438 264.898438 301.839844 264.980469 302.238281 265.058594 C 302.792969 265.136719 303.351562 265.296875 303.988281 265.375 C 304.542969 265.535156 305.179688 265.617188 305.816406 265.773438 L 305.972656 265.855469 C 306.53125 266.011719 307.164062 266.09375 307.722656 266.25 L 308.835938 266.488281 C 313.285156 267.523438 317.65625 268.792969 321.949219 270.144531 C 347.941406 278.648438 372.101562 294.46875 391.894531 315.925781 C 392.449219 316.484375 392.847656 317.039062 393.324219 317.515625 L 394.199219 318.472656 C 394.597656 318.949219 394.992188 319.34375 395.390625 319.820312 C 396.664062 321.332031 397.695312 322.445312 398.648438 323.558594 C 402.386719 328.007812 405.804688 332.699219 408.824219 337.625 C 410.808594 340.804688 412.636719 343.90625 414.308594 347.003906 C 423.765625 365.046875 428.535156 386.191406 428.851562 411.464844 C 429.011719 423.464844 428.933594 435.628906 428.933594 447.3125 C 428.933594 453.035156 428.933594 458.675781 428.933594 464.242188 L 428.933594 490.550781 C 428.933594 508.671875 428.933594 526.792969 428.933594 544.914062 C 428.933594 557.15625 428.933594 569.394531 428.933594 581.636719 L 428.933594 749.34375 L 424.402344 749.34375 L 424.402344 581.636719 C 424.402344 569.394531 424.402344 557.15625 424.402344 544.914062 C 424.402344 526.792969 424.402344 508.671875 424.402344 490.550781 L 424.402344 464.320312 C 424.402344 458.675781 424.402344 453.035156 424.402344 447.390625 C 424.480469 435.628906 424.480469 423.546875 424.324219 411.542969 C 424.003906 386.984375 419.394531 366.558594 410.332031 349.070312 C 408.742188 346.128906 406.996094 343.03125 405.085938 340.011719 C 402.148438 335.242188 398.808594 330.710938 395.230469 326.417969 C 394.277344 325.304688 393.324219 324.195312 392.050781 322.761719 C 391.65625 322.285156 391.257812 321.886719 390.859375 321.410156 L 389.984375 320.457031 C 389.507812 319.980469 389.113281 319.425781 388.554688 318.949219 C 369.242188 298.125 345.714844 282.703125 320.519531 274.4375 C 316.386719 273.085938 312.09375 271.894531 307.800781 270.859375 L 306.6875 270.621094 C 306.132812 270.464844 305.578125 270.382812 305.019531 270.226562 C 304.304688 270.066406 303.667969 269.90625 303.113281 269.828125 C 302.554688 269.75 302 269.589844 301.441406 269.511719 C 301.046875 269.429688 300.726562 269.351562 300.410156 269.273438 L 300.011719 269.191406 C 291.429688 267.601562 282.683594 266.808594 274.023438 266.808594 C 262.894531 266.808594 251.6875 268.078125 240.796875 270.703125 L 240.558594 270.78125 C 240.242188 270.859375 239.925781 270.941406 239.605469 271.019531 C 235.3125 272.054688 231.023438 273.246094 226.96875 274.597656 C 201.691406 282.941406 178.167969 298.28125 158.933594 319.105469 C 158.457031 319.582031 158.058594 320.058594 157.660156 320.539062 L 156.707031 321.648438 C 156.308594 322.128906 155.910156 322.605469 155.515625 323.082031 C 154.320312 324.433594 153.289062 325.625 152.335938 326.738281 C 148.757812 331.027344 145.421875 335.640625 142.480469 340.25 C 140.492188 343.347656 138.742188 346.367188 137.152344 349.308594 C 128.011719 366.796875 123.402344 387.222656 123.164062 411.78125 C 123.007812 423.785156 123.085938 435.867188 123.085938 447.628906 L 123.085938 448.027344 C 123.085938 453.511719 123.085938 459.074219 123.085938 464.558594 C 123.085938 473.300781 123.085938 482.125 123.085938 490.867188 L 123.085938 589.902344 C 123.085938 602.855469 123.085938 723.75 123.085938 749.582031 L 118.554688 749.582031 C 118.554688 723.667969 118.554688 602.855469 118.554688 589.902344 L 118.554688 490.867188 C 118.554688 482.125 118.554688 473.300781 118.554688 464.558594 C 118.554688 459.074219 118.554688 453.589844 118.554688 448.027344 L 118.554688 447.550781 Z M 164.734375 749.421875 L 164.734375 424.898438 C 164.734375 419.570312 164.734375 413.371094 164.972656 407.492188 C 165.6875 393.261719 168.230469 381.578125 172.601562 371.644531 C 172.839844 371.167969 173 370.769531 173.160156 370.371094 L 173.558594 369.417969 C 173.796875 368.863281 174.113281 368.386719 174.351562 367.828125 C 175.542969 365.523438 176.816406 363.378906 178.167969 361.230469 C 180.152344 358.132812 182.617188 354.953125 185.242188 351.773438 C 187.148438 349.546875 189.292969 347.164062 191.917969 344.539062 C 193.585938 342.871094 195.335938 341.125 197.242188 339.375 L 197.957031 338.738281 C 198.753906 338.023438 199.46875 337.386719 200.183594 336.75 L 200.582031 336.433594 C 201.453125 335.640625 202.328125 334.921875 203.125 334.289062 L 203.917969 333.652344 C 204.554688 333.09375 205.269531 332.617188 205.90625 332.0625 L 206.78125 331.425781 C 207.65625 330.789062 208.449219 330.15625 209.402344 329.519531 L 210.515625 328.722656 C 210.992188 328.40625 211.550781 328.007812 212.183594 327.609375 L 213.378906 326.816406 C 214.25 326.261719 215.046875 325.703125 216 325.148438 C 216.636719 324.75 217.351562 324.351562 217.988281 323.957031 L 219.578125 323.082031 C 236.425781 313.621094 255.183594 308.613281 273.785156 308.613281 C 284.117188 308.613281 294.449219 310.125 304.464844 313.144531 C 312.730469 315.609375 320.519531 318.867188 327.59375 322.921875 L 329.339844 323.957031 C 329.976562 324.351562 330.691406 324.75 331.40625 325.226562 C 332.28125 325.785156 333.15625 326.339844 333.953125 326.894531 L 335.144531 327.691406 C 335.699219 328.089844 336.335938 328.484375 336.8125 328.882812 L 338.003906 329.679688 C 338.800781 330.234375 339.59375 330.871094 340.46875 331.425781 L 341.421875 332.140625 C 342.058594 332.617188 342.695312 333.09375 343.25 333.574219 L 344.125 334.289062 C 345 335.003906 345.875 335.71875 346.589844 336.355469 L 346.988281 336.75 C 347.859375 337.546875 348.65625 338.183594 349.371094 338.816406 L 350.085938 339.453125 C 351.914062 341.203125 353.742188 342.953125 355.410156 344.621094 C 357.953125 347.242188 360.101562 349.628906 362.089844 351.851562 C 364.789062 355.03125 367.175781 358.210938 369.160156 361.3125 C 370.511719 363.457031 371.863281 365.683594 373.054688 367.988281 C 373.296875 368.386719 373.453125 368.78125 373.613281 369.101562 L 373.929688 369.65625 C 374.25 370.292969 374.566406 370.929688 374.882812 371.644531 C 379.257812 381.660156 381.71875 393.421875 382.515625 407.570312 C 382.753906 413.53125 382.753906 419.730469 382.753906 425.054688 C 382.753906 435.230469 382.753906 445.402344 382.753906 455.578125 L 382.753906 542.609375 C 382.753906 554.929688 382.753906 567.25 382.753906 579.648438 L 382.753906 749.738281 L 387.285156 749.738281 L 387.285156 579.648438 C 387.285156 567.328125 387.285156 555.007812 387.285156 542.609375 L 387.285156 455.578125 C 387.285156 445.402344 387.285156 435.230469 387.285156 425.054688 C 387.285156 419.652344 387.285156 413.453125 387.046875 407.410156 C 386.25 392.707031 383.628906 380.464844 379.019531 369.976562 C 378.699219 369.179688 378.300781 368.464844 377.984375 367.828125 L 377.667969 367.191406 C 377.429688 366.796875 377.269531 366.398438 377.03125 366 C 375.757812 363.617188 374.40625 361.230469 372.898438 359.007812 C 370.832031 355.746094 368.289062 352.410156 365.503906 349.070312 C 363.519531 346.765625 361.292969 344.300781 358.671875 341.679688 C 356.921875 339.929688 355.09375 338.101562 353.1875 336.273438 L 352.472656 335.640625 C 351.753906 335.003906 350.960938 334.289062 350.007812 333.492188 L 349.609375 333.175781 C 348.816406 332.539062 348.019531 331.824219 347.066406 331.027344 L 346.191406 330.3125 C 345.554688 329.757812 344.921875 329.28125 344.285156 328.804688 L 343.332031 328.089844 C 342.457031 327.453125 341.582031 326.816406 340.707031 326.179688 L 339.59375 325.386719 C 339.039062 324.988281 338.402344 324.589844 337.765625 324.113281 L 336.652344 323.320312 C 335.78125 322.761719 334.90625 322.207031 333.953125 321.648438 C 333.234375 321.171875 332.519531 320.777344 331.804688 320.378906 L 329.976562 319.34375 C 322.507812 315.132812 314.398438 311.714844 305.894531 309.171875 C 295.402344 306.070312 284.671875 304.480469 273.941406 304.480469 C 254.550781 304.480469 235.074219 309.726562 217.511719 319.582031 L 215.921875 320.539062 C 215.207031 320.933594 214.488281 321.410156 213.773438 321.886719 C 212.898438 322.367188 212.027344 323 211.152344 323.558594 L 209.800781 324.433594 C 209.246094 324.828125 208.765625 325.148438 208.210938 325.542969 L 207.097656 326.339844 C 206.222656 326.976562 205.347656 327.613281 204.394531 328.328125 L 203.523438 328.960938 C 202.804688 329.519531 202.171875 329.996094 201.453125 330.550781 L 200.660156 331.1875 C 199.785156 331.902344 198.910156 332.617188 197.957031 333.414062 L 197.558594 333.730469 C 196.765625 334.445312 195.972656 335.082031 195.175781 335.878906 L 194.460938 336.511719 C 192.554688 338.339844 190.644531 340.089844 188.976562 341.839844 C 186.273438 344.539062 184.046875 347.003906 182.140625 349.308594 C 179.359375 352.648438 176.816406 355.988281 174.667969 359.246094 C 173.238281 361.46875 171.886719 363.777344 170.617188 366.238281 C 170.296875 366.796875 170.058594 367.351562 169.742188 367.910156 L 169.265625 368.863281 C 169.027344 369.339844 168.867188 369.738281 168.628906 370.292969 C 164.019531 380.785156 161.476562 393.023438 160.679688 407.730469 C 160.441406 413.769531 160.441406 419.96875 160.441406 425.375 L 160.441406 749.898438 L 164.734375 749.898438 Z M 139.140625 465.671875 C 139.140625 474.414062 139.140625 483.15625 139.140625 491.980469 L 139.140625 591.015625 C 139.140625 603.574219 139.140625 723.828125 139.140625 749.5 L 144.148438 749.5 L 144.148438 426.167969 C 144.148438 420.605469 144.148438 414.085938 144.464844 407.808594 C 145.339844 391.039062 148.359375 376.96875 153.765625 364.648438 C 154.164062 363.777344 154.558594 362.902344 154.957031 362.027344 L 155.039062 361.867188 C 155.355469 361.152344 155.753906 360.4375 156.148438 359.640625 C 157.660156 356.78125 159.25 354 161 351.296875 C 163.460938 347.480469 166.402344 343.585938 169.664062 339.773438 C 171.886719 337.230469 174.351562 334.527344 177.214844 331.503906 C 179.121094 329.519531 181.1875 327.53125 183.492188 325.386719 L 184.046875 324.910156 C 185.003906 324.035156 185.875 323.238281 186.832031 322.445312 L 187.148438 322.207031 C 188.179688 321.332031 189.214844 320.457031 190.246094 319.664062 L 191.121094 318.949219 C 191.835938 318.3125 192.632812 317.753906 193.425781 317.199219 L 193.664062 316.960938 C 193.902344 316.722656 194.222656 316.5625 194.460938 316.324219 C 195.414062 315.609375 196.367188 314.894531 197.402344 314.179688 L 198.671875 313.304688 C 199.308594 312.828125 200.023438 312.351562 200.660156 311.953125 L 202.011719 311 C 203.042969 310.363281 204.078125 309.648438 205.109375 309.011719 C 205.90625 308.535156 206.699219 308.058594 207.496094 307.582031 L 209.402344 306.46875 C 240.71875 288.824219 276.566406 284.613281 310.34375 294.625 C 320.121094 297.566406 329.421875 301.460938 337.925781 306.308594 C 338.164062 306.46875 338.324219 306.546875 338.480469 306.628906 L 339.832031 307.421875 C 340.628906 307.898438 341.421875 308.375 342.296875 308.933594 C 343.332031 309.570312 344.363281 310.203125 345.398438 310.921875 L 346.746094 311.875 C 347.382812 312.351562 348.097656 312.828125 348.734375 313.226562 L 350.007812 314.097656 C 350.960938 314.816406 351.992188 315.53125 352.949219 316.246094 L 353.980469 317.039062 C 354.777344 317.597656 355.492188 318.230469 356.285156 318.867188 L 357.160156 319.582031 C 358.195312 320.457031 359.226562 321.253906 360.339844 322.285156 L 360.5 322.445312 C 361.453125 323.238281 362.40625 324.113281 363.4375 325.066406 L 363.996094 325.542969 C 366.140625 327.53125 368.207031 329.597656 370.195312 331.503906 C 373.054688 334.445312 375.519531 337.148438 377.746094 339.773438 C 381.003906 343.667969 383.945312 347.480469 386.410156 351.296875 C 388.15625 354 389.746094 356.78125 391.257812 359.640625 C 391.574219 360.359375 391.972656 360.992188 392.292969 361.710938 L 392.371094 361.867188 C 392.769531 362.742188 393.246094 363.695312 393.640625 364.570312 C 399.046875 376.890625 402.066406 390.957031 402.941406 407.730469 C 403.179688 414.085938 403.179688 420.605469 403.179688 426.089844 C 403.179688 436.261719 403.179688 446.4375 403.179688 456.609375 L 403.179688 749.5 L 408.1875 749.5 L 408.1875 582.988281 C 408.1875 570.746094 408.1875 558.507812 408.1875 546.265625 C 408.1875 528.144531 408.1875 510.023438 408.1875 491.902344 L 408.1875 465.59375 C 408.1875 459.949219 408.1875 454.304688 408.1875 448.664062 C 408.265625 436.976562 408.265625 424.898438 408.109375 413.054688 C 407.789062 391.039062 403.816406 372.914062 395.867188 357.8125 C 394.515625 355.191406 393.007812 352.570312 391.257812 349.867188 C 388.636719 345.734375 385.773438 341.757812 382.675781 338.023438 C 381.71875 336.910156 380.765625 335.796875 379.8125 334.683594 C 379.414062 334.289062 379.097656 333.890625 378.699219 333.492188 L 377.90625 332.539062 C 377.507812 332.0625 377.03125 331.585938 376.632812 331.109375 C 359.148438 312.269531 338.003906 298.363281 315.351562 290.890625 C 311.695312 289.699219 307.882812 288.585938 303.988281 287.710938 L 301.363281 287.074219 C 300.808594 286.996094 300.25 286.835938 299.695312 286.757812 C 299.21875 286.679688 298.742188 286.519531 298.265625 286.441406 L 298.105469 286.28125 C 297.945312 286.28125 297.785156 286.199219 297.628906 286.199219 L 297.230469 286.121094 C 279.664062 282.941406 261.941406 283.417969 244.535156 287.472656 L 244.214844 287.550781 C 243.976562 287.632812 243.738281 287.632812 243.5 287.710938 C 239.605469 288.664062 235.792969 289.699219 232.136719 290.890625 C 209.484375 298.363281 188.261719 312.269531 170.855469 331.109375 C 170.457031 331.585938 170.058594 331.984375 169.664062 332.460938 L 168.789062 333.414062 C 168.390625 333.8125 168.074219 334.207031 167.675781 334.683594 C 166.722656 335.796875 165.765625 336.910156 164.8125 338.023438 C 161.632812 341.839844 158.773438 345.8125 156.230469 349.867188 C 154.480469 352.570312 152.972656 355.191406 151.621094 357.816406 C 143.671875 372.996094 139.699219 391.117188 139.378906 413.132812 C 139.21875 425.136719 139.300781 437.296875 139.300781 449.058594 C 139.140625 454.625 139.140625 460.109375 139.140625 465.671875 Z M 177.292969 443.417969 C 177.371094 447.230469 177.53125 451.046875 177.609375 454.863281 C 177.769531 462.253906 177.691406 469.804688 177.691406 477.117188 C 177.691406 480.136719 177.691406 483.15625 177.691406 486.179688 L 177.691406 749.5 L 182.695312 749.5 L 182.695312 473.539062 C 182.695312 466.148438 182.695312 458.4375 182.539062 450.96875 C 182.457031 448.503906 182.378906 446.039062 182.300781 443.574219 C 182.140625 437.296875 181.902344 430.699219 181.902344 424.339844 C 181.980469 409.398438 183.175781 390.164062 192.394531 373.234375 C 199.785156 359.640625 211.628906 347.957031 226.652344 339.375 C 256.21875 322.445312 291.429688 322.445312 320.757812 339.214844 C 335.699219 347.800781 347.542969 359.484375 355.015625 373.074219 C 364.234375 389.925781 365.503906 409.238281 365.503906 424.183594 C 365.503906 430.539062 365.347656 437.058594 365.109375 443.335938 C 365.027344 445.800781 364.949219 448.34375 364.871094 450.808594 C 364.710938 458.4375 364.710938 466.148438 364.710938 473.539062 L 364.710938 479.820312 C 364.710938 503.347656 364.710938 526.871094 364.710938 550.398438 L 364.710938 749.5 L 369.71875 749.5 C 369.71875 748.785156 369.71875 748.070312 369.71875 747.355469 L 369.71875 580.445312 C 369.71875 570.429688 369.71875 560.414062 369.71875 550.480469 L 369.71875 486.097656 C 369.71875 483.078125 369.71875 480.058594 369.71875 477.039062 C 369.71875 469.726562 369.640625 462.175781 369.796875 454.78125 C 369.878906 450.96875 369.957031 447.074219 370.117188 443.257812 C 370.273438 438.171875 370.433594 433.003906 370.511719 427.839844 C 370.671875 411.386719 369.640625 392.152344 361.371094 374.585938 C 354.539062 360.121094 342.933594 347.324219 327.75 337.625 C 312.015625 327.53125 293.972656 321.730469 277.042969 321.09375 C 260.589844 320.539062 241.832031 325.386719 225.457031 334.367188 C 223.472656 335.402344 221.5625 336.59375 219.734375 337.785156 C 204.554688 347.480469 192.949219 360.277344 186.113281 374.742188 C 177.769531 392.46875 176.816406 412.496094 176.972656 427.996094 C 176.972656 433.003906 177.132812 438.328125 177.292969 443.417969 Z M 201.851562 749.421875 L 201.851562 575.117188 C 201.851562 563.433594 201.851562 551.828125 201.851562 540.226562 L 201.851562 422.355469 C 201.851562 408.207031 202.328125 395.488281 208.449219 383.804688 C 215.445312 370.453125 227.046875 361.550781 235.472656 356.382812 C 242.863281 351.933594 251.289062 348.675781 261.066406 346.527344 C 266.3125 345.414062 270.605469 344.859375 274.578125 344.78125 C 279.03125 344.78125 283.402344 345.652344 288.25 346.765625 C 296.832031 348.753906 304.703125 351.851562 311.777344 356.144531 C 320.28125 361.3125 331.804688 370.214844 338.800781 383.566406 C 344.917969 395.25 345.398438 408.445312 345.398438 422.117188 C 345.398438 431.734375 345.398438 441.351562 345.398438 450.886719 L 345.398438 749.34375 L 350.402344 749.34375 L 350.402344 579.648438 C 350.402344 569.15625 350.402344 558.746094 350.402344 548.253906 L 350.402344 503.425781 C 350.402344 488.324219 350.402344 473.222656 350.402344 458.121094 L 350.402344 423.226562 C 350.402344 414.085938 350.402344 404.550781 348.335938 395.410156 C 341.980469 367.589844 315.910156 348.914062 292.859375 342.710938 C 282.765625 340.011719 272.828125 339.453125 263.292969 340.964844 C 260.113281 341.441406 257.09375 342.078125 254.308594 342.871094 C 231.261719 349.070312 205.191406 367.75 198.832031 395.566406 C 196.765625 404.789062 196.765625 414.246094 196.765625 423.386719 L 196.765625 458.359375 C 196.765625 473.460938 196.765625 488.5625 196.765625 503.664062 C 196.765625 518.605469 196.765625 533.550781 196.765625 548.492188 L 196.765625 749.421875 Z M 216.160156 428.15625 L 216.160156 459.074219 C 216.160156 472.824219 216.160156 486.496094 216.160156 500.246094 L 216.160156 541.816406 C 216.160156 552.546875 216.160156 563.273438 216.160156 574.003906 L 216.160156 749.5 L 221.085938 749.5 L 221.085938 568.679688 C 221.085938 557.15625 221.085938 545.628906 221.085938 534.105469 L 221.085938 422.59375 C 221.085938 415.359375 221.085938 407.96875 222.914062 400.8125 C 225.539062 390.71875 232.375 381.5 242.070312 374.742188 C 249.304688 369.738281 257.886719 366.320312 266.867188 364.808594 C 275.453125 363.378906 285.070312 364.808594 294.6875 368.703125 C 302.875 372.121094 310.105469 377.289062 315.511719 383.644531 C 319.804688 388.734375 322.902344 394.535156 324.492188 400.574219 C 326.320312 407.648438 326.320312 415.121094 326.320312 422.273438 L 326.320312 424.261719 C 326.320312 433.5625 326.320312 442.859375 326.320312 452.078125 L 326.320312 491.820312 C 326.320312 505.808594 326.320312 519.796875 326.320312 533.789062 L 326.320312 749.261719 L 331.25 749.261719 L 331.25 573.6875 C 331.25 562.957031 331.25 552.226562 331.25 541.496094 C 331.25 527.667969 331.25 513.757812 331.25 499.929688 L 331.25 458.757812 C 331.25 448.503906 331.25 438.171875 331.25 427.839844 C 331.25 426.40625 331.25 425.054688 331.25 423.625 C 331.25 419.492188 331.328125 415.121094 331.011719 410.910156 C 330.214844 398.984375 326.402344 388.890625 319.566406 380.785156 C 312.171875 371.960938 301.601562 365.207031 289.839844 361.628906 C 281.414062 359.085938 273.546875 358.53125 265.597656 359.882812 C 264.167969 360.121094 262.734375 360.4375 261.382812 360.753906 C 260.667969 360.914062 260.03125 361.074219 259.316406 361.3125 C 259.078125 361.390625 258.839844 361.46875 258.601562 361.550781 C 258.285156 361.710938 257.886719 361.789062 257.648438 361.789062 L 257.410156 361.789062 C 245.648438 365.363281 235.074219 372.199219 227.683594 380.945312 C 220.929688 389.050781 217.035156 399.144531 216.238281 411.066406 C 216 415.28125 216 419.652344 216 423.785156 C 216.160156 425.375 216.160156 426.726562 216.160156 428.15625 Z M 234.757812 440.15625 C 234.996094 452.320312 235.15625 464.957031 235.3125 478.867188 C 235.472656 497.78125 235.394531 516.9375 235.394531 535.535156 C 235.394531 542.292969 235.394531 549.128906 235.394531 555.882812 L 235.394531 749.421875 L 240.402344 749.421875 L 240.402344 530.527344 C 240.402344 510.976562 240.402344 490.789062 240.242188 470.917969 C 240.164062 459.3125 239.925781 446.835938 239.605469 432.765625 C 239.367188 421.558594 239.84375 409.796875 244.851562 399.542969 C 248.667969 391.992188 255.980469 388.019531 261.382812 386.03125 C 262.179688 385.710938 263.054688 385.472656 263.929688 385.234375 C 264.484375 385.078125 265.039062 384.917969 265.597656 384.679688 C 275.691406 381.339844 285.707031 385.234375 290.714844 387.859375 C 292.382812 388.734375 293.890625 389.6875 295.242188 390.71875 L 295.480469 390.878906 C 296.992188 392.070312 298.34375 393.34375 299.535156 394.695312 C 300.171875 395.410156 300.726562 396.125 301.203125 396.917969 C 301.285156 397.078125 301.441406 397.238281 301.601562 397.398438 C 301.839844 397.792969 302.554688 398.667969 302.554688 398.90625 L 302.636719 399.304688 C 307.644531 409.558594 308.121094 421.320312 307.882812 432.527344 C 307.5625 446.753906 307.324219 459.234375 307.246094 470.679688 C 307.085938 490.628906 307.085938 510.816406 307.085938 530.449219 L 307.085938 547.539062 C 307.085938 562.640625 307.085938 577.742188 307.085938 592.84375 L 307.085938 749.34375 L 312.09375 749.34375 C 312.09375 724.542969 312.09375 606.671875 312.09375 595.625 L 312.09375 536.570312 C 312.09375 517.574219 312.09375 497.941406 312.171875 478.546875 C 312.253906 464.558594 312.410156 451.921875 312.730469 439.839844 L 312.808594 437.21875 C 313.046875 426.488281 313.285156 415.359375 310.1875 404.789062 C 309.390625 402.085938 308.359375 399.464844 307.085938 396.839844 C 302.476562 387.460938 292.859375 382.773438 287.453125 380.863281 C 282.765625 379.195312 278.632812 378.398438 274.976562 378.398438 C 270.605469 378.480469 266.3125 379.117188 262.179688 380.386719 C 252.5625 383.328125 245.011719 388.890625 241.035156 396.125 C 240.878906 396.441406 240.71875 396.761719 240.558594 397.078125 C 239.289062 399.703125 238.253906 402.324219 237.460938 405.027344 C 234.359375 415.597656 234.597656 426.726562 234.835938 437.457031 Z M 254.070312 466.625 C 254.308594 474.8125 254.628906 483.238281 254.628906 491.503906 C 254.707031 509.070312 254.628906 526.871094 254.628906 544.121094 C 254.628906 552.464844 254.628906 560.730469 254.628906 569.078125 L 254.628906 749.421875 L 259.636719 749.421875 L 259.636719 569.078125 C 259.636719 554.929688 259.636719 540.703125 259.636719 526.554688 C 259.636719 522.820312 259.636719 519.082031 259.636719 515.347656 C 259.636719 506.605469 259.714844 497.542969 259.636719 488.722656 C 259.554688 481.328125 259.316406 473.859375 259.078125 466.625 C 258.921875 461.539062 258.761719 456.371094 258.683594 451.285156 C 258.523438 443.972656 258.523438 438.089844 258.683594 432.605469 C 258.683594 431.175781 258.761719 429.667969 258.761719 428.15625 C 258.761719 424.738281 258.839844 421.242188 259.078125 417.824219 C 259.554688 412.578125 261.304688 408.84375 264.40625 406.457031 C 267.425781 404.074219 270.207031 402.878906 272.75 402.722656 C 276.804688 402.402344 281.015625 404.074219 284.273438 407.332031 C 286.582031 409.636719 288.011719 413.054688 288.488281 417.425781 L 288.488281 417.742188 C 288.804688 421.082031 288.804688 424.578125 288.804688 427.917969 C 288.804688 429.425781 288.804688 430.9375 288.886719 432.449219 C 289.042969 437.933594 288.964844 443.894531 288.804688 451.125 C 288.726562 456.214844 288.566406 461.378906 288.40625 466.464844 C 288.167969 473.699219 287.929688 481.171875 287.851562 488.5625 C 287.773438 497.144531 287.773438 505.890625 287.851562 514.3125 C 287.851562 518.367188 287.851562 522.34375 287.851562 526.394531 L 287.851562 597.851562 C 287.851562 607.625 287.851562 739.488281 287.851562 749.261719 L 287.851562 749.421875 L 292.859375 749.421875 L 292.859375 568.917969 C 292.859375 560.652344 292.859375 552.386719 292.859375 544.199219 C 292.859375 526.632812 292.78125 508.988281 292.859375 491.421875 C 292.859375 483.15625 293.175781 474.8125 293.414062 466.625 C 293.574219 462.09375 293.734375 457.5625 293.8125 453.035156 C 293.972656 445.640625 294.050781 439.523438 293.890625 433.800781 C 293.890625 432.605469 293.8125 431.414062 293.8125 430.222656 C 293.734375 428.554688 293.734375 426.882812 293.734375 425.214844 L 293.734375 424.261719 C 293.734375 422.273438 293.734375 420.289062 293.574219 418.222656 C 293.257812 413.132812 291.984375 409.082031 289.839844 405.980469 C 285.230469 399.464844 276.167969 396.285156 268.777344 398.589844 C 264.324219 399.941406 260.429688 402.640625 257.964844 405.980469 C 255.742188 409 254.46875 412.976562 254.070312 418.0625 L 254.070312 418.460938 C 253.914062 420.527344 253.914062 422.59375 253.914062 424.578125 L 253.914062 425.453125 C 253.914062 427.121094 253.832031 428.792969 253.832031 430.382812 C 253.832031 431.574219 253.753906 432.765625 253.753906 434.039062 C 253.675781 439.839844 253.675781 445.960938 253.832031 453.273438 C 253.832031 457.644531 253.914062 462.09375 254.070312 466.625 Z M 254.070312 466.625 " fill-opacity="1" fill-rule="nonzero"/></g><g clip-path="url(#cb67b0dde5)"><path fill="#40534c" d="M 459.191406 740.121094 L 440.800781 740.121094 C 438.339844 740.121094 436.34375 738.125 436.34375 735.664062 C 436.34375 733.203125 438.339844 731.207031 440.800781 731.207031 L 459.191406 731.207031 C 461.652344 731.207031 463.648438 733.203125 463.648438 735.664062 C 463.648438 738.125 461.652344 740.121094 459.191406 740.121094 Z M 459.191406 740.121094 " fill-opacity="1" fill-rule="nonzero"/><path fill="#40534c" d="M 459.191406 740.164062 L 440.800781 740.164062 C 438.320312 740.164062 436.300781 738.148438 436.300781 735.664062 C 436.300781 733.179688 438.320312 731.164062 440.800781 731.164062 L 459.191406 731.164062 C 461.675781 731.164062 463.691406 733.179688 463.691406 735.664062 C 463.691406 738.148438 461.675781 740.164062 459.191406 740.164062 Z M 440.800781 731.25 C 438.367188 731.25 436.386719 733.230469 436.386719 735.664062 C 436.386719 738.097656 438.367188 740.078125 440.800781 740.078125 L 459.191406 740.078125 C 461.628906 740.078125 463.605469 738.097656 463.605469 735.664062 C 463.605469 733.230469 461.628906 731.25 459.191406 731.25 Z M 440.800781 731.25 " fill-opacity="1" fill-rule="nonzero"/></g></svg>