<svg xmlns="http://www.w3.org/2000/svg" xmlns:xlink="http://www.w3.org/1999/xlink" width="350" zoomAndPan="magnify" viewBox="0 0 262.5 449.999984" height="600" preserveAspectRatio="xMidYMid meet" version="1.0"><defs><clipPath id="2c7d18b6a2"><path d="M 0 280 L 99 280 L 99 449.570312 L 0 449.570312 Z M 0 280 " clip-rule="nonzero"/></clipPath><clipPath id="57a5aad5ae"><path d="M 158 63 L 262 63 L 262 449.570312 L 158 449.570312 Z M 158 63 " clip-rule="nonzero"/></clipPath><clipPath id="e0c70f6466"><path d="M 65 158 L 252 158 L 252 449.570312 L 65 449.570312 Z M 65 158 " clip-rule="nonzero"/></clipPath></defs><g clip-path="url(#2c7d18b6a2)"><path fill="#677d6a" d="M 0.046875 346.894531 C 0.046875 350.074219 0.046875 353.253906 0.046875 356.480469 L 0.046875 430.097656 C 0.046875 432.328125 0.046875 434.511719 0.046875 436.742188 C 0.046875 439.636719 0.046875 442.578125 0.046875 445.472656 C 0.046875 446.753906 0.046875 447.988281 0.046875 449.269531 L 98.105469 449.269531 C 98.105469 448.511719 98.105469 447.753906 98.105469 446.992188 L 98.105469 445.425781 C 98.105469 442.484375 98.105469 439.492188 98.105469 436.550781 C 98.105469 434.367188 98.105469 432.230469 98.105469 430.050781 L 98.105469 376.273438 C 98.105469 369.675781 98.105469 363.078125 98.105469 356.480469 L 98.105469 346.847656 C 98.105469 344.808594 98.105469 342.71875 98.105469 340.675781 C 98.105469 336.40625 98.152344 332.039062 98.058594 327.71875 C 97.960938 319.699219 96.492188 313.101562 93.597656 307.597656 C 93.121094 306.648438 92.550781 305.699219 91.933594 304.699219 C 90.984375 303.183594 89.941406 301.757812 88.800781 300.382812 C 88.46875 299.953125 88.089844 299.574219 87.757812 299.148438 C 87.617188 299.003906 87.472656 298.863281 87.378906 298.722656 L 87.09375 298.386719 C 86.949219 298.199219 86.808594 298.054688 86.617188 297.867188 C 80.257812 290.984375 72.523438 285.953125 64.3125 283.246094 C 62.984375 282.820312 61.605469 282.441406 60.183594 282.0625 L 59.234375 281.824219 C 59.042969 281.777344 58.851562 281.730469 58.617188 281.683594 C 58.425781 281.632812 58.285156 281.585938 58.09375 281.585938 L 58 281.585938 C 57.953125 281.585938 57.855469 281.539062 57.808594 281.539062 L 57.667969 281.492188 C 51.257812 280.351562 44.804688 280.496094 38.492188 282.015625 L 38.347656 282.0625 C 38.253906 282.0625 38.160156 282.109375 38.066406 282.109375 C 36.640625 282.441406 35.265625 282.820312 33.9375 283.246094 C 25.675781 285.953125 17.988281 291.03125 11.628906 297.867188 C 11.484375 298.007812 11.34375 298.199219 11.199219 298.339844 L 10.867188 298.722656 C 10.726562 298.863281 10.585938 299.003906 10.488281 299.148438 C 10.15625 299.527344 9.777344 299.953125 9.445312 300.382812 C 8.304688 301.757812 7.261719 303.230469 6.3125 304.699219 C 5.695312 305.699219 5.125 306.648438 4.652344 307.597656 C 1.757812 313.101562 0.285156 319.699219 0.191406 327.71875 C 0 332.132812 0 336.546875 0 340.867188 C 0 342.859375 0.046875 344.902344 0.046875 346.894531 Z M 0.046875 346.894531 " fill-opacity="1" fill-rule="nonzero"/></g><g clip-path="url(#57a5aad5ae)"><path fill="#40534c" d="M 158.761719 213.527344 C 158.761719 220.789062 158.761719 228 158.761719 235.261719 L 158.761719 402.472656 C 158.761719 407.503906 158.761719 412.535156 158.761719 417.566406 C 158.761719 424.210938 158.761719 430.808594 158.761719 437.453125 C 158.761719 441.390625 158.761719 445.285156 158.714844 449.222656 L 381.550781 449.222656 C 381.550781 449.175781 381.550781 449.175781 381.550781 449.128906 C 381.550781 446.375 381.550781 443.625 381.503906 440.824219 L 381.503906 437.261719 C 381.503906 430.523438 381.503906 423.832031 381.503906 417.09375 C 381.503906 412.15625 381.503906 407.21875 381.503906 402.285156 L 381.503906 280.066406 C 381.503906 265.070312 381.503906 250.070312 381.503906 235.074219 L 381.503906 213.335938 C 381.503906 208.683594 381.503906 203.984375 381.550781 199.335938 C 381.597656 189.652344 381.597656 179.683594 381.503906 169.8125 C 381.265625 151.585938 377.941406 136.636719 371.394531 124.058594 C 370.253906 121.875 369.019531 119.738281 367.597656 117.460938 C 365.460938 114.042969 363.039062 110.722656 360.476562 107.636719 C 359.667969 106.6875 358.910156 105.785156 358.101562 104.882812 C 357.820312 104.550781 357.488281 104.21875 357.203125 103.886719 L 356.539062 103.128906 C 356.203125 102.75 355.824219 102.367188 355.492188 101.941406 C 340.96875 86.421875 323.410156 74.9375 304.707031 68.765625 C 301.671875 67.769531 298.539062 66.867188 295.3125 66.109375 L 293.128906 65.585938 C 292.699219 65.492188 292.226562 65.394531 291.703125 65.300781 C 291.324219 65.207031 290.898438 65.109375 290.515625 65.0625 L 290.28125 65.015625 C 290.136719 64.96875 289.996094 64.96875 289.851562 64.921875 L 289.519531 64.875 C 274.949219 62.214844 260.285156 62.644531 245.902344 66.011719 L 245.617188 66.058594 C 245.429688 66.109375 245.191406 66.15625 245 66.203125 C 241.773438 66.960938 238.640625 67.863281 235.601562 68.859375 C 216.855469 75.03125 199.292969 86.515625 184.867188 102.132812 C 184.535156 102.511719 184.203125 102.84375 183.871094 103.222656 L 183.109375 104.03125 C 182.824219 104.363281 182.492188 104.695312 182.207031 105.027344 C 181.402344 105.929688 180.59375 106.878906 179.835938 107.828125 C 177.222656 110.960938 174.804688 114.28125 172.714844 117.652344 C 171.292969 119.882812 170.011719 122.066406 168.871094 124.203125 C 162.273438 136.777344 159 151.730469 158.761719 169.957031 C 158.621094 179.875 158.667969 189.984375 158.714844 199.714844 C 158.714844 204.367188 158.761719 208.921875 158.761719 213.527344 Z M 158.761719 213.527344 " fill-opacity="1" fill-rule="nonzero"/></g><g clip-path="url(#e0c70f6466)"><path fill="#ddd5c9" d="M 65.972656 268.960938 C 65.925781 261.9375 65.925781 254.675781 66.019531 247.507812 C 66.210938 232.414062 69.058594 219.839844 74.707031 209.015625 C 75.65625 207.164062 76.746094 205.316406 77.980469 203.417969 C 79.785156 200.519531 81.824219 197.722656 84.054688 195.0625 C 84.625 194.351562 85.242188 193.640625 85.953125 192.832031 C 86.191406 192.546875 86.429688 192.261719 86.714844 191.976562 L 87.234375 191.359375 C 87.566406 190.980469 87.851562 190.695312 88.089844 190.410156 C 99.910156 177.644531 114.335938 168.199219 129.855469 163.121094 C 132.371094 162.3125 134.984375 161.554688 137.59375 160.9375 C 137.785156 160.890625 138.019531 160.84375 138.210938 160.796875 L 138.351562 160.746094 C 150.3125 157.949219 162.699219 157.613281 174.804688 159.796875 L 175.042969 159.847656 C 175.277344 159.894531 175.46875 159.941406 175.707031 159.988281 C 176.039062 160.035156 176.371094 160.128906 176.75 160.179688 C 177.082031 160.273438 177.460938 160.320312 177.839844 160.414062 L 177.9375 160.460938 C 178.269531 160.558594 178.648438 160.605469 178.980469 160.699219 L 179.644531 160.84375 C 182.304688 161.460938 184.914062 162.21875 187.476562 163.027344 C 202.996094 168.105469 217.425781 177.550781 229.242188 190.363281 C 229.574219 190.695312 229.8125 191.027344 230.097656 191.3125 L 230.621094 191.882812 C 230.855469 192.167969 231.09375 192.40625 231.332031 192.691406 C 232.089844 193.589844 232.707031 194.257812 233.277344 194.921875 C 235.507812 197.578125 237.550781 200.378906 239.351562 203.320312 C 240.539062 205.21875 241.628906 207.070312 242.628906 208.921875 C 248.277344 219.695312 251.125 232.320312 251.3125 247.414062 C 251.40625 254.582031 251.359375 261.84375 251.359375 268.820312 C 251.359375 272.238281 251.359375 275.605469 251.359375 278.929688 L 251.359375 294.640625 C 251.359375 305.460938 251.359375 316.28125 251.359375 327.101562 C 251.359375 334.414062 251.359375 341.722656 251.359375 349.03125 L 251.359375 449.175781 L 248.65625 449.175781 L 248.65625 349.03125 C 248.65625 341.722656 248.65625 334.414062 248.65625 327.101562 C 248.65625 316.28125 248.65625 305.460938 248.65625 294.640625 L 248.65625 278.976562 C 248.65625 275.605469 248.65625 272.238281 248.65625 268.867188 C 248.703125 261.84375 248.703125 254.628906 248.609375 247.460938 C 248.417969 232.796875 245.664062 220.597656 240.253906 210.15625 C 239.304688 208.398438 238.261719 206.546875 237.121094 204.746094 C 235.367188 201.898438 233.371094 199.191406 231.238281 196.628906 C 230.667969 195.964844 230.097656 195.300781 229.339844 194.445312 C 229.101562 194.160156 228.863281 193.921875 228.625 193.640625 L 228.105469 193.070312 C 227.820312 192.785156 227.582031 192.453125 227.25 192.167969 C 215.714844 179.734375 201.667969 170.523438 186.621094 165.589844 C 184.152344 164.78125 181.589844 164.070312 179.027344 163.453125 L 178.363281 163.3125 C 178.03125 163.214844 177.699219 163.167969 177.367188 163.074219 C 176.941406 162.976562 176.558594 162.882812 176.226562 162.835938 C 175.894531 162.789062 175.5625 162.695312 175.230469 162.644531 C 174.992188 162.597656 174.804688 162.550781 174.613281 162.503906 L 174.375 162.457031 C 169.25 161.507812 164.03125 161.03125 158.855469 161.03125 C 152.210938 161.03125 145.519531 161.792969 139.015625 163.359375 L 138.875 163.40625 C 138.683594 163.453125 138.496094 163.5 138.304688 163.546875 C 135.742188 164.164062 133.179688 164.875 130.757812 165.683594 C 115.664062 170.667969 101.617188 179.828125 90.132812 192.261719 C 89.847656 192.546875 89.609375 192.832031 89.371094 193.117188 L 88.800781 193.78125 C 88.566406 194.066406 88.328125 194.351562 88.089844 194.636719 C 87.378906 195.441406 86.761719 196.15625 86.191406 196.820312 C 84.054688 199.382812 82.0625 202.136719 80.304688 204.886719 C 79.121094 206.738281 78.074219 208.542969 77.125 210.296875 C 71.667969 220.738281 68.914062 232.9375 68.773438 247.605469 C 68.679688 254.769531 68.726562 261.984375 68.726562 269.007812 L 68.726562 269.246094 C 68.726562 272.519531 68.726562 275.84375 68.726562 279.117188 C 68.726562 284.339844 68.726562 289.609375 68.726562 294.828125 L 68.726562 353.96875 C 68.726562 361.703125 68.726562 433.894531 68.726562 449.320312 L 66.019531 449.320312 C 66.019531 433.847656 66.019531 361.703125 66.019531 353.96875 L 66.019531 294.828125 C 66.019531 289.609375 66.019531 284.339844 66.019531 279.117188 C 66.019531 275.84375 66.019531 272.570312 66.019531 269.246094 L 66.019531 268.960938 Z M 93.597656 449.222656 L 93.597656 255.433594 C 93.597656 252.253906 93.597656 248.554688 93.738281 245.039062 C 94.164062 236.546875 95.683594 229.566406 98.292969 223.636719 C 98.4375 223.351562 98.53125 223.113281 98.625 222.875 L 98.863281 222.304688 C 99.007812 221.972656 99.195312 221.6875 99.339844 221.355469 C 100.050781 219.980469 100.808594 218.699219 101.617188 217.417969 C 102.804688 215.566406 104.273438 213.667969 105.839844 211.769531 C 106.980469 210.441406 108.261719 209.015625 109.828125 207.449219 C 110.824219 206.453125 111.867188 205.410156 113.007812 204.367188 L 113.433594 203.984375 C 113.910156 203.558594 114.335938 203.179688 114.765625 202.800781 L 115 202.609375 C 115.523438 202.136719 116.046875 201.707031 116.519531 201.328125 L 116.996094 200.949219 C 117.375 200.617188 117.800781 200.332031 118.179688 200 L 118.703125 199.621094 C 119.226562 199.238281 119.699219 198.859375 120.269531 198.480469 L 120.933594 198.003906 C 121.21875 197.816406 121.550781 197.578125 121.929688 197.339844 L 122.644531 196.867188 C 123.164062 196.535156 123.640625 196.203125 124.207031 195.871094 C 124.589844 195.632812 125.015625 195.394531 125.394531 195.15625 L 126.34375 194.636719 C 136.40625 188.988281 147.609375 185.996094 158.714844 185.996094 C 164.882812 185.996094 171.054688 186.898438 177.035156 188.703125 C 181.96875 190.175781 186.621094 192.121094 190.847656 194.539062 L 191.890625 195.15625 C 192.269531 195.394531 192.695312 195.632812 193.125 195.917969 C 193.644531 196.25 194.167969 196.582031 194.644531 196.914062 L 195.355469 197.386719 C 195.6875 197.625 196.066406 197.863281 196.351562 198.101562 L 197.0625 198.574219 C 197.539062 198.90625 198.011719 199.285156 198.535156 199.621094 L 199.105469 200.046875 C 199.484375 200.332031 199.863281 200.617188 200.195312 200.902344 L 200.71875 201.328125 C 201.242188 201.753906 201.761719 202.183594 202.191406 202.5625 L 202.425781 202.800781 C 202.949219 203.273438 203.421875 203.652344 203.851562 204.035156 L 204.277344 204.414062 C 205.371094 205.457031 206.460938 206.5 207.457031 207.5 C 208.976562 209.0625 210.257812 210.488281 211.445312 211.816406 C 213.058594 213.714844 214.480469 215.613281 215.667969 217.464844 C 216.476562 218.746094 217.28125 220.074219 217.996094 221.453125 C 218.136719 221.6875 218.230469 221.925781 218.328125 222.117188 L 218.515625 222.449219 C 218.707031 222.828125 218.894531 223.207031 219.085938 223.636719 C 221.695312 229.617188 223.167969 236.640625 223.644531 245.089844 C 223.785156 248.648438 223.785156 252.351562 223.785156 255.53125 C 223.785156 261.605469 223.785156 267.679688 223.785156 273.753906 L 223.785156 325.726562 C 223.785156 333.082031 223.785156 340.441406 223.785156 347.84375 L 223.785156 449.414062 L 226.492188 449.414062 L 226.492188 347.84375 C 226.492188 340.488281 226.492188 333.132812 226.492188 325.726562 L 226.492188 273.753906 C 226.492188 267.679688 226.492188 261.605469 226.492188 255.53125 C 226.492188 252.300781 226.492188 248.601562 226.347656 244.992188 C 225.875 236.210938 224.308594 228.902344 221.554688 222.636719 C 221.363281 222.164062 221.128906 221.738281 220.9375 221.355469 L 220.746094 220.976562 C 220.605469 220.738281 220.511719 220.503906 220.367188 220.265625 C 219.609375 218.839844 218.800781 217.417969 217.898438 216.089844 C 216.664062 214.144531 215.148438 212.148438 213.484375 210.15625 C 212.300781 208.78125 210.96875 207.308594 209.402344 205.742188 C 208.359375 204.699219 207.269531 203.605469 206.128906 202.515625 L 205.703125 202.136719 C 205.273438 201.753906 204.800781 201.328125 204.230469 200.851562 L 203.992188 200.664062 C 203.519531 200.285156 203.042969 199.855469 202.472656 199.382812 L 201.953125 198.953125 C 201.574219 198.621094 201.191406 198.335938 200.8125 198.054688 L 200.242188 197.625 C 199.722656 197.246094 199.199219 196.867188 198.675781 196.488281 L 198.011719 196.011719 C 197.679688 195.773438 197.300781 195.539062 196.921875 195.253906 L 196.257812 194.777344 C 195.734375 194.445312 195.210938 194.113281 194.644531 193.78125 C 194.214844 193.496094 193.789062 193.257812 193.363281 193.023438 L 192.269531 192.40625 C 187.808594 189.890625 182.96875 187.847656 177.890625 186.328125 C 171.625 184.480469 165.214844 183.53125 158.808594 183.53125 C 147.226562 183.53125 135.601562 186.664062 125.109375 192.546875 L 124.160156 193.117188 C 123.734375 193.355469 123.308594 193.640625 122.878906 193.925781 C 122.359375 194.207031 121.835938 194.589844 121.3125 194.921875 L 120.507812 195.441406 C 120.175781 195.679688 119.890625 195.871094 119.558594 196.105469 L 118.894531 196.582031 C 118.371094 196.960938 117.847656 197.339844 117.28125 197.769531 L 116.757812 198.148438 C 116.332031 198.480469 115.949219 198.765625 115.523438 199.097656 L 115.046875 199.476562 C 114.527344 199.902344 114.003906 200.332031 113.433594 200.804688 L 113.199219 200.996094 C 112.722656 201.421875 112.25 201.800781 111.773438 202.277344 L 111.347656 202.65625 C 110.207031 203.75 109.070312 204.792969 108.070312 205.835938 C 106.457031 207.449219 105.128906 208.921875 103.988281 210.296875 C 102.328125 212.292969 100.808594 214.285156 99.527344 216.230469 C 98.675781 217.558594 97.867188 218.9375 97.109375 220.40625 C 96.917969 220.738281 96.777344 221.074219 96.585938 221.40625 L 96.300781 221.972656 C 96.160156 222.257812 96.0625 222.496094 95.921875 222.828125 C 93.167969 229.09375 91.648438 236.402344 91.175781 245.183594 C 91.03125 248.789062 91.03125 252.492188 91.03125 255.71875 L 91.03125 449.507812 L 93.597656 449.507812 Z M 78.3125 279.785156 C 78.3125 285.003906 78.3125 290.226562 78.3125 295.492188 L 78.3125 354.632812 C 78.3125 362.128906 78.3125 433.941406 78.3125 449.269531 L 81.304688 449.269531 L 81.304688 256.195312 C 81.304688 252.871094 81.304688 248.980469 81.492188 245.230469 C 82.015625 235.214844 83.820312 226.816406 87.046875 219.457031 C 87.285156 218.9375 87.519531 218.414062 87.757812 217.890625 L 87.804688 217.796875 C 87.996094 217.371094 88.234375 216.941406 88.46875 216.46875 C 89.371094 214.761719 90.320312 213.097656 91.363281 211.484375 C 92.835938 209.207031 94.59375 206.882812 96.539062 204.601562 C 97.867188 203.085938 99.339844 201.46875 101.046875 199.667969 C 102.1875 198.480469 103.421875 197.292969 104.796875 196.011719 L 105.128906 195.726562 C 105.699219 195.207031 106.222656 194.730469 106.789062 194.257812 L 106.980469 194.113281 C 107.597656 193.589844 108.214844 193.070312 108.832031 192.59375 L 109.351562 192.167969 C 109.78125 191.789062 110.253906 191.457031 110.730469 191.125 L 110.871094 190.980469 C 111.015625 190.839844 111.203125 190.742188 111.347656 190.601562 C 111.917969 190.175781 112.484375 189.746094 113.101562 189.320312 L 113.863281 188.796875 C 114.242188 188.511719 114.667969 188.226562 115.046875 187.992188 L 115.855469 187.421875 C 116.472656 187.042969 117.089844 186.613281 117.707031 186.234375 C 118.179688 185.949219 118.65625 185.664062 119.128906 185.378906 L 120.269531 184.714844 C 138.96875 174.179688 160.375 171.664062 180.546875 177.644531 C 186.382812 179.398438 191.9375 181.726562 197.015625 184.621094 C 197.160156 184.714844 197.253906 184.761719 197.347656 184.8125 L 198.15625 185.285156 C 198.628906 185.570312 199.105469 185.855469 199.625 186.1875 C 200.242188 186.566406 200.859375 186.945312 201.476562 187.375 L 202.285156 187.945312 C 202.664062 188.226562 203.089844 188.511719 203.472656 188.75 L 204.230469 189.273438 C 204.800781 189.699219 205.417969 190.125 205.988281 190.554688 L 206.605469 191.027344 C 207.078125 191.359375 207.503906 191.742188 207.980469 192.121094 L 208.503906 192.546875 C 209.121094 193.070312 209.734375 193.542969 210.402344 194.160156 L 210.496094 194.257812 C 211.066406 194.730469 211.632812 195.253906 212.25 195.824219 L 212.582031 196.105469 C 213.867188 197.292969 215.097656 198.527344 216.285156 199.667969 C 217.996094 201.421875 219.464844 203.035156 220.792969 204.601562 C 222.742188 206.929688 224.496094 209.207031 225.96875 211.484375 C 227.011719 213.097656 227.960938 214.761719 228.863281 216.46875 C 229.054688 216.894531 229.289062 217.273438 229.480469 217.703125 L 229.527344 217.796875 C 229.765625 218.320312 230.050781 218.890625 230.289062 219.410156 C 233.515625 226.769531 235.316406 235.167969 235.839844 245.183594 C 235.984375 248.980469 235.984375 252.871094 235.984375 256.148438 C 235.984375 262.222656 235.984375 268.296875 235.984375 274.371094 L 235.984375 449.269531 L 238.972656 449.269531 L 238.972656 349.835938 C 238.972656 342.527344 238.972656 335.21875 238.972656 327.910156 C 238.972656 317.089844 238.972656 306.265625 238.972656 295.445312 L 238.972656 279.734375 C 238.972656 276.367188 238.972656 272.996094 238.972656 269.625 C 239.019531 262.648438 239.019531 255.433594 238.925781 248.363281 C 238.734375 235.214844 236.363281 224.394531 231.617188 215.375 C 230.808594 213.808594 229.90625 212.246094 228.863281 210.628906 C 227.296875 208.164062 225.589844 205.789062 223.738281 203.558594 C 223.167969 202.894531 222.597656 202.230469 222.027344 201.566406 C 221.792969 201.328125 221.601562 201.089844 221.363281 200.851562 L 220.890625 200.285156 C 220.652344 200 220.367188 199.714844 220.128906 199.429688 C 209.6875 188.179688 197.0625 179.875 183.535156 175.414062 C 181.355469 174.703125 179.074219 174.035156 176.75 173.515625 L 175.183594 173.136719 C 174.851562 173.085938 174.519531 172.992188 174.1875 172.945312 C 173.902344 172.898438 173.617188 172.804688 173.332031 172.753906 L 173.238281 172.660156 C 173.144531 172.660156 173.046875 172.613281 172.953125 172.613281 L 172.714844 172.566406 C 162.226562 170.667969 151.640625 170.953125 141.246094 173.371094 L 141.058594 173.421875 C 140.914062 173.46875 140.773438 173.46875 140.632812 173.515625 C 138.304688 174.085938 136.027344 174.703125 133.84375 175.414062 C 120.316406 179.875 107.644531 188.179688 97.25 199.429688 C 97.011719 199.714844 96.777344 199.953125 96.539062 200.238281 L 96.015625 200.804688 C 95.777344 201.042969 95.589844 201.28125 95.351562 201.566406 C 94.78125 202.230469 94.210938 202.894531 93.644531 203.558594 C 91.746094 205.835938 90.035156 208.210938 88.515625 210.628906 C 87.472656 212.246094 86.570312 213.8125 85.765625 215.375 C 81.019531 224.441406 78.644531 235.261719 78.457031 248.410156 C 78.359375 255.578125 78.40625 262.839844 78.40625 269.863281 C 78.3125 273.1875 78.3125 276.460938 78.3125 279.785156 Z M 101.09375 266.492188 C 101.140625 268.773438 101.238281 271.050781 101.285156 273.328125 C 101.378906 277.742188 101.332031 282.25 101.332031 286.617188 C 101.332031 288.421875 101.332031 290.226562 101.332031 292.027344 L 101.332031 449.269531 L 104.320312 449.269531 L 104.320312 284.480469 C 104.320312 280.066406 104.320312 275.464844 104.226562 271.003906 C 104.179688 269.53125 104.132812 268.058594 104.085938 266.589844 C 103.988281 262.839844 103.847656 258.898438 103.847656 255.101562 C 103.894531 246.179688 104.605469 234.695312 110.113281 224.585938 C 114.527344 216.46875 121.597656 209.492188 130.570312 204.367188 C 148.226562 194.257812 169.25 194.257812 186.765625 204.269531 C 195.6875 209.398438 202.757812 216.375 207.21875 224.488281 C 212.726562 234.550781 213.484375 246.085938 213.484375 255.007812 C 213.484375 258.804688 213.390625 262.695312 213.25 266.445312 C 213.199219 267.917969 213.152344 269.4375 213.105469 270.90625 C 213.011719 275.464844 213.011719 280.066406 213.011719 284.480469 L 213.011719 288.230469 C 213.011719 302.28125 213.011719 316.328125 213.011719 330.378906 L 213.011719 449.269531 L 216 449.269531 C 216 448.84375 216 448.417969 216 447.988281 L 216 348.320312 C 216 342.339844 216 336.359375 216 330.425781 L 216 291.980469 C 216 290.175781 216 288.375 216 286.570312 C 216 282.203125 215.953125 277.695312 216.046875 273.28125 C 216.097656 271.003906 216.144531 268.675781 216.238281 266.398438 C 216.332031 263.359375 216.429688 260.277344 216.476562 257.191406 C 216.570312 247.367188 215.953125 235.878906 211.019531 225.390625 C 206.9375 216.753906 200.007812 209.113281 190.941406 203.320312 C 181.542969 197.292969 170.769531 193.828125 160.660156 193.449219 C 150.835938 193.117188 139.632812 196.011719 129.855469 201.375 C 128.671875 201.992188 127.53125 202.703125 126.441406 203.417969 C 117.375 209.207031 110.445312 216.847656 106.363281 225.484375 C 101.378906 236.070312 100.808594 248.03125 100.90625 257.285156 C 100.90625 260.277344 101 263.457031 101.09375 266.492188 Z M 115.761719 449.222656 L 115.761719 345.140625 C 115.761719 338.160156 115.761719 331.234375 115.761719 324.304688 L 115.761719 253.917969 C 115.761719 245.46875 116.046875 237.875 119.699219 230.898438 C 123.875 222.921875 130.804688 217.609375 135.835938 214.523438 C 140.25 211.863281 145.28125 209.917969 151.121094 208.636719 C 154.253906 207.972656 156.816406 207.640625 159.1875 207.59375 C 161.847656 207.59375 164.457031 208.113281 167.351562 208.78125 C 172.476562 209.964844 177.175781 211.816406 181.402344 214.378906 C 186.480469 217.464844 193.363281 222.78125 197.539062 230.753906 C 201.191406 237.730469 201.476562 245.609375 201.476562 253.773438 C 201.476562 259.515625 201.476562 265.257812 201.476562 270.957031 L 201.476562 449.175781 L 204.46875 449.175781 L 204.46875 347.84375 C 204.46875 341.578125 204.46875 335.363281 204.46875 329.097656 L 204.46875 302.328125 C 204.46875 293.308594 204.46875 284.292969 204.46875 275.273438 L 204.46875 254.4375 C 204.46875 248.980469 204.46875 243.285156 203.234375 237.828125 C 199.4375 221.214844 183.871094 210.0625 170.105469 206.359375 C 164.078125 204.746094 158.144531 204.414062 152.449219 205.316406 C 150.550781 205.597656 148.746094 205.980469 147.085938 206.453125 C 133.320312 210.15625 117.753906 221.308594 113.957031 237.921875 C 112.722656 243.425781 112.722656 249.074219 112.722656 254.535156 L 112.722656 275.417969 C 112.722656 284.433594 112.722656 293.453125 112.722656 302.46875 C 112.722656 311.394531 112.722656 320.316406 112.722656 329.238281 L 112.722656 449.222656 Z M 124.304688 257.382812 L 124.304688 275.84375 C 124.304688 284.054688 124.304688 292.21875 124.304688 300.429688 L 124.304688 325.253906 C 124.304688 331.660156 124.304688 338.066406 124.304688 344.472656 L 124.304688 449.269531 L 127.246094 449.269531 L 127.246094 341.292969 C 127.246094 334.414062 127.246094 327.53125 127.246094 320.648438 L 127.246094 254.058594 C 127.246094 249.738281 127.246094 245.324219 128.339844 241.054688 C 129.90625 235.027344 133.984375 229.519531 139.777344 225.484375 C 144.097656 222.496094 149.222656 220.457031 154.585938 219.554688 C 159.710938 218.699219 165.453125 219.554688 171.195312 221.878906 C 176.085938 223.921875 180.40625 227.003906 183.632812 230.800781 C 186.195312 233.839844 188.046875 237.304688 188.996094 240.910156 C 190.085938 245.136719 190.085938 249.597656 190.085938 253.867188 L 190.085938 255.054688 C 190.085938 260.609375 190.085938 266.160156 190.085938 271.667969 L 190.085938 295.398438 C 190.085938 303.75 190.085938 312.105469 190.085938 320.457031 L 190.085938 449.128906 L 193.03125 449.128906 L 193.03125 344.285156 C 193.03125 337.878906 193.03125 331.46875 193.03125 325.0625 C 193.03125 316.804688 193.03125 308.496094 193.03125 300.238281 L 193.03125 275.652344 C 193.03125 269.53125 193.03125 263.359375 193.03125 257.191406 C 193.03125 256.335938 193.03125 255.53125 193.03125 254.675781 C 193.03125 252.207031 193.078125 249.597656 192.886719 247.082031 C 192.414062 239.960938 190.132812 233.933594 186.050781 229.09375 C 181.636719 223.824219 175.324219 219.789062 168.300781 217.65625 C 163.269531 216.136719 158.570312 215.804688 153.824219 216.609375 C 152.972656 216.753906 152.117188 216.941406 151.308594 217.132812 C 150.882812 217.226562 150.503906 217.324219 150.074219 217.464844 C 149.933594 217.511719 149.792969 217.558594 149.648438 217.609375 C 149.457031 217.703125 149.222656 217.75 149.078125 217.75 L 148.9375 217.75 C 141.914062 219.886719 135.601562 223.96875 131.1875 229.1875 C 127.152344 234.03125 124.824219 240.058594 124.351562 247.175781 C 124.210938 249.691406 124.210938 252.300781 124.210938 254.769531 C 124.304688 255.71875 124.304688 256.527344 124.304688 257.382812 Z M 135.410156 264.546875 C 135.550781 271.808594 135.648438 279.355469 135.742188 287.660156 C 135.835938 298.957031 135.789062 310.394531 135.789062 321.503906 C 135.789062 325.535156 135.789062 329.617188 135.789062 333.652344 L 135.789062 449.222656 L 138.78125 449.222656 L 138.78125 318.511719 C 138.78125 306.835938 138.78125 294.78125 138.683594 282.914062 C 138.636719 275.984375 138.496094 268.535156 138.304688 260.132812 C 138.164062 253.441406 138.449219 246.417969 141.4375 240.292969 C 143.714844 235.785156 148.082031 233.414062 151.308594 232.226562 C 151.785156 232.035156 152.308594 231.894531 152.828125 231.75 C 153.160156 231.65625 153.492188 231.5625 153.824219 231.417969 C 159.851562 229.425781 165.832031 231.75 168.824219 233.316406 C 169.820312 233.839844 170.722656 234.410156 171.527344 235.027344 L 171.671875 235.121094 C 172.574219 235.832031 173.378906 236.59375 174.09375 237.398438 C 174.472656 237.828125 174.804688 238.253906 175.089844 238.726562 C 175.136719 238.824219 175.230469 238.917969 175.324219 239.011719 C 175.46875 239.25 175.894531 239.773438 175.894531 239.914062 L 175.941406 240.152344 C 178.933594 246.273438 179.21875 253.300781 179.074219 259.992188 C 178.886719 268.488281 178.742188 275.9375 178.695312 282.773438 C 178.601562 294.6875 178.601562 306.742188 178.601562 318.464844 L 178.601562 328.667969 C 178.601562 337.6875 178.601562 346.707031 178.601562 355.722656 L 178.601562 449.175781 L 181.589844 449.175781 C 181.589844 434.367188 181.589844 363.980469 181.589844 357.382812 L 181.589844 322.121094 C 181.589844 310.777344 181.589844 299.054688 181.636719 287.472656 C 181.6875 279.117188 181.78125 271.570312 181.96875 264.359375 L 182.019531 262.792969 C 182.160156 256.382812 182.304688 249.738281 180.453125 243.425781 C 179.976562 241.8125 179.359375 240.246094 178.601562 238.679688 C 175.847656 233.082031 170.105469 230.28125 166.878906 229.140625 C 164.078125 228.144531 161.609375 227.667969 159.425781 227.667969 C 156.816406 227.71875 154.253906 228.097656 151.785156 228.855469 C 146.042969 230.613281 141.53125 233.933594 139.160156 238.253906 C 139.066406 238.445312 138.96875 238.632812 138.875 238.824219 C 138.117188 240.390625 137.5 241.957031 137.023438 243.570312 C 135.171875 249.882812 135.316406 256.527344 135.457031 262.933594 Z M 146.945312 280.351562 C 147.085938 285.242188 147.277344 290.273438 147.277344 295.207031 C 147.324219 305.699219 147.277344 316.328125 147.277344 326.628906 C 147.277344 331.613281 147.277344 336.546875 147.277344 341.53125 L 147.277344 449.222656 L 150.265625 449.222656 L 150.265625 341.53125 C 150.265625 333.082031 150.265625 324.585938 150.265625 316.140625 C 150.265625 313.910156 150.265625 311.679688 150.265625 309.445312 C 150.265625 304.226562 150.3125 298.816406 150.265625 293.546875 C 150.21875 289.132812 150.074219 284.671875 149.933594 280.351562 C 149.839844 277.316406 149.742188 274.230469 149.695312 271.191406 C 149.601562 266.824219 149.601562 263.3125 149.695312 260.039062 C 149.695312 259.183594 149.742188 258.28125 149.742188 257.382812 C 149.742188 255.339844 149.792969 253.25 149.933594 251.210938 C 150.21875 248.078125 151.261719 245.847656 153.113281 244.421875 C 154.917969 243 156.578125 242.289062 158.097656 242.191406 C 160.519531 242.003906 163.03125 243 164.980469 244.945312 C 166.355469 246.324219 167.210938 248.363281 167.496094 250.972656 L 167.496094 251.164062 C 167.683594 253.15625 167.683594 255.246094 167.683594 257.238281 C 167.683594 258.140625 167.683594 259.042969 167.730469 259.945312 C 167.828125 263.21875 167.78125 266.777344 167.683594 271.097656 C 167.636719 274.136719 167.542969 277.21875 167.445312 280.257812 C 167.304688 284.578125 167.164062 289.039062 167.113281 293.453125 C 167.066406 298.578125 167.066406 303.800781 167.113281 308.832031 C 167.113281 311.25 167.113281 313.625 167.113281 316.042969 L 167.113281 358.714844 C 167.113281 364.550781 167.113281 443.292969 167.113281 449.128906 L 167.113281 449.222656 L 170.105469 449.222656 L 170.105469 341.4375 C 170.105469 336.5 170.105469 331.566406 170.105469 326.675781 C 170.105469 316.1875 170.058594 305.648438 170.105469 295.160156 C 170.105469 290.226562 170.292969 285.242188 170.4375 280.351562 C 170.53125 277.648438 170.628906 274.941406 170.675781 272.238281 C 170.769531 267.824219 170.816406 264.167969 170.722656 260.75 C 170.722656 260.039062 170.675781 259.328125 170.675781 258.613281 C 170.628906 257.617188 170.628906 256.621094 170.628906 255.625 L 170.628906 255.054688 C 170.628906 253.867188 170.628906 252.683594 170.53125 251.449219 C 170.34375 248.410156 169.582031 245.988281 168.300781 244.140625 C 165.546875 240.246094 160.136719 238.347656 155.722656 239.726562 C 153.066406 240.53125 150.742188 242.144531 149.269531 244.140625 C 147.941406 245.941406 147.179688 248.316406 146.945312 251.351562 L 146.945312 251.589844 C 146.847656 252.824219 146.847656 254.058594 146.847656 255.246094 L 146.847656 255.765625 C 146.847656 256.765625 146.800781 257.761719 146.800781 258.710938 C 146.800781 259.421875 146.753906 260.132812 146.753906 260.894531 C 146.707031 264.359375 146.707031 268.011719 146.800781 272.378906 C 146.800781 274.988281 146.847656 277.648438 146.945312 280.351562 Z M 146.945312 280.351562 " fill-opacity="1" fill-rule="nonzero"/></g></svg>