<svg xmlns="http://www.w3.org/2000/svg" xmlns:xlink="http://www.w3.org/1999/xlink" width="750" zoomAndPan="magnify" viewBox="0 0 562.5 97.5" height="130" preserveAspectRatio="xMidYMid meet" version="1.0"><defs><clipPath id="a12730f61b"><path d="M 78.234375 12.195312 L 446 12.195312 L 446 86.066406 L 78.234375 86.066406 Z M 78.234375 12.195312 " clip-rule="nonzero"/></clipPath></defs><g clip-path="url(#a12730f61b)"><path fill="#ddd5c9" d="M 183.878906 25.683594 C 182.296875 26.835938 180.78125 27.953125 179.234375 29.023438 C 175.789062 31.410156 172.367188 33.835938 168.859375 36.128906 C 165.695312 38.195312 162.484375 40.195312 159.195312 42.054688 C 155.644531 44.066406 152.054688 46.046875 148.347656 47.738281 C 143.4375 49.972656 138.429688 52.019531 133.390625 53.953125 C 129.621094 55.398438 125.761719 56.640625 121.878906 57.769531 C 118.738281 58.683594 115.519531 59.332031 112.320312 60.035156 C 109.46875 60.664062 106.605469 61.257812 103.730469 61.757812 C 101.886719 62.082031 100 62.132812 98.160156 62.445312 C 93.507812 63.230469 88.820312 63.097656 84.140625 63.058594 C 82.828125 63.046875 81.511719 62.835938 80.210938 62.628906 C 79.402344 62.5 78.238281 61.355469 78.398438 60.257812 C 78.546875 59.261719 79.425781 58.488281 80.628906 58.542969 C 83.058594 58.652344 85.488281 58.914062 87.917969 58.933594 C 89.695312 58.949219 91.476562 58.671875 93.257812 58.53125 C 94.238281 58.457031 95.222656 58.4375 96.195312 58.304688 C 98.613281 57.976562 101.023438 57.617188 103.433594 57.226562 C 105.925781 56.820312 108.449219 56.507812 110.898438 55.90625 C 115.890625 54.671875 120.882812 53.414062 125.792969 51.898438 C 130.445312 50.457031 135.082031 48.894531 139.554688 46.980469 C 144.367188 44.921875 149 42.425781 153.683594 40.070312 C 160.378906 36.703125 166.554688 32.484375 172.6875 28.21875 C 177.207031 25.074219 181.628906 21.789062 186.164062 18.667969 C 188.808594 16.851562 191.507812 15.078125 194.335938 13.570312 C 196.714844 12.296875 199.738281 12.394531 201.28125 14.421875 C 202.347656 15.820312 202.890625 17.464844 203.070312 19.191406 C 203.234375 20.742188 203.398438 22.320312 203.269531 23.859375 C 203.03125 26.824219 202.640625 29.777344 202.207031 32.71875 C 201.773438 35.660156 201.28125 38.59375 200.691406 41.507812 C 200.09375 44.453125 199.382812 47.375 198.65625 50.292969 C 197.417969 55.257812 196.140625 60.214844 194.859375 65.171875 C 194.105469 68.101562 193.3125 71.023438 192.546875 73.949219 C 192.492188 74.152344 192.464844 74.371094 192.496094 74.574219 C 192.523438 74.765625 192.648438 74.9375 192.730469 75.121094 C 192.863281 74.976562 193.011719 74.839844 193.128906 74.683594 C 193.792969 73.804688 194.371094 72.847656 195.117188 72.050781 C 197.375 69.644531 199.625 67.226562 202.019531 64.964844 C 203.269531 63.785156 204.734375 62.777344 206.652344 62.847656 C 208.28125 62.910156 209.792969 64.035156 210.46875 65.582031 C 211.367188 67.640625 211.632812 69.8125 211.996094 71.992188 C 212.359375 74.1875 212.761719 76.417969 213.53125 78.492188 C 214.527344 81.171875 216.4375 82.304688 219.53125 81.394531 C 221.316406 80.871094 222.703125 79.734375 224.125 78.664062 C 224.503906 78.378906 224.839844 77.519531 224.6875 77.121094 C 223.777344 74.753906 223.933594 72.289062 224.148438 69.910156 C 224.429688 66.835938 225.695312 64.046875 228.445312 62.332031 C 231 60.734375 233.410156 62.675781 233.996094 64.867188 C 234.699219 67.5 234.300781 70.15625 233.207031 72.660156 C 232.605469 74.039062 231.917969 75.378906 231.21875 76.707031 C 230.570312 77.949219 231.0625 78.707031 232.699219 78.875 C 234.765625 79.085938 236.652344 78.453125 238.375 77.433594 C 241.550781 75.566406 244.394531 73.269531 247.097656 70.75 C 249.992188 68.058594 252.523438 65.082031 254.9375 61.984375 C 255.890625 60.761719 256.917969 59.578125 257.738281 58.269531 C 258.292969 57.378906 258.679688 56.332031 258.910156 55.300781 C 259.78125 51.429688 260.414062 47.5 261.40625 43.664062 C 262.4375 39.679688 263.679688 35.742188 265.03125 31.855469 C 265.980469 29.125 267.253906 26.5 268.414062 23.84375 C 269.378906 21.632812 270.605469 19.59375 272.375 17.902344 C 273.308594 17.007812 274.425781 16.660156 275.527344 17.074219 C 276.636719 17.496094 277.367188 18.453125 277.558594 19.746094 C 278.09375 23.320312 277.292969 26.75 276.558594 30.199219 C 275.75 34.015625 274.359375 37.660156 272.734375 41.164062 C 270.773438 45.378906 268.449219 49.429688 266.203125 53.503906 C 265.339844 55.074219 264.214844 56.5 263.285156 58.039062 C 263 58.507812 262.867188 59.128906 262.851562 59.6875 C 262.796875 61.378906 262.710938 63.085938 262.855469 64.769531 C 263.109375 67.664062 263.527344 70.5625 265.71875 72.769531 C 267.617188 74.6875 269.082031 74.8125 271.292969 73.699219 C 273.28125 72.699219 275.199219 71.457031 276.90625 70.03125 C 279.128906 68.179688 281.234375 66.152344 283.167969 64 C 285.320312 61.601562 287.226562 58.984375 289.230469 56.457031 C 289.351562 56.308594 289.429688 56.09375 289.445312 55.902344 C 289.535156 54.960938 289.5625 54.011719 289.679688 53.070312 C 289.941406 50.953125 290.273438 48.839844 290.53125 46.71875 C 290.957031 43.246094 291.929688 39.90625 293.167969 36.660156 C 294.128906 34.140625 295.367188 31.726562 296.523438 29.285156 C 297.503906 27.214844 298.628906 25.238281 300.257812 23.574219 C 301.257812 22.550781 302.449219 22.367188 303.710938 22.710938 C 304.804688 23.007812 305.425781 24.3125 305.480469 25.730469 C 305.597656 28.671875 305.003906 31.515625 304.230469 34.308594 C 303.363281 37.4375 302.5625 40.617188 301.296875 43.589844 C 299.765625 47.179688 297.800781 50.585938 295.972656 54.046875 C 295.484375 54.972656 294.800781 55.796875 294.230469 56.679688 C 293.582031 57.695312 293.90625 58.839844 294.046875 59.863281 C 294.3125 61.761719 294.785156 63.644531 295.320312 65.492188 C 295.867188 67.378906 296.933594 68.996094 298.472656 70.238281 C 299.777344 71.289062 301.242188 71.472656 302.878906 71 C 305.445312 70.25 307.515625 68.710938 309.433594 66.980469 C 312.292969 64.402344 315.023438 61.671875 317.851562 59.050781 C 319.164062 57.832031 321.5 57.949219 322.011719 59.65625 C 322.28125 60.566406 322.15625 61.628906 322.046875 62.605469 C 321.855469 64.308594 321.496094 65.992188 321.285156 67.695312 C 321.144531 68.84375 320.957031 70.035156 321.101562 71.167969 C 321.269531 72.484375 321.675781 73.804688 322.175781 75.039062 C 322.480469 75.777344 323.238281 76.027344 324.117188 75.726562 C 325.636719 75.207031 326.589844 74.039062 327.542969 72.875 C 329.566406 70.421875 330.601562 67.511719 331.207031 64.445312 C 331.359375 63.679688 331.351562 62.835938 331.179688 62.078125 C 331.09375 61.699219 330.523438 61.324219 330.09375 61.148438 C 327.804688 60.226562 325.496094 59.371094 323.871094 57.351562 C 321.699219 54.648438 321.433594 52.367188 323.722656 50.195312 C 325.675781 48.34375 328.867188 48.621094 330.910156 50.292969 C 333.054688 52.054688 334 54.492188 334.933594 56.96875 C 335.070312 57.335938 335.511719 57.824219 335.839844 57.84375 C 340.292969 58.117188 344.746094 58.417969 349.207031 58.496094 C 352.171875 58.542969 355.148438 58.304688 358.113281 58.078125 C 360.707031 57.882812 363.304688 57.621094 365.871094 57.210938 C 369.808594 56.582031 373.726562 55.832031 377.644531 55.070312 C 381.140625 54.394531 384.636719 53.703125 388.101562 52.882812 C 391.171875 52.15625 394.21875 51.296875 397.246094 50.402344 C 401.835938 49.046875 406.390625 47.566406 410.984375 46.214844 C 417.335938 44.347656 423.59375 42.226562 429.75 39.785156 C 433.375 38.34375 437.027344 36.976562 440.664062 35.5625 C 441.347656 35.296875 442.050781 35.035156 442.65625 34.632812 C 443.757812 33.898438 444.910156 34.363281 445.507812 35.433594 C 446.082031 36.457031 445.648438 37.890625 444.535156 38.386719 C 441.21875 39.871094 437.925781 41.425781 434.527344 42.699219 C 428.1875 45.085938 421.820312 47.402344 415.394531 49.539062 C 410.246094 51.253906 405.007812 52.699219 399.785156 54.191406 C 395.328125 55.460938 390.855469 56.699219 386.355469 57.8125 C 383.421875 58.539062 380.429688 59.03125 377.464844 59.613281 C 374.824219 60.128906 372.191406 60.671875 369.539062 61.113281 C 367.695312 61.417969 365.828125 61.601562 363.964844 61.769531 C 361.171875 62.019531 358.375 62.210938 355.578125 62.429688 C 354.707031 62.496094 353.835938 62.601562 352.960938 62.636719 C 350.753906 62.726562 348.546875 62.847656 346.339844 62.84375 C 344.0625 62.84375 341.78125 62.75 339.503906 62.628906 C 338.441406 62.574219 337.386719 62.304688 336.324219 62.261719 C 336.078125 62.253906 335.589844 62.78125 335.59375 63.054688 C 335.613281 66.054688 334.753906 68.855469 333.574219 71.539062 C 332.992188 72.855469 332.082031 74.046875 331.214844 75.214844 C 329.867188 77.039062 328.328125 78.738281 326.203125 79.648438 C 322.949219 81.042969 320.15625 80.046875 318.316406 77.085938 C 316.871094 74.75 316.621094 72.097656 316.746094 69.414062 C 316.789062 68.46875 317.058594 67.53125 317.214844 66.585938 C 317.234375 66.46875 317.203125 66.242188 317.144531 66.222656 C 316.964844 66.160156 316.714844 66.097656 316.574219 66.179688 C 316.332031 66.320312 316.152344 66.566406 315.953125 66.773438 C 313.65625 69.160156 311.265625 71.449219 308.429688 73.183594 C 306.59375 74.308594 304.6875 75.199219 302.4375 75.472656 C 298.84375 75.910156 296.273438 74.492188 294.007812 71.894531 C 292.097656 69.707031 291.183594 67.097656 290.324219 64.429688 C 290.300781 64.363281 290.335938 64.28125 290.316406 64.214844 C 290.203125 63.761719 290.085938 63.3125 289.96875 62.859375 C 289.667969 63.167969 289.363281 63.472656 289.070312 63.785156 C 286.902344 66.097656 284.75 68.425781 282.5625 70.71875 C 280.007812 73.398438 277.148438 75.730469 273.867188 77.421875 C 270.667969 79.074219 267.234375 79.402344 264.171875 77.214844 C 261.539062 75.328125 259.800781 72.628906 259.167969 69.371094 C 258.917969 68.078125 258.867188 66.75 258.710938 65.441406 C 258.6875 65.226562 258.589844 65.019531 258.527344 64.808594 C 258.316406 64.90625 258.039062 64.945312 257.898438 65.105469 C 255.566406 67.773438 253.40625 70.621094 250.886719 73.101562 C 247.398438 76.539062 243.703125 79.761719 239.179688 81.882812 C 235.574219 83.574219 232.03125 83.894531 228.496094 81.847656 C 227.78125 81.433594 227.390625 81.609375 226.828125 82.0625 C 224.082031 84.273438 221.179688 86.113281 217.433594 86.03125 C 213.335938 85.945312 211.003906 83.722656 209.589844 80.339844 C 208.425781 77.558594 207.976562 74.605469 207.609375 71.628906 C 207.46875 70.46875 207.050781 69.34375 206.769531 68.195312 C 206.558594 67.328125 206.027344 67.21875 205.453125 67.773438 C 203.691406 69.46875 201.953125 71.195312 200.261719 72.960938 C 199.164062 74.101562 198.152344 75.324219 197.113281 76.523438 C 195.296875 78.617188 193.492188 80.722656 191.679688 82.820312 C 191.023438 83.578125 190.183594 83.855469 189.253906 83.527344 C 188.101562 83.125 187.355469 82.3125 187.292969 81.035156 C 187.144531 77.960938 187.980469 75.015625 188.621094 72.058594 C 189.363281 68.636719 190.316406 65.261719 191.1875 61.871094 C 192.230469 57.796875 193.320312 53.730469 194.320312 49.644531 C 195.0625 46.621094 195.710938 43.578125 196.375 40.535156 C 196.902344 38.117188 197.441406 35.699219 197.875 33.261719 C 198.183594 31.527344 198.371094 29.769531 198.53125 28.011719 C 198.722656 25.949219 198.9375 23.878906 198.9375 21.808594 C 198.9375 20.597656 198.621094 19.371094 198.296875 18.1875 C 198.105469 17.476562 197.664062 16.824219 196.691406 17.398438 C 194.664062 18.59375 192.5625 19.675781 190.59375 20.953125 C 188.316406 22.429688 186.148438 24.066406 183.878906 25.683594 M 267.375 39.160156 C 266.65625 41.273438 265.925781 43.386719 265.226562 45.511719 C 265.160156 45.703125 265.300781 45.964844 265.34375 46.195312 C 265.589844 46.007812 265.949219 45.875 266.058594 45.628906 C 267.160156 43.203125 268.398438 40.820312 269.257812 38.308594 C 270.769531 33.878906 272.042969 29.371094 273.40625 24.890625 C 273.453125 24.730469 273.335938 24.519531 273.296875 24.332031 C 273.105469 24.390625 272.839844 24.390625 272.734375 24.519531 C 272.53125 24.773438 272.390625 25.09375 272.265625 25.402344 C 271.621094 26.972656 270.929688 28.527344 270.363281 30.125 C 269.328125 33.050781 268.367188 36.003906 267.375 39.160156 M 295.296875 46.734375 C 296.667969 43.046875 298.0625 39.371094 299.398438 35.667969 C 299.839844 34.441406 300.144531 33.164062 300.476562 31.898438 C 300.527344 31.714844 300.375 31.472656 300.316406 31.257812 C 300.160156 31.417969 299.925781 31.546875 299.855469 31.734375 C 298.277344 36.058594 296.6875 40.378906 295.183594 44.726562 C 294.964844 45.355469 295.175781 46.132812 295.296875 46.734375 M 228.847656 68.8125 C 228.632812 69.871094 228.394531 70.921875 228.210938 71.984375 C 228.164062 72.246094 228.28125 72.539062 228.320312 72.816406 C 228.496094 72.605469 228.765625 72.421875 228.832031 72.183594 C 229.257812 70.671875 229.648438 69.148438 230.019531 67.625 C 230.070312 67.425781 229.960938 67.191406 229.925781 66.972656 C 229.710938 67.109375 229.410156 67.195312 229.296875 67.390625 C 229.089844 67.757812 228.992188 68.191406 228.847656 68.8125 M 328.308594 55.5 C 328.632812 55.757812 328.945312 56.039062 329.296875 56.253906 C 329.445312 56.34375 329.679688 56.296875 329.875 56.316406 C 329.859375 56.121094 329.925781 55.851562 329.820312 55.742188 C 329.113281 54.988281 328.382812 54.253906 327.628906 53.550781 C 327.519531 53.449219 327.125 53.449219 327.066406 53.535156 C 326.960938 53.699219 326.90625 54.042969 327.007812 54.167969 C 327.363281 54.609375 327.796875 54.988281 328.308594 55.5 Z M 328.308594 55.5 " fill-opacity="1" fill-rule="nonzero"/></g><path stroke-linecap="butt" transform="matrix(0.682622, -0.301334, 0.301334, 0.682622, 149.168143, 42.413105)" fill="none" stroke-linejoin="miter" d="M -0.00193562 1.001972 L 8.810991 1.001072 " stroke="#ddd5c9" stroke-width="2" stroke-opacity="1" stroke-miterlimit="4"/></svg>