<svg xmlns="http://www.w3.org/2000/svg" xmlns:xlink="http://www.w3.org/1999/xlink" width="350" zoomAndPan="magnify" viewBox="0 0 262.5 449.999984" height="600" preserveAspectRatio="xMidYMid meet" version="1.0"><defs><clipPath id="6ce7f9438d"><path d="M 0 8 L 145.132812 8 L 145.132812 72.222656 L 0 72.222656 Z M 0 8 " clip-rule="nonzero"/></clipPath><clipPath id="48be792a26"><path d="M 113.277344 8.035156 L -282.304688 8.035156 L -282.304688 72.183594 L 113.277344 72.183594 C 130.984375 72.183594 145.351562 57.816406 145.351562 40.109375 C 145.351562 22.40625 130.984375 8.035156 113.277344 8.035156 Z M 113.277344 8.035156 " clip-rule="nonzero"/></clipPath><clipPath id="38fdad9c37"><path d="M 0 92.273438 L 202 92.273438 L 202 156.648438 L 0 156.648438 Z M 0 92.273438 " clip-rule="nonzero"/></clipPath><clipPath id="0263fe0a91"><path d="M 169.851562 92.464844 L -225.183594 92.464844 L -225.183594 156.527344 L 169.851562 156.527344 C 187.53125 156.527344 201.878906 142.175781 201.878906 124.496094 C 201.878906 106.816406 187.53125 92.464844 169.851562 92.464844 Z M 169.851562 92.464844 " clip-rule="nonzero"/></clipPath><clipPath id="90648de491"><path d="M 0 177 L 178.117188 177 L 178.117188 241.308594 L 0 241.308594 Z M 0 177 " clip-rule="nonzero"/></clipPath><clipPath id="52a70c9e1c"><path d="M 146.035156 177.125 L -249.320312 177.125 L -249.320312 241.234375 L 146.035156 241.234375 C 163.730469 241.234375 178.09375 226.875 178.09375 209.179688 C 178.09375 191.484375 163.730469 177.125 146.035156 177.125 Z M 146.035156 177.125 " clip-rule="nonzero"/></clipPath><clipPath id="54f6cf1dfb"><path d="M 0 261.644531 L 213.898438 261.644531 L 213.898438 326 L 0 326 Z M 0 261.644531 " clip-rule="nonzero"/></clipPath><clipPath id="9fb05cfeab"><path d="M 181.496094 261.839844 L -213.535156 261.839844 L -213.535156 325.898438 L 181.496094 325.898438 C 199.175781 325.898438 213.523438 311.550781 213.523438 293.871094 C 213.523438 276.1875 199.175781 261.839844 181.496094 261.839844 Z M 181.496094 261.839844 " clip-rule="nonzero"/></clipPath><clipPath id="e391970ea7"><path d="M 0 346.304688 L 101.753906 346.304688 L 101.753906 410.683594 L 0 410.683594 Z M 0 346.304688 " clip-rule="nonzero"/></clipPath><clipPath id="8785043783"><path d="M 69.902344 346.496094 L -325.683594 346.496094 L -325.683594 410.644531 L 69.902344 410.644531 C 87.605469 410.644531 101.976562 396.277344 101.976562 378.570312 C 101.976562 360.867188 87.605469 346.496094 69.902344 346.496094 Z M 69.902344 346.496094 " clip-rule="nonzero"/></clipPath></defs><g clip-path="url(#6ce7f9438d)"><g clip-path="url(#48be792a26)"><path fill="#40534c" d="M 0 8.035156 L 0 72.183594 L 145.132812 72.183594 L 145.132812 8.035156 Z M 0 8.035156 " fill-opacity="1" fill-rule="nonzero"/></g></g><g clip-path="url(#38fdad9c37)"><g clip-path="url(#0263fe0a91)"><path fill="#677d6a" d="M 0 92.464844 L 0 156.527344 L 201.878906 156.527344 L 201.878906 92.464844 Z M 0 92.464844 " fill-opacity="1" fill-rule="nonzero"/></g></g><g clip-path="url(#90648de491)"><g clip-path="url(#52a70c9e1c)"><path fill="#ddd5c9" d="M 0 177.125 L 0 241.234375 L 178.09375 241.234375 L 178.09375 177.125 Z M 0 177.125 " fill-opacity="1" fill-rule="nonzero"/></g></g><g clip-path="url(#54f6cf1dfb)"><g clip-path="url(#9fb05cfeab)"><path fill="#40534c" d="M 0 261.839844 L 0 325.898438 L 213.523438 325.898438 L 213.523438 261.839844 Z M 0 261.839844 " fill-opacity="1" fill-rule="nonzero"/></g></g><g clip-path="url(#e391970ea7)"><g clip-path="url(#8785043783)"><path fill="#ddd5c9" d="M 0 346.496094 L 0 410.644531 L 101.753906 410.644531 L 101.753906 346.496094 Z M 0 346.496094 " fill-opacity="1" fill-rule="nonzero"/></g></g></svg>