<svg xmlns="http://www.w3.org/2000/svg" xmlns:xlink="http://www.w3.org/1999/xlink" width="600" zoomAndPan="magnify" viewBox="0 0 450 599.999999" height="800" preserveAspectRatio="xMidYMid meet" version="1.0"><defs><clipPath id="baeac33175"><path d="M 0 16 L 183.378906 16 L 183.378906 105 L 0 105 Z M 0 16 " clip-rule="nonzero"/></clipPath><clipPath id="4dd1661b10"><path d="M 139.101562 16.25 L -406.121094 16.25 L -406.121094 104.667969 L 139.101562 104.667969 C 163.503906 104.667969 183.308594 84.859375 183.308594 60.457031 C 183.308594 36.054688 163.503906 16.25 139.101562 16.25 Z M 139.101562 16.25 " clip-rule="nonzero"/></clipPath><clipPath id="e4a51e0568"><path d="M 0 136 L 292.675781 136 L 292.675781 225 L 0 225 Z M 0 136 " clip-rule="nonzero"/></clipPath><clipPath id="3c12ddf750"><path d="M 248.398438 136.226562 L -296.824219 136.226562 L -296.824219 224.640625 L 248.398438 224.640625 C 272.800781 224.640625 292.605469 204.835938 292.605469 180.433594 C 292.605469 156.03125 272.800781 136.226562 248.398438 136.226562 Z M 248.398438 136.226562 " clip-rule="nonzero"/></clipPath><clipPath id="927bcd06a0"><path d="M 0 264.289062 L 210.101562 264.289062 L 210.101562 353 L 0 353 Z M 0 264.289062 " clip-rule="nonzero"/></clipPath><clipPath id="b4fd2b981f"><path d="M 165.824219 264.554688 L -379.398438 264.554688 L -379.398438 352.96875 L 165.824219 352.96875 C 190.226562 352.96875 210.03125 333.164062 210.03125 308.761719 C 210.03125 284.359375 190.226562 264.554688 165.824219 264.554688 Z M 165.824219 264.554688 " clip-rule="nonzero"/></clipPath><clipPath id="a2d72eb3b3"><path d="M 0 375.363281 L 255.101562 375.363281 L 255.101562 464.613281 L 0 464.613281 Z M 0 375.363281 " clip-rule="nonzero"/></clipPath><clipPath id="8c0d608aa6"><path d="M 210.824219 375.628906 L -334.398438 375.628906 L -334.398438 464.042969 L 210.824219 464.042969 C 235.226562 464.042969 255.03125 444.238281 255.03125 419.835938 C 255.03125 395.433594 235.226562 375.628906 210.824219 375.628906 Z M 210.824219 375.628906 " clip-rule="nonzero"/></clipPath><clipPath id="a4e7fbb8df"><path d="M 0 495.0625 L 128.425781 495.0625 L 128.425781 584 L 0 584 Z M 0 495.0625 " clip-rule="nonzero"/></clipPath><clipPath id="e2525b6072"><path d="M 84.148438 495.328125 L -461.074219 495.328125 L -461.074219 583.742188 L 84.148438 583.742188 C 108.550781 583.742188 128.355469 563.9375 128.355469 539.535156 C 128.355469 515.132812 108.550781 495.328125 84.148438 495.328125 Z M 84.148438 495.328125 " clip-rule="nonzero"/></clipPath></defs><g clip-path="url(#baeac33175)"><g clip-path="url(#4dd1661b10)"><path fill="#40534c" d="M 0 16.25 L 0 104.667969 L 183.308594 104.667969 L 183.308594 16.25 Z M 0 16.25 " fill-opacity="1" fill-rule="nonzero"/></g></g><g clip-path="url(#e4a51e0568)"><g clip-path="url(#3c12ddf750)"><path fill="#677d6a" d="M 0 136.226562 L 0 224.640625 L 292.605469 224.640625 L 292.605469 136.226562 Z M 0 136.226562 " fill-opacity="1" fill-rule="nonzero"/></g></g><g clip-path="url(#927bcd06a0)"><g clip-path="url(#b4fd2b981f)"><path fill="#ddd5c9" d="M 0 264.554688 L 0 352.96875 L 210.03125 352.96875 L 210.03125 264.554688 Z M 0 264.554688 " fill-opacity="1" fill-rule="nonzero"/></g></g><g clip-path="url(#a2d72eb3b3)"><g clip-path="url(#8c0d608aa6)"><path fill="#40534c" d="M 0 375.628906 L 0 464.042969 L 255.03125 464.042969 L 255.03125 375.628906 Z M 0 375.628906 " fill-opacity="1" fill-rule="nonzero"/></g></g><g clip-path="url(#a4e7fbb8df)"><g clip-path="url(#e2525b6072)"><path fill="#ddd5c9" d="M 0 495.328125 L 0 583.742188 L 128.355469 583.742188 L 128.355469 495.328125 Z M 0 495.328125 " fill-opacity="1" fill-rule="nonzero"/></g></g></svg>